mtllib model_3.mtl
o model_3
v -81.91856384277344 532.39306640625 204.71981811523438 
v -226.6429901123047 677.1890258789062 204.71981811523438 
v -122.8759994506836 491.43023681640625 204.71981811523438 
v -238.64505004882812 607.2669677734375 204.71981811523438 
v -368.5506286621094 643.2778930664062 204.71981811523438 
v -286.6357421875 491.43023681640625 204.71981811523438 
v -368.5506286621094 532.39306640625 204.71981811523438 
v -286.6357421875 327.66644287109375 204.71981811523438 
v -368.5506286621094 409.59210205078125 204.71981811523438 
v -327.59320068359375 327.66644287109375 204.71981811523438 
v -300.1599426269531 245.35586547851562 204.71981811523438 
v -368.568115234375 532.3055419921875 194.48199462890625 
v -368.5506286621094 409.5046081542969 194.48199462890625 
v -450.3955078125 532.3055419921875 194.48199462890625 
v -450.3955078125 409.5046081542969 194.48199462890625 
v 53.27070617675781 450.5549011230469 184.2441864013672 
v 53.27070617675781 491.43023681640625 184.2441864013672 
v -0.0036991999950259924 450.5549011230469 184.2441864013672 
v -0.0036991999950259924 491.43023681640625 184.2441864013672 
v 122.88610076904297 696.1568603515625 85.91739654541016 
v 81.99864959716797 696.1568603515625 85.91739654541016 
v 122.88610076904297 655.281494140625 85.91739654541016 
v 81.99864959716797 655.281494140625 85.91739654541016 
v -81.91856384277344 491.43023681640625 204.71981811523438 
v -81.91856384277344 368.6292724609375 204.71981811523438 
v -40.96113204956055 532.39306640625 204.71981811523438 
v -40.96113204956055 368.6292724609375 204.71981811523438 
v -450.3955078125 532.3055419921875 204.71981811523438 
v -450.3955078125 409.5046081542969 204.71981811523438 
v -368.568115234375 532.3055419921875 204.71981811523438 
v -368.5506286621094 409.5046081542969 204.71981811523438 
v 122.88610076904297 532.39306640625 85.91739654541016 
v 122.88610076904297 573.2683715820312 85.91739654541016 
v 81.99864959716797 532.39306640625 85.91739654541016 
v 81.99864959716797 573.2683715820312 85.91739654541016 
v 98.88199615478516 614.231201171875 85.91739654541016 
v 58.01204299926758 614.231201171875 85.91739654541016 
v 98.88199615478516 573.3558959960938 85.91739654541016 
v 58.01204299926758 573.3558959960938 85.91739654541016 
v -43.76044464111328 682.158447265625 286.63983154296875 
v -43.76044464111328 723.0337524414062 286.63983154296875 
v -84.64789581298828 682.158447265625 286.63983154296875 
v -84.64789581298828 723.0337524414062 286.63983154296875 
v -423.8370361328125 516.9423217773438 106.48053741455078 
v -423.8370361328125 449.4350280761719 106.48053741455078 
v -368.568115234375 516.9423217773438 106.48053741455078 
v -368.5506286621094 449.4350280761719 106.48053741455078 
v -28.626665115356445 215.11932373046875 204.71981811523438 
v -28.626665115356445 276.4673156738281 204.71981811523438 
v -81.91856384277344 215.11932373046875 204.71981811523438 
v -81.91856384277344 276.4673156738281 204.71981811523438 
v 61.2137565612793 491.43023681640625 85.91739654541016 
v 102.08370971679688 491.43023681640625 85.91739654541016 
v 61.2137565612793 532.3055419921875 85.91739654541016 
v 102.08370971679688 532.3055419921875 85.91739654541016 
v 122.88610076904297 614.3186645507812 85.91739654541016 
v 122.88610076904297 655.1940307617188 85.91739654541016 
v 81.99864959716797 614.3186645507812 85.91739654541016 
v 81.99864959716797 655.1940307617188 85.91739654541016 
v -71.68357849121094 368.6292724609375 204.71981811523438 
v -122.8759994506836 317.43011474609375 204.71981811523438 
v -122.8759994506836 327.66644287109375 204.71981811523438 
v -163.83343505859375 327.66644287109375 204.71981811523438 
v -149.1195526123047 245.35586547851562 204.71981811523438 
v -163.83343505859375 245.35586547851562 204.71981811523438 
v 122.86859893798828 696.226806640625 85.91739654541016 
v 122.86859893798828 778.1524658203125 85.91739654541016 
v 53.27070617675781 696.226806640625 85.91739654541016 
v -8.156695365905762 778.1524658203125 85.91739654541016 
v -8.156695365905762 696.226806640625 85.91739654541016 
v -368.5506286621094 453.26708984375 96.24272155761719 
v -420.0054626464844 453.26708984375 96.24272155761719 
v -368.568115234375 513.1102294921875 96.24272155761719 
v -420.0054626464844 513.1102294921875 96.24272155761719 
v -368.568115234375 517.02978515625 143.28416442871094 
v -399.2030944824219 475.99700927734375 143.28416442871094 
v -368.5506286621094 424.955322265625 143.28416442871094 
v -399.2030944824219 465.7431640625 143.28416442871094 
v -440.1605224609375 424.955322265625 143.28416442871094 
v -409.4380798339844 465.7431640625 143.28416442871094 
v -440.1605224609375 517.02978515625 143.28416442871094 
v -409.4380798339844 475.99700927734375 143.28416442871094 
v 53.27070617675781 532.39306640625 184.2441864013672 
v 53.27070617675781 532.39306640625 184.2441864013672 
v -40.96113204956055 532.39306640625 204.71981811523438 
v -0.0036991999950259924 491.43023681640625 184.2441864013672 
v -0.0036991999950259924 491.43023681640625 184.2441864013672 
v -40.96113204956055 532.39306640625 204.71981811523438 
v -40.96113204956055 491.43023681640625 204.71981811523438 
v -0.0036991999950259924 450.5549011230469 184.2441864013672 
v -40.96113204956055 450.5549011230469 204.71981811523438 
v -40.96113204956055 368.6292724609375 204.71981811523438 
v -286.6357421875 245.35586547851562 204.71981811523438 
v -286.6357421875 245.26837158203125 204.71981811523438 
v -300.07244873046875 245.26837158203125 204.71981811523438 
v -286.6357421875 204.79550170898438 204.71981811523438 
v -163.83343505859375 204.79550170898438 204.71981811523438 
v -149.1195526123047 245.26837158203125 204.71981811523438 
v -163.83343505859375 245.26837158203125 204.71981811523438 
vn 0 0 1 
vn 0 0 1 
vn 0 0 1 
vn 0 0 1 
vn 0 0 1 
vn 0 0 1 
vn 0 0 1 
vn 0 0 1 
vn 0 0 1 
vn 0 0 1 
vn 0 0 1 
vn -2.0682311115474694e-13 0 -1 
vn -2.0682311115474694e-13 0 -1 
vn -2.0682311115474694e-13 0 -1 
vn -2.0682311115474694e-13 0 -1 
vn 0 0 1 
vn 0 0 1 
vn 0 0 1 
vn 0 0 1 
vn 0 0 1 
vn 0 0 1 
vn 0 0 1 
vn 0 0 1 
vn 0 0 1 
vn 0 0 1 
vn 0 0 1 
vn 0 0 1 
vn 0 0 1 
vn 0 0 1 
vn 0 0 1 
vn 0 0 1 
vn 0 0 1 
vn 0 0 1 
vn 0 0 1 
vn 0 0 1 
vn 0 0 1 
vn 0 0 1 
vn 0 0 1 
vn 0 0 1 
vn 0 0 1 
vn 0 0 1 
vn 0 0 1 
vn 0 0 1 
vn 0 0 1 
vn 0 0 1 
vn 0 0 1 
vn 0 0 1 
vn 0 0 1 
vn 0 0 1 
vn 0 0 1 
vn 0 0 1 
vn 0 0 1 
vn 0 0 1 
vn 0 0 1 
vn 0 0 1 
vn 0 0 1 
vn 0 0 1 
vn 0 0 1 
vn 0 0 1 
vn 0 0 1 
vn 0 0 1 
vn 0 0 1 
vn 0 0 1 
vn 0 0 1 
vn 0 0 1 
vn 0 0 1 
vn 0 0 1 
vn 0 0 1 
vn 0 0 1 
vn 0 0 1 
vn -2.0682311115474694e-13 0 -1 
vn -2.0682311115474694e-13 0 -1 
vn -2.0682311115474694e-13 0 -1 
vn -2.0682311115474694e-13 0 -1 
vn 0 0 1 
vn 0 0 1 
vn 0 0 1 
vn 0 0 1 
vn 0 0 1 
vn 0 0 1 
vn 0 0 1 
vn 0 0 1 
vn 0 0 1 
vn 0.20160908997058868 -0.2666061818599701 0.9424833655357361 
vn 0.20160908997058868 -0.2666061818599701 0.9424833655357361 
vn 0.20160908997058868 -0.2666061818599701 0.9424833655357361 
vn 0.4467734098434448 0 0.8946471214294434 
vn 0.4467734098434448 0 0.8946471214294434 
vn 0.4467734098434448 0 0.8946471214294434 
vn 0.4467734098434448 0 0.8946471214294434 
vn 0.4467734098434448 0 0.8946471214294434 
vn 0.4467734098434448 0 0.8946471214294434 
vn 0 0 1 
vn 0 0 1 
vn 0 0 1 
vn 0 0 1 
vn 0 0 1 
vn 0 0 1 
vn 0 0 1 
vt 12.943438529968262 4.9570112228393555 
vt 5.886688709259033 -2.0977063179016113 
vt 10.947334289550781 6.953115940093994 
vt 5.300804138183594 1.306618571281433 
vt -0.4434051215648651 -0.44527801871299744 
vt 2.9629180431365967 6.953115940093994 
vt -1.0272798538208008 4.9570112228393555 
vt 2.9629180431365967 14.937536239624023 
vt -1.0272798538208008 10.94532585144043 
vt 0.9668141007423401 14.937536239624023 
vt 2.304732084274292 18.949222564697266 
vt -5.0194878578186035 3.0019948482513428 
vt 0.9668141007423401 3.0019948482513428 
vt -5.0194878578186035 0.0000051830002121278085 
vt 0.9668141007423401 0.0000051830002121278085 
vt 19.531328201293945 8.94922161102295 
vt 19.531328201293945 6.953115940093994 
vt 16.93552017211914 8.94922161102295 
vt 16.93552017211914 6.953115940093994 
vt 1.9648346900939941 0.9667995572090149 
vt 1.9648346900939941 -1.0293054580688477 
vt 0.000013023999599681702 0.9667995572090149 
vt 0.000013023999599681702 -1.0293054580688477 
vt 12.943438529968262 6.953115940093994 
vt 12.943438529968262 12.941431045532227 
vt 14.93947982788086 4.9570112228393555 
vt 14.93947982788086 12.941431045532227 
vt -3.023383855819702 0.0000051830002121278085 
vt -3.023383855819702 5.955133438110352 
vt 0.9668141007423401 0.0000051830002121278085 
vt 0.9668141007423401 5.955133438110352 
vt -11.007800102233887 0.9667995572090149 
vt -9.011695861816406 0.9667995572090149 
vt -11.007800102233887 -1.0293054580688477 
vt -9.011695861816406 -1.0293054580688477 
vt 1.9648346900939941 0.9667995572090149 
vt 1.9648346900939941 -1.0293054580688477 
vt 0.000013023999599681702 0.9667995572090149 
vt 0.000013023999599681702 -1.0293054580688477 
vt 0.9668141007423401 0.9667995572090149 
vt 0.9668141007423401 -1.5292962789535522 
vt -1.5272952318191528 0.9667995572090149 
vt -1.5272952318191528 -1.5292962789535522 
vt -0.21676498651504517 1.1523032188415527 
vt 3.074228048324585 1.1523032188415527 
vt -0.21676498651504517 -1.5410093069076538 
vt 3.074228048324585 -1.5410093069076538 
vt 21.925811767578125 8.447324752807617 
vt 21.925811767578125 6.45121955871582 
vt 19.92970848083496 8.447324752807617 
vt 19.92970848083496 6.45121955871582 
vt 0.000013023999599681702 -1.0293054580688477 
vt 0.000013023999599681702 0.9667995572090149 
vt 1.9648346900939941 -1.0293054580688477 
vt 1.9648346900939941 0.9667995572090149 
vt -11.007800102233887 0.9667995572090149 
vt -9.011695861816406 0.9667995572090149 
vt -11.007800102233887 -1.0293054580688477 
vt -9.011695861816406 -1.0293054580688477 
vt 13.443390846252441 12.941431045532227 
vt 10.947334289550781 15.43752670288086 
vt 10.947334289550781 14.937536239624023 
vt 8.9512300491333 14.937536239624023 
vt 9.66990852355957 18.949222564697266 
vt 8.9512300491333 18.949222564697266 
vt 0.000013023999599681702 0.9667995572090149 
vt 3.960875988006592 0.9667995572090149 
vt 0.000013023999599681702 -2.425812005996704 
vt 3.960875988006592 -5.419899940490723 
vt 0.000013023999599681702 -5.419899940490723 
vt 2.888732433319092 -1.5410093069076538 
vt 2.888732433319092 0.9667995572090149 
vt 0.000013023999599681702 -1.5410093069076538 
vt 0.000013023999599681702 0.9667995572090149 
vt -3.5233991146087646 -2.5272791385650635 
vt -1.5215160846710205 -1.0332098007202148 
vt 0.9668141007423401 -2.5272791385650635 
vt -1.0194905996322632 -1.0332098007202148 
vt 0.9668141007423401 0.9667995572090149 
vt -1.0194905996322632 -0.531313419342041 
vt -3.521514654159546 0.9667995572090149 
vt -1.5215160846710205 -0.531313419342041 
vt 19.531328201293945 4.9570112228393555 
vt 19.531328201293945 4.9570112228393555 
vt 14.93947982788086 4.9570112228393555 
vt 16.93552017211914 6.953115940093994 
vt 16.93552017211914 6.953115940093994 
vt 14.93947982788086 4.9570112228393555 
vt 14.93947982788086 6.953115940093994 
vt 16.93552017211914 8.94922161102295 
vt 14.93947982788086 8.94922161102295 
vt 14.93947982788086 12.941431045532227 
vt 2.9629180431365967 18.949222564697266 
vt 9.949188232421875 7.9707136154174805 
vt 9.29100227355957 7.9707136154174805 
vt 9.949188232421875 9.947297096252441 
vt 15.9375 9.947297096252441 
vt 16.65630340576172 7.9707136154174805 
vt 15.9375 7.9707136154174805 
s on 
f 1/1/1 2/2/2 3/3/3 
f 2/2/2 4/4/4 3/3/3 
f 3/3/3 4/4/4 4/4/4 
f 4/4/4 2/2/2 4/4/4 
f 4/4/4 2/2/2 2/2/2 
f 2/2/2 5/5/5 2/2/2 
f 2/2/2 5/5/5 4/4/4 
f 5/5/5 6/6/6 4/4/4 
f 4/4/4 6/6/6 6/6/6 
f 6/6/6 5/5/5 6/6/6 
f 6/6/6 5/5/5 5/5/5 
f 5/5/5 7/7/7 5/5/5 
f 5/5/5 7/7/7 6/6/6 
f 7/7/7 8/8/8 6/6/6 
f 6/6/6 8/8/8 8/8/8 
f 8/8/8 7/7/7 8/8/8 
f 8/8/8 7/7/7 7/7/7 
f 7/7/7 9/9/9 7/7/7 
f 7/7/7 9/9/9 8/8/8 
f 9/9/9 10/10/10 8/8/8 
f 8/8/8 10/10/10 11/11/11 
f 10/10/10 11/11/11 11/11/11 
f 11/11/11 11/11/11 12/12/12 
f 11/11/11 12/12/12 12/12/12 
f 12/12/12 12/12/12 12/12/12 
f 12/12/12 13/13/13 12/12/12 
f 12/12/12 13/13/13 14/14/14 
f 13/13/13 15/15/15 14/14/14 
f 14/14/14 15/15/15 15/15/15 
f 15/15/15 16/16/16 15/15/15 
f 15/15/15 16/16/16 16/16/16 
f 16/16/16 17/17/17 16/16/16 
f 16/16/16 17/17/17 18/18/18 
f 17/17/17 19/19/19 18/18/18 
f 18/18/18 19/19/19 19/19/19 
f 19/19/19 20/20/20 19/19/19 
f 19/19/19 20/20/20 20/20/20 
f 20/20/20 21/21/21 20/20/20 
f 20/20/20 21/21/21 22/22/22 
f 21/21/21 23/23/23 22/22/22 
f 22/22/22 23/23/23 23/23/23 
f 23/23/23 24/24/24 23/23/23 
f 23/23/23 24/24/24 24/24/24 
f 24/24/24 25/25/25 24/24/24 
f 24/24/24 25/25/25 26/26/26 
f 25/25/25 27/27/27 26/26/26 
f 26/26/26 27/27/27 27/27/27 
f 27/27/27 28/28/28 27/27/27 
f 27/27/27 28/28/28 28/28/28 
f 28/28/28 29/29/29 28/28/28 
f 28/28/28 29/29/29 30/30/30 
f 29/29/29 31/31/31 30/30/30 
f 30/30/30 31/31/31 31/31/31 
f 31/31/31 32/32/32 31/31/31 
f 31/31/31 32/32/32 32/32/32 
f 32/32/32 33/33/33 32/32/32 
f 32/32/32 33/33/33 34/34/34 
f 33/33/33 35/35/35 34/34/34 
f 34/34/34 35/35/35 35/35/35 
f 35/35/35 36/36/36 35/35/35 
f 35/35/35 36/36/36 36/36/36 
f 36/36/36 37/37/37 36/36/36 
f 36/36/36 37/37/37 38/38/38 
f 37/37/37 39/39/39 38/38/38 
f 38/38/38 39/39/39 39/39/39 
f 39/39/39 40/40/40 39/39/39 
f 39/39/39 40/40/40 40/40/40 
f 40/40/40 41/41/41 40/40/40 
f 40/40/40 41/41/41 42/42/42 
f 41/41/41 43/43/43 42/42/42 
f 42/42/42 43/43/43 43/43/43 
f 43/43/43 44/44/44 43/43/43 
f 43/43/43 44/44/44 44/44/44 
f 44/44/44 45/45/45 44/44/44 
f 44/44/44 45/45/45 46/46/46 
f 45/45/45 47/47/47 46/46/46 
f 46/46/46 47/47/47 47/47/47 
f 47/47/47 48/48/48 47/47/47 
f 47/47/47 48/48/48 48/48/48 
f 48/48/48 49/49/49 48/48/48 
f 48/48/48 49/49/49 50/50/50 
f 49/49/49 51/51/51 50/50/50 
f 50/50/50 51/51/51 51/51/51 
f 51/51/51 52/52/52 51/51/51 
f 51/51/51 52/52/52 52/52/52 
f 52/52/52 53/53/53 52/52/52 
f 52/52/52 53/53/53 54/54/54 
f 53/53/53 55/55/55 54/54/54 
f 54/54/54 55/55/55 55/55/55 
f 55/55/55 56/56/56 55/55/55 
f 55/55/55 56/56/56 56/56/56 
f 56/56/56 57/57/57 56/56/56 
f 56/56/56 57/57/57 58/58/58 
f 57/57/57 59/59/59 58/58/58 
f 58/58/58 59/59/59 59/59/59 
f 59/59/59 60/60/60 59/59/59 
f 59/59/59 60/60/60 60/60/60 
f 60/60/60 25/25/25 60/60/60 
f 60/60/60 25/25/25 61/61/61 
f 25/25/25 62/62/62 61/61/61 
f 61/61/61 62/62/62 63/63/63 
f 62/62/62 63/63/63 63/63/63 
f 63/63/63 63/63/63 61/61/61 
f 63/63/63 61/61/61 61/61/61 
f 61/61/61 61/61/61 61/61/61 
f 61/61/61 63/63/63 61/61/61 
f 61/61/61 63/63/63 64/64/64 
f 63/63/63 65/65/65 64/64/64 
f 64/64/64 65/65/65 65/65/65 
f 65/65/65 66/66/66 65/65/65 
f 65/65/65 66/66/66 66/66/66 
f 66/66/66 67/67/67 66/66/66 
f 66/66/66 67/67/67 68/68/68 
f 67/67/67 69/69/69 68/68/68 
f 68/68/68 69/69/69 70/70/70 
f 69/69/69 70/70/70 70/70/70 
f 70/70/70 70/70/70 71/71/71 
f 70/70/70 71/71/71 71/71/71 
f 71/71/71 71/71/71 71/71/71 
f 71/71/71 72/72/72 71/71/71 
f 71/71/71 72/72/72 73/73/73 
f 72/72/72 74/74/74 73/73/73 
f 73/73/73 74/74/74 74/74/74 
f 74/74/74 75/75/75 74/74/74 
f 74/74/74 75/75/75 75/75/75 
f 75/75/75 76/76/76 75/75/75 
f 75/75/75 76/76/76 77/77/77 
f 76/76/76 78/78/78 77/77/77 
f 77/77/77 78/78/78 79/79/79 
f 78/78/78 80/80/80 79/79/79 
f 79/79/79 80/80/80 81/81/81 
f 80/80/80 82/82/82 81/81/81 
f 81/81/81 82/82/82 76/76/76 
f 17/17/17 83/83/83 19/19/19 
f 84/84/84 85/85/85 86/86/86 
f 87/87/87 88/88/88 89/89/89 
f 90/90/90 91/91/91 92/92/92 
f 8/8/8 11/11/11 93/93/93 
f 75/75/75 81/81/81 76/76/76 
f 94/94/94 95/95/95 96/96/96 
f 97/97/97 98/98/98 99/99/99 

