mtllib model_0.mtl
o model_0
v -103.20942687988281 512.25390625 235.43983459472656 
v -97.43513488769531 517.9508666992188 219.05894470214844 
v -108.98371124267578 506.55694580078125 219.05894470214844 
v 82.82307434082031 380.9652404785156 116.63336181640625 
v 82.82307434082031 360.5080261230469 126.8939208984375 
v 82.82307434082031 360.5080261230469 106.372802734375 
v 82.82307434082031 491.5377502441406 116.63336181640625 
v 82.82307434082031 471.0805358886719 126.8939208984375 
v 82.82307434082031 471.0805358886719 106.372802734375 
v -287.4845275878906 409.70892333984375 235.43983459472656 
v -287.4845275878906 430.1661071777344 225.1792755126953 
v -287.4845275878906 409.70892333984375 214.91871643066406 
v -270.6637878417969 531.9342651367188 235.43983459472656 
v -262.88104248046875 550.8377685546875 225.1792755126953 
v -270.6637878417969 531.9342651367188 214.91871643066406 
v 102.40544128417969 567.1517333984375 85.94168853759766 
v 88.09524536132812 538.6669921875 85.94168853759766 
v 116.71562957763672 538.6669921875 85.94168853759766 
v -387.15374755859375 294.21630859375 58.31018829345703 
v -377.86468505859375 321.1473388671875 51.199798583984375 
v -396.1917724609375 321.1473388671875 51.199798583984375 
v 66.50443267822266 372.1608581542969 156.5955352783203 
v 57.46641540527344 343.1582336425781 146.51498413085938 
v 77.80194854736328 343.1582336425781 146.51498413085938 
v 57.46641540527344 236.98793029785156 109.07295227050781 
v 77.80194854736328 236.98793029785156 109.07295227050781 
v 66.50443267822266 265.99053955078125 119.2435073852539 
v 102.40544128417969 649.239501953125 85.94168853759766 
v 88.09524536132812 620.495849609375 85.94168853759766 
v 116.71562957763672 620.495849609375 85.94168853759766 
v 77.80194854736328 458.6508483886719 184.22703552246094 
v 77.80194854736328 483.25128173828125 184.22703552246094 
v 57.46641540527344 471.0805358886719 184.22703552246094 
v -386.9027099609375 180.27743530273438 81.80146789550781 
v -376.6094055175781 200.73464965820312 81.80146789550781 
v -397.1960144042969 200.73464965820312 81.80146789550781 
v -307.06689453125 171.99098205566406 81.80146789550781 
v -307.06689453125 155.677001953125 81.80146789550781 
v -290.7482604980469 163.96347045898438 81.80146789550781 
v 57.46641540527344 685.7517700195312 93.14208221435547 
v 67.50865936279297 668.9198608398438 104.66271209716797 
v 77.80194854736328 685.7517700195312 93.14208221435547 
vn -0.7071051001548767 0.7071051001548767 -0.002184694167226553 
vn -0.7071051001548767 0.7071051001548767 -0.002184694167226553 
vn -0.7071051001548767 0.7071051001548767 -0.002184694167226553 
vn 0.999997615814209 0 0.002184694167226553 
vn 0.999997615814209 0 0.002184694167226553 
vn 0.999997615814209 0 0.002184694167226553 
vn 0.999997615814209 0 0.002184694167226553 
vn 0.999997615814209 0 0.002184694167226553 
vn 0.999997615814209 0 0.002184694167226553 
vn -0.999997615814209 -2.0682260971124217e-13 0.002184694167226553 
vn -0.999997615814209 -2.0682260971124217e-13 0.002184694167226553 
vn -0.999997615814209 -2.0682260971124217e-13 0.002184694167226553 
vn -0.9267409443855286 0.3756946325302124 0.002184694167226553 
vn -0.9267409443855286 0.3756946325302124 0.002184694167226553 
vn -0.9267409443855286 0.3756946325302124 0.002184694167226553 
vn 0 0 1 
vn 0 0 1 
vn 0 0 1 
vn 0.0018801316618919373 0.25494125485420227 0.9669547080993652 
vn 0.0018801316618919373 0.25494125485420227 0.9669547080993652 
vn 0.0018801316618919373 0.25494125485420227 0.9669547080993652 
vn 1.0227170672838515e-13 -0.33013176918029785 0.9439348578453064 
vn 1.0227170672838515e-13 -0.33013176918029785 0.9439348578453064 
vn 1.0227170672838515e-13 -0.33013176918029785 0.9439348578453064 
vn -0.0018818661337718368 -0.33424773812294006 0.9424833655357361 
vn -0.0018818661337718368 -0.33424773812294006 0.9424833655357361 
vn -0.0018818661337718368 -0.33424773812294006 0.9424833655357361 
vn 0 0 1 
vn 0 0 1 
vn 0 0 1 
vn 0 0 1 
vn 0 0 1 
vn 0 0 1 
vn 0 0 1 
vn 0 0 1 
vn 0 0 1 
vn 0 0 1 
vn 0 0 1 
vn 0 0 1 
vn 0.0037664873525500298 0.5634793639183044 0.8261215686798096 
vn 0.0037664873525500298 0.5634793639183044 0.8261215686798096 
vn 0.0037664873525500298 0.5634793639183044 0.8261215686798096 
vt 0 0 
vt 0 0 
vt 0 0 
vt 0 0 
vt 0 0 
vt 0 0 
vt 0 0 
vt 0 0 
vt 0 0 
vt 0 0 
vt 0 0 
vt 0 0 
vt 0 0 
vt 0 0 
vt 0 0 
vt 0 0 
vt 0 0 
vt 0 0 
vt 0 0 
vt 0 0 
vt 0 0 
vt 0 0 
vt 0 0 
vt 0 0 
vt 0 0 
vt 0 0 
vt 0 0 
vt 0 0 
vt 0 0 
vt 0 0 
vt 0 0 
vt 0 0 
vt 0 0 
vt 0 0 
vt 0 0 
vt 0 0 
vt 0 0 
vt 0 0 
vt 0 0 
vt 0 0 
vt 0 0 
vt 0 0 
s on 
f 1/1/1 2/2/2 3/3/3 
f 4/4/4 5/5/5 6/6/6 
f 7/7/7 8/8/8 9/9/9 
f 10/10/10 11/11/11 12/12/12 
f 13/13/13 14/14/14 15/15/15 
f 16/16/16 17/17/17 18/18/18 
f 19/19/19 20/20/20 21/21/21 
f 22/22/22 23/23/23 24/24/24 
f 25/25/25 26/26/26 27/27/27 
f 28/28/28 29/29/29 30/30/30 
f 31/31/31 32/32/32 33/33/33 
f 34/34/34 35/35/35 36/36/36 
f 37/37/37 38/38/38 39/39/39 
f 40/40/40 41/41/41 42/42/42 

