mtllib model_16.mtl
o model_16
v -245.45339965820312 432.8075866699219 286.6400146484375 
v -221.40420532226562 409.9035949707031 286.6400146484375 
v -245.45339965820312 432.8075866699219 409.5199890136719 
v -221.40420532226562 409.9035949707031 409.5199890136719 
v -187.04820251464844 491.2127990722656 409.5199890136719 
v -164.14419555664062 467.1636047363281 409.5199890136719 
v -187.04820251464844 491.2127990722656 286.6400146484375 
v -164.14419555664062 467.1636047363281 286.6400146484375 
v -268.3573913574219 411.0487976074219 358.2393798828125 
v -244.30819702148438 386.9996032714844 358.2393798828125 
v -268.3573913574219 411.0487976074219 366.9473876953125 
v -244.30819702148438 386.9996032714844 366.9473876953125 
v -222.5493927001953 523.2783813476562 342.7584228515625 
v -222.5493927001953 490.0675964355469 342.7584228515625 
v -188.1934051513672 523.2783813476562 342.7584228515625 
v -188.1934051513672 490.0675964355469 342.7584228515625 
v -187.04820251464844 411.0487976074219 302.1209411621094 
v -187.04820251464844 377.8380126953125 302.1209411621094 
v -221.40420532226562 411.0487976074219 302.1209411621094 
v -221.40420532226562 377.8380126953125 302.1209411621094 
v -221.40420532226562 411.0487976074219 310.8289794921875 
v -221.40420532226562 377.8380126953125 310.8289794921875 
v -187.04820251464844 411.0487976074219 310.8289794921875 
v -187.04820251464844 377.8380126953125 310.8289794921875 
v -187.04820251464844 411.0487976074219 310.8289794921875 
v -187.04820251464844 377.8380126953125 310.8289794921875 
v -187.04820251464844 411.0487976074219 302.1209411621094 
v -187.04820251464844 377.8380126953125 302.1209411621094 
v -221.40420532226562 377.8380126953125 302.1209411621094 
v -187.04820251464844 377.8380126953125 302.1209411621094 
v -221.40420532226562 377.8380126953125 310.8289794921875 
v -187.04820251464844 377.8380126953125 310.8289794921875 
v -221.40420532226562 377.8380126953125 310.8289794921875 
v -221.40420532226562 411.0487976074219 310.8289794921875 
v -221.40420532226562 377.8380126953125 302.1209411621094 
v -221.40420532226562 411.0487976074219 302.1209411621094 
v -174.4510040283203 395.0159912109375 310.8289794921875 
v -197.35499572753906 419.065185546875 310.8289794921875 
v -149.25660705566406 420.21038818359375 310.8289794921875 
v -173.30580139160156 443.1144104003906 310.8289794921875 
v -197.35499572753906 419.065185546875 318.5694580078125 
v -174.4510040283203 395.0159912109375 318.5694580078125 
v -173.30580139160156 443.1144104003906 318.5694580078125 
v -149.25660705566406 420.21038818359375 318.5694580078125 
v -149.25660705566406 420.21038818359375 310.8289794921875 
v -173.30580139160156 443.1144104003906 310.8289794921875 
v -149.25660705566406 420.21038818359375 318.5694580078125 
v -173.30580139160156 443.1144104003906 318.5694580078125 
v -149.25660705566406 420.21038818359375 318.5694580078125 
v -174.4510040283203 395.0159912109375 318.5694580078125 
v -149.25660705566406 420.21038818359375 310.8289794921875 
v -174.4510040283203 395.0159912109375 310.8289794921875 
v -174.4510040283203 395.0159912109375 318.5694580078125 
v -197.35499572753906 419.065185546875 318.5694580078125 
v -174.4510040283203 395.0159912109375 310.8289794921875 
v -197.35499572753906 419.065185546875 310.8289794921875 
v -165.28939819335938 468.3088073730469 318.5694580078125 
v -132.07859802246094 468.3088073730469 318.5694580078125 
v -165.28939819335938 433.9527893066406 318.5694580078125 
v -132.07859802246094 433.9527893066406 318.5694580078125 
v -132.07859802246094 468.3088073730469 326.3099060058594 
v -165.28939819335938 468.3088073730469 326.3099060058594 
v -132.07859802246094 433.9527893066406 326.3099060058594 
v -165.28939819335938 433.9527893066406 326.3099060058594 
v -132.07859802246094 468.3088073730469 318.5694580078125 
v -165.28939819335938 468.3088073730469 318.5694580078125 
v -132.07859802246094 468.3088073730469 326.3099060058594 
v -165.28939819335938 468.3088073730469 326.3099060058594 
v -132.07859802246094 433.9527893066406 318.5694580078125 
v -132.07859802246094 468.3088073730469 318.5694580078125 
v -132.07859802246094 433.9527893066406 326.3099060058594 
v -132.07859802246094 468.3088073730469 326.3099060058594 
v -197.35499572753906 482.05120849609375 326.3099060058594 
v -174.4510040283203 506.10040283203125 326.3099060058594 
v -173.30580139160156 458.00201416015625 326.3099060058594 
v -149.25660705566406 480.906005859375 326.3099060058594 
v -165.28939819335938 433.9527893066406 318.5694580078125 
v -132.07859802246094 433.9527893066406 318.5694580078125 
v -165.28939819335938 433.9527893066406 326.3099060058594 
v -132.07859802246094 433.9527893066406 326.3099060058594 
v -221.40420532226562 409.9035949707031 366.9473876953125 
v -244.30819702148438 386.9996032714844 366.9473876953125 
v -221.40420532226562 409.9035949707031 358.2393798828125 
v -244.30819702148438 386.9996032714844 358.2393798828125 
v -174.4510040283203 506.10040283203125 326.3099060058594 
v -197.35499572753906 482.05120849609375 326.3099060058594 
v -174.4510040283203 506.10040283203125 335.0179443359375 
v -197.35499572753906 482.05120849609375 335.0179443359375 
v -149.25660705566406 480.906005859375 326.3099060058594 
v -174.4510040283203 506.10040283203125 326.3099060058594 
v -149.25660705566406 480.906005859375 335.0179443359375 
v -174.4510040283203 506.10040283203125 335.0179443359375 
v -149.25660705566406 480.906005859375 335.0179443359375 
v -173.30580139160156 458.00201416015625 335.0179443359375 
v -149.25660705566406 480.906005859375 326.3099060058594 
v -173.30580139160156 458.00201416015625 326.3099060058594 
v -222.5493927001953 490.0675964355469 335.0179443359375 
v -222.5493927001953 523.2783813476562 335.0179443359375 
v -188.1934051513672 490.0675964355469 335.0179443359375 
v -188.1934051513672 523.2783813476562 335.0179443359375 
v -221.40420532226562 491.2127990722656 409.5199890136719 
v -187.04820251464844 491.2127990722656 409.5199890136719 
v -221.40420532226562 491.2127990722656 286.6400146484375 
v -187.04820251464844 491.2127990722656 286.6400146484375 
v -222.5493927001953 490.0675964355469 342.7584228515625 
v -222.5493927001953 523.2783813476562 342.7584228515625 
v -222.5493927001953 490.0675964355469 335.0179443359375 
v -222.5493927001953 523.2783813476562 335.0179443359375 
v -188.1934051513672 523.2783813476562 342.7584228515625 
v -188.1934051513672 490.0675964355469 342.7584228515625 
v -188.1934051513672 523.2783813476562 335.0179443359375 
v -188.1934051513672 490.0675964355469 335.0179443359375 
v -236.2917938232422 458.00201416015625 342.7584228515625 
v -260.34100341796875 480.906005859375 342.7584228515625 
v -212.2425994873047 482.05120849609375 342.7584228515625 
v -235.1466064453125 506.10040283203125 342.7584228515625 
v -212.2425994873047 482.05120849609375 350.4989013671875 
v -235.1466064453125 506.10040283203125 350.4989013671875 
v -236.2917938232422 458.00201416015625 350.4989013671875 
v -260.34100341796875 480.906005859375 350.4989013671875 
v -260.34100341796875 480.906005859375 342.7584228515625 
v -236.2917938232422 458.00201416015625 342.7584228515625 
v -260.34100341796875 480.906005859375 350.4989013671875 
v -236.2917938232422 458.00201416015625 350.4989013671875 
v -235.1466064453125 506.10040283203125 342.7584228515625 
v -260.34100341796875 480.906005859375 342.7584228515625 
v -235.1466064453125 506.10040283203125 350.4989013671875 
v -260.34100341796875 480.906005859375 350.4989013671875 
v -235.1466064453125 506.10040283203125 350.4989013671875 
v -212.2425994873047 482.05120849609375 350.4989013671875 
v -235.1466064453125 506.10040283203125 342.7584228515625 
v -212.2425994873047 482.05120849609375 342.7584228515625 
v -244.30819702148438 432.8075866699219 350.4989013671875 
v -277.5190124511719 432.8075866699219 350.4989013671875 
v -244.30819702148438 467.1636047363281 350.4989013671875 
v -277.5190124511719 467.1636047363281 350.4989013671875 
v -244.30819702148438 467.1636047363281 358.2393798828125 
v -277.5190124511719 467.1636047363281 358.2393798828125 
v -244.30819702148438 432.8075866699219 358.2393798828125 
v -277.5190124511719 432.8075866699219 358.2393798828125 
v -277.5190124511719 432.8075866699219 350.4989013671875 
v -244.30819702148438 432.8075866699219 350.4989013671875 
v -277.5190124511719 432.8075866699219 358.2393798828125 
v -244.30819702148438 432.8075866699219 358.2393798828125 
v -277.5190124511719 467.1636047363281 350.4989013671875 
v -277.5190124511719 432.8075866699219 350.4989013671875 
v -277.5190124511719 467.1636047363281 358.2393798828125 
v -277.5190124511719 432.8075866699219 358.2393798828125 
v -277.5190124511719 467.1636047363281 358.2393798828125 
v -244.30819702148438 467.1636047363281 358.2393798828125 
v -277.5190124511719 467.1636047363281 350.4989013671875 
v -244.30819702148438 467.1636047363281 350.4989013671875 
v -173.30580139160156 458.00201416015625 335.0179443359375 
v -149.25660705566406 480.906005859375 335.0179443359375 
v -197.35499572753906 482.05120849609375 335.0179443359375 
v -174.4510040283203 506.10040283203125 335.0179443359375 
v -268.3573913574219 411.0487976074219 358.2393798828125 
v -245.45339965820312 433.9527893066406 358.2393798828125 
v -244.30819702148438 386.9996032714844 358.2393798828125 
v -221.40420532226562 409.9035949707031 358.2393798828125 
v -244.30819702148438 386.9996032714844 366.9473876953125 
v -221.40420532226562 409.9035949707031 366.9473876953125 
v -268.3573913574219 411.0487976074219 366.9473876953125 
v -245.45339965820312 433.9527893066406 366.9473876953125 
v -222.5493927001953 523.2783813476562 342.7584228515625 
v -188.1934051513672 523.2783813476562 342.7584228515625 
v -222.5493927001953 523.2783813476562 335.0179443359375 
v -188.1934051513672 523.2783813476562 335.0179443359375 
v -245.45339965820312 433.9527893066406 358.2393798828125 
v -268.3573913574219 411.0487976074219 358.2393798828125 
v -245.45339965820312 433.9527893066406 366.9473876953125 
v -268.3573913574219 411.0487976074219 366.9473876953125 
v -245.45339965820312 459.1471862792969 303.0885009765625 
v -245.45339965820312 459.1471862792969 286.6400146484375 
v -229.42059326171875 459.1471862792969 303.0885009765625 
v -229.42059326171875 459.1471862792969 286.6400146484375 
v -229.42059326171875 459.1471862792969 303.0885009765625 
v -229.42059326171875 441.9692077636719 303.0885009765625 
v -245.45339965820312 459.1471862792969 303.0885009765625 
v -245.45339965820312 441.9692077636719 303.0885009765625 
v -229.42059326171875 441.9692077636719 303.0885009765625 
v -229.42059326171875 441.9692077636719 286.6400146484375 
v -245.45339965820312 441.9692077636719 303.0885009765625 
v -245.45339965820312 441.9692077636719 286.6400146484375 
v -229.42059326171875 441.9692077636719 286.6400146484375 
v -229.42059326171875 441.9692077636719 303.0885009765625 
v -229.42059326171875 459.1471862792969 286.6400146484375 
v -229.42059326171875 459.1471862792969 303.0885009765625 
v -221.40420532226562 409.9035949707031 286.6400146484375 
v -187.04820251464844 409.9035949707031 286.6400146484375 
v -221.40420532226562 409.9035949707031 409.5199890136719 
v -187.04820251464844 409.9035949707031 409.5199890136719 
v -245.45339965820312 441.9692077636719 286.6400146484375 
v -245.45339965820312 432.8075866699219 286.6400146484375 
v -245.45339965820312 441.9692077636719 303.0885009765625 
v -245.45339965820312 467.1636047363281 409.5199890136719 
v -245.45339965820312 459.1471862792969 303.0885009765625 
v -245.45339965820312 459.1471862792969 286.6400146484375 
v -164.14419555664062 432.8075866699219 286.6400146484375 
v -164.14419555664062 467.1636047363281 286.6400146484375 
v -164.14419555664062 432.8075866699219 409.5199890136719 
v -164.14419555664062 467.1636047363281 409.5199890136719 
v -187.04820251464844 409.9035949707031 286.6400146484375 
v -164.14419555664062 432.8075866699219 286.6400146484375 
v -187.04820251464844 409.9035949707031 409.5199890136719 
v -164.14419555664062 432.8075866699219 409.5199890136719 
v -245.45339965820312 467.1636047363281 409.5199890136719 
v -221.40420532226562 491.2127990722656 409.5199890136719 
v -245.45339965820312 467.1636047363281 286.6400146484375 
v -221.40420532226562 491.2127990722656 286.6400146484375 
v -245.45339965820312 432.8075866699219 409.5199890136719 
v -245.45339965820312 467.1636047363281 286.6400146484375 
vn -0.7071051001548767 -0.7071051001548767 0.002184694167226553 
vn -0.7071051001548767 -0.7071051001548767 0.002184694167226553 
vn -0.7071051001548767 -0.7071051001548767 0.002184694167226553 
vn -0.7071051001548767 -0.7071051001548767 0.002184694167226553 
vn 0.7071051001548767 0.7071051001548767 0.002184694167226553 
vn 0.7071051001548767 0.7071051001548767 0.002184694167226553 
vn 0.7071051001548767 0.7071051001548767 0.002184694167226553 
vn 0.7071051001548767 0.7071051001548767 0.002184694167226553 
vn -0.7071051001548767 -0.7071051001548767 0.002184694167226553 
vn -0.7071051001548767 -0.7071051001548767 0.002184694167226553 
vn -0.7071051001548767 -0.7071051001548767 0.002184694167226553 
vn -0.7071051001548767 -0.7071051001548767 0.002184694167226553 
vn 0 0 1 
vn 0 0 1 
vn 0 0 1 
vn 0 0 1 
vn -2.0682311115474694e-13 0 -1 
vn -2.0682311115474694e-13 0 -1 
vn -2.0682311115474694e-13 0 -1 
vn -2.0682311115474694e-13 0 -1 
vn 0 0 1 
vn 0 0 1 
vn 0 0 1 
vn 0 0 1 
vn 0.999997615814209 0 0.002184694167226553 
vn 0.999997615814209 0 0.002184694167226553 
vn 0.999997615814209 0 0.002184694167226553 
vn 0.999997615814209 0 0.002184694167226553 
vn 3.097898456858039e-13 -0.999997615814209 0.002184694167226553 
vn 3.097898456858039e-13 -0.999997615814209 0.002184694167226553 
vn 3.097898456858039e-13 -0.999997615814209 0.002184694167226553 
vn 3.097898456858039e-13 -0.999997615814209 0.002184694167226553 
vn -0.999997615814209 -2.0682260971124217e-13 0.002184694167226553 
vn -0.999997615814209 -2.0682260971124217e-13 0.002184694167226553 
vn -0.999997615814209 -2.0682260971124217e-13 0.002184694167226553 
vn -0.999997615814209 -2.0682260971124217e-13 0.002184694167226553 
vn -2.0682311115474694e-13 0 -1 
vn -2.0682311115474694e-13 0 -1 
vn -2.0682311115474694e-13 0 -1 
vn -2.0682311115474694e-13 0 -1 
vn 0 0 1 
vn 0 0 1 
vn 0 0 1 
vn 0 0 1 
vn 0.7071051001548767 0.7071051001548767 0.002184694167226553 
vn 0.7071051001548767 0.7071051001548767 0.002184694167226553 
vn 0.7071051001548767 0.7071051001548767 0.002184694167226553 
vn 0.7071051001548767 0.7071051001548767 0.002184694167226553 
vn 0.7071051001548767 -0.7071051001548767 0.002184694167226553 
vn 0.7071051001548767 -0.7071051001548767 0.002184694167226553 
vn 0.7071051001548767 -0.7071051001548767 0.002184694167226553 
vn 0.7071051001548767 -0.7071051001548767 0.002184694167226553 
vn -0.7071051001548767 -0.7071051001548767 0.002184694167226553 
vn -0.7071051001548767 -0.7071051001548767 0.002184694167226553 
vn -0.7071051001548767 -0.7071051001548767 0.002184694167226553 
vn -0.7071051001548767 -0.7071051001548767 0.002184694167226553 
vn -2.0682311115474694e-13 0 -1 
vn -2.0682311115474694e-13 0 -1 
vn -2.0682311115474694e-13 0 -1 
vn -2.0682311115474694e-13 0 -1 
vn 0 0 1 
vn 0 0 1 
vn 0 0 1 
vn 0 0 1 
vn -1.0341130485562108e-13 0.999997615814209 0.002184694167226553 
vn -1.0341130485562108e-13 0.999997615814209 0.002184694167226553 
vn -1.0341130485562108e-13 0.999997615814209 0.002184694167226553 
vn -1.0341130485562108e-13 0.999997615814209 0.002184694167226553 
vn 0.999997615814209 0 0.002184694167226553 
vn 0.999997615814209 0 0.002184694167226553 
vn 0.999997615814209 0 0.002184694167226553 
vn 0.999997615814209 0 0.002184694167226553 
vn -2.0682311115474694e-13 0 -1 
vn -2.0682311115474694e-13 0 -1 
vn -2.0682311115474694e-13 0 -1 
vn -2.0682311115474694e-13 0 -1 
vn 3.097898456858039e-13 -0.999997615814209 0.002184694167226553 
vn 3.097898456858039e-13 -0.999997615814209 0.002184694167226553 
vn 3.097898456858039e-13 -0.999997615814209 0.002184694167226553 
vn 3.097898456858039e-13 -0.999997615814209 0.002184694167226553 
vn 0.7071051001548767 -0.7071051001548767 0.002184694167226553 
vn 0.7071051001548767 -0.7071051001548767 0.002184694167226553 
vn 0.7071051001548767 -0.7071051001548767 0.002184694167226553 
vn 0.7071051001548767 -0.7071051001548767 0.002184694167226553 
vn -0.7071051001548767 0.7071051001548767 0.002184694167226553 
vn -0.7071051001548767 0.7071051001548767 0.002184694167226553 
vn -0.7071051001548767 0.7071051001548767 0.002184694167226553 
vn -0.7071051001548767 0.7071051001548767 0.002184694167226553 
vn 0.7071051001548767 0.7071051001548767 0.002184694167226553 
vn 0.7071051001548767 0.7071051001548767 0.002184694167226553 
vn 0.7071051001548767 0.7071051001548767 0.002184694167226553 
vn 0.7071051001548767 0.7071051001548767 0.002184694167226553 
vn 0.7071051001548767 -0.7071051001548767 0.002184694167226553 
vn 0.7071051001548767 -0.7071051001548767 0.002184694167226553 
vn 0.7071051001548767 -0.7071051001548767 0.002184694167226553 
vn 0.7071051001548767 -0.7071051001548767 0.002184694167226553 
vn -2.0682311115474694e-13 0 -1 
vn -2.0682311115474694e-13 0 -1 
vn -2.0682311115474694e-13 0 -1 
vn -2.0682311115474694e-13 0 -1 
vn -1.0341130485562108e-13 0.999997615814209 0.002184694167226553 
vn -1.0341130485562108e-13 0.999997615814209 0.002184694167226553 
vn -1.0341130485562108e-13 0.999997615814209 0.002184694167226553 
vn -1.0341130485562108e-13 0.999997615814209 0.002184694167226553 
vn -0.999997615814209 -2.0682260971124217e-13 0.002184694167226553 
vn -0.999997615814209 -2.0682260971124217e-13 0.002184694167226553 
vn -0.999997615814209 -2.0682260971124217e-13 0.002184694167226553 
vn -0.999997615814209 -2.0682260971124217e-13 0.002184694167226553 
vn 0.999997615814209 0 0.002184694167226553 
vn 0.999997615814209 0 0.002184694167226553 
vn 0.999997615814209 0 0.002184694167226553 
vn 0.999997615814209 0 0.002184694167226553 
vn -2.0682311115474694e-13 0 -1 
vn -2.0682311115474694e-13 0 -1 
vn -2.0682311115474694e-13 0 -1 
vn -2.0682311115474694e-13 0 -1 
vn 0 0 1 
vn 0 0 1 
vn 0 0 1 
vn 0 0 1 
vn -0.7071051001548767 -0.7071051001548767 0.002184694167226553 
vn -0.7071051001548767 -0.7071051001548767 0.002184694167226553 
vn -0.7071051001548767 -0.7071051001548767 0.002184694167226553 
vn -0.7071051001548767 -0.7071051001548767 0.002184694167226553 
vn -0.7071051001548767 0.7071051001548767 0.002184694167226553 
vn -0.7071051001548767 0.7071051001548767 0.002184694167226553 
vn -0.7071051001548767 0.7071051001548767 0.002184694167226553 
vn -0.7071051001548767 0.7071051001548767 0.002184694167226553 
vn 0.7071051001548767 0.7071051001548767 0.002184694167226553 
vn 0.7071051001548767 0.7071051001548767 0.002184694167226553 
vn 0.7071051001548767 0.7071051001548767 0.002184694167226553 
vn 0.7071051001548767 0.7071051001548767 0.002184694167226553 
vn -2.0682311115474694e-13 0 -1 
vn -2.0682311115474694e-13 0 -1 
vn -2.0682311115474694e-13 0 -1 
vn -2.0682311115474694e-13 0 -1 
vn 0 0 1 
vn 0 0 1 
vn 0 0 1 
vn 0 0 1 
vn 3.097898456858039e-13 -0.999997615814209 0.002184694167226553 
vn 3.097898456858039e-13 -0.999997615814209 0.002184694167226553 
vn 3.097898456858039e-13 -0.999997615814209 0.002184694167226553 
vn 3.097898456858039e-13 -0.999997615814209 0.002184694167226553 
vn -0.999997615814209 -2.0682260971124217e-13 0.002184694167226553 
vn -0.999997615814209 -2.0682260971124217e-13 0.002184694167226553 
vn -0.999997615814209 -2.0682260971124217e-13 0.002184694167226553 
vn -0.999997615814209 -2.0682260971124217e-13 0.002184694167226553 
vn -1.0341130485562108e-13 0.999997615814209 0.002184694167226553 
vn -1.0341130485562108e-13 0.999997615814209 0.002184694167226553 
vn -1.0341130485562108e-13 0.999997615814209 0.002184694167226553 
vn -1.0341130485562108e-13 0.999997615814209 0.002184694167226553 
vn 0 0 1 
vn 0 0 1 
vn 0 0 1 
vn 0 0 1 
vn -2.0682311115474694e-13 0 -1 
vn -2.0682311115474694e-13 0 -1 
vn -2.0682311115474694e-13 0 -1 
vn -2.0682311115474694e-13 0 -1 
vn 0 0 1 
vn 0 0 1 
vn 0 0 1 
vn 0 0 1 
vn -1.0341130485562108e-13 0.999997615814209 0.002184694167226553 
vn -1.0341130485562108e-13 0.999997615814209 0.002184694167226553 
vn -1.0341130485562108e-13 0.999997615814209 0.002184694167226553 
vn -1.0341130485562108e-13 0.999997615814209 0.002184694167226553 
vn -0.7071051001548767 0.7071051001548767 0.002184694167226553 
vn -0.7071051001548767 0.7071051001548767 0.002184694167226553 
vn -0.7071051001548767 0.7071051001548767 0.002184694167226553 
vn -0.7071051001548767 0.7071051001548767 0.002184694167226553 
vn 3.097898456858039e-13 -0.999997615814209 0.002184694167226553 
vn 3.097898456858039e-13 -0.999997615814209 0.002184694167226553 
vn 3.097898456858039e-13 -0.999997615814209 0.002184694167226553 
vn 3.097898456858039e-13 -0.999997615814209 0.002184694167226553 
vn -2.0682311115474694e-13 0 -1 
vn -2.0682311115474694e-13 0 -1 
vn -2.0682311115474694e-13 0 -1 
vn -2.0682311115474694e-13 0 -1 
vn -1.0341130485562108e-13 0.999997615814209 0.002184694167226553 
vn -1.0341130485562108e-13 0.999997615814209 0.002184694167226553 
vn -1.0341130485562108e-13 0.999997615814209 0.002184694167226553 
vn -1.0341130485562108e-13 0.999997615814209 0.002184694167226553 
vn -0.999997615814209 -2.0682260971124217e-13 0.002184694167226553 
vn -0.999997615814209 -2.0682260971124217e-13 0.002184694167226553 
vn -0.999997615814209 -2.0682260971124217e-13 0.002184694167226553 
vn -0.999997615814209 -2.0682260971124217e-13 0.002184694167226553 
vn 3.097898456858039e-13 -0.999997615814209 0.002184694167226553 
vn 3.097898456858039e-13 -0.999997615814209 0.002184694167226553 
vn 3.097898456858039e-13 -0.999997615814209 0.002184694167226553 
vn 3.097898456858039e-13 -0.999997615814209 0.002184694167226553 
vn -0.999997615814209 -2.0682260971124217e-13 0.002184694167226553 
vn -0.999997615814209 -2.0682260971124217e-13 0.002184694167226553 
vn -0.999997615814209 -2.0682260971124217e-13 0.002184694167226553 
vn -0.999997615814209 -2.0682260971124217e-13 0.002184694167226553 
vn -0.999997615814209 -2.0682260971124217e-13 0.002184694167226553 
vn -0.999997615814209 -2.0682260971124217e-13 0.002184694167226553 
vn 0.999997615814209 0 0.002184694167226553 
vn 0.999997615814209 0 0.002184694167226553 
vn 0.999997615814209 0 0.002184694167226553 
vn 0.999997615814209 0 0.002184694167226553 
vn 0.7071051001548767 -0.7071051001548767 0.002184694167226553 
vn 0.7071051001548767 -0.7071051001548767 0.002184694167226553 
vn 0.7071051001548767 -0.7071051001548767 0.002184694167226553 
vn 0.7071051001548767 -0.7071051001548767 0.002184694167226553 
vn -0.7071051001548767 0.7071051001548767 0.002184694167226553 
vn -0.7071051001548767 0.7071051001548767 0.002184694167226553 
vn -0.7071051001548767 0.7071051001548767 0.002184694167226553 
vn -0.7071051001548767 0.7071051001548767 0.002184694167226553 
vn -0.999997615814209 -2.0682260971124217e-13 0.002184694167226553 
vn -0.999997615814209 -2.0682260971124217e-13 0.002184694167226553 
vt -0.054700758308172226 0.9668036699295044 
vt 0.9668074250221252 0.9668036699295044 
vt -0.054700758308172226 -6.51761531829834 
vt 0.9668074250221252 -6.51761531829834 
vt 0.9922066926956177 -6.519499778747559 
vt -0.0000018990000398844131 -6.519499778747559 
vt 0.9922066926956177 0.9668036699295044 
vt -0.0000018990000398844131 0.9668036699295044 
vt -0.0000018990000398844131 0.46680670976638794 
vt 1.9648041725158691 0.46680670976638794 
vt -0.0000018990000398844131 -0.000005638400125462795 
vt 1.9648041725158691 -0.000005638400125462795 
vt 0.9668074250221252 0.9668036699295044 
vt 0.9668074250221252 -0.000005638400125462795 
vt -0.0000018990000398844131 0.9668036699295044 
vt -0.0000018990000398844131 -0.000005638400125462795 
vt 0.9668074250221252 -0.000005638400125462795 
vt 0.9668074250221252 0.9668036699295044 
vt -0.0000018990000398844131 -0.000005638400125462795 
vt -0.0000018990000398844131 0.9668036699295044 
vt -0.0000018990000398844131 -0.000005638400125462795 
vt -0.0000018990000398844131 0.9668036699295044 
vt 0.9668074250221252 -0.000005638400125462795 
vt 0.9668074250221252 0.9668036699295044 
vt 1.9648041725158691 -0.000005638400125462795 
vt -0.0000018990000398844131 -0.000005638400125462795 
vt 1.9648041725158691 0.46680670976638794 
vt -0.0000018990000398844131 0.46680670976638794 
vt -0.0000018990000398844131 0.46680670976638794 
vt 1.9648041725158691 0.46680670976638794 
vt -0.0000018990000398844131 -0.000005638400125462795 
vt 1.9648041725158691 -0.000005638400125462795 
vt 1.9648041725158691 -0.000005638400125462795 
vt -0.0000018990000398844131 -0.000005638400125462795 
vt 1.9648041725158691 0.46680670976638794 
vt -0.0000018990000398844131 0.46680670976638794 
vt -0.0000018990000398844131 0.9668036699295044 
vt -0.0000018990000398844131 -0.000005638400125462795 
vt 0.9668074250221252 0.9668036699295044 
vt 0.9668074250221252 -0.000005638400125462795 
vt -0.0000018990000398844131 -0.000005638400125462795 
vt -0.0000018990000398844131 0.9668036699295044 
vt 0.9668074250221252 -0.000005638400125462795 
vt 0.9668074250221252 0.9668036699295044 
vt -0.0000018990000398844131 0.46680670976638794 
vt 1.9648041725158691 0.46680670976638794 
vt -0.0000018990000398844131 -0.000005638400125462795 
vt 1.9648041725158691 -0.000005638400125462795 
vt 1.9648041725158691 -0.000005638400125462795 
vt -0.0000018990000398844131 -0.000005638400125462795 
vt 1.9648041725158691 0.46680670976638794 
vt -0.0000018990000398844131 0.46680670976638794 
vt 1.9648041725158691 -0.000005638400125462795 
vt -0.0000018990000398844131 -0.000005638400125462795 
vt 1.9648041725158691 0.46680670976638794 
vt -0.0000018990000398844131 0.46680670976638794 
vt 0.9668074250221252 -0.000005638400125462795 
vt 0.9668074250221252 0.9668036699295044 
vt -0.0000018990000398844131 -0.000005638400125462795 
vt -0.0000018990000398844131 0.9668036699295044 
vt 0.9668074250221252 0.9668036699295044 
vt 0.9668074250221252 -0.000005638400125462795 
vt -0.0000018990000398844131 0.9668036699295044 
vt -0.0000018990000398844131 -0.000005638400125462795 
vt -0.0000018990000398844131 0.46680670976638794 
vt 1.9648041725158691 0.46680670976638794 
vt -0.0000018990000398844131 -0.000005638400125462795 
vt 1.9648041725158691 -0.000005638400125462795 
vt -0.0000018990000398844131 0.46680670976638794 
vt 1.9648041725158691 0.46680670976638794 
vt -0.0000018990000398844131 -0.000005638400125462795 
vt 1.9648041725158691 -0.000005638400125462795 
vt 0.9668074250221252 -0.000005638400125462795 
vt 0.9668074250221252 0.9668036699295044 
vt -0.0000018990000398844131 -0.000005638400125462795 
vt -0.0000018990000398844131 0.9668036699295044 
vt -0.0000018990000398844131 0.46680670976638794 
vt 1.9648041725158691 0.46680670976638794 
vt -0.0000018990000398844131 -0.000005638400125462795 
vt 1.9648041725158691 -0.000005638400125462795 
vt 1.9648041725158691 -0.000005638400125462795 
vt -0.0000018990000398844131 -0.000005638400125462795 
vt 1.9648041725158691 0.46680670976638794 
vt -0.0000018990000398844131 0.46680670976638794 
vt -0.0000018990000398844131 0.46680670976638794 
vt 1.9648041725158691 0.46680670976638794 
vt -0.0000018990000398844131 -0.000005638400125462795 
vt 1.9648041725158691 -0.000005638400125462795 
vt -0.0000018990000398844131 0.46680670976638794 
vt 1.9648041725158691 0.46680670976638794 
vt -0.0000018990000398844131 -0.000005638400125462795 
vt 1.9648041725158691 -0.000005638400125462795 
vt 1.9648041725158691 -0.000005638400125462795 
vt -0.0000018990000398844131 -0.000005638400125462795 
vt 1.9648041725158691 0.46680670976638794 
vt -0.0000018990000398844131 0.46680670976638794 
vt 0.9668074250221252 -0.000005638400125462795 
vt 0.9668074250221252 0.9668036699295044 
vt -0.0000018990000398844131 -0.000005638400125462795 
vt -0.0000018990000398844131 0.9668036699295044 
vt 1.0176059007644653 -6.519499778747559 
vt -0.0000018990000398844131 -6.519499778747559 
vt 1.0176059007644653 0.9668036699295044 
vt -0.0000018990000398844131 0.9668036699295044 
vt 1.9648041725158691 -0.000005638400125462795 
vt -0.0000018990000398844131 -0.000005638400125462795 
vt 1.9648041725158691 0.46680670976638794 
vt -0.0000018990000398844131 0.46680670976638794 
vt 1.9648041725158691 -0.000005638400125462795 
vt -0.0000018990000398844131 -0.000005638400125462795 
vt 1.9648041725158691 0.46680670976638794 
vt -0.0000018990000398844131 0.46680670976638794 
vt 0.9668074250221252 -0.000005638400125462795 
vt 0.9668074250221252 0.9668036699295044 
vt -0.0000018990000398844131 -0.000005638400125462795 
vt -0.0000018990000398844131 0.9668036699295044 
vt -0.0000018990000398844131 -0.000005638400125462795 
vt -0.0000018990000398844131 0.9668036699295044 
vt 0.9668074250221252 -0.000005638400125462795 
vt 0.9668074250221252 0.9668036699295044 
vt -0.0000018990000398844131 0.46680670976638794 
vt 1.9648041725158691 0.46680670976638794 
vt -0.0000018990000398844131 -0.000005638400125462795 
vt 1.9648041725158691 -0.000005638400125462795 
vt -0.0000018990000398844131 0.46680670976638794 
vt 1.9648041725158691 0.46680670976638794 
vt -0.0000018990000398844131 -0.000005638400125462795 
vt 1.9648041725158691 -0.000005638400125462795 
vt 1.9648041725158691 -0.000005638400125462795 
vt -0.0000018990000398844131 -0.000005638400125462795 
vt 1.9648041725158691 0.46680670976638794 
vt -0.0000018990000398844131 0.46680670976638794 
vt 0.9668074250221252 -0.000005638400125462795 
vt 0.9668074250221252 0.9668036699295044 
vt -0.0000018990000398844131 -0.000005638400125462795 
vt -0.0000018990000398844131 0.9668036699295044 
vt -0.0000018990000398844131 -0.000005638400125462795 
vt -0.0000018990000398844131 0.9668036699295044 
vt 0.9668074250221252 -0.000005638400125462795 
vt 0.9668074250221252 0.9668036699295044 
vt -0.0000018990000398844131 0.46680670976638794 
vt 1.9648041725158691 0.46680670976638794 
vt -0.0000018990000398844131 -0.000005638400125462795 
vt 1.9648041725158691 -0.000005638400125462795 
vt -0.0000018990000398844131 0.46680670976638794 
vt 1.9648041725158691 0.46680670976638794 
vt -0.0000018990000398844131 -0.000005638400125462795 
vt 1.9648041725158691 -0.000005638400125462795 
vt 1.9648041725158691 -0.000005638400125462795 
vt -0.0000018990000398844131 -0.000005638400125462795 
vt 1.9648041725158691 0.46680670976638794 
vt -0.0000018990000398844131 0.46680670976638794 
vt -0.0000018990000398844131 -0.000005638400125462795 
vt -0.0000018990000398844131 0.9668036699295044 
vt 0.9668074250221252 -0.000005638400125462795 
vt 0.9668074250221252 0.9668036699295044 
vt -0.0000018990000398844131 0.9668036699295044 
vt -0.0000018990000398844131 -0.000005638400125462795 
vt 0.9668074250221252 0.9668036699295044 
vt 0.9668074250221252 -0.000005638400125462795 
vt 0.9668074250221252 0.9668036699295044 
vt 0.9668074250221252 -0.000005638400125462795 
vt -0.0000018990000398844131 0.9668036699295044 
vt -0.0000018990000398844131 -0.000005638400125462795 
vt 1.9648041725158691 -0.000005638400125462795 
vt -0.0000018990000398844131 -0.000005638400125462795 
vt 1.9648041725158691 0.46680670976638794 
vt -0.0000018990000398844131 0.46680670976638794 
vt -0.0000018990000398844131 0.46680670976638794 
vt 1.9648041725158691 0.46680670976638794 
vt -0.0000018990000398844131 -0.000005638400125462795 
vt 1.9648041725158691 -0.000005638400125462795 
vt -0.0000018990000398844131 -0.000005638400125462795 
vt -0.0000018990000398844131 0.9668036699295044 
vt 0.9668074250221252 -0.000005638400125462795 
vt 0.9668074250221252 0.9668036699295044 
vt -0.0000018990000398844131 0.9668036699295044 
vt 1.0176059007644653 0.9668036699295044 
vt -0.0000018990000398844131 -0.000005638400125462795 
vt 1.0176059007644653 -0.000005638400125462795 
vt -0.0000018990000398844131 -0.000005638400125462795 
vt -0.0000018990000398844131 0.9668036699295044 
vt 0.9668074250221252 -0.000005638400125462795 
vt 0.9668074250221252 0.9668036699295044 
vt 1.0176059007644653 0.9668036699295044 
vt 1.0176059007644653 -0.000005638400125462795 
vt -0.0000018990000398844131 0.9668036699295044 
vt -0.0000018990000398844131 -0.000005638400125462795 
vt -0.0000018990000398844131 0.9668036699295044 
vt 1.0176059007644653 0.9668036699295044 
vt -0.0000018990000398844131 -6.51761531829834 
vt 1.0176059007644653 -6.51761531829834 
vt 0.7051078677177429 0.9668036699295044 
vt 0.9668074250221252 0.9668036699295044 
vt 0.7051078677177429 -0.000005638400125462795 
vt -0.08009999990463257 -6.51761531829834 
vt 0.18159955739974976 -0.000005638400125462795 
vt 0.18159955739974976 0.9668036699295044 
vt -0.0000018990000398844131 0.9668036699295044 
vt 1.0176059007644653 0.9668036699295044 
vt -0.0000018990000398844131 -6.519499778747559 
vt 1.0176059007644653 -6.519499778747559 
vt -0.0000018990000398844131 0.9668036699295044 
vt 0.9922066926956177 0.9668036699295044 
vt -0.0000018990000398844131 -6.51761531829834 
vt 0.9922066926956177 -6.51761531829834 
vt 0.9668074250221252 -6.51761531829834 
vt -0.054700758308172226 -6.51761531829834 
vt 0.9668074250221252 0.9668036699295044 
vt -0.054700758308172226 0.9668036699295044 
vt 0.9668074250221252 -6.51761531829834 
vt -0.08009999990463257 0.9668036699295044 
s on 
f 1/1/1 2/2/2 3/3/3 
f 2/2/2 4/4/4 3/3/3 
f 3/3/3 4/4/4 4/4/4 
f 4/4/4 5/5/5 4/4/4 
f 4/4/4 5/5/5 5/5/5 
f 5/5/5 6/6/6 5/5/5 
f 5/5/5 6/6/6 7/7/7 
f 6/6/6 8/8/8 7/7/7 
f 7/7/7 8/8/8 8/8/8 
f 8/8/8 9/9/9 8/8/8 
f 8/8/8 9/9/9 9/9/9 
f 9/9/9 10/10/10 9/9/9 
f 9/9/9 10/10/10 11/11/11 
f 10/10/10 12/12/12 11/11/11 
f 11/11/11 12/12/12 12/12/12 
f 12/12/12 13/13/13 12/12/12 
f 12/12/12 13/13/13 13/13/13 
f 13/13/13 14/14/14 13/13/13 
f 13/13/13 14/14/14 15/15/15 
f 14/14/14 16/16/16 15/15/15 
f 15/15/15 16/16/16 16/16/16 
f 16/16/16 17/17/17 16/16/16 
f 16/16/16 17/17/17 17/17/17 
f 17/17/17 18/18/18 17/17/17 
f 17/17/17 18/18/18 19/19/19 
f 18/18/18 20/20/20 19/19/19 
f 19/19/19 20/20/20 20/20/20 
f 20/20/20 21/21/21 20/20/20 
f 20/20/20 21/21/21 21/21/21 
f 21/21/21 22/22/22 21/21/21 
f 21/21/21 22/22/22 23/23/23 
f 22/22/22 24/24/24 23/23/23 
f 23/23/23 24/24/24 24/24/24 
f 24/24/24 25/25/25 24/24/24 
f 24/24/24 25/25/25 25/25/25 
f 25/25/25 26/26/26 25/25/25 
f 25/25/25 26/26/26 27/27/27 
f 26/26/26 28/28/28 27/27/27 
f 27/27/27 28/28/28 28/28/28 
f 28/28/28 29/29/29 28/28/28 
f 28/28/28 29/29/29 29/29/29 
f 29/29/29 30/30/30 29/29/29 
f 29/29/29 30/30/30 31/31/31 
f 30/30/30 32/32/32 31/31/31 
f 31/31/31 32/32/32 32/32/32 
f 32/32/32 33/33/33 32/32/32 
f 32/32/32 33/33/33 33/33/33 
f 33/33/33 34/34/34 33/33/33 
f 33/33/33 34/34/34 35/35/35 
f 34/34/34 36/36/36 35/35/35 
f 35/35/35 36/36/36 36/36/36 
f 36/36/36 37/37/37 36/36/36 
f 36/36/36 37/37/37 37/37/37 
f 37/37/37 38/38/38 37/37/37 
f 37/37/37 38/38/38 39/39/39 
f 38/38/38 40/40/40 39/39/39 
f 39/39/39 40/40/40 40/40/40 
f 40/40/40 41/41/41 40/40/40 
f 40/40/40 41/41/41 41/41/41 
f 41/41/41 42/42/42 41/41/41 
f 41/41/41 42/42/42 43/43/43 
f 42/42/42 44/44/44 43/43/43 
f 43/43/43 44/44/44 44/44/44 
f 44/44/44 45/45/45 44/44/44 
f 44/44/44 45/45/45 45/45/45 
f 45/45/45 46/46/46 45/45/45 
f 45/45/45 46/46/46 47/47/47 
f 46/46/46 48/48/48 47/47/47 
f 47/47/47 48/48/48 48/48/48 
f 48/48/48 49/49/49 48/48/48 
f 48/48/48 49/49/49 49/49/49 
f 49/49/49 50/50/50 49/49/49 
f 49/49/49 50/50/50 51/51/51 
f 50/50/50 52/52/52 51/51/51 
f 51/51/51 52/52/52 52/52/52 
f 52/52/52 53/53/53 52/52/52 
f 52/52/52 53/53/53 53/53/53 
f 53/53/53 54/54/54 53/53/53 
f 53/53/53 54/54/54 55/55/55 
f 54/54/54 56/56/56 55/55/55 
f 55/55/55 56/56/56 56/56/56 
f 56/56/56 57/57/57 56/56/56 
f 56/56/56 57/57/57 57/57/57 
f 57/57/57 58/58/58 57/57/57 
f 57/57/57 58/58/58 59/59/59 
f 58/58/58 60/60/60 59/59/59 
f 59/59/59 60/60/60 60/60/60 
f 60/60/60 61/61/61 60/60/60 
f 60/60/60 61/61/61 61/61/61 
f 61/61/61 62/62/62 61/61/61 
f 61/61/61 62/62/62 63/63/63 
f 62/62/62 64/64/64 63/63/63 
f 63/63/63 64/64/64 64/64/64 
f 64/64/64 65/65/65 64/64/64 
f 64/64/64 65/65/65 65/65/65 
f 65/65/65 66/66/66 65/65/65 
f 65/65/65 66/66/66 67/67/67 
f 66/66/66 68/68/68 67/67/67 
f 67/67/67 68/68/68 68/68/68 
f 68/68/68 69/69/69 68/68/68 
f 68/68/68 69/69/69 69/69/69 
f 69/69/69 70/70/70 69/69/69 
f 69/69/69 70/70/70 71/71/71 
f 70/70/70 72/72/72 71/71/71 
f 71/71/71 72/72/72 72/72/72 
f 72/72/72 73/73/73 72/72/72 
f 72/72/72 73/73/73 73/73/73 
f 73/73/73 74/74/74 73/73/73 
f 73/73/73 74/74/74 75/75/75 
f 74/74/74 76/76/76 75/75/75 
f 75/75/75 76/76/76 76/76/76 
f 76/76/76 77/77/77 76/76/76 
f 76/76/76 77/77/77 77/77/77 
f 77/77/77 78/78/78 77/77/77 
f 77/77/77 78/78/78 79/79/79 
f 78/78/78 80/80/80 79/79/79 
f 79/79/79 80/80/80 80/80/80 
f 80/80/80 81/81/81 80/80/80 
f 80/80/80 81/81/81 81/81/81 
f 81/81/81 82/82/82 81/81/81 
f 81/81/81 82/82/82 83/83/83 
f 82/82/82 84/84/84 83/83/83 
f 83/83/83 84/84/84 84/84/84 
f 84/84/84 85/85/85 84/84/84 
f 84/84/84 85/85/85 85/85/85 
f 85/85/85 86/86/86 85/85/85 
f 85/85/85 86/86/86 87/87/87 
f 86/86/86 88/88/88 87/87/87 
f 87/87/87 88/88/88 88/88/88 
f 88/88/88 89/89/89 88/88/88 
f 88/88/88 89/89/89 89/89/89 
f 89/89/89 90/90/90 89/89/89 
f 89/89/89 90/90/90 91/91/91 
f 90/90/90 92/92/92 91/91/91 
f 91/91/91 92/92/92 92/92/92 
f 92/92/92 93/93/93 92/92/92 
f 92/92/92 93/93/93 93/93/93 
f 93/93/93 94/94/94 93/93/93 
f 93/93/93 94/94/94 95/95/95 
f 94/94/94 96/96/96 95/95/95 
f 95/95/95 96/96/96 96/96/96 
f 96/96/96 97/97/97 96/96/96 
f 96/96/96 97/97/97 97/97/97 
f 97/97/97 98/98/98 97/97/97 
f 97/97/97 98/98/98 99/99/99 
f 98/98/98 100/100/100 99/99/99 
f 99/99/99 100/100/100 100/100/100 
f 100/100/100 101/101/101 100/100/100 
f 100/100/100 101/101/101 101/101/101 
f 101/101/101 102/102/102 101/101/101 
f 101/101/101 102/102/102 103/103/103 
f 102/102/102 104/104/104 103/103/103 
f 103/103/103 104/104/104 104/104/104 
f 104/104/104 105/105/105 104/104/104 
f 104/104/104 105/105/105 105/105/105 
f 105/105/105 106/106/106 105/105/105 
f 105/105/105 106/106/106 107/107/107 
f 106/106/106 108/108/108 107/107/107 
f 107/107/107 108/108/108 108/108/108 
f 108/108/108 109/109/109 108/108/108 
f 108/108/108 109/109/109 109/109/109 
f 109/109/109 110/110/110 109/109/109 
f 109/109/109 110/110/110 111/111/111 
f 110/110/110 112/112/112 111/111/111 
f 111/111/111 112/112/112 112/112/112 
f 112/112/112 113/113/113 112/112/112 
f 112/112/112 113/113/113 113/113/113 
f 113/113/113 114/114/114 113/113/113 
f 113/113/113 114/114/114 115/115/115 
f 114/114/114 116/116/116 115/115/115 
f 115/115/115 116/116/116 116/116/116 
f 116/116/116 117/117/117 116/116/116 
f 116/116/116 117/117/117 117/117/117 
f 117/117/117 118/118/118 117/117/117 
f 117/117/117 118/118/118 119/119/119 
f 118/118/118 120/120/120 119/119/119 
f 119/119/119 120/120/120 120/120/120 
f 120/120/120 121/121/121 120/120/120 
f 120/120/120 121/121/121 121/121/121 
f 121/121/121 122/122/122 121/121/121 
f 121/121/121 122/122/122 123/123/123 
f 122/122/122 124/124/124 123/123/123 
f 123/123/123 124/124/124 124/124/124 
f 124/124/124 125/125/125 124/124/124 
f 124/124/124 125/125/125 125/125/125 
f 125/125/125 126/126/126 125/125/125 
f 125/125/125 126/126/126 127/127/127 
f 126/126/126 128/128/128 127/127/127 
f 127/127/127 128/128/128 128/128/128 
f 128/128/128 129/129/129 128/128/128 
f 128/128/128 129/129/129 129/129/129 
f 129/129/129 130/130/130 129/129/129 
f 129/129/129 130/130/130 131/131/131 
f 130/130/130 132/132/132 131/131/131 
f 131/131/131 132/132/132 132/132/132 
f 132/132/132 133/133/133 132/132/132 
f 132/132/132 133/133/133 133/133/133 
f 133/133/133 134/134/134 133/133/133 
f 133/133/133 134/134/134 135/135/135 
f 134/134/134 136/136/136 135/135/135 
f 135/135/135 136/136/136 136/136/136 
f 136/136/136 137/137/137 136/136/136 
f 136/136/136 137/137/137 137/137/137 
f 137/137/137 138/138/138 137/137/137 
f 137/137/137 138/138/138 139/139/139 
f 138/138/138 140/140/140 139/139/139 
f 139/139/139 140/140/140 140/140/140 
f 140/140/140 141/141/141 140/140/140 
f 140/140/140 141/141/141 141/141/141 
f 141/141/141 142/142/142 141/141/141 
f 141/141/141 142/142/142 143/143/143 
f 142/142/142 144/144/144 143/143/143 
f 143/143/143 144/144/144 144/144/144 
f 144/144/144 145/145/145 144/144/144 
f 144/144/144 145/145/145 145/145/145 
f 145/145/145 146/146/146 145/145/145 
f 145/145/145 146/146/146 147/147/147 
f 146/146/146 148/148/148 147/147/147 
f 147/147/147 148/148/148 148/148/148 
f 148/148/148 149/149/149 148/148/148 
f 148/148/148 149/149/149 149/149/149 
f 149/149/149 150/150/150 149/149/149 
f 149/149/149 150/150/150 151/151/151 
f 150/150/150 152/152/152 151/151/151 
f 151/151/151 152/152/152 152/152/152 
f 152/152/152 153/153/153 152/152/152 
f 152/152/152 153/153/153 153/153/153 
f 153/153/153 154/154/154 153/153/153 
f 153/153/153 154/154/154 155/155/155 
f 154/154/154 156/156/156 155/155/155 
f 155/155/155 156/156/156 156/156/156 
f 156/156/156 157/157/157 156/156/156 
f 156/156/156 157/157/157 157/157/157 
f 157/157/157 158/158/158 157/157/157 
f 157/157/157 158/158/158 159/159/159 
f 158/158/158 160/160/160 159/159/159 
f 159/159/159 160/160/160 160/160/160 
f 160/160/160 161/161/161 160/160/160 
f 160/160/160 161/161/161 161/161/161 
f 161/161/161 162/162/162 161/161/161 
f 161/161/161 162/162/162 163/163/163 
f 162/162/162 164/164/164 163/163/163 
f 163/163/163 164/164/164 164/164/164 
f 164/164/164 165/165/165 164/164/164 
f 164/164/164 165/165/165 165/165/165 
f 165/165/165 166/166/166 165/165/165 
f 165/165/165 166/166/166 167/167/167 
f 166/166/166 168/168/168 167/167/167 
f 167/167/167 168/168/168 168/168/168 
f 168/168/168 169/169/169 168/168/168 
f 168/168/168 169/169/169 169/169/169 
f 169/169/169 170/170/170 169/169/169 
f 169/169/169 170/170/170 171/171/171 
f 170/170/170 172/172/172 171/171/171 
f 171/171/171 172/172/172 172/172/172 
f 172/172/172 173/173/173 172/172/172 
f 172/172/172 173/173/173 173/173/173 
f 173/173/173 174/174/174 173/173/173 
f 173/173/173 174/174/174 175/175/175 
f 174/174/174 176/176/176 175/175/175 
f 175/175/175 176/176/176 176/176/176 
f 176/176/176 177/177/177 176/176/176 
f 176/176/176 177/177/177 177/177/177 
f 177/177/177 178/178/178 177/177/177 
f 177/177/177 178/178/178 179/179/179 
f 178/178/178 180/180/180 179/179/179 
f 179/179/179 180/180/180 180/180/180 
f 180/180/180 181/181/181 180/180/180 
f 180/180/180 181/181/181 181/181/181 
f 181/181/181 182/182/182 181/181/181 
f 181/181/181 182/182/182 183/183/183 
f 182/182/182 184/184/184 183/183/183 
f 183/183/183 184/184/184 184/184/184 
f 184/184/184 185/185/185 184/184/184 
f 184/184/184 185/185/185 185/185/185 
f 185/185/185 186/186/186 185/185/185 
f 185/185/185 186/186/186 187/187/187 
f 186/186/186 188/188/188 187/187/187 
f 187/187/187 188/188/188 188/188/188 
f 188/188/188 189/189/189 188/188/188 
f 188/188/188 189/189/189 189/189/189 
f 189/189/189 190/190/190 189/189/189 
f 189/189/189 190/190/190 191/191/191 
f 190/190/190 192/192/192 191/191/191 
f 191/191/191 192/192/192 192/192/192 
f 192/192/192 193/193/193 192/192/192 
f 192/192/192 193/193/193 193/193/193 
f 193/193/193 194/194/194 193/193/193 
f 193/193/193 194/194/194 195/195/195 
f 194/194/194 196/196/196 195/195/195 
f 195/195/195 196/196/196 197/197/197 
f 196/196/196 198/198/198 197/197/197 
f 197/197/197 198/198/198 198/198/198 
f 198/198/198 199/199/199 198/198/198 
f 198/198/198 199/199/199 199/199/199 
f 199/199/199 200/200/200 199/199/199 
f 199/199/199 200/200/200 201/201/201 
f 200/200/200 202/202/202 201/201/201 
f 201/201/201 202/202/202 202/202/202 
f 202/202/202 203/203/203 202/202/202 
f 202/202/202 203/203/203 203/203/203 
f 203/203/203 204/204/204 203/203/203 
f 203/203/203 204/204/204 205/205/205 
f 204/204/204 206/206/206 205/205/205 
f 205/205/205 206/206/206 206/206/206 
f 206/206/206 207/207/207 206/206/206 
f 206/206/206 207/207/207 207/207/207 
f 207/207/207 208/208/208 207/207/207 
f 207/207/207 208/208/208 209/209/209 
f 208/208/208 210/210/210 209/209/209 
f 194/194/194 211/211/211 196/196/196 
f 196/196/196 212/212/212 198/198/198 

