mtllib model_23.mtl
o model_23
v -133.93434143066406 514.4134521484375 233.06515502929688 
v -146.08099365234375 526.56005859375 233.06515502929688 
v -133.93434143066406 514.4134521484375 227.07899475097656 
v -146.08099365234375 526.56005859375 227.07899475097656 
v -125.96310424804688 546.6779174804688 233.06515502929688 
v -113.81644439697266 534.5313110351562 233.06515502929688 
v -125.96310424804688 546.6779174804688 227.07899475097656 
v -113.81644439697266 534.5313110351562 227.07899475097656 
v -110.02061462402344 530.7354736328125 285.55908203125 
v -97.87396240234375 518.5888671875 285.55908203125 
v -110.02061462402344 530.7354736328125 279.57293701171875 
v -97.87396240234375 518.5888671875 279.57293701171875 
v -130.13851928710938 510.61761474609375 279.57293701171875 
v -117.99185943603516 498.47100830078125 279.57293701171875 
v -130.13851928710938 510.61761474609375 285.55908203125 
v -117.99185943603516 498.47100830078125 285.55908203125 
vn -0.7071051001548767 -0.7071051001548767 0.002184694167226553 
vn -0.7071051001548767 -0.7071051001548767 0.002184694167226553 
vn -0.7071051001548767 -0.7071051001548767 0.002184694167226553 
vn -0.7071051001548767 -0.7071051001548767 0.002184694167226553 
vn 0.7071051001548767 0.7071051001548767 0.002184694167226553 
vn 0.7071051001548767 0.7071051001548767 0.002184694167226553 
vn 0.7071051001548767 0.7071051001548767 0.002184694167226553 
vn 0.7071051001548767 0.7071051001548767 0.002184694167226553 
vn 0.7071051001548767 0.7071051001548767 0.002184694167226553 
vn 0.7071051001548767 0.7071051001548767 0.002184694167226553 
vn 0.7071051001548767 0.7071051001548767 0.002184694167226553 
vn 0.7071051001548767 0.7071051001548767 0.002184694167226553 
vn -0.7071051001548767 -0.7071051001548767 0.002184694167226553 
vn -0.7071051001548767 -0.7071051001548767 0.002184694167226553 
vn -0.7071051001548767 -0.7071051001548767 0.002184694167226553 
vn -0.7071051001548767 -0.7071051001548767 0.002184694167226553 
vt 1.4688057899475098 0 
vt 0 0 
vt 1.4688057899475098 0.9375000596046448 
vt 0 0.9375000596046448 
vt 1.4688057899475098 0 
vt 0 0 
vt 1.4688057899475098 0.9375000596046448 
vt 0 0.9375000596046448 
vt 0 0.9375000596046448 
vt 1.4688057899475098 0.9375000596046448 
vt 0 0 
vt 1.4688057899475098 0 
vt 1.4688057899475098 0 
vt 0 0 
vt 1.4688057899475098 0.9375000596046448 
vt 0 0.9375000596046448 
s on 
f 1/1/1 2/2/2 3/3/3 
f 2/2/2 4/4/4 3/3/3 
f 3/3/3 4/4/4 4/4/4 
f 4/4/4 5/5/5 4/4/4 
f 4/4/4 5/5/5 5/5/5 
f 5/5/5 6/6/6 5/5/5 
f 5/5/5 6/6/6 7/7/7 
f 6/6/6 8/8/8 7/7/7 
f 7/7/7 8/8/8 8/8/8 
f 8/8/8 9/9/9 8/8/8 
f 8/8/8 9/9/9 9/9/9 
f 9/9/9 10/10/10 9/9/9 
f 9/9/9 10/10/10 11/11/11 
f 10/10/10 12/12/12 11/11/11 
f 11/11/11 12/12/12 12/12/12 
f 12/12/12 13/13/13 12/12/12 
f 12/12/12 13/13/13 13/13/13 
f 13/13/13 14/14/14 13/13/13 
f 13/13/13 14/14/14 15/15/15 
f 14/14/14 16/16/16 15/15/15 

