mtllib model_20.mtl
o model_20
v 143.4142608642578 368.599853515625 20.399799346923828 
v 143.4142608642578 348.177978515625 20.399799346923828 
v 143.4142608642578 368.599853515625 24.47955894470215 
v 143.4142608642578 348.177978515625 24.47955894470215 
v 143.4142608642578 430.0827331542969 24.47955894470215 
v 143.4142608642578 450.5046081542969 24.47955894470215 
v 143.4142608642578 430.0827331542969 20.399799346923828 
v 143.4142608642578 450.5046081542969 20.399799346923828 
v 184.32261657714844 348.177978515625 20.399799346923828 
v 184.32261657714844 368.599853515625 20.399799346923828 
v 184.32261657714844 348.177978515625 24.47955894470215 
v 184.32261657714844 368.599853515625 24.47955894470215 
v 153.67994689941406 460.7155456542969 20.399799346923828 
v 143.4142608642578 450.5046081542969 20.399799346923828 
v 153.67994689941406 460.7155456542969 24.47955894470215 
v 143.4142608642578 450.5046081542969 24.47955894470215 
v 153.60275268554688 30.769872665405273 20.399799346923828 
v 174.05694580078125 30.769872665405273 20.399799346923828 
v 153.60275268554688 30.769872665405273 24.55998992919922 
v 174.05694580078125 30.769872665405273 24.55998992919922 
v 143.33706665039062 40.98080825805664 24.55998992919922 
v 143.33706665039062 61.402687072753906 24.55998992919922 
v 143.33706665039062 40.98080825805664 20.399799346923828 
v 143.33706665039062 61.402687072753906 20.399799346923828 
v 153.60275268554688 71.6136245727539 20.399799346923828 
v 143.33706665039062 61.402687072753906 20.399799346923828 
v 153.60275268554688 71.6136245727539 24.55998992919922 
v 143.33706665039062 61.402687072753906 24.55998992919922 
v 174.05694580078125 71.6136245727539 20.399799346923828 
v 153.60275268554688 71.6136245727539 20.399799346923828 
v 174.05694580078125 71.6136245727539 24.55998992919922 
v 153.60275268554688 71.6136245727539 24.55998992919922 
v 26.323699951171875 23.383235931396484 20.399799346923828 
v 33.65633010864258 15.996600151062012 20.399799346923828 
v 26.323699951171875 23.383235931396484 22.87999153137207 
v 33.65633010864258 15.996600151062012 22.87999153137207 
v 48.398780822753906 15.996600151062012 22.87999153137207 
v 33.65633010864258 15.996600151062012 22.87999153137207 
v 48.398780822753906 15.996600151062012 20.399799346923828 
v 33.65633010864258 15.996600151062012 20.399799346923828 
v 48.398780822753906 15.996600151062012 20.399799346923828 
v 55.731414794921875 23.383235931396484 20.399799346923828 
v 48.398780822753906 15.996600151062012 22.87999153137207 
v 55.731414794921875 23.383235931396484 22.87999153137207 
v 55.731414794921875 38.15650939941406 22.87999153137207 
v 55.731414794921875 23.383235931396484 22.87999153137207 
v 55.731414794921875 38.15650939941406 20.399799346923828 
v 55.731414794921875 23.383235931396484 20.399799346923828 
v 153.67994689941406 337.7497863769531 24.47955894470215 
v 143.4142608642578 348.177978515625 24.47955894470215 
v 153.67994689941406 337.7497863769531 20.399799346923828 
v 143.4142608642578 348.177978515625 20.399799346923828 
v 33.65633010864258 45.54314422607422 22.87999153137207 
v 48.398780822753906 45.54314422607422 22.87999153137207 
v 33.65633010864258 45.54314422607422 20.399799346923828 
v 48.398780822753906 45.54314422607422 20.399799346923828 
v 26.323699951171875 38.15650939941406 22.87999153137207 
v 33.65633010864258 45.54314422607422 22.87999153137207 
v 26.323699951171875 38.15650939941406 20.399799346923828 
v 33.65633010864258 45.54314422607422 20.399799346923828 
v 55.731414794921875 38.15650939941406 20.399799346923828 
v 48.398780822753906 45.54314422607422 20.399799346923828 
v 55.731414794921875 38.15650939941406 22.87999153137207 
v 48.398780822753906 45.54314422607422 22.87999153137207 
v 174.05694580078125 30.769872665405273 20.399799346923828 
v 184.32261657714844 40.98080825805664 20.399799346923828 
v 174.05694580078125 30.769872665405273 24.55998992919922 
v 184.32261657714844 40.98080825805664 24.55998992919922 
v 174.05694580078125 71.6136245727539 24.55998992919922 
v 184.32261657714844 61.402687072753906 24.55998992919922 
v 174.05694580078125 71.6136245727539 20.399799346923828 
v 184.32261657714844 61.402687072753906 20.399799346923828 
v 184.32261657714844 61.402687072753906 24.55998992919922 
v 184.32261657714844 40.98080825805664 24.55998992919922 
v 184.32261657714844 61.402687072753906 20.399799346923828 
v 184.32261657714844 40.98080825805664 20.399799346923828 
v 26.323699951171875 23.383235931396484 22.87999153137207 
v 26.323699951171875 38.15650939941406 22.87999153137207 
v 26.323699951171875 23.383235931396484 20.399799346923828 
v 26.323699951171875 38.15650939941406 20.399799346923828 
v 184.32261657714844 450.5046081542969 24.47955894470215 
v 184.32261657714844 430.0827331542969 24.47955894470215 
v 184.32261657714844 450.5046081542969 20.399799346923828 
v 184.32261657714844 430.0827331542969 20.399799346923828 
v 153.67994689941406 419.654541015625 20.399799346923828 
v 174.05694580078125 419.654541015625 20.399799346923828 
v 153.67994689941406 419.654541015625 24.47955894470215 
v 174.05694580078125 419.654541015625 24.47955894470215 
v 153.67994689941406 419.654541015625 24.47955894470215 
v 143.4142608642578 430.0827331542969 24.47955894470215 
v 153.67994689941406 419.654541015625 20.399799346923828 
v 143.4142608642578 430.0827331542969 20.399799346923828 
v 153.67994689941406 378.810791015625 20.399799346923828 
v 143.4142608642578 368.599853515625 20.399799346923828 
v 153.67994689941406 378.810791015625 24.47955894470215 
v 143.4142608642578 368.599853515625 24.47955894470215 
v 184.32261657714844 430.0827331542969 24.47955894470215 
v 174.05694580078125 419.654541015625 24.47955894470215 
v 184.32261657714844 430.0827331542969 20.399799346923828 
v 174.05694580078125 419.654541015625 20.399799346923828 
v 174.05694580078125 337.7497863769531 20.399799346923828 
v 184.32261657714844 348.177978515625 20.399799346923828 
v 174.05694580078125 337.7497863769531 24.47955894470215 
v 184.32261657714844 348.177978515625 24.47955894470215 
v 143.33706665039062 40.98080825805664 20.399799346923828 
v 153.60275268554688 30.769872665405273 20.399799346923828 
v 143.33706665039062 40.98080825805664 24.55998992919922 
v 153.60275268554688 30.769872665405273 24.55998992919922 
v 174.05694580078125 378.810791015625 24.47955894470215 
v 184.32261657714844 368.599853515625 24.47955894470215 
v 174.05694580078125 378.810791015625 20.399799346923828 
v 184.32261657714844 368.599853515625 20.399799346923828 
v 153.67994689941406 378.810791015625 24.47955894470215 
v 174.05694580078125 378.810791015625 24.47955894470215 
v 153.67994689941406 378.810791015625 20.399799346923828 
v 174.05694580078125 378.810791015625 20.399799346923828 
v 174.05694580078125 460.7155456542969 20.399799346923828 
v 153.67994689941406 460.7155456542969 20.399799346923828 
v 174.05694580078125 460.7155456542969 24.47955894470215 
v 153.67994689941406 460.7155456542969 24.47955894470215 
v 184.32261657714844 450.5046081542969 20.399799346923828 
v 174.05694580078125 460.7155456542969 20.399799346923828 
v 184.32261657714844 450.5046081542969 24.47955894470215 
v 174.05694580078125 460.7155456542969 24.47955894470215 
v 153.67994689941406 337.7497863769531 20.399799346923828 
v 174.05694580078125 337.7497863769531 20.399799346923828 
v 153.67994689941406 337.7497863769531 24.47955894470215 
v 174.05694580078125 337.7497863769531 24.47955894470215 
vn -0.999997615814209 -2.0682260971124217e-13 0.002184694167226553 
vn -0.999997615814209 -2.0682260971124217e-13 0.002184694167226553 
vn -0.999997615814209 -2.0682260971124217e-13 0.002184694167226553 
vn -0.999997615814209 -2.0682260971124217e-13 0.002184694167226553 
vn -0.999997615814209 -2.0682260971124217e-13 0.002184694167226553 
vn -0.999997615814209 -2.0682260971124217e-13 0.002184694167226553 
vn -0.999997615814209 -2.0682260971124217e-13 0.002184694167226553 
vn -0.999997615814209 -2.0682260971124217e-13 0.002184694167226553 
vn 0.999997615814209 0 0.002184694167226553 
vn 0.999997615814209 0 0.002184694167226553 
vn 0.999997615814209 0 0.002184694167226553 
vn 0.999997615814209 0 0.002184694167226553 
vn -0.7071051001548767 0.7071051001548767 0.002184694167226553 
vn -0.7071051001548767 0.7071051001548767 0.002184694167226553 
vn -0.7071051001548767 0.7071051001548767 0.002184694167226553 
vn -0.7071051001548767 0.7071051001548767 0.002184694167226553 
vn 3.097898456858039e-13 -0.999997615814209 0.002184694167226553 
vn 3.097898456858039e-13 -0.999997615814209 0.002184694167226553 
vn 3.097898456858039e-13 -0.999997615814209 0.002184694167226553 
vn 3.097898456858039e-13 -0.999997615814209 0.002184694167226553 
vn -0.999997615814209 -2.0682260971124217e-13 0.002184694167226553 
vn -0.999997615814209 -2.0682260971124217e-13 0.002184694167226553 
vn -0.999997615814209 -2.0682260971124217e-13 0.002184694167226553 
vn -0.999997615814209 -2.0682260971124217e-13 0.002184694167226553 
vn -0.7017449736595154 0.7124248743057251 0.002184694167226553 
vn -0.7017449736595154 0.7124248743057251 0.002184694167226553 
vn -0.7017449736595154 0.7124248743057251 0.002184694167226553 
vn -0.7017449736595154 0.7124248743057251 0.002184694167226553 
vn -1.0341130485562108e-13 0.999997615814209 0.002184694167226553 
vn -1.0341130485562108e-13 0.999997615814209 0.002184694167226553 
vn -1.0341130485562108e-13 0.999997615814209 0.002184694167226553 
vn -1.0341130485562108e-13 0.999997615814209 0.002184694167226553 
vn -0.7071051001548767 -0.7071051001548767 0.002184694167226553 
vn -0.7071051001548767 -0.7071051001548767 0.002184694167226553 
vn -0.7071051001548767 -0.7071051001548767 0.002184694167226553 
vn -0.7071051001548767 -0.7071051001548767 0.002184694167226553 
vn 3.097898456858039e-13 -0.999997615814209 0.002184694167226553 
vn 3.097898456858039e-13 -0.999997615814209 0.002184694167226553 
vn 3.097898456858039e-13 -0.999997615814209 0.002184694167226553 
vn 3.097898456858039e-13 -0.999997615814209 0.002184694167226553 
vn 0.7071051001548767 -0.7071051001548767 0.002184694167226553 
vn 0.7071051001548767 -0.7071051001548767 0.002184694167226553 
vn 0.7071051001548767 -0.7071051001548767 0.002184694167226553 
vn 0.7071051001548767 -0.7071051001548767 0.002184694167226553 
vn 0.999997615814209 0 0.002184694167226553 
vn 0.999997615814209 0 0.002184694167226553 
vn 0.999997615814209 0 0.002184694167226553 
vn 0.999997615814209 0 0.002184694167226553 
vn -0.7071051001548767 -0.7071051001548767 0.002184694167226553 
vn -0.7071051001548767 -0.7071051001548767 0.002184694167226553 
vn -0.7071051001548767 -0.7071051001548767 0.002184694167226553 
vn -0.7071051001548767 -0.7071051001548767 0.002184694167226553 
vn -1.0341130485562108e-13 0.999997615814209 0.002184694167226553 
vn -1.0341130485562108e-13 0.999997615814209 0.002184694167226553 
vn -1.0341130485562108e-13 0.999997615814209 0.002184694167226553 
vn -1.0341130485562108e-13 0.999997615814209 0.002184694167226553 
vn -0.7071051001548767 0.7071051001548767 0.002184694167226553 
vn -0.7071051001548767 0.7071051001548767 0.002184694167226553 
vn -0.7071051001548767 0.7071051001548767 0.002184694167226553 
vn -0.7071051001548767 0.7071051001548767 0.002184694167226553 
vn 0.7071051001548767 0.7071051001548767 0.002184694167226553 
vn 0.7071051001548767 0.7071051001548767 0.002184694167226553 
vn 0.7071051001548767 0.7071051001548767 0.002184694167226553 
vn 0.7071051001548767 0.7071051001548767 0.002184694167226553 
vn 0.7071051001548767 -0.7071051001548767 0.002184694167226553 
vn 0.7071051001548767 -0.7071051001548767 0.002184694167226553 
vn 0.7071051001548767 -0.7071051001548767 0.002184694167226553 
vn 0.7071051001548767 -0.7071051001548767 0.002184694167226553 
vn 0.7017449736595154 0.7124248743057251 0.002184694167226553 
vn 0.7017449736595154 0.7124248743057251 0.002184694167226553 
vn 0.7017449736595154 0.7124248743057251 0.002184694167226553 
vn 0.7017449736595154 0.7124248743057251 0.002184694167226553 
vn 0.999997615814209 0 0.002184694167226553 
vn 0.999997615814209 0 0.002184694167226553 
vn 0.999997615814209 0 0.002184694167226553 
vn 0.999997615814209 0 0.002184694167226553 
vn -0.999997615814209 -2.0682260971124217e-13 0.002184694167226553 
vn -0.999997615814209 -2.0682260971124217e-13 0.002184694167226553 
vn -0.999997615814209 -2.0682260971124217e-13 0.002184694167226553 
vn -0.999997615814209 -2.0682260971124217e-13 0.002184694167226553 
vn 0.999997615814209 0 0.002184694167226553 
vn 0.999997615814209 0 0.002184694167226553 
vn 0.999997615814209 0 0.002184694167226553 
vn 0.999997615814209 0 0.002184694167226553 
vn 3.097898456858039e-13 -0.999997615814209 0.002184694167226553 
vn 3.097898456858039e-13 -0.999997615814209 0.002184694167226553 
vn 3.097898456858039e-13 -0.999997615814209 0.002184694167226553 
vn 3.097898456858039e-13 -0.999997615814209 0.002184694167226553 
vn -0.7071051001548767 -0.7071051001548767 0.002184694167226553 
vn -0.7071051001548767 -0.7071051001548767 0.002184694167226553 
vn -0.7071051001548767 -0.7071051001548767 0.002184694167226553 
vn -0.7071051001548767 -0.7071051001548767 0.002184694167226553 
vn -0.7071051001548767 0.7071051001548767 0.002184694167226553 
vn -0.7071051001548767 0.7071051001548767 0.002184694167226553 
vn -0.7071051001548767 0.7071051001548767 0.002184694167226553 
vn -0.7071051001548767 0.7071051001548767 0.002184694167226553 
vn 0.7071051001548767 -0.7071051001548767 0.002184694167226553 
vn 0.7071051001548767 -0.7071051001548767 0.002184694167226553 
vn 0.7071051001548767 -0.7071051001548767 0.002184694167226553 
vn 0.7071051001548767 -0.7071051001548767 0.002184694167226553 
vn 0.7071051001548767 -0.7071051001548767 0.002184694167226553 
vn 0.7071051001548767 -0.7071051001548767 0.002184694167226553 
vn 0.7071051001548767 -0.7071051001548767 0.002184694167226553 
vn 0.7071051001548767 -0.7071051001548767 0.002184694167226553 
vn -0.7071051001548767 -0.7071051001548767 0.002184694167226553 
vn -0.7071051001548767 -0.7071051001548767 0.002184694167226553 
vn -0.7071051001548767 -0.7071051001548767 0.002184694167226553 
vn -0.7071051001548767 -0.7071051001548767 0.002184694167226553 
vn 0.7071051001548767 0.7071051001548767 0.002184694167226553 
vn 0.7071051001548767 0.7071051001548767 0.002184694167226553 
vn 0.7071051001548767 0.7071051001548767 0.002184694167226553 
vn 0.7071051001548767 0.7071051001548767 0.002184694167226553 
vn -1.0341130485562108e-13 0.999997615814209 0.002184694167226553 
vn -1.0341130485562108e-13 0.999997615814209 0.002184694167226553 
vn -1.0341130485562108e-13 0.999997615814209 0.002184694167226553 
vn -1.0341130485562108e-13 0.999997615814209 0.002184694167226553 
vn -1.0341130485562108e-13 0.999997615814209 0.002184694167226553 
vn -1.0341130485562108e-13 0.999997615814209 0.002184694167226553 
vn -1.0341130485562108e-13 0.999997615814209 0.002184694167226553 
vn -1.0341130485562108e-13 0.999997615814209 0.002184694167226553 
vn 0.7071051001548767 0.7071051001548767 0.002184694167226553 
vn 0.7071051001548767 0.7071051001548767 0.002184694167226553 
vn 0.7071051001548767 0.7071051001548767 0.002184694167226553 
vn 0.7071051001548767 0.7071051001548767 0.002184694167226553 
vn 3.097898456858039e-13 -0.999997615814209 0.002184694167226553 
vn 3.097898456858039e-13 -0.999997615814209 0.002184694167226553 
vn 3.097898456858039e-13 -0.999997615814209 0.002184694167226553 
vn 3.097898456858039e-13 -0.999997615814209 0.002184694167226553 
vt 19.92972183227539 0.9668009281158447 
vt 24.91991424560547 0.9668009281158447 
vt 19.92972183227539 0 
vt 24.91991424560547 0 
vt -0.000011609199646045454 0 
vt 4.95898962020874 0 
vt -0.000011609199646045454 0.9668009281158447 
vt 4.95898962020874 0.9668009281158447 
vt -4.021501064300537 0.9668009281158447 
vt 0.9668043851852417 0.9668009281158447 
vt -4.021501064300537 0 
vt 0.9668043851852417 0 
vt 3.9609053134918213 0.9668009281158447 
vt 0.4316229224205017 0.9668009281158447 
vt 3.9609053134918213 0 
vt 0.4316229224205017 0 
vt -0.000011609199646045454 0.9668009281158447 
vt 4.95898962020874 0.9668009281158447 
vt -0.000011609199646045454 0 
vt 4.95898962020874 0 
vt 4.95898962020874 0 
vt -0.000011609199646045454 0 
vt 4.95898962020874 0.9668009281158447 
vt -0.000011609199646045454 0.9668009281158447 
vt -0.000011609199646045454 0.9668009281158447 
vt 3.498002767562866 0.9668009281158447 
vt -0.000011609199646045454 0 
vt 3.498002767562866 0 
vt -0.000011609199646045454 0.9668009281158447 
vt 4.95898962020874 0.9668009281158447 
vt -0.000011609199646045454 0 
vt 4.95898962020874 0 
vt 4.203119277954102 0.9668009281158447 
vt -0.000011609199646045454 0.9668009281158447 
vt 4.203119277954102 0 
vt -0.000011609199646045454 0 
vt -0.000011609199646045454 0 
vt 5.956997871398926 0 
vt -0.000011609199646045454 0.9668009281158447 
vt 5.956997871398926 0.9668009281158447 
vt 4.203119277954102 0.9668009281158447 
vt -0.000011609199646045454 0.9668009281158447 
vt 4.203119277954102 0 
vt -0.000011609199646045454 0 
vt 5.956997871398926 0 
vt -0.000011609199646045454 0 
vt 5.956997871398926 0.9668009281158447 
vt -0.000011609199646045454 0.9668009281158447 
vt 3.498002767562866 0 
vt -0.000011609199646045454 0 
vt 3.498002767562866 0.9668009281158447 
vt -0.000011609199646045454 0.9668009281158447 
vt 5.956997871398926 0 
vt -0.000011609199646045454 0 
vt 5.956997871398926 0.9668009281158447 
vt -0.000011609199646045454 0.9668009281158447 
vt 4.203119277954102 0 
vt -0.000011609199646045454 0 
vt 4.203119277954102 0.9668009281158447 
vt -0.000011609199646045454 0.9668009281158447 
vt -0.000011609199646045454 0.9668009281158447 
vt 4.203119277954102 0.9668009281158447 
vt -0.000011609199646045454 0 
vt 4.203119277954102 0 
vt -0.5644974112510681 0.9668009281158447 
vt 2.9628968238830566 0.9668009281158447 
vt -0.5644974112510681 0 
vt 2.9628968238830566 0 
vt 2.9628968238830566 0 
vt -0.5644974112510681 0 
vt 2.9628968238830566 0.9668009281158447 
vt -0.5644974112510681 0.9668009281158447 
vt 4.95898962020874 0 
vt -0.000011609199646045454 0 
vt 4.95898962020874 0.9668009281158447 
vt -0.000011609199646045454 0.9668009281158447 
vt -0.000011609199646045454 0 
vt 5.956997871398926 0 
vt -0.000011609199646045454 0.9668009281158447 
vt 5.956997871398926 0.9668009281158447 
vt 4.95898962020874 0 
vt -0.000011609199646045454 0 
vt 4.95898962020874 0.9668009281158447 
vt -0.000011609199646045454 0.9668009281158447 
vt -0.000011609199646045454 0.9668009281158447 
vt 4.95898962020874 0.9668009281158447 
vt -0.000011609199646045454 0 
vt 4.95898962020874 0 
vt 0.4316229224205017 0 
vt 3.9609053134918213 0 
vt 0.4316229224205017 0.9668009281158447 
vt 3.9609053134918213 0.9668009281158447 
vt 14.084037780761719 0.9668009281158447 
vt 17.61128044128418 0.9668009281158447 
vt 14.084037780761719 0 
vt 17.61128044128418 0 
vt 3.9609053134918213 0 
vt 0.4316229224205017 0 
vt 3.9609053134918213 0.9668009281158447 
vt 0.4316229224205017 0.9668009281158447 
vt -0.5644974112510681 0.9668009281158447 
vt 2.9628968238830566 0.9668009281158447 
vt -0.5644974112510681 0 
vt 2.9628968238830566 0 
vt -0.000011609199646045454 0.9668009281158447 
vt 3.498002767562866 0.9668009281158447 
vt -0.000011609199646045454 0 
vt 3.498002767562866 0 
vt -11.150381088256836 0 
vt -14.67770004272461 0 
vt -11.150381088256836 0.9668009281158447 
vt -14.67770004272461 0.9668009281158447 
vt 4.95898962020874 0 
vt -0.000011609199646045454 0 
vt 4.95898962020874 0.9668009281158447 
vt -0.000011609199646045454 0.9668009281158447 
vt 4.95898962020874 0.9668009281158447 
vt -0.000011609199646045454 0.9668009281158447 
vt 4.95898962020874 0 
vt -0.000011609199646045454 0 
vt 0.4316229224205017 0.9668009281158447 
vt 3.9609053134918213 0.9668009281158447 
vt 0.4316229224205017 0 
vt 3.9609053134918213 0 
vt -0.000011609199646045454 0.9668009281158447 
vt 4.95898962020874 0.9668009281158447 
vt -0.000011609199646045454 0 
vt 4.95898962020874 0 
s on 
f 1/1/1 2/2/2 3/3/3 
f 2/2/2 4/4/4 3/3/3 
f 3/3/3 4/4/4 4/4/4 
f 4/4/4 5/5/5 4/4/4 
f 4/4/4 5/5/5 5/5/5 
f 5/5/5 6/6/6 5/5/5 
f 5/5/5 6/6/6 7/7/7 
f 6/6/6 8/8/8 7/7/7 
f 7/7/7 8/8/8 8/8/8 
f 8/8/8 9/9/9 8/8/8 
f 8/8/8 9/9/9 9/9/9 
f 9/9/9 10/10/10 9/9/9 
f 9/9/9 10/10/10 11/11/11 
f 10/10/10 12/12/12 11/11/11 
f 11/11/11 12/12/12 12/12/12 
f 12/12/12 13/13/13 12/12/12 
f 12/12/12 13/13/13 13/13/13 
f 13/13/13 14/14/14 13/13/13 
f 13/13/13 14/14/14 15/15/15 
f 14/14/14 16/16/16 15/15/15 
f 15/15/15 16/16/16 16/16/16 
f 16/16/16 17/17/17 16/16/16 
f 16/16/16 17/17/17 17/17/17 
f 17/17/17 18/18/18 17/17/17 
f 17/17/17 18/18/18 19/19/19 
f 18/18/18 20/20/20 19/19/19 
f 19/19/19 20/20/20 20/20/20 
f 20/20/20 21/21/21 20/20/20 
f 20/20/20 21/21/21 21/21/21 
f 21/21/21 22/22/22 21/21/21 
f 21/21/21 22/22/22 23/23/23 
f 22/22/22 24/24/24 23/23/23 
f 23/23/23 24/24/24 24/24/24 
f 24/24/24 25/25/25 24/24/24 
f 24/24/24 25/25/25 25/25/25 
f 25/25/25 26/26/26 25/25/25 
f 25/25/25 26/26/26 27/27/27 
f 26/26/26 28/28/28 27/27/27 
f 27/27/27 28/28/28 28/28/28 
f 28/28/28 29/29/29 28/28/28 
f 28/28/28 29/29/29 29/29/29 
f 29/29/29 30/30/30 29/29/29 
f 29/29/29 30/30/30 31/31/31 
f 30/30/30 32/32/32 31/31/31 
f 31/31/31 32/32/32 32/32/32 
f 32/32/32 33/33/33 32/32/32 
f 32/32/32 33/33/33 33/33/33 
f 33/33/33 34/34/34 33/33/33 
f 33/33/33 34/34/34 35/35/35 
f 34/34/34 36/36/36 35/35/35 
f 35/35/35 36/36/36 36/36/36 
f 36/36/36 37/37/37 36/36/36 
f 36/36/36 37/37/37 37/37/37 
f 37/37/37 38/38/38 37/37/37 
f 37/37/37 38/38/38 39/39/39 
f 38/38/38 40/40/40 39/39/39 
f 39/39/39 40/40/40 40/40/40 
f 40/40/40 41/41/41 40/40/40 
f 40/40/40 41/41/41 41/41/41 
f 41/41/41 42/42/42 41/41/41 
f 41/41/41 42/42/42 43/43/43 
f 42/42/42 44/44/44 43/43/43 
f 43/43/43 44/44/44 44/44/44 
f 44/44/44 45/45/45 44/44/44 
f 44/44/44 45/45/45 45/45/45 
f 45/45/45 46/46/46 45/45/45 
f 45/45/45 46/46/46 47/47/47 
f 46/46/46 48/48/48 47/47/47 
f 47/47/47 48/48/48 48/48/48 
f 48/48/48 49/49/49 48/48/48 
f 48/48/48 49/49/49 49/49/49 
f 49/49/49 50/50/50 49/49/49 
f 49/49/49 50/50/50 51/51/51 
f 50/50/50 52/52/52 51/51/51 
f 51/51/51 52/52/52 52/52/52 
f 52/52/52 53/53/53 52/52/52 
f 52/52/52 53/53/53 53/53/53 
f 53/53/53 54/54/54 53/53/53 
f 53/53/53 54/54/54 55/55/55 
f 54/54/54 56/56/56 55/55/55 
f 55/55/55 56/56/56 56/56/56 
f 56/56/56 57/57/57 56/56/56 
f 56/56/56 57/57/57 57/57/57 
f 57/57/57 58/58/58 57/57/57 
f 57/57/57 58/58/58 59/59/59 
f 58/58/58 60/60/60 59/59/59 
f 59/59/59 60/60/60 60/60/60 
f 60/60/60 61/61/61 60/60/60 
f 60/60/60 61/61/61 61/61/61 
f 61/61/61 62/62/62 61/61/61 
f 61/61/61 62/62/62 63/63/63 
f 62/62/62 64/64/64 63/63/63 
f 63/63/63 64/64/64 64/64/64 
f 64/64/64 65/65/65 64/64/64 
f 64/64/64 65/65/65 65/65/65 
f 65/65/65 66/66/66 65/65/65 
f 65/65/65 66/66/66 67/67/67 
f 66/66/66 68/68/68 67/67/67 
f 67/67/67 68/68/68 68/68/68 
f 68/68/68 69/69/69 68/68/68 
f 68/68/68 69/69/69 69/69/69 
f 69/69/69 70/70/70 69/69/69 
f 69/69/69 70/70/70 71/71/71 
f 70/70/70 72/72/72 71/71/71 
f 71/71/71 72/72/72 72/72/72 
f 72/72/72 73/73/73 72/72/72 
f 72/72/72 73/73/73 73/73/73 
f 73/73/73 74/74/74 73/73/73 
f 73/73/73 74/74/74 75/75/75 
f 74/74/74 76/76/76 75/75/75 
f 75/75/75 76/76/76 76/76/76 
f 76/76/76 77/77/77 76/76/76 
f 76/76/76 77/77/77 77/77/77 
f 77/77/77 78/78/78 77/77/77 
f 77/77/77 78/78/78 79/79/79 
f 78/78/78 80/80/80 79/79/79 
f 79/79/79 80/80/80 80/80/80 
f 80/80/80 81/81/81 80/80/80 
f 80/80/80 81/81/81 81/81/81 
f 81/81/81 82/82/82 81/81/81 
f 81/81/81 82/82/82 83/83/83 
f 82/82/82 84/84/84 83/83/83 
f 83/83/83 84/84/84 84/84/84 
f 84/84/84 85/85/85 84/84/84 
f 84/84/84 85/85/85 85/85/85 
f 85/85/85 86/86/86 85/85/85 
f 85/85/85 86/86/86 87/87/87 
f 86/86/86 88/88/88 87/87/87 
f 87/87/87 88/88/88 88/88/88 
f 88/88/88 89/89/89 88/88/88 
f 88/88/88 89/89/89 89/89/89 
f 89/89/89 90/90/90 89/89/89 
f 89/89/89 90/90/90 91/91/91 
f 90/90/90 92/92/92 91/91/91 
f 91/91/91 92/92/92 92/92/92 
f 92/92/92 93/93/93 92/92/92 
f 92/92/92 93/93/93 93/93/93 
f 93/93/93 94/94/94 93/93/93 
f 93/93/93 94/94/94 95/95/95 
f 94/94/94 96/96/96 95/95/95 
f 95/95/95 96/96/96 96/96/96 
f 96/96/96 97/97/97 96/96/96 
f 96/96/96 97/97/97 97/97/97 
f 97/97/97 98/98/98 97/97/97 
f 97/97/97 98/98/98 99/99/99 
f 98/98/98 100/100/100 99/99/99 
f 99/99/99 100/100/100 100/100/100 
f 100/100/100 101/101/101 100/100/100 
f 100/100/100 101/101/101 101/101/101 
f 101/101/101 102/102/102 101/101/101 
f 101/101/101 102/102/102 103/103/103 
f 102/102/102 104/104/104 103/103/103 
f 103/103/103 104/104/104 104/104/104 
f 104/104/104 105/105/105 104/104/104 
f 104/104/104 105/105/105 105/105/105 
f 105/105/105 106/106/106 105/105/105 
f 105/105/105 106/106/106 107/107/107 
f 106/106/106 108/108/108 107/107/107 
f 107/107/107 108/108/108 108/108/108 
f 108/108/108 109/109/109 108/108/108 
f 108/108/108 109/109/109 109/109/109 
f 109/109/109 110/110/110 109/109/109 
f 109/109/109 110/110/110 111/111/111 
f 110/110/110 112/112/112 111/111/111 
f 111/111/111 112/112/112 112/112/112 
f 112/112/112 113/113/113 112/112/112 
f 112/112/112 113/113/113 113/113/113 
f 113/113/113 114/114/114 113/113/113 
f 113/113/113 114/114/114 115/115/115 
f 114/114/114 116/116/116 115/115/115 
f 115/115/115 116/116/116 116/116/116 
f 116/116/116 117/117/117 116/116/116 
f 116/116/116 117/117/117 117/117/117 
f 117/117/117 118/118/118 117/117/117 
f 117/117/117 118/118/118 119/119/119 
f 118/118/118 120/120/120 119/119/119 
f 119/119/119 120/120/120 120/120/120 
f 120/120/120 121/121/121 120/120/120 
f 120/120/120 121/121/121 121/121/121 
f 121/121/121 122/122/122 121/121/121 
f 121/121/121 122/122/122 123/123/123 
f 122/122/122 124/124/124 123/123/123 
f 123/123/123 124/124/124 124/124/124 
f 124/124/124 125/125/125 124/124/124 
f 124/124/124 125/125/125 125/125/125 
f 125/125/125 126/126/126 125/125/125 
f 125/125/125 126/126/126 127/127/127 
f 126/126/126 128/128/128 127/127/127 

