mtllib model_21.mtl
o model_21
v 153.67994689941406 378.810791015625 24.47958755493164 
v 143.4142608642578 368.599853515625 24.47958755493164 
v 174.05694580078125 378.810791015625 24.47958755493164 
v 184.32261657714844 368.599853515625 24.47958755493164 
v 184.32261657714844 348.177978515625 24.47958755493164 
v 174.05694580078125 337.7497863769531 24.47958755493164 
v 153.67994689941406 337.7497863769531 24.47958755493164 
v 143.4142608642578 348.177978515625 24.47958755493164 
v 26.323699951171875 23.383235931396484 22.880020141601562 
v 33.65633010864258 15.996600151062012 22.880020141601562 
v 26.323699951171875 38.15650939941406 22.880020141601562 
v 48.398780822753906 15.996600151062012 22.880020141601562 
v 55.731414794921875 23.383235931396484 22.880020141601562 
v 55.731414794921875 38.15650939941406 22.880020141601562 
v 48.398780822753906 45.54314422607422 22.880020141601562 
v 33.65633010864258 45.54314422607422 22.880020141601562 
v 143.33706665039062 40.98080825805664 24.56001853942871 
v 153.60275268554688 30.769872665405273 24.56001853942871 
v 143.33706665039062 61.402687072753906 24.56001853942871 
v 174.05694580078125 30.769872665405273 24.56001853942871 
v 184.32261657714844 40.98080825805664 24.56001853942871 
v 184.32261657714844 61.402687072753906 24.56001853942871 
v 174.05694580078125 71.6136245727539 24.56001853942871 
v 153.60275268554688 71.6136245727539 24.56001853942871 
v 143.4142608642578 430.0827331542969 24.47958755493164 
v 153.67994689941406 419.654541015625 24.47958755493164 
v 143.4142608642578 450.5046081542969 24.47958755493164 
v 174.05694580078125 419.654541015625 24.47958755493164 
v 184.32261657714844 430.0827331542969 24.47958755493164 
v 184.32261657714844 450.5046081542969 24.47958755493164 
v 174.05694580078125 460.7155456542969 24.47958755493164 
v 153.67994689941406 460.7155456542969 24.47958755493164 
vn 0 0 1 
vn 0 0 1 
vn 0 0 1 
vn 0 0 1 
vn 0 0 1 
vn 0 0 1 
vn 0 0 1 
vn 0 0 1 
vn 0 0 1 
vn 0 0 1 
vn 0 0 1 
vn 0 0 1 
vn 0 0 1 
vn 0 0 1 
vn 0 0 1 
vn 0 0 1 
vn 0 0 1 
vn 0 0 1 
vn 0 0 1 
vn 0 0 1 
vn 0 0 1 
vn 0 0 1 
vn 0 0 1 
vn 0 0 1 
vn 0 0 1 
vn 0 0 1 
vn 0 0 1 
vn 0 0 1 
vn 0 0 1 
vn 0 0 1 
vn 0 0 1 
vn 0 0 1 
vt 3.9609580039978027 -2.0273120403289795 
vt 2.9628586769104004 -3.025399923324585 
vt 3.9609580039978027 -0.000007519300197600387 
vt 2.9628586769104004 0.9667998552322388 
vt 0.9667664170265198 0.9667998552322388 
vt 0.000004177999926469056 -0.000007519300197600387 
vt 0.000004177999926469056 -2.0273120403289795 
vt 0.9667664170265198 -3.025399923324585 
vt -2.025399923324585 -0.000007519300197600387 
vt -1.0273005962371826 0.9667998552322388 
vt -2.025399923324585 -2.0273120403289795 
vt 0.9667664170265198 0.9667998552322388 
vt 1.9647592306137085 -0.000007519300197600387 
vt 1.9647592306137085 -2.0273120403289795 
vt 0.9667664170265198 -3.025399923324585 
vt -1.0273005962371826 -3.025399923324585 
vt 0.9667664170265198 -3.025399923324585 
vt 0.000004177999926469056 -2.0273120403289795 
vt 2.9628586769104004 -3.025399923324585 
vt 0.000004177999926469056 -0.000007519300197600387 
vt 0.9667664170265198 0.9667998552322388 
vt 2.9628586769104004 0.9667998552322388 
vt 3.9609580039978027 -0.000007519300197600387 
vt 3.9609580039978027 -2.0273120403289795 
vt 8.951241493225098 -3.025399923324585 
vt 7.9531426429748535 -2.0273120403289795 
vt 10.947334289550781 -3.025399923324585 
vt 7.9531426429748535 -0.000007519300197600387 
vt 8.951241493225098 0.9667998552322388 
vt 10.947334289550781 0.9667998552322388 
vt 11.945326805114746 -0.000007519300197600387 
vt 11.945326805114746 -2.0273120403289795 
s on 
f 1/1/1 2/2/2 3/3/3 
f 2/2/2 4/4/4 3/3/3 
f 3/3/3 4/4/4 4/4/4 
f 4/4/4 2/2/2 4/4/4 
f 4/4/4 2/2/2 5/5/5 
f 2/2/2 6/6/6 5/5/5 
f 5/5/5 6/6/6 6/6/6 
f 6/6/6 2/2/2 6/6/6 
f 6/6/6 2/2/2 7/7/7 
f 2/2/2 8/8/8 7/7/7 
f 7/7/7 8/8/8 8/8/8 
f 8/8/8 9/9/9 8/8/8 
f 8/8/8 9/9/9 9/9/9 
f 9/9/9 10/10/10 9/9/9 
f 9/9/9 10/10/10 11/11/11 
f 10/10/10 12/12/12 11/11/11 
f 11/11/11 12/12/12 13/13/13 
f 12/12/12 13/13/13 13/13/13 
f 13/13/13 13/13/13 13/13/13 
f 13/13/13 14/14/14 13/13/13 
f 13/13/13 14/14/14 11/11/11 
f 14/14/14 15/15/15 11/11/11 
f 11/11/11 15/15/15 16/16/16 
f 15/15/15 16/16/16 16/16/16 
f 16/16/16 16/16/16 17/17/17 
f 16/16/16 17/17/17 17/17/17 
f 17/17/17 17/17/17 17/17/17 
f 17/17/17 18/18/18 17/17/17 
f 17/17/17 18/18/18 19/19/19 
f 18/18/18 20/20/20 19/19/19 
f 19/19/19 20/20/20 21/21/21 
f 20/20/20 21/21/21 21/21/21 
f 21/21/21 21/21/21 21/21/21 
f 21/21/21 22/22/22 21/21/21 
f 21/21/21 22/22/22 19/19/19 
f 22/22/22 23/23/23 19/19/19 
f 19/19/19 23/23/23 24/24/24 
f 23/23/23 24/24/24 24/24/24 
f 24/24/24 24/24/24 25/25/25 
f 24/24/24 25/25/25 25/25/25 
f 25/25/25 25/25/25 25/25/25 
f 25/25/25 26/26/26 25/25/25 
f 25/25/25 26/26/26 27/27/27 
f 26/26/26 28/28/28 27/27/27 
f 27/27/27 28/28/28 29/29/29 
f 28/28/28 29/29/29 29/29/29 
f 29/29/29 29/29/29 29/29/29 
f 29/29/29 30/30/30 29/29/29 
f 29/29/29 30/30/30 27/27/27 
f 30/30/30 31/31/31 27/27/27 
f 27/27/27 31/31/31 32/32/32 

