mtllib model_19.mtl
o model_19
v -286.63800048828125 122.87699890136719 77.75980377197266 
v 53.278770446777344 122.87699890136719 77.75980377197266 
v -286.63800048828125 368.6359558105469 77.75980377197266 
v 53.278770446777344 368.6359558105469 77.75980377197266 
vn 0 0 1 
vn 0 0 1 
vn 0 0 1 
vn 0 0 1 
vt 7.59766960144043 -6.453084945678711 
vt -6.453084945678711 -7.597700119018555 
vt 6.453054428100586 7.59766960144043 
vt -7.597700119018555 6.453054428100586 
s on 
f 1/1/1 2/2/2 3/3/3 
f 2/2/2 4/4/4 3/3/3 

