mtllib model_8.mtl
o model_8
v -238.6457977294922 607.2675170898438 286.63934326171875 
v -122.87675476074219 491.4307861328125 286.63934326171875 
v -238.6457977294922 607.2675170898438 204.7193145751953 
v -122.87675476074219 491.4307861328125 204.7193145751953 
v -81.91931915283203 532.3936157226562 286.63934326171875 
v -81.91931915283203 368.62982177734375 286.63934326171875 
v -81.91931915283203 491.4307861328125 204.7193145751953 
v -81.91931915283203 368.62982177734375 204.7193145751953 
v -122.87675476074219 491.4307861328125 286.63934326171875 
v -81.91931915283203 532.3936157226562 286.63934326171875 
v -122.87675476074219 491.4307861328125 204.7193145751953 
v -81.91931915283203 532.3936157226562 204.7193145751953 
v -81.91931915283203 368.62982177734375 286.63934326171875 
v -122.87675476074219 327.6669921875 286.63934326171875 
v -81.91931915283203 368.62982177734375 204.7193145751953 
v -122.87675476074219 327.6669921875 204.7193145751953 
v -286.6365051269531 491.4307861328125 204.7193145751953 
v -286.6365051269531 327.6669921875 204.7193145751953 
v -286.6365051269531 491.4307861328125 286.63934326171875 
v -286.6365051269531 327.6669921875 286.63934326171875 
v -122.87675476074219 327.6669921875 204.7193145751953 
v -122.87675476074219 327.6669921875 286.63934326171875 
v -163.8341827392578 327.6669921875 204.7193145751953 
v -286.6365051269531 327.6669921875 286.63934326171875 
v -286.6365051269531 327.6669921875 204.7193145751953 
v -238.6457977294922 607.2675170898438 204.7193145751953 
v -286.6365051269531 491.4307861328125 204.7193145751953 
v -238.6457977294922 607.2675170898438 286.63934326171875 
v -286.6365051269531 491.4307861328125 286.63934326171875 
v -163.8341827392578 327.6669921875 161.9217529296875 
v -163.8341827392578 327.6669921875 204.7193145751953 
v -286.6365051269531 327.6669921875 161.9217529296875 
v -286.6365051269531 327.6669921875 204.7193145751953 
v -40.961883544921875 532.3936157226562 204.7193145751953 
v -81.91931915283203 532.3936157226562 204.7193145751953 
v -81.91931915283203 532.3936157226562 286.63934326171875 
v -40.961883544921875 532.3936157226562 204.7193145751953 
v -81.91931915283203 532.3936157226562 286.63934326171875 
v -81.91931915283203 491.4307861328125 204.7193145751953 
vn 0.7071051001548767 0.7071051001548767 0.002184694167226553 
vn 0.7071051001548767 0.7071051001548767 0.002184694167226553 
vn 0.7071051001548767 0.7071051001548767 0.002184694167226553 
vn 0.7071051001548767 0.7071051001548767 0.002184694167226553 
vn 0.999997615814209 0 0.002184694167226553 
vn 0.999997615814209 0 0.002184694167226553 
vn 0.999997615814209 0 0.002184694167226553 
vn 0.999997615814209 0 0.002184694167226553 
vn -0.7071051001548767 0.7071051001548767 0.002184694167226553 
vn -0.7071051001548767 0.7071051001548767 0.002184694167226553 
vn -0.7071051001548767 0.7071051001548767 0.002184694167226553 
vn -0.7071051001548767 0.7071051001548767 0.002184694167226553 
vn 0.7071051001548767 -0.7071051001548767 0.002184694167226553 
vn 0.7071051001548767 -0.7071051001548767 0.002184694167226553 
vn 0.7071051001548767 -0.7071051001548767 0.002184694167226553 
vn 0.7071051001548767 -0.7071051001548767 0.002184694167226553 
vn -0.999997615814209 -2.0682260971124217e-13 0.002184694167226553 
vn -0.999997615814209 -2.0682260971124217e-13 0.002184694167226553 
vn -0.999997615814209 -2.0682260971124217e-13 0.002184694167226553 
vn -0.999997615814209 -2.0682260971124217e-13 0.002184694167226553 
vn 3.097898456858039e-13 -0.999997615814209 0.002184694167226553 
vn 3.097898456858039e-13 -0.999997615814209 0.002184694167226553 
vn 3.097898456858039e-13 -0.999997615814209 0.002184694167226553 
vn 3.097898456858039e-13 -0.999997615814209 0.002184694167226553 
vn 3.097898456858039e-13 -0.999997615814209 0.002184694167226553 
vn -0.9238772988319397 0.38268253207206726 0.002184694167226553 
vn -0.9238772988319397 0.38268253207206726 0.002184694167226553 
vn -0.9238772988319397 0.38268253207206726 0.002184694167226553 
vn -0.9238772988319397 0.38268253207206726 0.002184694167226553 
vn 3.097898456858039e-13 -0.999997615814209 0.002184694167226553 
vn 3.097898456858039e-13 -0.999997615814209 0.002184694167226553 
vn 3.097898456858039e-13 -0.999997615814209 0.002184694167226553 
vn 3.097898456858039e-13 -0.999997615814209 0.002184694167226553 
vn -1.0341130485562108e-13 0.999997615814209 0.002184694167226553 
vn -1.0341130485562108e-13 0.999997615814209 0.002184694167226553 
vn -1.0341130485562108e-13 0.999997615814209 0.002184694167226553 
vn 0.6676180958747864 -0.6662835478782654 0.33219319581985474 
vn 0.6676180958747864 -0.6662835478782654 0.33219319581985474 
vn 0.6676180958747864 -0.6662835478782654 0.33219319581985474 
vt 3.9608523845672607 -0.00005864799823029898 
vt -0.000056502998631913215 -0.00005864799823029898 
vt 3.9608523845672607 1.9629204273223877 
vt -0.000056502998631913215 1.9629204273223877 
vt 3.9608523845672607 -1.0293296575546265 
vt -0.000056502998631913215 -1.0293296575546265 
vt 2.962876081466675 0.9667763113975525 
vt -0.000056502998631913215 0.9667763113975525 
vt 1.3809196949005127 -0.00005864799823029898 
vt -0.000056502998631913215 -0.00005864799823029898 
vt 1.3809196949005127 1.9629204273223877 
vt -0.000056502998631913215 1.9629204273223877 
vt 0.9667587876319885 -0.00005864799823029898 
vt -0.44339999556541443 -0.00005864799823029898 
vt 0.9667587876319885 1.9629204273223877 
vt -0.44339999556541443 1.9629204273223877 
vt -0.000056502998631913215 1.9629204273223877 
vt 3.9608523845672607 1.9629204273223877 
vt -0.000056502998631913215 -0.00005864799823029898 
vt 3.9608523845672607 -0.00005864799823029898 
vt 4.958993434906006 0.9667763113975525 
vt 4.958993434906006 -1.0293296575546265 
vt 3.9608523845672607 0.9667763113975525 
vt 0.9667587876319885 -1.0293296575546265 
vt 0.9667587876319885 0.9667763113975525 
vt 0.1405801624059677 1.9629204273223877 
vt 2.962876081466675 1.9629204273223877 
vt 0.1405801624059677 -0.00005864799823029898 
vt 2.962876081466675 -0.00005864799823029898 
vt 2.962876081466675 3.0038905143737793 
vt 2.962876081466675 1.9629204273223877 
vt -0.000056502998631913215 3.0038905143737793 
vt -0.000056502998631913215 1.9629204273223877 
vt -0.000056502998631913215 0.9667763113975525 
vt 0.9667587876319885 0.9667763113975525 
vt 0.9667587876319885 -1.0293296575546265 
vt 1.3007915019989014 0.9667763113975525 
vt 0.634869396686554 -1.0312999486923218 
vt -0.000056502998631913215 0.9667763113975525 
s on 
f 1/1/1 2/2/2 3/3/3 
f 2/2/2 4/4/4 3/3/3 
f 3/3/3 4/4/4 4/4/4 
f 4/4/4 5/5/5 4/4/4 
f 4/4/4 5/5/5 5/5/5 
f 5/5/5 6/6/6 5/5/5 
f 5/5/5 6/6/6 7/7/7 
f 6/6/6 8/8/8 7/7/7 
f 7/7/7 8/8/8 8/8/8 
f 8/8/8 9/9/9 8/8/8 
f 8/8/8 9/9/9 9/9/9 
f 9/9/9 10/10/10 9/9/9 
f 9/9/9 10/10/10 11/11/11 
f 10/10/10 12/12/12 11/11/11 
f 11/11/11 12/12/12 12/12/12 
f 12/12/12 13/13/13 12/12/12 
f 12/12/12 13/13/13 13/13/13 
f 13/13/13 14/14/14 13/13/13 
f 13/13/13 14/14/14 15/15/15 
f 14/14/14 16/16/16 15/15/15 
f 15/15/15 16/16/16 16/16/16 
f 16/16/16 17/17/17 16/16/16 
f 16/16/16 17/17/17 17/17/17 
f 17/17/17 18/18/18 17/17/17 
f 17/17/17 18/18/18 19/19/19 
f 18/18/18 20/20/20 19/19/19 
f 19/19/19 20/20/20 20/20/20 
f 20/20/20 21/21/21 20/20/20 
f 20/20/20 21/21/21 21/21/21 
f 21/21/21 22/22/22 21/21/21 
f 21/21/21 22/22/22 23/23/23 
f 22/22/22 24/24/24 23/23/23 
f 23/23/23 24/24/24 25/25/25 
f 24/24/24 25/25/25 25/25/25 
f 25/25/25 25/25/25 26/26/26 
f 25/25/25 26/26/26 26/26/26 
f 26/26/26 26/26/26 26/26/26 
f 26/26/26 27/27/27 26/26/26 
f 26/26/26 27/27/27 28/28/28 
f 27/27/27 29/29/29 28/28/28 
f 28/28/28 29/29/29 29/29/29 
f 29/29/29 30/30/30 29/29/29 
f 29/29/29 30/30/30 30/30/30 
f 30/30/30 31/31/31 30/30/30 
f 30/30/30 31/31/31 32/32/32 
f 31/31/31 33/33/33 32/32/32 
f 34/34/34 35/35/35 36/36/36 
f 37/37/37 38/38/38 39/39/39 

