mtllib model_10.mtl
o model_10
v 44.80242156982422 446.23358154296875 327.5211181640625 
v 44.80242156982422 424.1510925292969 327.5211181640625 
v 25.679622650146484 457.18731689453125 327.5211181640625 
v 25.679622650146484 413.10986328125 327.5211181640625 
v 6.486839771270752 424.1510925292969 327.5211181640625 
v -209.98745727539062 260.2473449707031 204.71981811523438 
v -225.19122314453125 266.2316589355469 194.5607452392578 
v -163.22145080566406 267.1765441894531 204.71981811523438 
v -164.42864990234375 275.24310302734375 194.5607452392578 
v -198.38780212402344 557.7483520507812 380.8802490234375 
v -209.18264770507812 568.5446166992188 380.8802490234375 
v -202.74423217773438 553.3912963867188 380.8802490234375 
v -213.53907775878906 564.1875610351562 380.8802490234375 
v -202.74423217773438 553.3912963867188 286.63983154296875 
v -202.74423217773438 553.3912963867188 380.8802490234375 
v -213.53907775878906 564.1875610351562 286.63983154296875 
v -213.53907775878906 564.1875610351562 380.8802490234375 
v -225.19122314453125 266.2316589355469 194.5607452392578 
v -212.38436889648438 276.31048583984375 204.71981811523438 
v -164.42864990234375 275.24310302734375 194.5607452392578 
v -165.60086059570312 283.2397155761719 204.71981811523438 
v -209.18264770507812 568.5446166992188 380.8802490234375 
v -209.18264770507812 568.5446166992188 286.63983154296875 
v -213.53907775878906 564.1875610351562 380.8802490234375 
v -213.53907775878906 564.1875610351562 286.63983154296875 
v -63.51345443725586 262.15460205078125 204.71981811523438 
v -63.51345443725586 270.3086853027344 204.71981811523438 
v -63.51345443725586 262.15460205078125 206.7236328125 
v -63.51345443725586 270.3086853027344 206.7236328125 
v -198.38780212402344 557.7483520507812 380.8802490234375 
v -198.38780212402344 557.7483520507812 286.63983154296875 
v -209.18264770507812 568.5446166992188 380.8802490234375 
v -209.18264770507812 568.5446166992188 286.63983154296875 
v -63.51345443725586 262.15460205078125 206.7236328125 
v -145.42832946777344 262.15460205078125 206.7236328125 
v -63.51345443725586 262.15460205078125 204.71981811523438 
v -145.42832946777344 262.15460205078125 204.71981811523438 
v -145.42832946777344 270.3086853027344 204.71981811523438 
v -145.42832946777344 262.15460205078125 204.71981811523438 
v -145.42832946777344 270.3086853027344 206.7236328125 
v -145.42832946777344 262.15460205078125 206.7236328125 
v -198.38780212402344 557.7483520507812 286.63983154296875 
v -198.38780212402344 557.7483520507812 380.8802490234375 
v -202.74423217773438 553.3912963867188 286.63983154296875 
v -202.74423217773438 553.3912963867188 380.8802490234375 
v -240.30751037597656 272.1634826660156 204.71981811523438 
v -237.92808532714844 256.1003112792969 204.71981811523438 
v -227.588134765625 282.3822937011719 204.71981811523438 
v -222.7943115234375 250.01100158691406 204.71981811523438 
v -209.98745727539062 260.2473449707031 204.71981811523438 
v -212.38436889648438 276.31048583984375 204.71981811523438 
v -163.22145080566406 267.1765441894531 204.71981811523438 
v -165.60086059570312 283.2397155761719 204.71981811523438 
v 44.80242156982422 446.23358154296875 327.599853515625 
v 25.679622650146484 457.18731689453125 327.599853515625 
v 44.80242156982422 424.1510925292969 327.599853515625 
v 25.679622650146484 413.10986328125 327.599853515625 
v 6.486839771270752 424.1510925292969 327.599853515625 
v 6.486839771270752 446.23358154296875 327.599853515625 
v -145.42832946777344 270.3086853027344 206.7236328125 
v -63.51345443725586 270.3086853027344 206.7236328125 
v -145.42832946777344 270.3086853027344 204.71981811523438 
v -63.51345443725586 270.3086853027344 204.71981811523438 
v -145.42832946777344 270.3086853027344 206.7236328125 
v -145.42832946777344 262.15460205078125 206.7236328125 
v -63.51345443725586 270.3086853027344 206.7236328125 
v -63.51345443725586 262.15460205078125 206.7236328125 
v -145.42832946777344 262.15460205078125 204.71981811523438 
v -145.42832946777344 270.3086853027344 204.71981811523438 
v -63.51345443725586 262.15460205078125 204.71981811523438 
v -63.51345443725586 270.3086853027344 204.71981811523438 
v -202.74423217773438 553.3912963867188 286.63983154296875 
v -213.53907775878906 564.1875610351562 286.63983154296875 
v -198.38780212402344 557.7483520507812 286.63983154296875 
v -209.18264770507812 568.5446166992188 286.63983154296875 
v 6.486839771270752 446.23358154296875 327.5211181640625 
v -164.42864990234375 275.24310302734375 194.5607452392578 
v -165.60086059570312 283.2397155761719 204.71981811523438 
v -163.22145080566406 267.1765441894531 204.71981811523438 
v -222.7943115234375 250.01100158691406 204.71981811523438 
v -225.19122314453125 266.2316589355469 194.5607452392578 
v -209.98745727539062 260.2473449707031 204.71981811523438 
v -237.92808532714844 256.1003112792969 204.71981811523438 
v -225.19122314453125 266.2316589355469 194.5607452392578 
v -222.7943115234375 250.01100158691406 204.71981811523438 
v -240.30751037597656 272.1634826660156 204.71981811523438 
v -225.19122314453125 266.2316589355469 194.5607452392578 
v -237.92808532714844 256.1003112792969 204.71981811523438 
v -227.588134765625 282.3822937011719 204.71981811523438 
v -225.19122314453125 266.2316589355469 194.5607452392578 
v -240.30751037597656 272.1634826660156 204.71981811523438 
v -212.38436889648438 276.31048583984375 204.71981811523438 
v -225.19122314453125 266.2316589355469 194.5607452392578 
v -227.588134765625 282.3822937011719 204.71981811523438 
vn -2.0682311115474694e-13 0 -1 
vn -2.0682311115474694e-13 0 -1 
vn -2.0682311115474694e-13 0 -1 
vn -2.0682311115474694e-13 0 -1 
vn -2.0682311115474694e-13 0 -1 
vn 0.11483901739120483 -0.7721697092056274 -0.6249527335166931 
vn 0.11483901739120483 -0.7721697092056274 -0.6249527335166931 
vn 0.11483901739120483 -0.7721697092056274 -0.6249527335166931 
vn 0.11483901739120483 -0.7721697092056274 -0.6249527335166931 
vn 0 0 1 
vn 0 0 1 
vn 0 0 1 
vn 0 0 1 
vn -0.7071051001548767 -0.7071051001548767 0.002184694167226553 
vn -0.7071051001548767 -0.7071051001548767 0.002184694167226553 
vn -0.7071051001548767 -0.7071051001548767 0.002184694167226553 
vn -0.7071051001548767 -0.7071051001548767 0.002184694167226553 
vn -0.11284588277339935 0.7752155065536499 -0.6215357780456543 
vn -0.11284588277339935 0.7752155065536499 -0.6215357780456543 
vn -0.11284588277339935 0.7752155065536499 -0.6215357780456543 
vn -0.11284588277339935 0.7752155065536499 -0.6215357780456543 
vn -0.7071051001548767 0.7071051001548767 0.002184694167226553 
vn -0.7071051001548767 0.7071051001548767 0.002184694167226553 
vn -0.7071051001548767 0.7071051001548767 0.002184694167226553 
vn -0.7071051001548767 0.7071051001548767 0.002184694167226553 
vn 0.999997615814209 0 0.002184694167226553 
vn 0.999997615814209 0 0.002184694167226553 
vn 0.999997615814209 0 0.002184694167226553 
vn 0.999997615814209 0 0.002184694167226553 
vn 0.7071051001548767 0.7071051001548767 0.002184694167226553 
vn 0.7071051001548767 0.7071051001548767 0.002184694167226553 
vn 0.7071051001548767 0.7071051001548767 0.002184694167226553 
vn 0.7071051001548767 0.7071051001548767 0.002184694167226553 
vn 3.097898456858039e-13 -0.999997615814209 0.002184694167226553 
vn 3.097898456858039e-13 -0.999997615814209 0.002184694167226553 
vn 3.097898456858039e-13 -0.999997615814209 0.002184694167226553 
vn 3.097898456858039e-13 -0.999997615814209 0.002184694167226553 
vn -0.999997615814209 -2.0682260971124217e-13 0.002184694167226553 
vn -0.999997615814209 -2.0682260971124217e-13 0.002184694167226553 
vn -0.999997615814209 -2.0682260971124217e-13 0.002184694167226553 
vn -0.999997615814209 -2.0682260971124217e-13 0.002184694167226553 
vn 0.7071051001548767 -0.7071051001548767 0.002184694167226553 
vn 0.7071051001548767 -0.7071051001548767 0.002184694167226553 
vn 0.7071051001548767 -0.7071051001548767 0.002184694167226553 
vn 0.7071051001548767 -0.7071051001548767 0.002184694167226553 
vn 0 0 1 
vn 0 0 1 
vn 0 0 1 
vn 0 0 1 
vn 0 0 1 
vn 0 0 1 
vn 0 0 1 
vn 0 0 1 
vn 0 0 1 
vn 0 0 1 
vn 0 0 1 
vn 0 0 1 
vn 0 0 1 
vn 0 0 1 
vn -1.0341130485562108e-13 0.999997615814209 0.002184694167226553 
vn -1.0341130485562108e-13 0.999997615814209 0.002184694167226553 
vn -1.0341130485562108e-13 0.999997615814209 0.002184694167226553 
vn -1.0341130485562108e-13 0.999997615814209 0.002184694167226553 
vn 0 0 1 
vn 0 0 1 
vn 0 0 1 
vn 0 0 1 
vn -2.0682311115474694e-13 0 -1 
vn -2.0682311115474694e-13 0 -1 
vn -2.0682311115474694e-13 0 -1 
vn -2.0682311115474694e-13 0 -1 
vn -2.0682311115474694e-13 0 -1 
vn -2.0682311115474694e-13 0 -1 
vn -2.0682311115474694e-13 0 -1 
vn -2.0682311115474694e-13 0 -1 
vn -2.0682311115474694e-13 0 -1 
vn 0.9886130690574646 0.15046414732933044 0.002184694167226553 
vn 0.9886130690574646 0.15046414732933044 0.002184694167226553 
vn 0.9886130690574646 0.15046414732933044 0.002184694167226553 
vn 0.3624996542930603 -0.45456019043922424 -0.8136147856712341 
vn 0.3624996542930603 -0.45456019043922424 -0.8136147856712341 
vn 0.3624996542930603 -0.45456019043922424 -0.8136147856712341 
vn -0.21592655777931213 -0.5398209691047668 -0.8136147856712341 
vn -0.21592655777931213 -0.5398209691047668 -0.8136147856712341 
vn -0.21592655777931213 -0.5398209691047668 -0.8136147856712341 
vn -0.5790485739707947 -0.08290733397006989 -0.8110666871070862 
vn -0.5790485739707947 -0.08290733397006989 -0.8110666871070862 
vn -0.5790485739707947 -0.08290733397006989 -0.8110666871070862 
vn -0.3672410547733307 0.4553074538707733 -0.8110666871070862 
vn -0.3672410547733307 0.4553074538707733 -0.8110666871070862 
vn -0.3672410547733307 0.4553074538707733 -0.8110666871070862 
vn 0.21772442758083344 0.5429244637489319 -0.8110666871070862 
vn 0.21772442758083344 0.5429244637489319 -0.8110666871070862 
vn 0.21772442758083344 0.5429244637489319 -0.8110666871070862 
vt 0.7772302627563477 0.9336004257202148 
vt 0.23832550644874573 0.9336004257202148 
vt 1.0469111204147339 0.46880725026130676 
vt 0.00001357200017082505 0.46880725026130676 
vt 0.23832550644874573 0.0020104236900806427 
vt 1.8320461511611938 0.46880725026130676 
vt 0.9668139219284058 0.9667964577674866 
vt 4.708996772766113 0.4668036103248596 
vt 4.708996772766113 0.9667964577674866 
vt -0.14845553040504456 0.0000067915998442913406 
vt 1.0956393480300903 0.0000067915998442913406 
vt -0.14845553040504456 0.9667964577674866 
vt 1.0956393480300903 0.9667964577674866 
vt 0.9668139219284058 0.9667964577674866 
vt 0.9668139219284058 -0.052706051617860794 
vt 0.00001357200017082505 0.9667964577674866 
vt 0.00001357200017082505 -0.052706051617860794 
vt 0.9668139219284058 0.9667964577674866 
vt 1.8320461511611938 1.4648103713989258 
vt 4.708996772766113 0.9667964577674866 
vt 4.708996772766113 1.4629056453704834 
vt 0.9668139219284058 -0.052706051617860794 
vt 0.9668139219284058 0.9667964577674866 
vt 0.00001357200017082505 -0.052706051617860794 
vt 0.00001357200017082505 0.9667964577674866 
vt 0.00001357200017082505 0.9667964577674866 
vt 0.9668139219284058 0.9667964577674866 
vt 0.00001357200017082505 0.56839519739151 
vt 0.9668139219284058 0.56839519739151 
vt 0.9668139219284058 -0.052706051617860794 
vt 0.9668139219284058 0.9667964577674866 
vt 0.00001357200017082505 -0.052706051617860794 
vt 0.00001357200017082505 0.9667964577674866 
vt 1.964830756187439 0.9667964577674866 
vt -5.019460201263428 0.9667964577674866 
vt 1.964830756187439 1.363292932510376 
vt -5.019460201263428 1.363292932510376 
vt 0.16797399520874023 0.367190957069397 
vt 0.9668139219284058 0.367190957069397 
vt 0.16797399520874023 0.0000067915998442913406 
vt 0.9668139219284058 0.0000067915998442913406 
vt 0.9668139219284058 0.9667964577674866 
vt 0.9668139219284058 -0.052706051617860794 
vt 0.00001357200017082505 0.9667964577674866 
vt 0.00001357200017082505 -0.052706051617860794 
vt 0.03518932685256004 0.2187984734773636 
vt 0.03518932685256004 0.7167876362800598 
vt 0.4667395055294037 0.0000067915998442913406 
vt 0.46871909499168396 0.9667964577674866 
vt 0.9004215598106384 0.7167876362800598 
vt 0.9004215598106384 0.2187984734773636 
vt 2.3397343158721924 0.7167876362800598 
vt 2.3397343158721924 0.2187984734773636 
vt 0.7772302627563477 0.9336004257202148 
vt 1.0469111204147339 0.46880725026130676 
vt 0.23832550644874573 0.9336004257202148 
vt 0.00001357200017082505 0.46880725026130676 
vt 0.23832550644874573 0.0020104236900806427 
vt 0.7772302627563477 0.0020104236900806427 
vt 6.9550676345825195 0.56839519739151 
vt 0.00001357200017082505 0.56839519739151 
vt 6.9550676345825195 0.9667964577674866 
vt 0.00001357200017082505 0.9667964577674866 
vt -13.003899574279785 -1.2792999744415283 
vt -13.003899574279785 0.0000067915998442913406 
vt 4.460938930511475 -1.2792999744415283 
vt 4.460938930511475 0.0000067915998442913406 
vt -13.003899574279785 0.0000067915998442913406 
vt -13.003899574279785 -1.2792999744415283 
vt 4.460938930511475 0.0000067915998442913406 
vt 4.460938930511475 -1.2792999744415283 
vt -0.14845553040504456 0.9667964577674866 
vt 1.0956393480300903 0.9667964577674866 
vt -0.14845553040504456 0.0000067915998442913406 
vt 1.0956393480300903 0.0000067915998442913406 
vt 0.7772302627563477 0.0020104236900806427 
vt 0.5683075785636902 0.4668036103248596 
vt 0.16797399520874023 0.0000067915998442913406 
vt 0.9668139219284058 0.0000067915998442913406 
vt 0.9668139219284058 0.0000067915998442913406 
vt 0.9668139219284058 0.9667964577674866 
vt 1.8320461511611938 0.4668036103248596 
vt 0.10158166289329529 0.4668036103248596 
vt 0.9668139219284058 0.9667964577674866 
vt 0.9668139219284058 0.0000067915998442913406 
vt 0.10158166289329529 1.4629056453704834 
vt 0.9668139219284058 0.9667964577674866 
vt 0.10158166289329529 0.4668036103248596 
vt 0.9668139219284058 1.9628984928131104 
vt 0.9668139219284058 0.9667964577674866 
vt 0.10158166289329529 1.4629056453704834 
vt 1.8320461511611938 1.4648103713989258 
vt 0.9668139219284058 0.9667964577674866 
vt 0.9668139219284058 1.9628984928131104 
s on 
f 1/1/1 2/2/2 3/3/3 
f 2/2/2 4/4/4 3/3/3 
f 3/3/3 4/4/4 5/5/5 
f 4/4/4 5/5/5 5/5/5 
f 5/5/5 5/5/5 6/6/6 
f 5/5/5 6/6/6 6/6/6 
f 6/6/6 6/6/6 6/6/6 
f 6/6/6 7/7/7 6/6/6 
f 6/6/6 7/7/7 8/8/8 
f 7/7/7 9/9/9 8/8/8 
f 8/8/8 9/9/9 9/9/9 
f 9/9/9 10/10/10 9/9/9 
f 9/9/9 10/10/10 10/10/10 
f 10/10/10 11/11/11 10/10/10 
f 10/10/10 11/11/11 12/12/12 
f 11/11/11 13/13/13 12/12/12 
f 12/12/12 13/13/13 13/13/13 
f 13/13/13 14/14/14 13/13/13 
f 13/13/13 14/14/14 14/14/14 
f 14/14/14 15/15/15 14/14/14 
f 14/14/14 15/15/15 16/16/16 
f 15/15/15 17/17/17 16/16/16 
f 16/16/16 17/17/17 17/17/17 
f 17/17/17 18/18/18 17/17/17 
f 17/17/17 18/18/18 18/18/18 
f 18/18/18 19/19/19 18/18/18 
f 18/18/18 19/19/19 20/20/20 
f 19/19/19 21/21/21 20/20/20 
f 20/20/20 21/21/21 21/21/21 
f 21/21/21 22/22/22 21/21/21 
f 21/21/21 22/22/22 22/22/22 
f 22/22/22 23/23/23 22/22/22 
f 22/22/22 23/23/23 24/24/24 
f 23/23/23 25/25/25 24/24/24 
f 24/24/24 25/25/25 25/25/25 
f 25/25/25 26/26/26 25/25/25 
f 25/25/25 26/26/26 26/26/26 
f 26/26/26 27/27/27 26/26/26 
f 26/26/26 27/27/27 28/28/28 
f 27/27/27 29/29/29 28/28/28 
f 28/28/28 29/29/29 29/29/29 
f 29/29/29 30/30/30 29/29/29 
f 29/29/29 30/30/30 30/30/30 
f 30/30/30 31/31/31 30/30/30 
f 30/30/30 31/31/31 32/32/32 
f 31/31/31 33/33/33 32/32/32 
f 32/32/32 33/33/33 33/33/33 
f 33/33/33 34/34/34 33/33/33 
f 33/33/33 34/34/34 34/34/34 
f 34/34/34 35/35/35 34/34/34 
f 34/34/34 35/35/35 36/36/36 
f 35/35/35 37/37/37 36/36/36 
f 36/36/36 37/37/37 37/37/37 
f 37/37/37 38/38/38 37/37/37 
f 37/37/37 38/38/38 38/38/38 
f 38/38/38 39/39/39 38/38/38 
f 38/38/38 39/39/39 40/40/40 
f 39/39/39 41/41/41 40/40/40 
f 40/40/40 41/41/41 41/41/41 
f 41/41/41 42/42/42 41/41/41 
f 41/41/41 42/42/42 42/42/42 
f 42/42/42 43/43/43 42/42/42 
f 42/42/42 43/43/43 44/44/44 
f 43/43/43 45/45/45 44/44/44 
f 44/44/44 45/45/45 45/45/45 
f 45/45/45 46/46/46 45/45/45 
f 45/45/45 46/46/46 46/46/46 
f 46/46/46 47/47/47 46/46/46 
f 46/46/46 47/47/47 48/48/48 
f 47/47/47 49/49/49 48/48/48 
f 48/48/48 49/49/49 50/50/50 
f 49/49/49 50/50/50 50/50/50 
f 50/50/50 50/50/50 48/48/48 
f 50/50/50 48/48/48 48/48/48 
f 48/48/48 48/48/48 48/48/48 
f 48/48/48 50/50/50 48/48/48 
f 48/48/48 50/50/50 51/51/51 
f 50/50/50 52/52/52 51/51/51 
f 51/51/51 52/52/52 53/53/53 
f 52/52/52 53/53/53 53/53/53 
f 53/53/53 53/53/53 54/54/54 
f 53/53/53 54/54/54 54/54/54 
f 54/54/54 54/54/54 54/54/54 
f 54/54/54 55/55/55 54/54/54 
f 54/54/54 55/55/55 56/56/56 
f 55/55/55 57/57/57 56/56/56 
f 56/56/56 57/57/57 57/57/57 
f 57/57/57 55/55/55 57/57/57 
f 57/57/57 55/55/55 58/58/58 
f 55/55/55 59/59/59 58/58/58 
f 58/58/58 59/59/59 59/59/59 
f 59/59/59 60/60/60 59/59/59 
f 59/59/59 60/60/60 60/60/60 
f 60/60/60 61/61/61 60/60/60 
f 60/60/60 61/61/61 62/62/62 
f 61/61/61 63/63/63 62/62/62 
f 62/62/62 63/63/63 63/63/63 
f 63/63/63 64/64/64 63/63/63 
f 63/63/63 64/64/64 64/64/64 
f 64/64/64 65/65/65 64/64/64 
f 64/64/64 65/65/65 66/66/66 
f 65/65/65 67/67/67 66/66/66 
f 66/66/66 67/67/67 67/67/67 
f 67/67/67 68/68/68 67/67/67 
f 67/67/67 68/68/68 68/68/68 
f 68/68/68 69/69/69 68/68/68 
f 68/68/68 69/69/69 70/70/70 
f 69/69/69 71/71/71 70/70/70 
f 70/70/70 71/71/71 71/71/71 
f 71/71/71 72/72/72 71/71/71 
f 71/71/71 72/72/72 72/72/72 
f 72/72/72 73/73/73 72/72/72 
f 72/72/72 73/73/73 74/74/74 
f 73/73/73 75/75/75 74/74/74 
f 5/5/5 76/76/76 3/3/3 
f 77/77/77 78/78/78 79/79/79 
f 80/80/80 81/81/81 82/82/82 
f 83/83/83 84/84/84 85/85/85 
f 86/86/86 87/87/87 88/88/88 
f 89/89/89 90/90/90 91/91/91 
f 92/92/92 93/93/93 94/94/94 

