mtllib model_5.mtl
o model_5
v -163.8341827392578 204.79600524902344 73.67569732666016 
v -163.8341827392578 327.6669616699219 161.92218017578125 
v -286.6365051269531 204.79600524902344 73.67569732666016 
v -286.6365051269531 327.6669616699219 161.92218017578125 
v -40.87440490722656 450.4679260253906 202.63717651367188 
v -36.71043014526367 450.4679260253906 202.63717651367188 
v -40.87440490722656 491.3607482910156 202.63717651367188 
v -36.71043014526367 491.3607482910156 202.63717651367188 
v -40.87440490722656 450.4679260253906 204.71974182128906 
v -40.87440490722656 450.4679260253906 202.63717651367188 
v -40.87440490722656 491.3607482910156 204.71974182128906 
v -40.87440490722656 491.3607482910156 202.63717651367188 
v -12.233945846557617 491.3607482910156 188.40049743652344 
v -12.233945846557617 491.3607482910156 190.48304748535156 
v -12.233945846557617 450.4679260253906 188.40049743652344 
v -12.233945846557617 450.4679260253906 190.48304748535156 
v -8.157447814941406 450.4679260253906 186.3966827392578 
v -4.080949306488037 450.4679260253906 186.3966827392578 
v -8.157447814941406 491.3607482910156 186.3966827392578 
v -4.080949306488037 491.3607482910156 186.3966827392578 
v -4.080949306488037 491.3607482910156 184.32286071777344 
v -4.080949306488037 491.3607482910156 186.3966827392578 
v -4.080949306488037 450.4679260253906 184.32286071777344 
v -4.080949306488037 450.4679260253906 186.3966827392578 
v -8.157447814941406 491.3607482910156 188.40049743652344 
v -12.233945846557617 491.3607482910156 188.40049743652344 
v -8.157447814941406 450.4679260253906 188.40049743652344 
v -12.233945846557617 450.4679260253906 188.40049743652344 
v -8.157447814941406 491.3607482910156 186.3966827392578 
v -8.157447814941406 491.3607482910156 188.40049743652344 
v -8.157447814941406 450.4679260253906 186.3966827392578 
v -8.157447814941406 450.4679260253906 188.40049743652344 
v -16.310443878173828 450.4679260253906 190.48304748535156 
v -12.233945846557617 450.4679260253906 190.48304748535156 
v -16.310443878173828 491.3607482910156 190.48304748535156 
v -12.233945846557617 491.3607482910156 190.48304748535156 
v -20.404438018798828 450.4679260253906 192.47811889648438 
v -16.310443878173828 450.4679260253906 192.47811889648438 
v -20.404438018798828 491.3607482910156 192.47811889648438 
v -16.310443878173828 491.3607482910156 192.47811889648438 
v -16.310443878173828 450.4679260253906 192.47811889648438 
v -16.310443878173828 450.4679260253906 190.48304748535156 
v -16.310443878173828 491.3607482910156 192.47811889648438 
v -16.310443878173828 491.3607482910156 190.48304748535156 
v -20.404438018798828 491.3607482910156 194.48193359375 
v -24.48093605041504 491.3607482910156 194.48193359375 
v -20.404438018798828 450.4679260253906 194.48193359375 
v -24.48093605041504 450.4679260253906 194.48193359375 
v -24.48093605041504 491.3607482910156 196.5557403564453 
v -28.55743408203125 491.3607482910156 196.5557403564453 
v -24.48093605041504 450.4679260253906 196.5557403564453 
v -28.55743408203125 450.4679260253906 196.5557403564453 
v -24.48093605041504 450.4679260253906 196.5557403564453 
v -24.48093605041504 450.4679260253906 194.48193359375 
v -24.48093605041504 491.3607482910156 196.5557403564453 
v -24.48093605041504 491.3607482910156 194.48193359375 
v -28.55743408203125 491.3607482910156 198.55955505371094 
v -32.63393020629883 491.3607482910156 198.55955505371094 
v -28.55743408203125 450.4679260253906 198.55955505371094 
v -32.63393020629883 450.4679260253906 198.55955505371094 
v -20.404438018798828 491.3607482910156 192.47811889648438 
v -20.404438018798828 491.3607482910156 194.48193359375 
v -20.404438018798828 450.4679260253906 192.47811889648438 
v -20.404438018798828 450.4679260253906 194.48193359375 
v -32.63393020629883 450.4679260253906 200.64212036132812 
v -32.63393020629883 450.4679260253906 198.55955505371094 
v -32.63393020629883 491.3607482910156 200.64212036132812 
v -32.63393020629883 491.3607482910156 198.55955505371094 
v -36.71043014526367 450.4679260253906 202.63717651367188 
v -36.71043014526367 450.4679260253906 200.64212036132812 
v -36.71043014526367 491.3607482910156 202.63717651367188 
v -36.71043014526367 491.3607482910156 200.64212036132812 
v -36.71043014526367 450.4679260253906 200.64212036132812 
v -32.63393020629883 450.4679260253906 200.64212036132812 
v -36.71043014526367 491.3607482910156 200.64212036132812 
v -32.63393020629883 491.3607482910156 200.64212036132812 
v -4.080949306488037 450.4679260253906 184.32286071777344 
v -0.004451199900358915 450.4679260253906 184.32286071777344 
v -4.080949306488037 491.3607482910156 184.32286071777344 
v -0.004451199900358915 491.3607482910156 184.32286071777344 
v -28.55743408203125 491.3607482910156 196.5557403564453 
v -28.55743408203125 491.3607482910156 198.55955505371094 
v -28.55743408203125 450.4679260253906 196.5557403564453 
v -28.55743408203125 450.4679260253906 198.55955505371094 
vn 1.8121315808593969e-13 -0.5849537253379822 0.8110666871070862 
vn 1.8121315808593969e-13 -0.5849537253379822 0.8110666871070862 
vn 1.8121315808593969e-13 -0.5849537253379822 0.8110666871070862 
vn 1.8121315808593969e-13 -0.5849537253379822 0.8110666871070862 
vn 0 0 1 
vn 0 0 1 
vn 0 0 1 
vn 0 0 1 
vn 0.999997615814209 0 0.002184694167226553 
vn 0.999997615814209 0 0.002184694167226553 
vn 0.999997615814209 0 0.002184694167226553 
vn 0.999997615814209 0 0.002184694167226553 
vn 0.999997615814209 0 0.002184694167226553 
vn 0.999997615814209 0 0.002184694167226553 
vn 0.999997615814209 0 0.002184694167226553 
vn 0.999997615814209 0 0.002184694167226553 
vn 0 0 1 
vn 0 0 1 
vn 0 0 1 
vn 0 0 1 
vn 0.999997615814209 0 0.002184694167226553 
vn 0.999997615814209 0 0.002184694167226553 
vn 0.999997615814209 0 0.002184694167226553 
vn 0.999997615814209 0 0.002184694167226553 
vn 0 0 1 
vn 0 0 1 
vn 0 0 1 
vn 0 0 1 
vn 0.999997615814209 0 0.002184694167226553 
vn 0.999997615814209 0 0.002184694167226553 
vn 0.999997615814209 0 0.002184694167226553 
vn 0.999997615814209 0 0.002184694167226553 
vn 0 0 1 
vn 0 0 1 
vn 0 0 1 
vn 0 0 1 
vn 0 0 1 
vn 0 0 1 
vn 0 0 1 
vn 0 0 1 
vn 0.999997615814209 0 0.002184694167226553 
vn 0.999997615814209 0 0.002184694167226553 
vn 0.999997615814209 0 0.002184694167226553 
vn 0.999997615814209 0 0.002184694167226553 
vn 0 0 1 
vn 0 0 1 
vn 0 0 1 
vn 0 0 1 
vn 0 0 1 
vn 0 0 1 
vn 0 0 1 
vn 0 0 1 
vn 0.999997615814209 0 0.002184694167226553 
vn 0.999997615814209 0 0.002184694167226553 
vn 0.999997615814209 0 0.002184694167226553 
vn 0.999997615814209 0 0.002184694167226553 
vn 0 0 1 
vn 0 0 1 
vn 0 0 1 
vn 0 0 1 
vn 0.999997615814209 0 0.002184694167226553 
vn 0.999997615814209 0 0.002184694167226553 
vn 0.999997615814209 0 0.002184694167226553 
vn 0.999997615814209 0 0.002184694167226553 
vn 0.999997615814209 0 0.002184694167226553 
vn 0.999997615814209 0 0.002184694167226553 
vn 0.999997615814209 0 0.002184694167226553 
vn 0.999997615814209 0 0.002184694167226553 
vn 0.999997615814209 0 0.002184694167226553 
vn 0.999997615814209 0 0.002184694167226553 
vn 0.999997615814209 0 0.002184694167226553 
vn 0.999997615814209 0 0.002184694167226553 
vn 0 0 1 
vn 0 0 1 
vn 0 0 1 
vn 0 0 1 
vn 0 0 1 
vn 0 0 1 
vn 0 0 1 
vn 0 0 1 
vn 0.999997615814209 0 0.002184694167226553 
vn 0.999997615814209 0 0.002184694167226553 
vn 0.999997615814209 0 0.002184694167226553 
vn 0.999997615814209 0 0.002184694167226553 
vt 0.9667677283287048 0.9668025970458984 
vt 0.9667677283287048 -6.181600093841553 
vt -5.019499778747559 0.9668025970458984 
vt -5.019499778747559 -6.181600093841553 
vt 0.00001404550039296737 -5.02151346206665 
vt 0.00001404550039296737 -4.822284698486328 
vt 1.9647644758224487 -5.02151346206665 
vt 1.9647644758224487 -4.822284698486328 
vt 0.00001404550039296737 -2.027301073074341 
vt 0.00001404550039296737 -1.828072190284729 
vt 3.96089506149292 -2.027301073074341 
vt 3.96089506149292 -1.828072190284729 
vt 3.96089506149292 -0.4297076463699341 
vt 3.96089506149292 -0.6308997869491577 
vt 0.00001404550039296737 -0.4297076463699341 
vt 0.00001404550039296737 -0.6308997869491577 
vt 0.00001404550039296737 -3.423811197280884 
vt 0.00001404550039296737 -3.2245824337005615 
vt 1.9647644758224487 -3.423811197280884 
vt 1.9647644758224487 -3.2245824337005615 
vt 3.96089506149292 4.0960000546874653e-7 
vt 3.96089506149292 -0.23047886788845062 
vt 0.00001404550039296737 4.0960000546874653e-7 
vt 0.00001404550039296737 -0.23047886788845062 
vt 1.9647644758224487 -3.423811197280884 
vt 1.9647644758224487 -3.6250033378601074 
vt 0.00001404550039296737 -3.423811197280884 
vt 0.00001404550039296737 -3.6250033378601074 
vt 3.96089506149292 -0.23047886788845062 
vt 3.96089506149292 -0.4297076463699341 
vt 0.00001404550039296737 -0.23047886788845062 
vt 0.00001404550039296737 -0.4297076463699341 
vt 0.00001404550039296737 -3.8241777420043945 
vt 0.00001404550039296737 -3.6250033378601074 
vt 1.9647644758224487 -3.8241777420043945 
vt 1.9647644758224487 -3.6250033378601074 
vt 0.00001404550039296737 -4.023406505584717 
vt 0.00001404550039296737 -3.8241777420043945 
vt 1.9647644758224487 -4.023406505584717 
vt 1.9647644758224487 -3.8241777420043945 
vt 0.00001404550039296737 -0.8300740122795105 
vt 0.00001404550039296737 -0.6308997869491577 
vt 3.96089506149292 -0.8300740122795105 
vt 3.96089506149292 -0.6308997869491577 
vt 1.9647644758224487 -4.023406505584717 
vt 1.9647644758224487 -4.222689628601074 
vt 0.00001404550039296737 -4.023406505584717 
vt 0.00001404550039296737 -4.222689628601074 
vt 1.9647644758224487 -4.222689628601074 
vt 1.9647644758224487 -4.4219183921813965 
vt 0.00001404550039296737 -4.222689628601074 
vt 0.00001404550039296737 -4.4219183921813965 
vt 0.00001404550039296737 -1.2284770011901855 
vt 0.00001404550039296737 -1.0293028354644775 
vt 3.96089506149292 -1.2284770011901855 
vt 3.96089506149292 -1.0293028354644775 
vt 1.9647644758224487 -4.4219183921813965 
vt 1.9647644758224487 -4.623001575469971 
vt 0.00001404550039296737 -4.4219183921813965 
vt 0.00001404550039296737 -4.623001575469971 
vt 3.96089506149292 -0.8300740122795105 
vt 3.96089506149292 -1.0293028354644775 
vt 0.00001404550039296737 -0.8300740122795105 
vt 0.00001404550039296737 -1.0293028354644775 
vt 0.00001404550039296737 -1.628898024559021 
vt 0.00001404550039296737 -1.4277058839797974 
vt 3.96089506149292 -1.628898024559021 
vt 3.96089506149292 -1.4277058839797974 
vt 0.00001404550039296737 -1.828072190284729 
vt 0.00001404550039296737 -1.628898024559021 
vt 3.96089506149292 -1.828072190284729 
vt 3.96089506149292 -1.628898024559021 
vt 0.00001404550039296737 -4.822284698486328 
vt 0.00001404550039296737 -4.623001575469971 
vt 1.9647644758224487 -4.822284698486328 
vt 1.9647644758224487 -4.623001575469971 
vt 0.00001404550039296737 -3.2245824337005615 
vt 0.00001404550039296737 -3.0254082679748535 
vt 1.9647644758224487 -3.2245824337005615 
vt 1.9647644758224487 -3.0254082679748535 
vt 3.96089506149292 -1.2284770011901855 
vt 3.96089506149292 -1.4277058839797974 
vt 0.00001404550039296737 -1.2284770011901855 
vt 0.00001404550039296737 -1.4277058839797974 
s on 
f 1/1/1 2/2/2 3/3/3 
f 2/2/2 4/4/4 3/3/3 
f 3/3/3 4/4/4 4/4/4 
f 4/4/4 5/5/5 4/4/4 
f 4/4/4 5/5/5 5/5/5 
f 5/5/5 6/6/6 5/5/5 
f 5/5/5 6/6/6 7/7/7 
f 6/6/6 8/8/8 7/7/7 
f 7/7/7 8/8/8 8/8/8 
f 8/8/8 9/9/9 8/8/8 
f 8/8/8 9/9/9 9/9/9 
f 9/9/9 10/10/10 9/9/9 
f 9/9/9 10/10/10 11/11/11 
f 10/10/10 12/12/12 11/11/11 
f 11/11/11 12/12/12 12/12/12 
f 12/12/12 13/13/13 12/12/12 
f 12/12/12 13/13/13 13/13/13 
f 13/13/13 14/14/14 13/13/13 
f 13/13/13 14/14/14 15/15/15 
f 14/14/14 16/16/16 15/15/15 
f 15/15/15 16/16/16 16/16/16 
f 16/16/16 17/17/17 16/16/16 
f 16/16/16 17/17/17 17/17/17 
f 17/17/17 18/18/18 17/17/17 
f 17/17/17 18/18/18 19/19/19 
f 18/18/18 20/20/20 19/19/19 
f 19/19/19 20/20/20 20/20/20 
f 20/20/20 21/21/21 20/20/20 
f 20/20/20 21/21/21 21/21/21 
f 21/21/21 22/22/22 21/21/21 
f 21/21/21 22/22/22 23/23/23 
f 22/22/22 24/24/24 23/23/23 
f 23/23/23 24/24/24 24/24/24 
f 24/24/24 25/25/25 24/24/24 
f 24/24/24 25/25/25 25/25/25 
f 25/25/25 26/26/26 25/25/25 
f 25/25/25 26/26/26 27/27/27 
f 26/26/26 28/28/28 27/27/27 
f 27/27/27 28/28/28 28/28/28 
f 28/28/28 29/29/29 28/28/28 
f 28/28/28 29/29/29 29/29/29 
f 29/29/29 30/30/30 29/29/29 
f 29/29/29 30/30/30 31/31/31 
f 30/30/30 32/32/32 31/31/31 
f 31/31/31 32/32/32 32/32/32 
f 32/32/32 33/33/33 32/32/32 
f 32/32/32 33/33/33 33/33/33 
f 33/33/33 34/34/34 33/33/33 
f 33/33/33 34/34/34 35/35/35 
f 34/34/34 36/36/36 35/35/35 
f 35/35/35 36/36/36 36/36/36 
f 36/36/36 37/37/37 36/36/36 
f 36/36/36 37/37/37 37/37/37 
f 37/37/37 38/38/38 37/37/37 
f 37/37/37 38/38/38 39/39/39 
f 38/38/38 40/40/40 39/39/39 
f 39/39/39 40/40/40 40/40/40 
f 40/40/40 41/41/41 40/40/40 
f 40/40/40 41/41/41 41/41/41 
f 41/41/41 42/42/42 41/41/41 
f 41/41/41 42/42/42 43/43/43 
f 42/42/42 44/44/44 43/43/43 
f 43/43/43 44/44/44 44/44/44 
f 44/44/44 45/45/45 44/44/44 
f 44/44/44 45/45/45 45/45/45 
f 45/45/45 46/46/46 45/45/45 
f 45/45/45 46/46/46 47/47/47 
f 46/46/46 48/48/48 47/47/47 
f 47/47/47 48/48/48 48/48/48 
f 48/48/48 49/49/49 48/48/48 
f 48/48/48 49/49/49 49/49/49 
f 49/49/49 50/50/50 49/49/49 
f 49/49/49 50/50/50 51/51/51 
f 50/50/50 52/52/52 51/51/51 
f 51/51/51 52/52/52 52/52/52 
f 52/52/52 53/53/53 52/52/52 
f 52/52/52 53/53/53 53/53/53 
f 53/53/53 54/54/54 53/53/53 
f 53/53/53 54/54/54 55/55/55 
f 54/54/54 56/56/56 55/55/55 
f 55/55/55 56/56/56 56/56/56 
f 56/56/56 57/57/57 56/56/56 
f 56/56/56 57/57/57 57/57/57 
f 57/57/57 58/58/58 57/57/57 
f 57/57/57 58/58/58 59/59/59 
f 58/58/58 60/60/60 59/59/59 
f 59/59/59 60/60/60 60/60/60 
f 60/60/60 61/61/61 60/60/60 
f 60/60/60 61/61/61 61/61/61 
f 61/61/61 62/62/62 61/61/61 
f 61/61/61 62/62/62 63/63/63 
f 62/62/62 64/64/64 63/63/63 
f 63/63/63 64/64/64 64/64/64 
f 64/64/64 65/65/65 64/64/64 
f 64/64/64 65/65/65 65/65/65 
f 65/65/65 66/66/66 65/65/65 
f 65/65/65 66/66/66 67/67/67 
f 66/66/66 68/68/68 67/67/67 
f 67/67/67 68/68/68 68/68/68 
f 68/68/68 69/69/69 68/68/68 
f 68/68/68 69/69/69 69/69/69 
f 69/69/69 70/70/70 69/69/69 
f 69/69/69 70/70/70 71/71/71 
f 70/70/70 72/72/72 71/71/71 
f 71/71/71 72/72/72 72/72/72 
f 72/72/72 73/73/73 72/72/72 
f 72/72/72 73/73/73 73/73/73 
f 73/73/73 74/74/74 73/73/73 
f 73/73/73 74/74/74 75/75/75 
f 74/74/74 76/76/76 75/75/75 
f 75/75/75 76/76/76 76/76/76 
f 76/76/76 77/77/77 76/76/76 
f 76/76/76 77/77/77 77/77/77 
f 77/77/77 78/78/78 77/77/77 
f 77/77/77 78/78/78 79/79/79 
f 78/78/78 80/80/80 79/79/79 
f 79/79/79 80/80/80 80/80/80 
f 80/80/80 81/81/81 80/80/80 
f 80/80/80 81/81/81 81/81/81 
f 81/81/81 82/82/82 81/81/81 
f 81/81/81 82/82/82 83/83/83 
f 82/82/82 84/84/84 83/83/83 

