mtllib model_11.mtl
o model_11
v -134.3616943359375 508.5485534667969 223.1929931640625 
v -134.3616943359375 508.5485534667969 286.6289367675781 
v -133.5943603515625 501.916748046875 223.1929931640625 
v -133.5943603515625 501.916748046875 286.6289367675781 
v -92.1585464477539 389.1763916015625 286.6289367675781 
v -112.49279022216797 389.1763916015625 286.6289367675781 
v -92.1585464477539 389.1763916015625 307.11346435546875 
v -112.49279022216797 389.1763916015625 307.11346435546875 
v -140.88400268554688 509.4959411621094 286.6289367675781 
v -134.3616943359375 508.5485534667969 223.1929931640625 
v -140.88400268554688 509.4959411621094 223.1929931640625 
v -140.88400268554688 509.4959411621094 286.6289367675781 
v -134.3616943359375 508.5485534667969 286.6289367675781 
v -134.3616943359375 508.5485534667969 223.1929931640625 
vn 0.9951823353767395 0.0980169028043747 0.002184694167226553 
vn 0.9951823353767395 0.0980169028043747 0.002184694167226553 
vn 0.9951823353767395 0.0980169028043747 0.002184694167226553 
vn 0.9951823353767395 0.0980169028043747 0.002184694167226553 
vn -1.0341130485562108e-13 0.999997615814209 0.002184694167226553 
vn -1.0341130485562108e-13 0.999997615814209 0.002184694167226553 
vn -1.0341130485562108e-13 0.999997615814209 0.002184694167226553 
vn -1.0341130485562108e-13 0.999997615814209 0.002184694167226553 
vn 0.0980169028043747 0.9951823353767395 0.002184694167226553 
vn 0.0980169028043747 0.9951823353767395 0.002184694167226553 
vn 0.0980169028043747 0.9951823353767395 0.002184694167226553 
vn 0.0980169028043747 0.9951823353767395 0.002184694167226553 
vn 0.0980169028043747 0.9951823353767395 0.002184694167226553 
vn 0.0980169028043747 0.9951823353767395 0.002184694167226553 
vt 0.9668000936508179 0.9668019413948059 
vt 0.9668000936508179 -3.888700008392334 
vt 0 0.9668019413948059 
vt 0 -3.888700008392334 
vt 0 0.9668019413948059 
vt 0.9668000936508179 0.9668019413948059 
vt 0 -0.0000304000004689442 
vt 0.9668000936508179 -0.0000304000004689442 
vt 0.9668000936508179 -3.888700008392334 
vt 0 0.9668019413948059 
vt 0.9668000936508179 0.9668019413948059 
vt 0.9668000936508179 -3.888700008392334 
vt 0 -3.888700008392334 
vt 0 0.9668019413948059 
s on 
f 1/1/1 2/2/2 3/3/3 
f 2/2/2 4/4/4 3/3/3 
f 3/3/3 4/4/4 4/4/4 
f 4/4/4 5/5/5 4/4/4 
f 4/4/4 5/5/5 5/5/5 
f 5/5/5 6/6/6 5/5/5 
f 5/5/5 6/6/6 7/7/7 
f 6/6/6 8/8/8 7/7/7 
f 9/9/9 10/10/10 11/11/11 
f 12/12/12 13/13/13 14/14/14 

