mtllib model_25.mtl
o model_25
v 204.7986297607422 450.62432861328125 30.6405086517334 
v 204.7986297607422 450.62432861328125 20.399900436401367 
v 204.7986297607422 225.19203186035156 30.6405086517334 
v 204.7986297607422 225.19203186035156 20.399900436401367 
v 204.7986297607422 41.0529670715332 20.399900436401367 
v 163.8588409423828 -0.00019999999494757503 20.399900436401367 
v 204.7986297607422 41.0529670715332 30.6405086517334 
v 163.8588409423828 -0.00019999999494757503 30.6405086517334 
v -40.96009826660156 41.0529670715332 20.399900436401367 
v -40.96009826660156 122.91922760009766 20.399900436401367 
v -40.96009826660156 41.0529670715332 30.6405086517334 
v -40.96009826660156 122.91922760009766 30.6405086517334 
v -40.96009826660156 122.91922760009766 30.6405086517334 
v -40.96009826660156 41.0529670715332 30.6405086517334 
v -40.96009826660156 122.91922760009766 20.399900436401367 
v -40.96009826660156 41.0529670715332 20.399900436401367 
v -0.020322000607848167 -0.00019999999494757503 30.6405086517334 
v 163.8588409423828 -0.00019999999494757503 30.6405086517334 
v -0.020322000607848167 -0.00019999999494757503 20.399900436401367 
v 163.8588409423828 -0.00019999999494757503 20.399900436401367 
v 204.7986297607422 41.0529670715332 30.6405086517334 
v 204.7986297607422 225.19203186035156 30.6405086517334 
v 204.7986297607422 41.0529670715332 20.399900436401367 
v 204.7986297607422 225.19203186035156 20.399900436401367 
v 204.7986297607422 225.19203186035156 20.399900436401367 
v 204.7986297607422 225.19203186035156 30.6405086517334 
v 204.7986297607422 450.62432861328125 20.399900436401367 
v 204.7986297607422 450.62432861328125 30.6405086517334 
v -40.96009826660156 41.0529670715332 30.6405086517334 
v -0.020322000607848167 -0.00019999999494757503 30.6405086517334 
v -40.96009826660156 41.0529670715332 20.399900436401367 
v -0.020322000607848167 -0.00019999999494757503 20.399900436401367 
v 163.8588409423828 491.4374084472656 20.399900436401367 
v 204.7986297607422 450.62432861328125 20.399900436401367 
v 163.8588409423828 491.4374084472656 30.6405086517334 
v 204.7986297607422 450.62432861328125 30.6405086517334 
v 163.8588409423828 -0.00019999999494757503 30.6405086517334 
v 204.7986297607422 41.0529670715332 30.6405086517334 
v 163.8588409423828 -0.00019999999494757503 20.399900436401367 
v 204.7986297607422 41.0529670715332 20.399900436401367 
v 163.8588409423828 491.4374084472656 30.6405086517334 
v 122.9190673828125 491.4374084472656 30.6405086517334 
v 163.8588409423828 491.4374084472656 20.399900436401367 
v 122.9190673828125 491.4374084472656 20.399900436401367 
v -0.020322000607848167 -0.00019999999494757503 20.399900436401367 
v -40.96009826660156 41.0529670715332 20.399900436401367 
v -0.020322000607848167 -0.00019999999494757503 30.6405086517334 
v -40.96009826660156 41.0529670715332 30.6405086517334 
v -0.020322000607848167 -0.00019999999494757503 30.6405086517334 
v 163.8588409423828 -0.00019999999494757503 30.6405086517334 
v -0.020322000607848167 -0.00019999999494757503 20.399900436401367 
v 163.8588409423828 -0.00019999999494757503 20.399900436401367 
v 204.7986297607422 225.19203186035156 20.399900436401367 
v 204.7986297607422 41.0529670715332 20.399900436401367 
v 204.7986297607422 225.19203186035156 30.6405086517334 
v 204.7986297607422 41.0529670715332 30.6405086517334 
v 122.9190673828125 491.4374084472656 20.399900436401367 
v 163.8588409423828 491.4374084472656 20.399900436401367 
v 122.9190673828125 491.4374084472656 30.6405086517334 
v 163.8588409423828 491.4374084472656 30.6405086517334 
v 163.8588409423828 491.4374084472656 20.399900436401367 
v 204.7986297607422 450.62432861328125 20.399900436401367 
v 163.8588409423828 491.4374084472656 30.6405086517334 
v 204.7986297607422 450.62432861328125 30.6405086517334 
vn -0.999997615814209 -2.0682260971124217e-13 0.002184694167226553 
vn -0.999997615814209 -2.0682260971124217e-13 0.002184694167226553 
vn -0.999997615814209 -2.0682260971124217e-13 0.002184694167226553 
vn -0.999997615814209 -2.0682260971124217e-13 0.002184694167226553 
vn -0.7071051001548767 0.7071051001548767 0.002184694167226553 
vn -0.7071051001548767 0.7071051001548767 0.002184694167226553 
vn -0.7071051001548767 0.7071051001548767 0.002184694167226553 
vn -0.7071051001548767 0.7071051001548767 0.002184694167226553 
vn 0.999997615814209 0 0.002184694167226553 
vn 0.999997615814209 0 0.002184694167226553 
vn 0.999997615814209 0 0.002184694167226553 
vn 0.999997615814209 0 0.002184694167226553 
vn 0.999997615814209 0 0.002184694167226553 
vn 0.999997615814209 0 0.002184694167226553 
vn 0.999997615814209 0 0.002184694167226553 
vn 0.999997615814209 0 0.002184694167226553 
vn -1.0341130485562108e-13 0.999997615814209 0.002184694167226553 
vn -1.0341130485562108e-13 0.999997615814209 0.002184694167226553 
vn -1.0341130485562108e-13 0.999997615814209 0.002184694167226553 
vn -1.0341130485562108e-13 0.999997615814209 0.002184694167226553 
vn -0.999997615814209 -2.0682260971124217e-13 0.002184694167226553 
vn -0.999997615814209 -2.0682260971124217e-13 0.002184694167226553 
vn -0.999997615814209 -2.0682260971124217e-13 0.002184694167226553 
vn -0.999997615814209 -2.0682260971124217e-13 0.002184694167226553 
vn -0.999997615814209 -2.0682260971124217e-13 0.002184694167226553 
vn -0.999997615814209 -2.0682260971124217e-13 0.002184694167226553 
vn -0.999997615814209 -2.0682260971124217e-13 0.002184694167226553 
vn -0.999997615814209 -2.0682260971124217e-13 0.002184694167226553 
vn 0.7071051001548767 0.7071051001548767 0.002184694167226553 
vn 0.7071051001548767 0.7071051001548767 0.002184694167226553 
vn 0.7071051001548767 0.7071051001548767 0.002184694167226553 
vn 0.7071051001548767 0.7071051001548767 0.002184694167226553 
vn -0.7071051001548767 -0.7071051001548767 0.002184694167226553 
vn -0.7071051001548767 -0.7071051001548767 0.002184694167226553 
vn -0.7071051001548767 -0.7071051001548767 0.002184694167226553 
vn -0.7071051001548767 -0.7071051001548767 0.002184694167226553 
vn -0.7071051001548767 0.7071051001548767 0.002184694167226553 
vn -0.7071051001548767 0.7071051001548767 0.002184694167226553 
vn -0.7071051001548767 0.7071051001548767 0.002184694167226553 
vn -0.7071051001548767 0.7071051001548767 0.002184694167226553 
vn 3.097898456858039e-13 -0.999997615814209 0.002184694167226553 
vn 3.097898456858039e-13 -0.999997615814209 0.002184694167226553 
vn 3.097898456858039e-13 -0.999997615814209 0.002184694167226553 
vn 3.097898456858039e-13 -0.999997615814209 0.002184694167226553 
vn 0.7071051001548767 0.7071051001548767 0.002184694167226553 
vn 0.7071051001548767 0.7071051001548767 0.002184694167226553 
vn 0.7071051001548767 0.7071051001548767 0.002184694167226553 
vn 0.7071051001548767 0.7071051001548767 0.002184694167226553 
vn -1.0341130485562108e-13 0.999997615814209 0.002184694167226553 
vn -1.0341130485562108e-13 0.999997615814209 0.002184694167226553 
vn -1.0341130485562108e-13 0.999997615814209 0.002184694167226553 
vn -1.0341130485562108e-13 0.999997615814209 0.002184694167226553 
vn -0.999997615814209 -2.0682260971124217e-13 0.002184694167226553 
vn -0.999997615814209 -2.0682260971124217e-13 0.002184694167226553 
vn -0.999997615814209 -2.0682260971124217e-13 0.002184694167226553 
vn -0.999997615814209 -2.0682260971124217e-13 0.002184694167226553 
vn 3.097898456858039e-13 -0.999997615814209 0.002184694167226553 
vn 3.097898456858039e-13 -0.999997615814209 0.002184694167226553 
vn 3.097898456858039e-13 -0.999997615814209 0.002184694167226553 
vn 3.097898456858039e-13 -0.999997615814209 0.002184694167226553 
vn -0.7071051001548767 -0.7071051001548767 0.002184694167226553 
vn -0.7071051001548767 -0.7071051001548767 0.002184694167226553 
vn -0.7071051001548767 -0.7071051001548767 0.002184694167226553 
vn -0.7071051001548767 -0.7071051001548767 0.002184694167226553 
vt -20.988300323486328 -7.093999698781772e-8 
vt -20.988300323486328 0.9668015837669373 
vt 0.9667730927467346 -7.093999698781772e-8 
vt 0.9667730927467346 0.9668015837669373 
vt -4.021472930908203 0.9668015837669373 
vt 1.622975468635559 0.9668015837669373 
vt -4.021472930908203 -7.093999698781772e-8 
vt 1.622975468635559 -7.093999698781772e-8 
vt 0.00002967000000353437 0.9668015837669373 
vt 11.945284843444824 0.9668015837669373 
vt 0.00002967000000353437 -7.093999698781772e-8 
vt 11.945284843444824 -7.093999698781772e-8 
vt 11.945284843444824 -7.093999698781772e-8 
vt 0.00002967000000353437 -7.093999698781772e-8 
vt 11.945284843444824 0.9668015837669373 
vt 0.00002967000000353437 0.9668015837669373 
vt 19.929677963256836 -7.093999698781772e-8 
vt 0.00002967000000353437 -7.093999698781772e-8 
vt 19.929677963256836 0.9668015837669373 
vt 0.00002967000000353437 0.9668015837669373 
vt 0.9667730927467346 -7.093999698781772e-8 
vt -20.988300323486328 -7.093999698781772e-8 
vt 0.9667730927467346 0.9668015837669373 
vt -20.988300323486328 0.9668015837669373 
vt 0.9667730927467346 0.9668015837669373 
vt 0.9667730927467346 -7.093999698781772e-8 
vt -20.988300323486328 0.9668015837669373 
vt -20.988300323486328 -7.093999698781772e-8 
vt 4.959009170532227 -7.093999698781772e-8 
vt -0.6855176091194153 -7.093999698781772e-8 
vt 4.959009170532227 0.9668015837669373 
vt -0.6855176091194153 0.9668015837669373 
vt -0.16409896314144135 0.9629008769989014 
vt 5.480505466461182 0.9629008769989014 
vt -0.16409896314144135 -0.03519999980926514 
vt 5.480505466461182 -0.03519999980926514 
vt 1.622975468635559 -7.093999698781772e-8 
vt -4.021472930908203 -7.093999698781772e-8 
vt 1.622975468635559 0.9668015837669373 
vt -4.021472930908203 0.9668015837669373 
vt 0.8554809093475342 -0.03320091590285301 
vt -3.1348037719726562 -0.03320091590285301 
vt 0.8554809093475342 0.9648025035858154 
vt -3.1348037719726562 0.9648025035858154 
vt -0.6855176091194153 0.9668015837669373 
vt 4.959009170532227 0.9668015837669373 
vt -0.6855176091194153 -7.093999698781772e-8 
vt 4.959009170532227 -7.093999698781772e-8 
vt 19.929677963256836 -7.093999698781772e-8 
vt 0.00002967000000353437 -7.093999698781772e-8 
vt 19.929677963256836 0.9668015837669373 
vt 0.00002967000000353437 0.9668015837669373 
vt -20.988300323486328 0.9668015837669373 
vt 0.9667730927467346 0.9668015837669373 
vt -20.988300323486328 -7.093999698781772e-8 
vt 0.9667730927467346 -7.093999698781772e-8 
vt -3.1348037719726562 0.9648025035858154 
vt 0.8554809093475342 0.9648025035858154 
vt -3.1348037719726562 -0.03320091590285301 
vt 0.8554809093475342 -0.03320091590285301 
vt -0.16409896314144135 0.9629008769989014 
vt 5.480505466461182 0.9629008769989014 
vt -0.16409896314144135 -0.03519999980926514 
vt 5.480505466461182 -0.03519999980926514 
s on 
f 1/1/1 2/2/2 3/3/3 
f 2/2/2 4/4/4 3/3/3 
f 3/3/3 4/4/4 4/4/4 
f 4/4/4 5/5/5 4/4/4 
f 4/4/4 5/5/5 5/5/5 
f 5/5/5 6/6/6 5/5/5 
f 5/5/5 6/6/6 7/7/7 
f 6/6/6 8/8/8 7/7/7 
f 7/7/7 8/8/8 8/8/8 
f 8/8/8 9/9/9 8/8/8 
f 8/8/8 9/9/9 9/9/9 
f 9/9/9 10/10/10 9/9/9 
f 9/9/9 10/10/10 11/11/11 
f 10/10/10 12/12/12 11/11/11 
f 11/11/11 12/12/12 12/12/12 
f 12/12/12 13/13/13 12/12/12 
f 12/12/12 13/13/13 13/13/13 
f 13/13/13 14/14/14 13/13/13 
f 13/13/13 14/14/14 15/15/15 
f 14/14/14 16/16/16 15/15/15 
f 15/15/15 16/16/16 16/16/16 
f 16/16/16 17/17/17 16/16/16 
f 16/16/16 17/17/17 17/17/17 
f 17/17/17 18/18/18 17/17/17 
f 17/17/17 18/18/18 19/19/19 
f 18/18/18 20/20/20 19/19/19 
f 19/19/19 20/20/20 20/20/20 
f 20/20/20 21/21/21 20/20/20 
f 20/20/20 21/21/21 21/21/21 
f 21/21/21 22/22/22 21/21/21 
f 21/21/21 22/22/22 23/23/23 
f 22/22/22 24/24/24 23/23/23 
f 23/23/23 24/24/24 24/24/24 
f 24/24/24 25/25/25 24/24/24 
f 24/24/24 25/25/25 25/25/25 
f 25/25/25 26/26/26 25/25/25 
f 25/25/25 26/26/26 27/27/27 
f 26/26/26 28/28/28 27/27/27 
f 27/27/27 28/28/28 28/28/28 
f 28/28/28 29/29/29 28/28/28 
f 28/28/28 29/29/29 29/29/29 
f 29/29/29 30/30/30 29/29/29 
f 29/29/29 30/30/30 31/31/31 
f 30/30/30 32/32/32 31/31/31 
f 31/31/31 32/32/32 32/32/32 
f 32/32/32 33/33/33 32/32/32 
f 32/32/32 33/33/33 33/33/33 
f 33/33/33 34/34/34 33/33/33 
f 33/33/33 34/34/34 35/35/35 
f 34/34/34 36/36/36 35/35/35 
f 35/35/35 36/36/36 36/36/36 
f 36/36/36 37/37/37 36/36/36 
f 36/36/36 37/37/37 37/37/37 
f 37/37/37 38/38/38 37/37/37 
f 37/37/37 38/38/38 39/39/39 
f 38/38/38 40/40/40 39/39/39 
f 39/39/39 40/40/40 40/40/40 
f 40/40/40 41/41/41 40/40/40 
f 40/40/40 41/41/41 41/41/41 
f 41/41/41 42/42/42 41/41/41 
f 41/41/41 42/42/42 43/43/43 
f 42/42/42 44/44/44 43/43/43 
f 43/43/43 44/44/44 44/44/44 
f 44/44/44 45/45/45 44/44/44 
f 44/44/44 45/45/45 45/45/45 
f 45/45/45 46/46/46 45/45/45 
f 45/45/45 46/46/46 47/47/47 
f 46/46/46 48/48/48 47/47/47 
f 47/47/47 48/48/48 48/48/48 
f 48/48/48 49/49/49 48/48/48 
f 48/48/48 49/49/49 49/49/49 
f 49/49/49 50/50/50 49/49/49 
f 49/49/49 50/50/50 51/51/51 
f 50/50/50 52/52/52 51/51/51 
f 51/51/51 52/52/52 52/52/52 
f 52/52/52 53/53/53 52/52/52 
f 52/52/52 53/53/53 53/53/53 
f 53/53/53 54/54/54 53/53/53 
f 53/53/53 54/54/54 55/55/55 
f 54/54/54 56/56/56 55/55/55 
f 55/55/55 56/56/56 56/56/56 
f 56/56/56 57/57/57 56/56/56 
f 56/56/56 57/57/57 57/57/57 
f 57/57/57 58/58/58 57/57/57 
f 57/57/57 58/58/58 59/59/59 
f 58/58/58 60/60/60 59/59/59 
f 59/59/59 60/60/60 60/60/60 
f 60/60/60 61/61/61 60/60/60 
f 60/60/60 61/61/61 61/61/61 
f 61/61/61 62/62/62 61/61/61 
f 61/61/61 62/62/62 63/63/63 
f 62/62/62 64/64/64 63/63/63 

