mtllib model_24.mtl
o model_24
v -125.96310424804688 546.6779174804688 227.0800018310547 
v -113.81644439697266 534.5313110351562 227.0800018310547 
v -146.08099365234375 526.56005859375 227.0800018310547 
v -133.93434143066406 514.4134521484375 227.0800018310547 
v -113.81644439697266 534.5313110351562 233.06614685058594 
v -125.96310424804688 546.6779174804688 233.06614685058594 
v -133.93434143066406 514.4134521484375 233.06614685058594 
v -146.08099365234375 526.56005859375 233.06614685058594 
v -130.13851928710938 510.61761474609375 285.56005859375 
v -117.99185943603516 498.47100830078125 285.56005859375 
v -110.02061462402344 530.7354736328125 285.56005859375 
v -97.87396240234375 518.5888671875 285.56005859375 
v -110.02061462402344 530.7354736328125 279.57391357421875 
v -130.13851928710938 510.61761474609375 279.57391357421875 
v -110.02061462402344 530.7354736328125 285.56005859375 
v -130.13851928710938 510.61761474609375 285.56005859375 
v -117.99185943603516 498.47100830078125 279.57391357421875 
v -97.87396240234375 518.5888671875 279.57391357421875 
v -117.99185943603516 498.47100830078125 285.56005859375 
v -97.87396240234375 518.5888671875 285.56005859375 
v -117.99185943603516 498.47100830078125 279.57391357421875 
v -130.13851928710938 510.61761474609375 279.57391357421875 
v -97.87396240234375 518.5888671875 279.57391357421875 
v -110.02061462402344 530.7354736328125 279.57391357421875 
v -113.81644439697266 534.5313110351562 233.06614685058594 
v -133.93434143066406 514.4134521484375 233.06614685058594 
v -113.81644439697266 534.5313110351562 227.0800018310547 
v -133.93434143066406 514.4134521484375 227.0800018310547 
v -125.96310424804688 546.6779174804688 227.0800018310547 
v -146.08099365234375 526.56005859375 227.0800018310547 
v -125.96310424804688 546.6779174804688 233.06614685058594 
v -146.08099365234375 526.56005859375 233.06614685058594 
vn -2.0682311115474694e-13 0 -1 
vn -2.0682311115474694e-13 0 -1 
vn -2.0682311115474694e-13 0 -1 
vn -2.0682311115474694e-13 0 -1 
vn 0 0 1 
vn 0 0 1 
vn 0 0 1 
vn 0 0 1 
vn 0 0 1 
vn 0 0 1 
vn 0 0 1 
vn 0 0 1 
vn -0.7071051001548767 0.7071051001548767 0.002184694167226553 
vn -0.7071051001548767 0.7071051001548767 0.002184694167226553 
vn -0.7071051001548767 0.7071051001548767 0.002184694167226553 
vn -0.7071051001548767 0.7071051001548767 0.002184694167226553 
vn 0.7071051001548767 -0.7071051001548767 0.002184694167226553 
vn 0.7071051001548767 -0.7071051001548767 0.002184694167226553 
vn 0.7071051001548767 -0.7071051001548767 0.002184694167226553 
vn 0.7071051001548767 -0.7071051001548767 0.002184694167226553 
vn -2.0682311115474694e-13 0 -1 
vn -2.0682311115474694e-13 0 -1 
vn -2.0682311115474694e-13 0 -1 
vn -2.0682311115474694e-13 0 -1 
vn 0.7071051001548767 -0.7071051001548767 0.002184694167226553 
vn 0.7071051001548767 -0.7071051001548767 0.002184694167226553 
vn 0.7071051001548767 -0.7071051001548767 0.002184694167226553 
vn 0.7071051001548767 -0.7071051001548767 0.002184694167226553 
vn -0.7071051001548767 0.7071051001548767 0.002184694167226553 
vn -0.7071051001548767 0.7071051001548767 0.002184694167226553 
vn -0.7071051001548767 0.7071051001548767 0.002184694167226553 
vn -0.7071051001548767 0.7071051001548767 0.002184694167226553 
vt 2.4688000679016113 -0.5 
vt 2.4688000679016113 0.9688019156455994 
vt 0 -0.5 
vt 0 0.9688019156455994 
vt 2.4688000679016113 0.9688019156455994 
vt 2.4688000679016113 -0.5 
vt 0 0.9688019156455994 
vt 0 -0.5 
vt 0 0.9688019156455994 
vt 0 -0.5 
vt 2.4688000679016113 0.9688019156455994 
vt 2.4688000679016113 -0.5 
vt 2.4688000679016113 -0.0000586280002607964 
vt 0 -0.0000586280002607964 
vt 2.4688000679016113 0.46886056661605835 
vt 0 0.46886056661605835 
vt 2.4688000679016113 -0.0000586280002607964 
vt 0 -0.0000586280002607964 
vt 2.4688000679016113 0.46886056661605835 
vt 0 0.46886056661605835 
vt 0 -0.5 
vt 0 0.9688019156455994 
vt 2.4688000679016113 -0.5 
vt 2.4688000679016113 0.9688019156455994 
vt 2.4688000679016113 -0.0000586280002607964 
vt 0 -0.0000586280002607964 
vt 2.4688000679016113 0.46886056661605835 
vt 0 0.46886056661605835 
vt 0 0.46886056661605835 
vt 2.4688000679016113 0.46886056661605835 
vt 0 -0.0000586280002607964 
vt 2.4688000679016113 -0.0000586280002607964 
s on 
f 1/1/1 2/2/2 3/3/3 
f 2/2/2 4/4/4 3/3/3 
f 3/3/3 4/4/4 4/4/4 
f 4/4/4 5/5/5 4/4/4 
f 4/4/4 5/5/5 5/5/5 
f 5/5/5 6/6/6 5/5/5 
f 5/5/5 6/6/6 7/7/7 
f 6/6/6 8/8/8 7/7/7 
f 7/7/7 8/8/8 8/8/8 
f 8/8/8 9/9/9 8/8/8 
f 8/8/8 9/9/9 9/9/9 
f 9/9/9 10/10/10 9/9/9 
f 9/9/9 10/10/10 11/11/11 
f 10/10/10 12/12/12 11/11/11 
f 11/11/11 12/12/12 12/12/12 
f 12/12/12 13/13/13 12/12/12 
f 12/12/12 13/13/13 13/13/13 
f 13/13/13 14/14/14 13/13/13 
f 13/13/13 14/14/14 15/15/15 
f 14/14/14 16/16/16 15/15/15 
f 15/15/15 16/16/16 16/16/16 
f 16/16/16 17/17/17 16/16/16 
f 16/16/16 17/17/17 17/17/17 
f 17/17/17 18/18/18 17/17/17 
f 17/17/17 18/18/18 19/19/19 
f 18/18/18 20/20/20 19/19/19 
f 19/19/19 20/20/20 20/20/20 
f 20/20/20 21/21/21 20/20/20 
f 20/20/20 21/21/21 21/21/21 
f 21/21/21 22/22/22 21/21/21 
f 21/21/21 22/22/22 23/23/23 
f 22/22/22 24/24/24 23/23/23 
f 23/23/23 24/24/24 24/24/24 
f 24/24/24 25/25/25 24/24/24 
f 24/24/24 25/25/25 25/25/25 
f 25/25/25 26/26/26 25/25/25 
f 25/25/25 26/26/26 27/27/27 
f 26/26/26 28/28/28 27/27/27 
f 27/27/27 28/28/28 28/28/28 
f 28/28/28 29/29/29 28/28/28 
f 28/28/28 29/29/29 29/29/29 
f 29/29/29 30/30/30 29/29/29 
f 29/29/29 30/30/30 31/31/31 
f 30/30/30 32/32/32 31/31/31 

