mtllib model_22.mtl
o model_22
v 122.32490539550781 440.31878662109375 85.91739654541016 
v 122.32490539550781 460.7039489746094 85.91739654541016 
v 122.32490539550781 442.8735046386719 102.3154067993164 
v 122.32490539550781 458.1492614746094 102.3154067993164 
v 97.51599884033203 355.7509460449219 102.3154067993164 
v 97.51599884033203 340.4752197265625 102.3154067993164 
v 97.51599884033203 358.3056640625 85.91739654541016 
v 97.51599884033203 337.9205017089844 85.91739654541016 
v 113.52456665039062 414.7892150878906 102.3154067993164 
v 113.52456665039062 384.15020751953125 102.3154067993164 
v 113.52456665039062 419.9161376953125 85.91739654541016 
v 113.52456665039062 379.0408020019531 85.91739654541016 
vn 0.999997615814209 0 0.002184694167226553 
vn 0.999997615814209 0 0.002184694167226553 
vn 0.999997615814209 0 0.002184694167226553 
vn 0.999997615814209 0 0.002184694167226553 
vn 0.999997615814209 0 0.002184694167226553 
vn 0.999997615814209 0 0.002184694167226553 
vn 0.999997615814209 0 0.002184694167226553 
vn 0.999997615814209 0 0.002184694167226553 
vn 0.999997615814209 0 0.002184694167226553 
vn 0.999997615814209 0 0.002184694167226553 
vn 0.999997615814209 0 0.002184694167226553 
vn 0.999997615814209 0 0.002184694167226553 
vt -0.1543000042438507 0.9668000936508179 
vt 1.091796875 0.9668000936508179 
vt -0.00004017999890493229 0 
vt 0.9355593323707581 0 
vt 0.9355593323707581 0 
vt -0.00004017999890493229 0 
vt 1.091796875 0.9668000936508179 
vt -0.1543000042438507 0.9668000936508179 
vt 0.9355593323707581 0 
vt -0.00004017999890493229 0 
vt 1.091796875 0.9668000936508179 
vt -0.1543000042438507 0.9668000936508179 
s on 
f 1/1/1 2/2/2 3/3/3 
f 2/2/2 4/4/4 3/3/3 
f 3/3/3 4/4/4 4/4/4 
f 4/4/4 5/5/5 4/4/4 
f 4/4/4 5/5/5 5/5/5 
f 5/5/5 6/6/6 5/5/5 
f 5/5/5 6/6/6 7/7/7 
f 6/6/6 8/8/8 7/7/7 
f 7/7/7 8/8/8 8/8/8 
f 8/8/8 9/9/9 8/8/8 
f 8/8/8 9/9/9 9/9/9 
f 9/9/9 10/10/10 9/9/9 
f 9/9/9 10/10/10 11/11/11 
f 10/10/10 12/12/12 11/11/11 

