mtllib model_18.mtl
o model_18
v -405.4320983886719 122.87000274658203 92.07759857177734 
v -286.63629150390625 122.87000274658203 92.07759857177734 
v -405.4320983886719 122.87000274658203 81.83978271484375 
v -286.63629150390625 122.87000274658203 81.83978271484375 
v -368.5511779785156 409.59222412109375 204.71981811523438 
v -368.5511779785156 409.59222412109375 212.88381958007812 
v -327.5937194824219 327.6665954589844 204.71981811523438 
v -327.5937194824219 327.6665954589844 212.88381958007812 
v -368.5511779785156 643.2780151367188 204.71981811523438 
v -368.5511779785156 643.2780151367188 212.88381958007812 
v -368.5511779785156 532.3931884765625 204.71981811523438 
v -368.5511779785156 532.3931884765625 212.88381958007812 
v -368.5511779785156 409.59222412109375 212.88381958007812 
v -368.5511779785156 409.59222412109375 204.71981811523438 
v -368.5511779785156 532.3931884765625 212.88381958007812 
v -368.5511779785156 532.3931884765625 204.71981811523438 
v 6.486659049987793 424.15057373046875 348.07550048828125 
v 6.486659049987793 446.2330322265625 348.07550048828125 
v 6.486659049987793 424.15057373046875 327.599853515625 
v 6.486659049987793 446.2330322265625 327.599853515625 
v 122.86805725097656 778.152587890625 96.16397094726562 
v 122.86805725097656 778.152587890625 85.91740417480469 
v 122.86805725097656 696.2269897460938 96.16397094726562 
v 122.86805725097656 696.2269897460938 85.91740417480469 
v -405.4320983886719 399.35589599609375 30.641950607299805 
v -466.87701416015625 399.35589599609375 30.641950607299805 
v -405.4320983886719 399.35589599609375 40.879764556884766 
v -466.87701416015625 399.35589599609375 40.879764556884766 
v -466.87701416015625 573.3560180664062 30.641950607299805 
v -466.87701416015625 573.3560180664062 40.879764556884766 
v -466.87701416015625 399.35589599609375 30.641950607299805 
v -466.87701416015625 399.35589599609375 40.879764556884766 
v -368.5511779785156 573.3560180664062 30.641950607299805 
v -368.5511779785156 573.3560180664062 40.879764556884766 
v -466.87701416015625 573.3560180664062 30.641950607299805 
v -466.87701416015625 573.3560180664062 40.879764556884766 
v -8.157241821289062 778.152587890625 85.91740417480469 
v 122.86805725097656 778.152587890625 85.91740417480469 
v -8.157241821289062 778.152587890625 96.16397094726562 
v 122.86805725097656 778.152587890625 96.16397094726562 
v -226.64353942871094 677.1891479492188 204.71981811523438 
v -226.64353942871094 677.1891479492188 212.88381958007812 
v -368.5511779785156 643.2780151367188 204.71981811523438 
v -368.5511779785156 643.2780151367188 212.88381958007812 
v -226.64353942871094 677.1891479492188 212.88381958007812 
v -226.64353942871094 677.1891479492188 204.71981811523438 
v -81.91911315917969 532.3931884765625 212.88381958007812 
v -81.91911315917969 532.3931884765625 204.71981811523438 
v -40.96167755126953 368.6294250488281 214.9576416015625 
v -40.96167755126953 368.6294250488281 204.71981811523438 
v -40.96167755126953 450.5550537109375 214.9576416015625 
v -40.96167755126953 450.5550537109375 204.71981811523438 
v 44.802242279052734 446.2330322265625 348.07550048828125 
v 44.802242279052734 424.15057373046875 348.07550048828125 
v 44.802242279052734 446.2330322265625 327.599853515625 
v 44.802242279052734 424.15057373046875 327.599853515625 
v 25.679441452026367 457.1867980957031 348.07550048828125 
v 44.802242279052734 446.2330322265625 348.07550048828125 
v 25.679441452026367 457.1867980957031 327.599853515625 
v 44.802242279052734 446.2330322265625 327.599853515625 
v 25.679441452026367 457.1867980957031 327.599853515625 
v 6.486659049987793 446.2330322265625 327.599853515625 
v 25.679441452026367 457.1867980957031 348.07550048828125 
v 6.486659049987793 446.2330322265625 348.07550048828125 
v -40.96167755126953 450.5550537109375 204.71981811523438 
v -0.0042455000802874565 450.5550537109375 184.2441864013672 
v -40.96167755126953 450.5550537109375 214.9576416015625 
v -0.0042455000802874565 450.5550537109375 194.4820098876953 
v 53.27016067504883 450.5550537109375 194.4820098876953 
v 53.27016067504883 450.5550537109375 184.2441864013672 
v 25.679441452026367 413.10931396484375 348.07550048828125 
v 6.486659049987793 424.15057373046875 348.07550048828125 
v 25.679441452026367 413.10931396484375 327.599853515625 
v 6.486659049987793 424.15057373046875 327.599853515625 
v -405.4320983886719 399.35589599609375 40.879764556884766 
v -405.4320983886719 204.79563903808594 92.07759857177734 
v -405.4320983886719 399.35589599609375 30.641950607299805 
v -405.4320983886719 204.79563903808594 81.83978271484375 
v -405.4320983886719 122.87000274658203 81.83978271484375 
v -405.4320983886719 122.87000274658203 92.07759857177734 
v 25.679441452026367 413.10931396484375 327.599853515625 
v 44.802242279052734 424.15057373046875 327.599853515625 
v 25.679441452026367 413.10931396484375 348.07550048828125 
v 44.802242279052734 424.15057373046875 348.07550048828125 
vn -1.0341130485562108e-13 0.999997615814209 0.002184694167226553 
vn -1.0341130485562108e-13 0.999997615814209 0.002184694167226553 
vn -1.0341130485562108e-13 0.999997615814209 0.002184694167226553 
vn -1.0341130485562108e-13 0.999997615814209 0.002184694167226553 
vn 0.8957543969154358 0.4445439279079437 0.002184694167226553 
vn 0.8957543969154358 0.4445439279079437 0.002184694167226553 
vn 0.8957543969154358 0.4445439279079437 0.002184694167226553 
vn 0.8957543969154358 0.4445439279079437 0.002184694167226553 
vn 0.999997615814209 0 0.002184694167226553 
vn 0.999997615814209 0 0.002184694167226553 
vn 0.999997615814209 0 0.002184694167226553 
vn 0.999997615814209 0 0.002184694167226553 
vn 0.999997615814209 0 0.002184694167226553 
vn 0.999997615814209 0 0.002184694167226553 
vn 0.999997615814209 0 0.002184694167226553 
vn 0.999997615814209 0 0.002184694167226553 
vn -0.999997615814209 -2.0682260971124217e-13 0.002184694167226553 
vn -0.999997615814209 -2.0682260971124217e-13 0.002184694167226553 
vn -0.999997615814209 -2.0682260971124217e-13 0.002184694167226553 
vn -0.999997615814209 -2.0682260971124217e-13 0.002184694167226553 
vn -0.999997615814209 -2.0682260971124217e-13 0.002184694167226553 
vn -0.999997615814209 -2.0682260971124217e-13 0.002184694167226553 
vn -0.999997615814209 -2.0682260971124217e-13 0.002184694167226553 
vn -0.999997615814209 -2.0682260971124217e-13 0.002184694167226553 
vn -1.0341130485562108e-13 0.999997615814209 0.002184694167226553 
vn -1.0341130485562108e-13 0.999997615814209 0.002184694167226553 
vn -1.0341130485562108e-13 0.999997615814209 0.002184694167226553 
vn -1.0341130485562108e-13 0.999997615814209 0.002184694167226553 
vn 0.999997615814209 0 0.002184694167226553 
vn 0.999997615814209 0 0.002184694167226553 
vn 0.999997615814209 0 0.002184694167226553 
vn 0.999997615814209 0 0.002184694167226553 
vn 3.097898456858039e-13 -0.999997615814209 0.002184694167226553 
vn 3.097898456858039e-13 -0.999997615814209 0.002184694167226553 
vn 3.097898456858039e-13 -0.999997615814209 0.002184694167226553 
vn 3.097898456858039e-13 -0.999997615814209 0.002184694167226553 
vn 3.097898456858039e-13 -0.999997615814209 0.002184694167226553 
vn 3.097898456858039e-13 -0.999997615814209 0.002184694167226553 
vn 3.097898456858039e-13 -0.999997615814209 0.002184694167226553 
vn 3.097898456858039e-13 -0.999997615814209 0.002184694167226553 
vn 0.23197589814662933 -0.9727190732955933 0.002184694167226553 
vn 0.23197589814662933 -0.9727190732955933 0.002184694167226553 
vn 0.23197589814662933 -0.9727190732955933 0.002184694167226553 
vn 0.23197589814662933 -0.9727190732955933 0.002184694167226553 
vn -0.7071051001548767 -0.7071051001548767 0.002184694167226553 
vn -0.7071051001548767 -0.7071051001548767 0.002184694167226553 
vn -0.7071051001548767 -0.7071051001548767 0.002184694167226553 
vn -0.7071051001548767 -0.7071051001548767 0.002184694167226553 
vn 0.999997615814209 0 0.002184694167226553 
vn 0.999997615814209 0 0.002184694167226553 
vn 0.999997615814209 0 0.002184694167226553 
vn 0.999997615814209 0 0.002184694167226553 
vn 0.999997615814209 0 0.002184694167226553 
vn 0.999997615814209 0 0.002184694167226553 
vn 0.999997615814209 0 0.002184694167226553 
vn 0.999997615814209 0 0.002184694167226553 
vn 0.49781718850135803 0.8672792315483093 0.002184694167226553 
vn 0.49781718850135803 0.8672792315483093 0.002184694167226553 
vn 0.49781718850135803 0.8672792315483093 0.002184694167226553 
vn 0.49781718850135803 0.8672792315483093 0.002184694167226553 
vn -0.49781718850135803 0.8672792315483093 0.002184694167226553 
vn -0.49781718850135803 0.8672792315483093 0.002184694167226553 
vn -0.49781718850135803 0.8672792315483093 0.002184694167226553 
vn -0.49781718850135803 0.8672792315483093 0.002184694167226553 
vn 3.097898456858039e-13 -0.999997615814209 0.002184694167226553 
vn 3.097898456858039e-13 -0.999997615814209 0.002184694167226553 
vn 3.097898456858039e-13 -0.999997615814209 0.002184694167226553 
vn 3.097898456858039e-13 -0.999997615814209 0.002184694167226553 
vn 3.097898456858039e-13 -0.999997615814209 0.002184694167226553 
vn 3.097898456858039e-13 -0.999997615814209 0.002184694167226553 
vn -0.49781718850135803 -0.8672792315483093 0.002184694167226553 
vn -0.49781718850135803 -0.8672792315483093 0.002184694167226553 
vn -0.49781718850135803 -0.8672792315483093 0.002184694167226553 
vn -0.49781718850135803 -0.8672792315483093 0.002184694167226553 
vn 0.999997615814209 0 0.002184694167226553 
vn 0.999997615814209 0 0.002184694167226553 
vn 0.999997615814209 0 0.002184694167226553 
vn 0.999997615814209 0 0.002184694167226553 
vn 0.999997615814209 0 0.002184694167226553 
vn 0.999997615814209 0 0.002184694167226553 
vn 0.49781718850135803 -0.8672792315483093 0.002184694167226553 
vn 0.49781718850135803 -0.8672792315483093 0.002184694167226553 
vn 0.49781718850135803 -0.8672792315483093 0.002184694167226553 
vn 0.49781718850135803 -0.8672792315483093 0.002184694167226553 
vt 0.9668167233467102 0.000016963800590019673 
vt -5.0195112228393555 5.955107688903809 
vt 1.4647804498672485 0.46881407499313354 
vt -4.521501541137695 6.455142498016357 
vt 0.3984089493751526 1.3945318460464478 
vt 0.8965100646018982 0.8965207934379578 
vt -5.17968225479126 -4.183603763580322 
vt -4.679703235626221 -4.681576728820801 
vt 0.9668167233467102 0.9668250679969788 
vt 0.46679195761680603 0.46881407499313354 
vt -5.826182842254639 7.759839057922363 
vt -6.324192523956299 7.2598419189453125 
vt -7.078100204467773 8.013713836669922 
vt -6.578121185302734 8.511724472045898 
vt 0.40628698468208313 0.529304027557373 
vt 0.9042964577674866 1.0273150205612183 
vt 6.457013130187988 -0.06448273360729218 
vt 5.459024429321289 -0.06448273360729218 
vt 6.457013130187988 0.9707202911376953 
vt 5.459024429321289 0.9707202911376953 
vt 0.000019686400264617987 0.9668250679969788 
vt 0.46679195761680603 1.4629267454147339 
vt 3.9609196186065674 -3.0253970623016357 
vt 4.459020614624023 -2.5272715091705322 
vt 0.46679195761680603 1.4647979736328125 
vt 3.460894823074341 -1.527277946472168 
vt 0.000019686400264617987 0.9668250679969788 
vt 2.9628853797912598 -2.0272746086120605 
vt 7.455092906951904 -5.521485805511475 
vt 6.955114364624023 -6.019496917724609 
vt 0.46880725026130676 1.4629267454147339 
vt 0.000019686400264617987 0.9668250679969788 
vt 0.16802288591861725 1.7637343406677246 
vt -0.32810869812965393 1.2636994123458862 
vt 4.9589996337890625 -3.0253970623016357 
vt 4.459020614624023 -3.5234081745147705 
vt -5.417992115020752 7.3516082763671875 
vt 0.9668167233467102 0.9668250679969788 
vt -5.9180169105529785 6.85352087020874 
vt 0.46679195761680603 0.46682828664779663 
vt 8.646505355834961 -6.712878227233887 
vt 8.148404121398926 -7.2129130363464355 
vt 0.46679195761680603 1.4647979736328125 
vt 0.000019686400264617987 0.9668250679969788 
vt 0.000019686400264617987 0.9668250679969788 
vt 0.46880725026130676 1.4647979736328125 
vt 12.445310592651367 -11.50979995727539 
vt 12.943411827087402 -11.00980281829834 
vt -3.5214977264404297 4.459012508392334 
vt -3.0233967304229736 4.9570231437683105 
vt 0.46679195761680603 0.46682828664779663 
vt 0.9668167233467102 0.9668250679969788 
vt 3.4629101753234863 -0.06448273360729218 
vt 2.4647841453552246 -0.06448273360729218 
vt 3.4629101753234863 0.9707202911376953 
vt 2.4647841453552246 0.9707202911376953 
vt 4.460898399353027 -0.06448273360729218 
vt 3.4629101753234863 -0.06448273360729218 
vt 4.460898399353027 0.9707202911376953 
vt 3.4629101753234863 0.9707202911376953 
vt 4.460898399353027 0.9707202911376953 
vt 5.459024429321289 0.9707202911376953 
vt 4.460898399353027 -0.06448273360729218 
vt 5.459024429321289 -0.06448273360729218 
vt 3.9609196186065674 -4.023405075073242 
vt 2.9628853797912598 -1.029305100440979 
vt 3.4629101753234863 -4.523401737213135 
vt 2.4647841453552246 -1.5293018817901611 
vt -0.12891407310962677 1.0645102262496948 
vt 0.3672175407409668 1.564507007598877 
vt 1.466795802116394 -0.06448273360729218 
vt 0.46880725026130676 -0.06448273360729218 
vt 1.466795802116394 0.9707202911376953 
vt 0.46880725026130676 0.9707202911376953 
vt 16.4374942779541 -10.509806632995605 
vt 4.673788070678711 -2.3125016689300537 
vt 16.935503005981445 -10.011680603027344 
vt 5.1738128662109375 -1.812504768371582 
vt 0.46679195761680603 1.4647979736328125 
vt 0.000019686400264617987 0.9668250679969788 
vt 1.466795802116394 0.9707202911376953 
vt 2.4647841453552246 0.9707202911376953 
vt 1.466795802116394 -0.06448273360729218 
vt 2.4647841453552246 -0.06448273360729218 
s on 
f 1/1/1 2/2/2 3/3/3 
f 2/2/2 4/4/4 3/3/3 
f 3/3/3 4/4/4 4/4/4 
f 4/4/4 5/5/5 4/4/4 
f 4/4/4 5/5/5 5/5/5 
f 5/5/5 6/6/6 5/5/5 
f 5/5/5 6/6/6 7/7/7 
f 6/6/6 8/8/8 7/7/7 
f 7/7/7 8/8/8 8/8/8 
f 8/8/8 9/9/9 8/8/8 
f 8/8/8 9/9/9 9/9/9 
f 9/9/9 10/10/10 9/9/9 
f 9/9/9 10/10/10 11/11/11 
f 10/10/10 12/12/12 11/11/11 
f 11/11/11 12/12/12 12/12/12 
f 12/12/12 13/13/13 12/12/12 
f 12/12/12 13/13/13 13/13/13 
f 13/13/13 14/14/14 13/13/13 
f 13/13/13 14/14/14 15/15/15 
f 14/14/14 16/16/16 15/15/15 
f 15/15/15 16/16/16 16/16/16 
f 16/16/16 17/17/17 16/16/16 
f 16/16/16 17/17/17 17/17/17 
f 17/17/17 18/18/18 17/17/17 
f 17/17/17 18/18/18 19/19/19 
f 18/18/18 20/20/20 19/19/19 
f 19/19/19 20/20/20 20/20/20 
f 20/20/20 21/21/21 20/20/20 
f 20/20/20 21/21/21 21/21/21 
f 21/21/21 22/22/22 21/21/21 
f 21/21/21 22/22/22 23/23/23 
f 22/22/22 24/24/24 23/23/23 
f 23/23/23 24/24/24 24/24/24 
f 24/24/24 25/25/25 24/24/24 
f 24/24/24 25/25/25 25/25/25 
f 25/25/25 26/26/26 25/25/25 
f 25/25/25 26/26/26 27/27/27 
f 26/26/26 28/28/28 27/27/27 
f 27/27/27 28/28/28 28/28/28 
f 28/28/28 29/29/29 28/28/28 
f 28/28/28 29/29/29 29/29/29 
f 29/29/29 30/30/30 29/29/29 
f 29/29/29 30/30/30 31/31/31 
f 30/30/30 32/32/32 31/31/31 
f 31/31/31 32/32/32 32/32/32 
f 32/32/32 33/33/33 32/32/32 
f 32/32/32 33/33/33 33/33/33 
f 33/33/33 34/34/34 33/33/33 
f 33/33/33 34/34/34 35/35/35 
f 34/34/34 36/36/36 35/35/35 
f 35/35/35 36/36/36 36/36/36 
f 36/36/36 37/37/37 36/36/36 
f 36/36/36 37/37/37 37/37/37 
f 37/37/37 38/38/38 37/37/37 
f 37/37/37 38/38/38 39/39/39 
f 38/38/38 40/40/40 39/39/39 
f 39/39/39 40/40/40 40/40/40 
f 40/40/40 41/41/41 40/40/40 
f 40/40/40 41/41/41 41/41/41 
f 41/41/41 42/42/42 41/41/41 
f 41/41/41 42/42/42 43/43/43 
f 42/42/42 44/44/44 43/43/43 
f 43/43/43 44/44/44 44/44/44 
f 44/44/44 45/45/45 44/44/44 
f 44/44/44 45/45/45 45/45/45 
f 45/45/45 46/46/46 45/45/45 
f 45/45/45 46/46/46 47/47/47 
f 46/46/46 48/48/48 47/47/47 
f 47/47/47 48/48/48 48/48/48 
f 48/48/48 49/49/49 48/48/48 
f 48/48/48 49/49/49 49/49/49 
f 49/49/49 50/50/50 49/49/49 
f 49/49/49 50/50/50 51/51/51 
f 50/50/50 52/52/52 51/51/51 
f 51/51/51 52/52/52 52/52/52 
f 52/52/52 53/53/53 52/52/52 
f 52/52/52 53/53/53 53/53/53 
f 53/53/53 54/54/54 53/53/53 
f 53/53/53 54/54/54 55/55/55 
f 54/54/54 56/56/56 55/55/55 
f 55/55/55 56/56/56 56/56/56 
f 56/56/56 57/57/57 56/56/56 
f 56/56/56 57/57/57 57/57/57 
f 57/57/57 58/58/58 57/57/57 
f 57/57/57 58/58/58 59/59/59 
f 58/58/58 60/60/60 59/59/59 
f 59/59/59 60/60/60 60/60/60 
f 60/60/60 61/61/61 60/60/60 
f 60/60/60 61/61/61 61/61/61 
f 61/61/61 62/62/62 61/61/61 
f 61/61/61 62/62/62 63/63/63 
f 62/62/62 64/64/64 63/63/63 
f 63/63/63 64/64/64 64/64/64 
f 64/64/64 65/65/65 64/64/64 
f 64/64/64 65/65/65 65/65/65 
f 65/65/65 66/66/66 65/65/65 
f 65/65/65 66/66/66 67/67/67 
f 66/66/66 68/68/68 67/67/67 
f 67/67/67 68/68/68 68/68/68 
f 68/68/68 66/66/66 68/68/68 
f 68/68/68 66/66/66 69/69/69 
f 66/66/66 70/70/70 69/69/69 
f 69/69/69 70/70/70 70/70/70 
f 70/70/70 71/71/71 70/70/70 
f 70/70/70 71/71/71 71/71/71 
f 71/71/71 72/72/72 71/71/71 
f 71/71/71 72/72/72 73/73/73 
f 72/72/72 74/74/74 73/73/73 
f 73/73/73 74/74/74 74/74/74 
f 74/74/74 75/75/75 74/74/74 
f 74/74/74 75/75/75 75/75/75 
f 75/75/75 76/76/76 75/75/75 
f 75/75/75 76/76/76 77/77/77 
f 76/76/76 78/78/78 77/77/77 
f 77/77/77 78/78/78 78/78/78 
f 78/78/78 76/76/76 78/78/78 
f 78/78/78 76/76/76 79/79/79 
f 76/76/76 80/80/80 79/79/79 
f 79/79/79 80/80/80 80/80/80 
f 80/80/80 81/81/81 80/80/80 
f 80/80/80 81/81/81 81/81/81 
f 81/81/81 82/82/82 81/81/81 
f 81/81/81 82/82/82 83/83/83 
f 82/82/82 84/84/84 83/83/83 

