mtllib model_1.mtl
o model_1
v 122.88487243652344 491.43072509765625 85.91736602783203 
v 81.90994262695312 491.43072509765625 85.91736602783203 
v 122.88487243652344 327.6844177246094 85.91736602783203 
v 81.90994262695312 327.6844177246094 85.91736602783203 
v -146.16400146484375 630.9597778320312 276.4020080566406 
v -115.4415512084961 661.6687622070312 276.4020080566406 
v -135.92901611328125 620.7059326171875 276.4020080566406 
v -94.95408630371094 671.9050903320312 276.4020080566406 
v -105.2065658569336 651.4324340820312 276.4020080566406 
v -94.95408630371094 641.1961059570312 276.4020080566406 
v 122.88487243652344 204.7959747314453 20.404094696044922 
v 122.88487243652344 491.43072509765625 20.404094696044922 
v 122.88487243652344 143.36050415039062 40.87972640991211 
v 122.88487243652344 327.6844177246094 85.91736602783203 
v 122.88487243652344 491.43072509765625 -0.08028750121593475 
v 81.90994262695312 491.43072509765625 -0.08028750121593475 
v 122.88487243652344 491.43072509765625 85.91736602783203 
v 81.90994262695312 491.43072509765625 85.91736602783203 
v 122.88487243652344 491.43072509765625 85.91736602783203 
v -125.6765365600586 671.9050903320312 276.4020080566406 
v 81.99742126464844 327.5969543457031 85.9961166381836 
v 92.2499008178711 287.84149169921875 76.23957061767578 
v 102.39740753173828 297.7628479003906 77.84086608886719 
v 81.99742126464844 143.36050415039062 40.95847702026367 
v 122.88487243652344 143.36050415039062 40.95847702026367 
v 92.2499008178711 168.5576171875 48.002445220947266 
v 81.99742126464844 143.36050415039062 40.95847702026367 
v 92.2499008178711 168.5576171875 48.002445220947266 
v 81.99742126464844 238.07717895507812 64.07669067382812 
v 92.2499008178711 168.5576171875 48.002445220947266 
v 102.39740753173828 228.24330139160156 60.07781982421875 
v 92.2499008178711 228.24330139160156 64.07669067382812 
v 112.64988708496094 178.47898864746094 47.9236946105957 
v 102.39740753173828 228.24330139160156 60.07781982421875 
v 92.2499008178711 168.5576171875 48.002445220947266 
v 122.88487243652344 143.36050415039062 40.95847702026367 
v 112.64988708496094 178.47898864746094 47.9236946105957 
v 92.2499008178711 168.5576171875 48.002445220947266 
v 92.2499008178711 168.5576171875 48.002445220947266 
v 92.2499008178711 228.24330139160156 64.07669067382812 
v 81.99742126464844 238.07717895507812 64.07669067382812 
v 92.2499008178711 287.84149169921875 76.23957061767578 
v 81.99742126464844 327.5969543457031 85.9961166381836 
v 81.99742126464844 238.07717895507812 64.07669067382812 
v 92.2499008178711 228.24330139160156 64.07669067382812 
v 92.2499008178711 287.84149169921875 76.23957061767578 
v 81.99742126464844 238.07717895507812 64.07669067382812 
v 122.88487243652344 143.36050415039062 40.95847702026367 
v 122.88487243652344 327.5969543457031 85.9961166381836 
v 112.64988708496094 258.00738525390625 65.67799377441406 
v 122.88487243652344 143.36050415039062 40.95847702026367 
v 112.64988708496094 258.00738525390625 65.67799377441406 
v 112.64988708496094 178.47898864746094 47.9236946105957 
v 122.88487243652344 327.5969543457031 85.9961166381836 
v 81.99742126464844 327.5969543457031 85.9961166381836 
v 102.39740753173828 297.7628479003906 77.84086608886719 
v 122.88487243652344 327.5969543457031 85.9961166381836 
v 102.39740753173828 267.9112548828125 71.35691833496094 
v 112.64988708496094 258.00738525390625 65.67799377441406 
v 122.88487243652344 327.5969543457031 85.9961166381836 
v 102.39740753173828 297.7628479003906 77.84086608886719 
v 102.39740753173828 267.9112548828125 71.35691833496094 
v 102.39740753173828 267.9112548828125 71.35691833496094 
v 112.64988708496094 178.47898864746094 47.9236946105957 
v 112.64988708496094 258.00738525390625 65.67799377441406 
v 92.2499008178711 287.84149169921875 76.23957061767578 
v 102.39740753173828 267.9112548828125 71.35691833496094 
v 102.39740753173828 297.7628479003906 77.84086608886719 
v 92.2499008178711 287.84149169921875 76.23957061767578 
v 102.39740753173828 228.24330139160156 60.07781982421875 
v 102.39740753173828 267.9112548828125 71.35691833496094 
v 102.39740753173828 267.9112548828125 71.35691833496094 
v 102.39740753173828 228.24330139160156 60.07781982421875 
v 112.64988708496094 178.47898864746094 47.9236946105957 
v 102.39740753173828 228.24330139160156 60.07781982421875 
v 92.2499008178711 287.84149169921875 76.23957061767578 
v 92.2499008178711 228.24330139160156 64.07669067382812 
v 122.9548568725586 143.36050415039062 40.87972640991211 
v 153.67730712890625 143.36050415039062 20.404094696044922 
v 122.9548568725586 204.7959747314453 20.404094696044922 
vn 0 0 1 
vn 0 0 1 
vn 0 0 1 
vn 0 0 1 
vn -2.0682311115474694e-13 0 -1 
vn -2.0682311115474694e-13 0 -1 
vn -2.0682311115474694e-13 0 -1 
vn -2.0682311115474694e-13 0 -1 
vn -2.0682311115474694e-13 0 -1 
vn -2.0682311115474694e-13 0 -1 
vn 0.999997615814209 0 0.002184694167226553 
vn 0.999997615814209 0 0.002184694167226553 
vn 0.999997615814209 0 0.002184694167226553 
vn 0.999997615814209 0 0.002184694167226553 
vn -1.0341130485562108e-13 0.999997615814209 0.002184694167226553 
vn -1.0341130485562108e-13 0.999997615814209 0.002184694167226553 
vn -1.0341130485562108e-13 0.999997615814209 0.002184694167226553 
vn -1.0341130485562108e-13 0.999997615814209 0.002184694167226553 
vn 0.999997615814209 0 0.002184694167226553 
vn -2.0682311115474694e-13 0 -1 
vn 0.0666242390871048 -0.2196306735277176 0.9733054637908936 
vn 0.0666242390871048 -0.2196306735277176 0.9733054637908936 
vn 0.0666242390871048 -0.2196306735277176 0.9733054637908936 
vn 8.313792362879546e-14 -0.2676009237766266 0.9635298252105713 
vn 8.313792362879546e-14 -0.2676009237766266 0.9635298252105713 
vn 8.313792362879546e-14 -0.2676009237766266 0.9635298252105713 
vn -0.08457563072443008 -0.2360251247882843 0.9680594801902771 
vn -0.08457563072443008 -0.2360251247882843 0.9680594801902771 
vn -0.08457563072443008 -0.2360251247882843 0.9680594801902771 
vn 0.3573729991912842 -0.24105112254619598 0.9023185968399048 
vn 0.3573729991912842 -0.24105112254619598 0.9023185968399048 
vn 0.3573729991912842 -0.24105112254619598 0.9023185968399048 
vn 0.10679476708173752 -0.21744132041931152 0.9702134728431702 
vn 0.10679476708173752 -0.21744132041931152 0.9702134728431702 
vn 0.10679476708173752 -0.21744132041931152 0.9702134728431702 
vn 0.08674446493387222 -0.17024560272693634 0.9815762042999268 
vn 0.08674446493387222 -0.17024560272693634 0.9815762042999268 
vn 0.08674446493387222 -0.17024560272693634 0.9815762042999268 
vn -0.2432674616575241 -0.2525723874568939 0.9364978075027466 
vn -0.2432674616575241 -0.2525723874568939 0.9364978075027466 
vn -0.2432674616575241 -0.2525723874568939 0.9364978075027466 
vn 0.005635634530335665 -0.2379433512687683 0.9712626934051514 
vn 0.005635634530335665 -0.2379433512687683 0.9712626934051514 
vn 0.005635634530335665 -0.2379433512687683 0.9712626934051514 
vn -0.18612049520015717 -0.19808828830718994 0.962351381778717 
vn -0.18612049520015717 -0.19808828830718994 0.962351381778717 
vn -0.18612049520015717 -0.19808828830718994 0.962351381778717 
vn -0.2980650067329407 -0.22772467136383057 0.926983654499054 
vn -0.2980650067329407 -0.22772467136383057 0.926983654499054 
vn -0.2980650067329407 -0.22772467136383057 0.926983654499054 
vn -0.08073391765356064 -0.21938014030456543 0.9722933769226074 
vn -0.08073391765356064 -0.21938014030456543 0.9722933769226074 
vn -0.08073391765356064 -0.21938014030456543 0.9722933769226074 
vn 8.182916285759748e-14 -0.26338833570480347 0.9646899104118347 
vn 8.182916285759748e-14 -0.26338833570480347 0.9646899104118347 
vn 8.182916285759748e-14 -0.26338833570480347 0.9646899104118347 
vn 0.22017453610897064 -0.3036847710609436 0.926983654499054 
vn 0.22017453610897064 -0.3036847710609436 0.926983654499054 
vn 0.22017453610897064 -0.3036847710609436 0.926983654499054 
vn -0.07879950851202011 -0.2110261619091034 0.9742990136146545 
vn -0.07879950851202011 -0.2110261619091034 0.9742990136146545 
vn -0.07879950851202011 -0.2110261619091034 0.9742990136146545 
vn 0.3133162558078766 -0.20623824000358582 0.926983654499054 
vn 0.3133162558078766 -0.20623824000358582 0.926983654499054 
vn 0.3133162558078766 -0.20623824000358582 0.926983654499054 
vn 0.05549284815788269 -0.20951126515865326 0.976230263710022 
vn 0.05549284815788269 -0.20951126515865326 0.976230263710022 
vn 0.05549284815788269 -0.20951126515865326 0.976230263710022 
vn -0.07782957702875137 -0.273542582988739 0.9587059020996094 
vn -0.07782957702875137 -0.273542582988739 0.9587059020996094 
vn -0.07782957702875137 -0.273542582988739 0.9587059020996094 
vn -0.1820918470621109 -0.2704095244407654 0.9453682899475098 
vn -0.1820918470621109 -0.2704095244407654 0.9453682899475098 
vn -0.1820918470621109 -0.2704095244407654 0.9453682899475098 
vn 0.361155241727829 -0.18824121356010437 0.913308322429657 
vn 0.361155241727829 -0.18824121356010437 0.913308322429657 
vn 0.361155241727829 -0.18824121356010437 0.913308322429657 
vn 0.5351954698562622 0.2690978944301605 0.8007197380065918 
vn 0.5351954698562622 0.2690978944301605 0.8007197380065918 
vn 0.5351954698562622 0.2690978944301605 0.8007197380065918 
vt 3.960904359817505 0.9668054580688477 
vt 3.960904359817505 -0.00001638409958104603 
vt 0.00004139399970881641 0.9668054580688477 
vt 0.00004139399970881641 -0.00001638409958104603 
vt 0.00004139399970881641 1.9628956317901611 
vt 1.9648040533065796 -0.00001638409958104603 
vt -1.027294635772705 0.9668054580688477 
vt 2.9628541469573975 -2.0272998809814453 
vt 0.9667538404464722 -1.029306411743164 
vt 0.00004139399970881641 -2.0272998809814453 
vt -6.017638683319092 1.5644969940185547 
vt 0.9667538404464722 1.5644969940185547 
vt -7.515600204467773 1.0645017623901367 
vt -3.02339506149292 -0.00001638409958104603 
vt 0.00004139399970881641 2.062495231628418 
vt 0.9667538404464722 2.062495231628418 
vt 0.00004139399970881641 -0.00001638409958104603 
vt 0.9667538404464722 -0.00001638409958104603 
vt 0.9667538404464722 -0.00001638409958104603 
vt 2.9628541469573975 0.9668054580688477 
vt 4.708999156951904 -0.00001638409958104603 
vt 3.710855484008789 0.2188095599412918 
vt 3.956987142562866 0.4668101966381073 
vt 0.08594030141830444 -0.00001638409958104603 
vt 0.08594030141830444 0.9668054580688477 
vt 0.7226741313934326 0.2188095599412918 
vt 0.08594030141830444 -0.00001638409958104603 
vt 0.7226741313934326 0.2188095599412918 
vt 2.464808464050293 -0.00001638409958104603 
vt 0.7226741313934326 0.2188095599412918 
vt 2.205059766769409 0.4668101966381073 
vt 2.2284698486328125 0.2188095599412918 
vt 0.9569607973098755 0.7168078422546387 
vt 2.205059766769409 0.4668101966381073 
vt 0.7226741313934326 0.2188095599412918 
vt 0.08594030141830444 0.9668054580688477 
vt 0.9569607973098755 0.7168078422546387 
vt 0.7226741313934326 0.2188095599412918 
vt 0.7226741313934326 0.2188095599412918 
vt 2.2284698486328125 0.2188095599412918 
vt 2.464808464050293 -0.00001638409958104603 
vt 3.710855484008789 0.2188095599412918 
vt 4.708999156951904 -0.00001638409958104603 
vt 2.464808464050293 -0.00001638409958104603 
vt 2.2284698486328125 0.2188095599412918 
vt 3.710855484008789 0.2188095599412918 
vt 2.464808464050293 -0.00001638409958104603 
vt 0.08594030141830444 0.9668054580688477 
vt 4.708999156951904 0.9668054580688477 
vt 2.943361282348633 0.7168078422546387 
vt 0.08594030141830444 0.9668054580688477 
vt 2.943361282348633 0.7168078422546387 
vt 0.9569607973098755 0.7168078422546387 
vt 4.708999156951904 0.9668054580688477 
vt 4.708999156951904 -0.00001638409958104603 
vt 3.956987142562866 0.4668101966381073 
vt 4.708999156951904 0.9668054580688477 
vt 3.2129030227661133 0.4668101966381073 
vt 2.943361282348633 0.7168078422546387 
vt 4.708999156951904 0.9668054580688477 
vt 3.956987142562866 0.4668101966381073 
vt 3.2129030227661133 0.4668101966381073 
vt 3.2129030227661133 0.4668101966381073 
vt 0.9569607973098755 0.7168078422546387 
vt 2.943361282348633 0.7168078422546387 
vt 3.710855484008789 0.2188095599412918 
vt 3.2129030227661133 0.4668101966381073 
vt 3.956987142562866 0.4668101966381073 
vt 3.710855484008789 0.2188095599412918 
vt 2.205059766769409 0.4668101966381073 
vt 3.2129030227661133 0.4668101966381073 
vt 3.2129030227661133 0.4668101966381073 
vt 2.205059766769409 0.4668101966381073 
vt 0.9569607973098755 0.7168078422546387 
vt 2.205059766769409 0.4668101966381073 
vt 3.710855484008789 0.2188095599412918 
vt 2.2284698486328125 0.2188095599412918 
vt 0.30269280076026917 0.1309109777212143 
vt 0.00004139399970881641 0.9668054580688477 
vt 1.6425665616989136 0.9668054580688477 
s on 
f 1/1/1 2/2/2 3/3/3 
f 2/2/2 4/4/4 3/3/3 
f 3/3/3 4/4/4 4/4/4 
f 4/4/4 5/5/5 4/4/4 
f 4/4/4 5/5/5 5/5/5 
f 5/5/5 6/6/6 5/5/5 
f 5/5/5 6/6/6 7/7/7 
f 6/6/6 8/8/8 7/7/7 
f 7/7/7 8/8/8 9/9/9 
f 8/8/8 10/10/10 9/9/9 
f 9/9/9 10/10/10 10/10/10 
f 10/10/10 11/11/11 10/10/10 
f 10/10/10 11/11/11 11/11/11 
f 11/11/11 12/12/12 11/11/11 
f 11/11/11 12/12/12 13/13/13 
f 12/12/12 14/14/14 13/13/13 
f 13/13/13 14/14/14 14/14/14 
f 14/14/14 15/15/15 14/14/14 
f 14/14/14 15/15/15 15/15/15 
f 15/15/15 16/16/16 15/15/15 
f 15/15/15 16/16/16 17/17/17 
f 16/16/16 18/18/18 17/17/17 
f 12/12/12 19/19/19 14/14/14 
f 6/6/6 20/20/20 8/8/8 
f 21/21/21 22/22/22 23/23/23 
f 24/24/24 25/25/25 26/26/26 
f 27/27/27 28/28/28 29/29/29 
f 30/30/30 31/31/31 32/32/32 
f 33/33/33 34/34/34 35/35/35 
f 36/36/36 37/37/37 38/38/38 
f 39/39/39 40/40/40 41/41/41 
f 42/42/42 43/43/43 44/44/44 
f 45/45/45 46/46/46 47/47/47 
f 48/48/48 49/49/49 50/50/50 
f 51/51/51 52/52/52 53/53/53 
f 54/54/54 55/55/55 56/56/56 
f 57/57/57 58/58/58 59/59/59 
f 60/60/60 61/61/61 62/62/62 
f 63/63/63 64/64/64 65/65/65 
f 66/66/66 67/67/67 68/68/68 
f 69/69/69 70/70/70 71/71/71 
f 72/72/72 73/73/73 74/74/74 
f 75/75/75 76/76/76 77/77/77 
f 78/78/78 79/79/79 80/80/80 

