mtllib model_2.mtl
o model_2
v -286.635986328125 204.7956085205078 73.67569732666016 
v -286.635986328125 126.9645004272461 73.67569732666016 
v -163.83367919921875 204.7956085205078 73.67569732666016 
v 36.87698745727539 126.9645004272461 73.67569732666016 
v -122.87625122070312 317.43023681640625 73.67569732666016 
v 36.87698745727539 143.36012268066406 73.67569732666016 
v 36.87698745727539 159.75575256347656 73.67569732666016 
v 53.28795623779297 159.75575256347656 73.67569732666016 
v -0.003946799784898758 286.72125244140625 73.67569732666016 
v -71.68383026123047 368.6293640136719 73.67569732666016 
v -403.8396911621094 471.9025573730469 155.59573364257812 
v -403.1923522949219 470.9576721191406 155.59573364257812 
v -403.8396911621094 471.9025573730469 106.48046112060547 
v -403.1923522949219 470.9576721191406 106.48046112060547 
v -403.8396911621094 469.9078063964844 106.48046112060547 
v -403.1923522949219 470.9576721191406 106.48046112060547 
v -403.8396911621094 469.9078063964844 155.59573364257812 
v -403.1923522949219 470.9576721191406 155.59573364257812 
v -410.1556396484375 471.99005126953125 204.71974182128906 
v -410.71551513671875 471.0276794433594 204.71974182128906 
v -410.1556396484375 471.99005126953125 372.7161865234375 
v -410.71551513671875 471.0276794433594 372.7161865234375 
v -410.1556396484375 469.99530029296875 372.7161865234375 
v -410.71551513671875 471.0276794433594 372.7161865234375 
v -410.1556396484375 469.99530029296875 204.71974182128906 
v -410.71551513671875 471.0276794433594 204.71974182128906 
v -408.9659423828125 471.99005126953125 372.7161865234375 
v -410.1556396484375 471.99005126953125 372.7161865234375 
v -408.40606689453125 471.0276794433594 372.7161865234375 
v -408.9659423828125 469.99530029296875 372.7161865234375 
v -410.1556396484375 469.99530029296875 372.7161865234375 
v -410.71551513671875 471.0276794433594 372.7161865234375 
v -217.35302734375 429.9073791503906 446.4021911621094 
v -225.83843994140625 438.3938903808594 446.4021911621094 
v -191.12696838378906 429.9073791503906 446.4021911621094 
v -184.0062255859375 438.3938903808594 446.4021911621094 
v -184.0062255859375 463.1885681152344 446.4021911621094 
v -192.56161499023438 471.67510986328125 446.4021911621094 
v -217.35302734375 471.67510986328125 446.4021911621094 
v -225.83843994140625 463.1885681152344 446.4021911621094 
v -408.40606689453125 471.0276794433594 204.71974182128906 
v -408.9659423828125 471.99005126953125 204.71974182128906 
v -408.40606689453125 471.0276794433594 372.7161865234375 
v -408.9659423828125 471.99005126953125 372.7161865234375 
v -404.95941162109375 469.9078063964844 106.48046112060547 
v -403.8396911621094 469.9078063964844 106.48046112060547 
v -404.95941162109375 469.9078063964844 155.59573364257812 
v -403.8396911621094 469.9078063964844 155.59573364257812 
v -410.1556396484375 471.99005126953125 372.7161865234375 
v -408.9659423828125 471.99005126953125 372.7161865234375 
v -410.1556396484375 471.99005126953125 204.71974182128906 
v -408.9659423828125 471.99005126953125 204.71974182128906 
v -408.9659423828125 469.99530029296875 372.7161865234375 
v -410.1556396484375 469.99530029296875 372.7161865234375 
v -408.9659423828125 469.99530029296875 204.71974182128906 
v -410.1556396484375 469.99530029296875 204.71974182128906 
v -403.8396911621094 471.9025573730469 155.59573364257812 
v -404.95941162109375 471.9025573730469 155.59573364257812 
v -403.1923522949219 470.9576721191406 155.59573364257812 
v -403.8396911621094 469.9078063964844 155.59573364257812 
v -404.95941162109375 469.9078063964844 155.59573364257812 
v -405.60675048828125 470.9576721191406 155.59573364257812 
v -404.95941162109375 469.9078063964844 155.59573364257812 
v -405.60675048828125 470.9576721191406 155.59573364257812 
v -404.95941162109375 469.9078063964844 106.48046112060547 
v -405.60675048828125 470.9576721191406 106.48046112060547 
v -404.95941162109375 471.9025573730469 106.48046112060547 
v -405.60675048828125 470.9576721191406 106.48046112060547 
v -404.95941162109375 471.9025573730469 155.59573364257812 
v -405.60675048828125 470.9576721191406 155.59573364257812 
v -404.95941162109375 471.9025573730469 155.59573364257812 
v -403.8396911621094 471.9025573730469 155.59573364257812 
v -404.95941162109375 471.9025573730469 106.48046112060547 
v -403.8396911621094 471.9025573730469 106.48046112060547 
v -408.9659423828125 469.99530029296875 204.71974182128906 
v -408.40606689453125 471.0276794433594 204.71974182128906 
v -408.9659423828125 469.99530029296875 372.7161865234375 
v -408.40606689453125 471.0276794433594 372.7161865234375 
v -190.0772247314453 485.5160217285156 425.9178161621094 
v -219.4350128173828 485.5160217285156 425.9178161621094 
v -169.7647247314453 465.2008361816406 425.9178161621094 
v -169.7647247314453 435.8392028808594 425.9178161621094 
v -190.0772247314453 415.50653076171875 425.9178161621094 
v -219.4350128173828 415.50653076171875 425.9178161621094 
v -239.7650146484375 435.8392028808594 425.9178161621094 
v -239.7650146484375 465.2008361816406 425.9178161621094 
v 40.953487396240234 286.72125244140625 73.67569732666016 
vn 0 0 1 
vn 0 0 1 
vn 0 0 1 
vn 0 0 1 
vn 0 0 1 
vn 0 0 1 
vn 0 0 1 
vn 0 0 1 
vn 0 0 1 
vn 0 0 1 
vn 0.8314676284790039 0.5555689334869385 0.002184694167226553 
vn 0.8314676284790039 0.5555689334869385 0.002184694167226553 
vn 0.8314676284790039 0.5555689334869385 0.002184694167226553 
vn 0.8314676284790039 0.5555689334869385 0.002184694167226553 
vn 0.8518480062484741 -0.5237845182418823 0.002184694167226553 
vn 0.8518480062484741 -0.5237845182418823 0.002184694167226553 
vn 0.8518480062484741 -0.5237845182418823 0.002184694167226553 
vn 0.8518480062484741 -0.5237845182418823 0.002184694167226553 
vn -0.8634950518608093 0.5043525099754333 0.002184694167226553 
vn -0.8634950518608093 0.5043525099754333 0.002184694167226553 
vn -0.8634950518608093 0.5043525099754333 0.002184694167226553 
vn -0.8634950518608093 0.5043525099754333 0.002184694167226553 
vn -0.8819191455841064 -0.4713956117630005 0.002184694167226553 
vn -0.8819191455841064 -0.4713956117630005 0.002184694167226553 
vn -0.8819191455841064 -0.4713956117630005 0.002184694167226553 
vn -0.8819191455841064 -0.4713956117630005 0.002184694167226553 
vn 0 0 1 
vn 0 0 1 
vn 0 0 1 
vn 0 0 1 
vn 0 0 1 
vn 0 0 1 
vn -2.0682311115474694e-13 0 -1 
vn -2.0682311115474694e-13 0 -1 
vn -2.0682311115474694e-13 0 -1 
vn -2.0682311115474694e-13 0 -1 
vn -2.0682311115474694e-13 0 -1 
vn -2.0682311115474694e-13 0 -1 
vn -2.0682311115474694e-13 0 -1 
vn -2.0682311115474694e-13 0 -1 
vn 0.8634950518608093 0.5043525099754333 0.002184694167226553 
vn 0.8634950518608093 0.5043525099754333 0.002184694167226553 
vn 0.8634950518608093 0.5043525099754333 0.002184694167226553 
vn 0.8634950518608093 0.5043525099754333 0.002184694167226553 
vn 3.097898456858039e-13 -0.999997615814209 0.002184694167226553 
vn 3.097898456858039e-13 -0.999997615814209 0.002184694167226553 
vn 3.097898456858039e-13 -0.999997615814209 0.002184694167226553 
vn 3.097898456858039e-13 -0.999997615814209 0.002184694167226553 
vn -1.0341130485562108e-13 0.999997615814209 0.002184694167226553 
vn -1.0341130485562108e-13 0.999997615814209 0.002184694167226553 
vn -1.0341130485562108e-13 0.999997615814209 0.002184694167226553 
vn -1.0341130485562108e-13 0.999997615814209 0.002184694167226553 
vn 3.097898456858039e-13 -0.999997615814209 0.002184694167226553 
vn 3.097898456858039e-13 -0.999997615814209 0.002184694167226553 
vn 3.097898456858039e-13 -0.999997615814209 0.002184694167226553 
vn 3.097898456858039e-13 -0.999997615814209 0.002184694167226553 
vn 0 0 1 
vn 0 0 1 
vn 0 0 1 
vn 0 0 1 
vn 0 0 1 
vn 0 0 1 
vn -0.8518480062484741 -0.5237845182418823 0.002184694167226553 
vn -0.8518480062484741 -0.5237845182418823 0.002184694167226553 
vn -0.8518480062484741 -0.5237845182418823 0.002184694167226553 
vn -0.8518480062484741 -0.5237845182418823 0.002184694167226553 
vn -0.8314676284790039 0.5555689334869385 0.002184694167226553 
vn -0.8314676284790039 0.5555689334869385 0.002184694167226553 
vn -0.8314676284790039 0.5555689334869385 0.002184694167226553 
vn -0.8314676284790039 0.5555689334869385 0.002184694167226553 
vn -1.0341130485562108e-13 0.999997615814209 0.002184694167226553 
vn -1.0341130485562108e-13 0.999997615814209 0.002184694167226553 
vn -1.0341130485562108e-13 0.999997615814209 0.002184694167226553 
vn -1.0341130485562108e-13 0.999997615814209 0.002184694167226553 
vn 0.8819191455841064 -0.4713956117630005 0.002184694167226553 
vn 0.8819191455841064 -0.4713956117630005 0.002184694167226553 
vn 0.8819191455841064 -0.4713956117630005 0.002184694167226553 
vn 0.8819191455841064 -0.4713956117630005 0.002184694167226553 
vn 0 0 1 
vn 0 0 1 
vn 0 0 1 
vn 0 0 1 
vn 0 0 1 
vn 0 0 1 
vn 0 0 1 
vn 0 0 1 
vn 0 0 1 
vt -9.011699676513672 2.4629011154174805 
vt -9.011699676513672 4.831990718841553 
vt -5.269476890563965 2.4629011154174805 
vt 0.8417792916297913 4.831990718841553 
vt -4.021500587463379 -0.9668206572532654 
vt 0.8417792916297913 4.333993434906006 
vt 0.8417792916297913 3.833967924118042 
vt 1.3418158292770386 3.833967924118042 
vt -0.279277503490448 -0.00002299190055055078 
vt -2.4629199504852295 -2.5253970623016357 
vt -0.0215240940451622 -0.00002299190055055078 
vt 0.000007976300366863143 0.9667747020721436 
vt 24.093826293945312 0.9667747020721436 
vt 24.08403778076172 1.9628757238388062 
vt 24.087953567504883 0.9667747020721436 
vt 24.087953567504883 -0.00002299190055055078 
vt 0.000007976300366863143 0.9667747020721436 
vt 0.000007976300366863143 -0.00002299190055055078 
vt 2.464830160140991 0.9667747020721436 
vt 2.96290922164917 0.9667747020721436 
vt 2.464830160140991 -19.503896713256836 
vt 2.96290922164917 -19.503896713256836 
vt 0.4687882959842682 -19.503896713256836 
vt 0.000007976300366863143 -19.503896713256836 
vt 0.4687882959842682 0.9667747020721436 
vt 0.000007976300366863143 0.9667747020721436 
vt -0.14648586511611938 0.47849196195602417 
vt 0.1523110568523407 0.9960780739784241 
vt 0.1523110568523407 -0.03909415006637573 
vt 0.7500312328338623 -0.03909415006637573 
vt 1.0507856607437134 0.47849196195602417 
vt 0.7500312328338623 0.9960780739784241 
vt 1.595717430114746 0.3827889561653137 
vt 1.1797254085540771 -0.00002299190055055078 
vt 1.595717430114746 1.6601810455322266 
vt 1.1797254085540771 2.0078182220458984 
vt 0.000007976300366863143 2.0078182220458984 
vt -0.4433884918689728 1.5937813520431519 
vt -0.4433884918689728 0.3827889561653137 
vt 0.000007976300366863143 -0.00002299190055055078 
vt 1.4667776823043823 0.9667747020721436 
vt 1.9647935628890991 0.9667747020721436 
vt 1.4667776823043823 -19.503896713256836 
vt 1.9647935628890991 -19.503896713256836 
vt 24.087953567504883 0.9667747020721436 
vt 24.087953567504883 -0.00002299190055055078 
vt 0.000007976300366863143 0.9667747020721436 
vt 0.000007976300366863143 -0.00002299190055055078 
vt 2.464830160140991 -19.503896713256836 
vt 1.9647935628890991 -19.503896713256836 
vt 2.464830160140991 0.9667747020721436 
vt 1.9647935628890991 0.9667747020721436 
vt 0.9668042063713074 -19.503896713256836 
vt 0.4687882959842682 -19.503896713256836 
vt 0.9668042063713074 0.9667747020721436 
vt 0.4687882959842682 0.9667747020721436 
vt 0.2188015878200531 0.03520510345697403 
vt 0.000007976300366863143 0.4668026268482208 
vt 0.7168175578117371 0.03520510345697403 
vt 0.9668042063713074 0.46877753734588623 
vt 0.7168175578117371 0.9003750681877136 
vt 0.2188015878200531 0.9003750681877136 
vt 0.000007976300366863143 0.9667747020721436 
vt 0.9668042063713074 0.9667747020721436 
vt 0.000007976300366863143 -23.152299880981445 
vt 0.9668042063713074 -23.152299880981445 
vt 0.9668042063713074 -23.152299880981445 
vt 0.000007976300366863143 -23.152299880981445 
vt 0.9668042063713074 0.9667747020721436 
vt 0.000007976300366863143 0.9667747020721436 
vt 0.000007976300366863143 0.9667747020721436 
vt 0.9668042063713074 0.9667747020721436 
vt 0.000007976300366863143 -23.152299880981445 
vt 0.9668042063713074 -23.152299880981445 
vt 0.9668042063713074 0.9667747020721436 
vt 1.4667776823043823 0.9667747020721436 
vt 0.9668042063713074 -19.503896713256836 
vt 1.4667776823043823 -19.503896713256836 
vt -0.7382705211639404 0.24998971819877625 
vt -0.7382705211639404 1.6815847158432007 
vt 0.2499946802854538 -0.7401865720748901 
vt 1.6836137771606445 -0.7401865720748901 
vt 2.6738364696502686 0.24998971819877625 
vt 2.6738364696502686 1.6815847158432007 
vt 1.6836137771606445 2.671867847442627 
vt 0.2499946802854538 2.671867847442627 
vt 0.9668042063713074 -0.00002299190055055078 
s on 
f 1/1/1 2/2/2 3/3/3 
f 2/2/2 4/4/4 3/3/3 
f 3/3/3 4/4/4 5/5/5 
f 4/4/4 6/6/6 5/5/5 
f 5/5/5 6/6/6 7/7/7 
f 6/6/6 7/7/7 7/7/7 
f 7/7/7 7/7/7 7/7/7 
f 7/7/7 8/8/8 7/7/7 
f 7/7/7 8/8/8 5/5/5 
f 8/8/8 9/9/9 5/5/5 
f 5/5/5 9/9/9 10/10/10 
f 9/9/9 10/10/10 10/10/10 
f 10/10/10 10/10/10 11/11/11 
f 10/10/10 11/11/11 11/11/11 
f 11/11/11 11/11/11 11/11/11 
f 11/11/11 12/12/12 11/11/11 
f 11/11/11 12/12/12 13/13/13 
f 12/12/12 14/14/14 13/13/13 
f 13/13/13 14/14/14 14/14/14 
f 14/14/14 15/15/15 14/14/14 
f 14/14/14 15/15/15 15/15/15 
f 15/15/15 16/16/16 15/15/15 
f 15/15/15 16/16/16 17/17/17 
f 16/16/16 18/18/18 17/17/17 
f 17/17/17 18/18/18 18/18/18 
f 18/18/18 19/19/19 18/18/18 
f 18/18/18 19/19/19 19/19/19 
f 19/19/19 20/20/20 19/19/19 
f 19/19/19 20/20/20 21/21/21 
f 20/20/20 22/22/22 21/21/21 
f 21/21/21 22/22/22 22/22/22 
f 22/22/22 23/23/23 22/22/22 
f 22/22/22 23/23/23 23/23/23 
f 23/23/23 24/24/24 23/23/23 
f 23/23/23 24/24/24 25/25/25 
f 24/24/24 26/26/26 25/25/25 
f 25/25/25 26/26/26 26/26/26 
f 26/26/26 27/27/27 26/26/26 
f 26/26/26 27/27/27 27/27/27 
f 27/27/27 28/28/28 27/27/27 
f 27/27/27 28/28/28 29/29/29 
f 28/28/28 30/30/30 29/29/29 
f 29/29/29 30/30/30 30/30/30 
f 30/30/30 28/28/28 30/30/30 
f 30/30/30 28/28/28 31/31/31 
f 28/28/28 32/32/32 31/31/31 
f 31/31/31 32/32/32 32/32/32 
f 32/32/32 33/33/33 32/32/32 
f 32/32/32 33/33/33 33/33/33 
f 33/33/33 34/34/34 33/33/33 
f 33/33/33 34/34/34 35/35/35 
f 34/34/34 36/36/36 35/35/35 
f 35/35/35 36/36/36 36/36/36 
f 36/36/36 34/34/34 36/36/36 
f 36/36/36 34/34/34 37/37/37 
f 34/34/34 38/38/38 37/37/37 
f 37/37/37 38/38/38 38/38/38 
f 38/38/38 34/34/34 38/38/38 
f 38/38/38 34/34/34 39/39/39 
f 34/34/34 40/40/40 39/39/39 
f 39/39/39 40/40/40 40/40/40 
f 40/40/40 41/41/41 40/40/40 
f 40/40/40 41/41/41 41/41/41 
f 41/41/41 42/42/42 41/41/41 
f 41/41/41 42/42/42 43/43/43 
f 42/42/42 44/44/44 43/43/43 
f 43/43/43 44/44/44 44/44/44 
f 44/44/44 45/45/45 44/44/44 
f 44/44/44 45/45/45 45/45/45 
f 45/45/45 46/46/46 45/45/45 
f 45/45/45 46/46/46 47/47/47 
f 46/46/46 48/48/48 47/47/47 
f 47/47/47 48/48/48 48/48/48 
f 48/48/48 49/49/49 48/48/48 
f 48/48/48 49/49/49 49/49/49 
f 49/49/49 50/50/50 49/49/49 
f 49/49/49 50/50/50 51/51/51 
f 50/50/50 52/52/52 51/51/51 
f 51/51/51 52/52/52 52/52/52 
f 52/52/52 53/53/53 52/52/52 
f 52/52/52 53/53/53 53/53/53 
f 53/53/53 54/54/54 53/53/53 
f 53/53/53 54/54/54 55/55/55 
f 54/54/54 56/56/56 55/55/55 
f 55/55/55 56/56/56 56/56/56 
f 56/56/56 57/57/57 56/56/56 
f 56/56/56 57/57/57 57/57/57 
f 57/57/57 58/58/58 57/57/57 
f 57/57/57 58/58/58 59/59/59 
f 58/58/58 60/60/60 59/59/59 
f 59/59/59 60/60/60 60/60/60 
f 60/60/60 58/58/58 60/60/60 
f 60/60/60 58/58/58 61/61/61 
f 58/58/58 62/62/62 61/61/61 
f 61/61/61 62/62/62 62/62/62 
f 62/62/62 63/63/63 62/62/62 
f 62/62/62 63/63/63 63/63/63 
f 63/63/63 64/64/64 63/63/63 
f 63/63/63 64/64/64 65/65/65 
f 64/64/64 66/66/66 65/65/65 
f 65/65/65 66/66/66 66/66/66 
f 66/66/66 67/67/67 66/66/66 
f 66/66/66 67/67/67 67/67/67 
f 67/67/67 68/68/68 67/67/67 
f 67/67/67 68/68/68 69/69/69 
f 68/68/68 70/70/70 69/69/69 
f 69/69/69 70/70/70 70/70/70 
f 70/70/70 71/71/71 70/70/70 
f 70/70/70 71/71/71 71/71/71 
f 71/71/71 72/72/72 71/71/71 
f 71/71/71 72/72/72 73/73/73 
f 72/72/72 74/74/74 73/73/73 
f 73/73/73 74/74/74 74/74/74 
f 74/74/74 75/75/75 74/74/74 
f 74/74/74 75/75/75 75/75/75 
f 75/75/75 76/76/76 75/75/75 
f 75/75/75 76/76/76 77/77/77 
f 76/76/76 78/78/78 77/77/77 
f 77/77/77 78/78/78 78/78/78 
f 78/78/78 79/79/79 78/78/78 
f 78/78/78 79/79/79 79/79/79 
f 79/79/79 80/80/80 79/79/79 
f 79/79/79 80/80/80 81/81/81 
f 80/80/80 82/82/82 81/81/81 
f 81/81/81 82/82/82 82/82/82 
f 82/82/82 80/80/80 82/82/82 
f 82/82/82 80/80/80 83/83/83 
f 80/80/80 84/84/84 83/83/83 
f 83/83/83 84/84/84 84/84/84 
f 84/84/84 80/80/80 84/84/84 
f 84/84/84 80/80/80 85/85/85 
f 80/80/80 86/86/86 85/85/85 
f 9/9/9 8/8/8 87/87/87 

