mtllib model_7.mtl
o model_7
v 53.28697967529297 122.86968231201172 40.87972640991211 
v 53.28697967529297 122.86968231201172 20.404094696044922 
v 122.88487243652344 122.88717651367188 40.87972640991211 
v 122.88487243652344 122.88717651367188 20.404094696044922 
v 204.79974365234375 122.79969024658203 -0.0015350700123235583 
v 204.79974365234375 122.79969024658203 20.404094696044922 
v 204.79974365234375 40.961544036865234 -0.0015350700123235583 
v 204.79974365234375 40.961544036865234 20.404094696044922 
v -125.6765365600586 671.9044189453125 286.6398010253906 
v -94.95408630371094 671.9044189453125 286.6398010253906 
v -125.6765365600586 671.9044189453125 276.4020080566406 
v -94.95408630371094 671.9044189453125 276.4020080566406 
v -40.8748779296875 40.961544036865234 20.404094696044922 
v -40.8748779296875 122.79969024658203 20.404094696044922 
v -40.8748779296875 40.961544036865234 -0.0015350700123235583 
v -40.8748779296875 122.79969024658203 -0.0015350700123235583 
v -94.95408630371094 641.1954345703125 276.4020080566406 
v -94.95408630371094 671.9044189453125 276.4020080566406 
v -94.95408630371094 641.1954345703125 286.6398010253906 
v -94.95408630371094 671.9044189453125 286.6398010253906 
v 163.84231567382812 -0.001274980022571981 20.404094696044922 
v 0.08255629986524582 -0.001274980022571981 20.404094696044922 
v 163.84231567382812 -0.001274980022571981 -0.0015350700123235583 
v 0.08255629986524582 -0.001274980022571981 -0.0015350700123235583 
v -125.6765365600586 671.9044189453125 276.4020080566406 
v -115.4415512084961 661.6680908203125 276.4020080566406 
v -125.6765365600586 671.9044189453125 286.6398010253906 
v -115.4415512084961 661.6680908203125 286.6398010253906 
v -135.92901611328125 620.7052612304688 276.4020080566406 
v -105.2065658569336 651.4317626953125 276.4020080566406 
v -135.92901611328125 620.7052612304688 286.6398010253906 
v -105.2065658569336 651.4317626953125 286.6398010253906 
v -146.16400146484375 630.9591064453125 276.4020080566406 
v -135.92901611328125 620.7052612304688 276.4020080566406 
v -146.16400146484375 630.9591064453125 286.6398010253906 
v -135.92901611328125 620.7052612304688 286.6398010253906 
v 122.9548568725586 491.4300537109375 20.404094696044922 
v 163.84231567382812 491.4300537109375 20.404094696044922 
v 122.9548568725586 491.4300537109375 -0.0015350700123235583 
v 163.84231567382812 491.4300537109375 -0.0015350700123235583 
v -40.8748779296875 40.961544036865234 -0.0015350700123235583 
v 0.08255629986524582 -0.001274980022571981 -0.0015350700123235583 
v -40.8748779296875 40.961544036865234 20.404094696044922 
v 0.08255629986524582 -0.001274980022571981 20.404094696044922 
v 204.79974365234375 450.4847412109375 -0.0015350700123235583 
v 163.84231567382812 491.4300537109375 -0.0015350700123235583 
v 204.79974365234375 450.4847412109375 20.404094696044922 
v 163.84231567382812 491.4300537109375 20.404094696044922 
v 204.79974365234375 40.961544036865234 20.404094696044922 
v 163.84231567382812 -0.001274980022571981 20.404094696044922 
v 204.79974365234375 40.961544036865234 -0.0015350700123235583 
v 163.84231567382812 -0.001274980022571981 -0.0015350700123235583 
v -146.16400146484375 630.9591064453125 286.6398010253906 
v -115.4415512084961 661.6680908203125 286.6398010253906 
v -146.16400146484375 630.9591064453125 276.4020080566406 
v -115.4415512084961 661.6680908203125 276.4020080566406 
v 153.67730712890625 143.35983276367188 20.404094696044922 
v 122.9548568725586 143.35983276367188 40.87972640991211 
v 153.67730712890625 122.88717651367188 20.404094696044922 
v 122.9548568725586 122.88717651367188 40.87972640991211 
v -105.2065658569336 651.4317626953125 276.4020080566406 
v -94.95408630371094 641.1954345703125 276.4020080566406 
v -105.2065658569336 651.4317626953125 286.6398010253906 
v -94.95408630371094 641.1954345703125 286.6398010253906 
v 204.79974365234375 122.88717651367188 -0.0015350700123235583 
v 204.79974365234375 450.4847412109375 -0.0015350700123235583 
v 204.79974365234375 122.88717651367188 20.404094696044922 
v 204.79974365234375 450.4847412109375 20.404094696044922 
v 122.9548568725586 122.88717651367188 20.404094696044922 
v 153.67730712890625 122.88717651367188 20.404094696044922 
v 122.9548568725586 122.88717651367188 40.87972640991211 
v -55.43130111694336 655.9987182617188 286.6398010253906 
v -40.227535247802734 670.6795654296875 286.6398010253906 
v -20.474891662597656 634.7911987304688 266.242919921875 
v -41.627193450927734 599.8651733398438 286.6398010253906 
v -20.474891662597656 634.7911987304688 266.242919921875 
v -21.297189712524414 593.98583984375 286.6398010253906 
v -41.627193450927734 599.8651733398438 286.6398010253906 
v -56.28858947753906 615.0884399414062 286.6398010253906 
v -20.474891662597656 634.7911987304688 266.242919921875 
v -56.28858947753906 615.0884399414062 286.6398010253906 
v -61.32735061645508 635.68359375 286.6398010253906 
v -20.474891662597656 634.7911987304688 266.242919921875 
v -61.32735061645508 635.68359375 286.6398010253906 
v -55.43130111694336 655.9987182617188 286.6398010253906 
v -20.474891662597656 634.7911987304688 266.242919921875 
v 20.412559509277344 634.0037841796875 286.6398010253906 
v 14.516509056091309 613.6885986328125 286.6398010253906 
v -20.474891662597656 634.7911987304688 266.242919921875 
v -40.227535247802734 670.6795654296875 286.6398010253906 
v -19.61760139465332 675.718994140625 286.6398010253906 
v -20.474891662597656 634.7911987304688 266.242919921875 
v -19.61760139465332 675.718994140625 286.6398010253906 
v 0.6949058175086975 669.8221435546875 286.6398010253906 
v -20.474891662597656 634.7911987304688 266.242919921875 
v 0.6949058175086975 669.8221435546875 286.6398010253906 
v 15.40878963470459 654.54638671875 286.6398010253906 
v -20.474891662597656 634.7911987304688 266.242919921875 
v 15.40878963470459 654.54638671875 286.6398010253906 
v 20.412559509277344 634.0037841796875 286.6398010253906 
v -20.474891662597656 634.7911987304688 266.242919921875 
v 14.516509056091309 613.6885986328125 286.6398010253906 
v -0.7747330069541931 598.9727783203125 286.6398010253906 
v -20.474891662597656 634.7911987304688 266.242919921875 
v -21.297189712524414 593.98583984375 286.6398010253906 
v -20.474891662597656 634.7911987304688 266.242919921875 
v -0.7747330069541931 598.9727783203125 286.6398010253906 
v 16.24858283996582 615.0534057617188 266.1641845703125 
v 31.452346801757812 629.7167358398438 266.1641845703125 
v 51.20499038696289 593.828369140625 245.758544921875 
v 30.052690505981445 558.9198608398438 266.1641845703125 
v 51.20499038696289 593.828369140625 245.758544921875 
v 50.382694244384766 553.0230102539062 266.1641845703125 
v 30.052690505981445 558.9198608398438 266.1641845703125 
v 15.3912935256958 574.1256103515625 266.1641845703125 
v 51.20499038696289 593.828369140625 245.758544921875 
v 15.3912935256958 574.1256103515625 266.1641845703125 
v 10.352532386779785 594.7207641601562 266.1641845703125 
v 51.20499038696289 593.828369140625 245.758544921875 
v 10.352532386779785 594.7207641601562 266.1641845703125 
v 16.24858283996582 615.0534057617188 266.1641845703125 
v 51.20499038696289 593.828369140625 245.758544921875 
v 92.09244537353516 593.0584106445312 266.1641845703125 
v 86.1963882446289 572.7257690429688 266.1641845703125 
v 51.20499038696289 593.828369140625 245.758544921875 
v 31.452346801757812 629.7167358398438 266.1641845703125 
v 52.06228256225586 634.7561645507812 266.1641845703125 
v 51.20499038696289 593.828369140625 245.758544921875 
v 52.06228256225586 634.7561645507812 266.1641845703125 
v 72.37478637695312 628.859375 266.1641845703125 
v 51.20499038696289 593.828369140625 245.758544921875 
v 72.37478637695312 628.859375 266.1641845703125 
v 87.08866882324219 613.5836181640625 266.1641845703125 
v 51.20499038696289 593.828369140625 245.758544921875 
v 87.08866882324219 613.5836181640625 266.1641845703125 
v 92.09244537353516 593.0584106445312 266.1641845703125 
v 51.20499038696289 593.828369140625 245.758544921875 
v 86.1963882446289 572.7257690429688 266.1641845703125 
v 70.9051513671875 558.0274658203125 266.1641845703125 
v 51.20499038696289 593.828369140625 245.758544921875 
v 50.382694244384766 553.0230102539062 266.1641845703125 
v 51.20499038696289 593.828369140625 245.758544921875 
v 70.9051513671875 558.0274658203125 266.1641845703125 
v -24.708850860595703 543.3641357421875 286.6398010253906 
v -9.505086898803711 558.044921875 286.6398010253906 
v 10.247557640075684 522.1565551757812 266.242919921875 
v -10.904743194580078 487.23052978515625 286.6398010253906 
v 10.247557640075684 522.1565551757812 266.242919921875 
v 9.425260543823242 481.3337097167969 286.6398010253906 
v -10.904743194580078 487.23052978515625 286.6398010253906 
v -25.566139221191406 502.4363098144531 286.6398010253906 
v 10.247557640075684 522.1565551757812 266.242919921875 
v -25.566139221191406 502.4363098144531 286.6398010253906 
v -30.604902267456055 523.0489501953125 286.6398010253906 
v 10.247557640075684 522.1565551757812 266.242919921875 
v -30.604902267456055 523.0489501953125 286.6398010253906 
v -24.708850860595703 543.3641357421875 286.6398010253906 
v 10.247557640075684 522.1565551757812 266.242919921875 
v 51.135009765625 521.369140625 286.6398010253906 
v 45.238956451416016 501.053955078125 286.6398010253906 
v 10.247557640075684 522.1565551757812 266.242919921875 
v -9.505086898803711 558.044921875 286.6398010253906 
v 11.08735179901123 563.0843505859375 286.6398010253906 
v 10.247557640075684 522.1565551757812 266.242919921875 
v 11.08735179901123 563.0843505859375 286.6398010253906 
v 31.417354583740234 557.1875610351562 286.6398010253906 
v 10.247557640075684 522.1565551757812 266.242919921875 
v 31.417354583740234 557.1875610351562 286.6398010253906 
v 46.1312370300293 541.9118041992188 286.6398010253906 
v 10.247557640075684 522.1565551757812 266.242919921875 
v 46.1312370300293 541.9118041992188 286.6398010253906 
v 51.135009765625 521.369140625 286.6398010253906 
v 10.247557640075684 522.1565551757812 266.242919921875 
v 45.238956451416016 501.053955078125 286.6398010253906 
v 29.947715759277344 486.338134765625 286.6398010253906 
v 10.247557640075684 522.1565551757812 266.242919921875 
v 9.425260543823242 481.3337097167969 286.6398010253906 
v 10.247557640075684 522.1565551757812 266.242919921875 
v 29.947715759277344 486.338134765625 286.6398010253906 
vn 3.097898456858039e-13 -0.999997615814209 0.002184694167226553 
vn 3.097898456858039e-13 -0.999997615814209 0.002184694167226553 
vn 3.097898456858039e-13 -0.999997615814209 0.002184694167226553 
vn 3.097898456858039e-13 -0.999997615814209 0.002184694167226553 
vn 0.999997615814209 0 0.002184694167226553 
vn 0.999997615814209 0 0.002184694167226553 
vn 0.999997615814209 0 0.002184694167226553 
vn 0.999997615814209 0 0.002184694167226553 
vn -1.0341130485562108e-13 0.999997615814209 0.002184694167226553 
vn -1.0341130485562108e-13 0.999997615814209 0.002184694167226553 
vn -1.0341130485562108e-13 0.999997615814209 0.002184694167226553 
vn -1.0341130485562108e-13 0.999997615814209 0.002184694167226553 
vn -0.999997615814209 -2.0682260971124217e-13 0.002184694167226553 
vn -0.999997615814209 -2.0682260971124217e-13 0.002184694167226553 
vn -0.999997615814209 -2.0682260971124217e-13 0.002184694167226553 
vn -0.999997615814209 -2.0682260971124217e-13 0.002184694167226553 
vn 0.999997615814209 0 0.002184694167226553 
vn 0.999997615814209 0 0.002184694167226553 
vn 0.999997615814209 0 0.002184694167226553 
vn 0.999997615814209 0 0.002184694167226553 
vn 3.097898456858039e-13 -0.999997615814209 0.002184694167226553 
vn 3.097898456858039e-13 -0.999997615814209 0.002184694167226553 
vn 3.097898456858039e-13 -0.999997615814209 0.002184694167226553 
vn 3.097898456858039e-13 -0.999997615814209 0.002184694167226553 
vn -0.7071051001548767 -0.7071051001548767 0.002184694167226553 
vn -0.7071051001548767 -0.7071051001548767 0.002184694167226553 
vn -0.7071051001548767 -0.7071051001548767 0.002184694167226553 
vn -0.7071051001548767 -0.7071051001548767 0.002184694167226553 
vn 0.7071051001548767 -0.7071051001548767 0.002184694167226553 
vn 0.7071051001548767 -0.7071051001548767 0.002184694167226553 
vn 0.7071051001548767 -0.7071051001548767 0.002184694167226553 
vn 0.7071051001548767 -0.7071051001548767 0.002184694167226553 
vn -0.7071051001548767 -0.7071051001548767 0.002184694167226553 
vn -0.7071051001548767 -0.7071051001548767 0.002184694167226553 
vn -0.7071051001548767 -0.7071051001548767 0.002184694167226553 
vn -0.7071051001548767 -0.7071051001548767 0.002184694167226553 
vn -1.0341130485562108e-13 0.999997615814209 0.002184694167226553 
vn -1.0341130485562108e-13 0.999997615814209 0.002184694167226553 
vn -1.0341130485562108e-13 0.999997615814209 0.002184694167226553 
vn -1.0341130485562108e-13 0.999997615814209 0.002184694167226553 
vn -0.7071051001548767 -0.7071051001548767 0.002184694167226553 
vn -0.7071051001548767 -0.7071051001548767 0.002184694167226553 
vn -0.7071051001548767 -0.7071051001548767 0.002184694167226553 
vn -0.7071051001548767 -0.7071051001548767 0.002184694167226553 
vn 0.7071051001548767 0.7071051001548767 0.002184694167226553 
vn 0.7071051001548767 0.7071051001548767 0.002184694167226553 
vn 0.7071051001548767 0.7071051001548767 0.002184694167226553 
vn 0.7071051001548767 0.7071051001548767 0.002184694167226553 
vn 0.7071051001548767 -0.7071051001548767 0.002184694167226553 
vn 0.7071051001548767 -0.7071051001548767 0.002184694167226553 
vn 0.7071051001548767 -0.7071051001548767 0.002184694167226553 
vn 0.7071051001548767 -0.7071051001548767 0.002184694167226553 
vn -0.7071051001548767 0.7071051001548767 0.002184694167226553 
vn -0.7071051001548767 0.7071051001548767 0.002184694167226553 
vn -0.7071051001548767 0.7071051001548767 0.002184694167226553 
vn -0.7071051001548767 0.7071051001548767 0.002184694167226553 
vn 0.5562512278556824 0 0.8310141563415527 
vn 0.5562512278556824 0 0.8310141563415527 
vn 0.5562512278556824 0 0.8310141563415527 
vn 0.5562512278556824 0 0.8310141563415527 
vn -0.7071051001548767 -0.7071051001548767 0.002184694167226553 
vn -0.7071051001548767 -0.7071051001548767 0.002184694167226553 
vn -0.7071051001548767 -0.7071051001548767 0.002184694167226553 
vn -0.7071051001548767 -0.7071051001548767 0.002184694167226553 
vn 0.999997615814209 0 0.002184694167226553 
vn 0.999997615814209 0 0.002184694167226553 
vn 0.999997615814209 0 0.002184694167226553 
vn 0.999997615814209 0 0.002184694167226553 
vn 3.097898456858039e-13 -0.999997615814209 0.002184694167226553 
vn 3.097898456858039e-13 -0.999997615814209 0.002184694167226553 
vn 3.097898456858039e-13 -0.999997615814209 0.002184694167226553 
vn -0.31947001814842224 0.3288255035877228 -0.888714075088501 
vn -0.31947001814842224 0.3288255035877228 -0.888714075088501 
vn -0.31947001814842224 0.3288255035877228 -0.888714075088501 
vn -0.12503622472286224 -0.4410818815231323 -0.888714075088501 
vn -0.12503622472286224 -0.4410818815231323 -0.888714075088501 
vn -0.12503622472286224 -0.4410818815231323 -0.888714075088501 
vn -0.33013981580734253 -0.3181115984916687 -0.888714075088501 
vn -0.33013981580734253 -0.3181115984916687 -0.888714075088501 
vn -0.33013981580734253 -0.3181115984916687 -0.888714075088501 
vn -0.44541674852371216 -0.10858738422393799 -0.888714075088501 
vn -0.44541674852371216 -0.10858738422393799 -0.888714075088501 
vn -0.44541674852371216 -0.10858738422393799 -0.888714075088501 
vn -0.43950170278549194 0.1304820328950882 -0.888714075088501 
vn -0.43950170278549194 0.1304820328950882 -0.888714075088501 
vn -0.43950170278549194 0.1304820328950882 -0.888714075088501 
vn 0.4405626356601715 -0.12685365974903107 -0.888714075088501 
vn 0.4405626356601715 -0.12685365974903107 -0.888714075088501 
vn 0.4405626356601715 -0.12685365974903107 -0.888714075088501 
vn -0.11042282730340958 0.44496527314186096 -0.888714075088501 
vn -0.11042282730340958 0.44496527314186096 -0.888714075088501 
vn -0.11042282730340958 0.44496527314186096 -0.888714075088501 
vn 0.12866893410682678 0.4400359094142914 -0.888714075088501 
vn 0.12866893410682678 0.4400359094142914 -0.888714075088501 
vn 0.12866893410682678 0.4400359094142914 -0.888714075088501 
vn 0.332751601934433 0.3153786063194275 -0.888714075088501 
vn 0.332751601934433 0.3153786063194275 -0.888714075088501 
vn 0.332751601934433 0.3153786063194275 -0.888714075088501 
vn 0.44629696011543274 0.10491098463535309 -0.888714075088501 
vn 0.44629696011543274 0.10491098463535309 -0.888714075088501 
vn 0.44629696011543274 0.10491098463535309 -0.888714075088501 
vn 0.3167478144168854 -0.3314485251903534 -0.888714075088501 
vn 0.3167478144168854 -0.3314485251903534 -0.888714075088501 
vn 0.3167478144168854 -0.3314485251903534 -0.888714075088501 
vn 0.10675009340047836 -0.4458606541156769 -0.888714075088501 
vn 0.10675009340047836 -0.4458606541156769 -0.888714075088501 
vn 0.10675009340047836 -0.4458606541156769 -0.888714075088501 
vn -0.31947001814842224 0.3288255035877228 -0.888714075088501 
vn -0.31947001814842224 0.3288255035877228 -0.888714075088501 
vn -0.31947001814842224 0.3288255035877228 -0.888714075088501 
vn -0.12503622472286224 -0.4410818815231323 -0.888714075088501 
vn -0.12503622472286224 -0.4410818815231323 -0.888714075088501 
vn -0.12503622472286224 -0.4410818815231323 -0.888714075088501 
vn -0.33013981580734253 -0.3181115984916687 -0.888714075088501 
vn -0.33013981580734253 -0.3181115984916687 -0.888714075088501 
vn -0.33013981580734253 -0.3181115984916687 -0.888714075088501 
vn -0.44541674852371216 -0.10858738422393799 -0.888714075088501 
vn -0.44541674852371216 -0.10858738422393799 -0.888714075088501 
vn -0.44541674852371216 -0.10858738422393799 -0.888714075088501 
vn -0.43950170278549194 0.1304820328950882 -0.888714075088501 
vn -0.43950170278549194 0.1304820328950882 -0.888714075088501 
vn -0.43950170278549194 0.1304820328950882 -0.888714075088501 
vn 0.4405626356601715 -0.12685365974903107 -0.888714075088501 
vn 0.4405626356601715 -0.12685365974903107 -0.888714075088501 
vn 0.4405626356601715 -0.12685365974903107 -0.888714075088501 
vn -0.11042282730340958 0.44496527314186096 -0.888714075088501 
vn -0.11042282730340958 0.44496527314186096 -0.888714075088501 
vn -0.11042282730340958 0.44496527314186096 -0.888714075088501 
vn 0.12866893410682678 0.4400359094142914 -0.888714075088501 
vn 0.12866893410682678 0.4400359094142914 -0.888714075088501 
vn 0.12866893410682678 0.4400359094142914 -0.888714075088501 
vn 0.332751601934433 0.3153786063194275 -0.888714075088501 
vn 0.332751601934433 0.3153786063194275 -0.888714075088501 
vn 0.332751601934433 0.3153786063194275 -0.888714075088501 
vn 0.44629696011543274 0.10491098463535309 -0.888714075088501 
vn 0.44629696011543274 0.10491098463535309 -0.888714075088501 
vn 0.44629696011543274 0.10491098463535309 -0.888714075088501 
vn 0.3167478144168854 -0.3314485251903534 -0.888714075088501 
vn 0.3167478144168854 -0.3314485251903534 -0.888714075088501 
vn 0.3167478144168854 -0.3314485251903534 -0.888714075088501 
vn 0.10675009340047836 -0.4458606541156769 -0.888714075088501 
vn 0.10675009340047836 -0.4458606541156769 -0.888714075088501 
vn 0.10675009340047836 -0.4458606541156769 -0.888714075088501 
vn -0.31947001814842224 0.3288255035877228 -0.888714075088501 
vn -0.31947001814842224 0.3288255035877228 -0.888714075088501 
vn -0.31947001814842224 0.3288255035877228 -0.888714075088501 
vn -0.12503622472286224 -0.4410818815231323 -0.888714075088501 
vn -0.12503622472286224 -0.4410818815231323 -0.888714075088501 
vn -0.12503622472286224 -0.4410818815231323 -0.888714075088501 
vn -0.33013981580734253 -0.3181115984916687 -0.888714075088501 
vn -0.33013981580734253 -0.3181115984916687 -0.888714075088501 
vn -0.33013981580734253 -0.3181115984916687 -0.888714075088501 
vn -0.44541674852371216 -0.10858738422393799 -0.888714075088501 
vn -0.44541674852371216 -0.10858738422393799 -0.888714075088501 
vn -0.44541674852371216 -0.10858738422393799 -0.888714075088501 
vn -0.43950170278549194 0.1304820328950882 -0.888714075088501 
vn -0.43950170278549194 0.1304820328950882 -0.888714075088501 
vn -0.43950170278549194 0.1304820328950882 -0.888714075088501 
vn 0.4405626356601715 -0.12685365974903107 -0.888714075088501 
vn 0.4405626356601715 -0.12685365974903107 -0.888714075088501 
vn 0.4405626356601715 -0.12685365974903107 -0.888714075088501 
vn -0.11042282730340958 0.44496527314186096 -0.888714075088501 
vn -0.11042282730340958 0.44496527314186096 -0.888714075088501 
vn -0.11042282730340958 0.44496527314186096 -0.888714075088501 
vn 0.12866893410682678 0.4400359094142914 -0.888714075088501 
vn 0.12866893410682678 0.4400359094142914 -0.888714075088501 
vn 0.12866893410682678 0.4400359094142914 -0.888714075088501 
vn 0.332751601934433 0.3153786063194275 -0.888714075088501 
vn 0.332751601934433 0.3153786063194275 -0.888714075088501 
vn 0.332751601934433 0.3153786063194275 -0.888714075088501 
vn 0.44629696011543274 0.10491098463535309 -0.888714075088501 
vn 0.44629696011543274 0.10491098463535309 -0.888714075088501 
vn 0.44629696011543274 0.10491098463535309 -0.888714075088501 
vn 0.3167478144168854 -0.3314485251903534 -0.888714075088501 
vn 0.3167478144168854 -0.3314485251903534 -0.888714075088501 
vn 0.3167478144168854 -0.3314485251903534 -0.888714075088501 
vn 0.10675009340047836 -0.4458606541156769 -0.888714075088501 
vn 0.10675009340047836 -0.4458606541156769 -0.888714075088501 
vn 0.10675009340047836 -0.4458606541156769 -0.888714075088501 
vt 0.000010943999768642243 0 
vt 0.000010943999768642243 0.46679964661598206 
vt 1.665953278541565 0 
vt 1.665953278541565 0.46679964661598206 
vt -7.0155839920043945 0.46679964661598206 
vt -7.0155839920043945 0 
vt -9.011699676513672 0.46679964661598206 
vt -9.011699676513672 0 
vt 2.9628942012786865 0 
vt 0.000010943999768642243 0 
vt 2.9628942012786865 0.9667993783950806 
vt 0.000010943999768642243 0.9667993783950806 
vt 0.9667782187461853 0 
vt -1.0273277759552002 0 
vt 0.9667782187461853 0.46679964661598206 
vt -1.0273277759552002 0.46679964661598206 
vt 0.000010943999768642243 0.9667993783950806 
vt 2.9628942012786865 0.9667993783950806 
vt 0.000010943999768642243 0 
vt 2.9628942012786865 0 
vt 0.9667782187461853 0 
vt -3.0234436988830566 0 
vt 0.9667782187461853 0.46879857778549194 
vt -3.0234436988830566 0.46879857778549194 
vt -2.8515963554382324 0.9667993783950806 
vt -1.4413694143295288 0.9667993783950806 
vt -2.8515963554382324 0 
vt -1.4413694143295288 0 
vt 0.1406133621931076 0.9667993783950806 
vt 2.9628942012786865 0.9667993783950806 
vt 0.1406133621931076 0 
vt 2.9628942012786865 0 
vt 0.000010943999768642243 0.9667993783950806 
vt 1.3809113502502441 0.9667993783950806 
vt 0.000010943999768642243 0 
vt 1.3809113502502441 0 
vt 0.9667782187461853 0 
vt 0.000010943999768642243 0 
vt 0.9667782187461853 0.46879857778549194 
vt 0.000010943999768642243 0.46879857778549194 
vt 0.000010943999768642243 0.46679964661598206 
vt 1.3809113502502441 0.46679964661598206 
vt 0.000010943999768642243 0 
vt 1.3809113502502441 0 
vt -0.443448543548584 0.46879857778549194 
vt 0.9667782187461853 0.46879857778549194 
vt -0.443448543548584 0 
vt 0.9667782187461853 0 
vt 0.9667782187461853 0 
vt -0.443448543548584 0 
vt 0.9667782187461853 0.46679964661598206 
vt -0.443448543548584 0.46679964661598206 
vt 2.7909553050994873 0 
vt 0.000010943999768642243 0 
vt 2.7909553050994873 0.9667993783950806 
vt 0.000010943999768642243 0.9667993783950806 
vt 0.9667782187461853 0.8691022396087646 
vt 0.9667782187461853 0 
vt 0.468777060508728 0.8691022396087646 
vt 0.4667671322822571 0 
vt 0.000010943999768642243 0.9667993783950806 
vt 1.3809113502502441 0.9667993783950806 
vt 0.000010943999768642243 0 
vt 1.3809113502502441 0 
vt -7.0155839920043945 0.46679964661598206 
vt 0.9667782187461853 0.46679964661598206 
vt -7.0155839920043945 0 
vt 0.9667782187461853 0 
vt 1.665953278541565 0.46879857778549194 
vt 2.4140970706939697 0.46879857778549194 
vt 1.665953278541565 0 
vt 1.0019516944885254 0 
vt 0.000010943999768642243 0 
vt 0.48631808161735535 0.9648004174232483 
vt -0.06448893249034882 0 
vt 0.44922611117362976 0.9648004174232483 
vt 0.9667782187461853 0 
vt 0.9667782187461853 0 
vt -0.06448893249034882 0 
vt 0.44922611117362976 0.9648004174232483 
vt 1.0019516944885254 0 
vt 0.000010943999768642243 0 
vt 0.48631808161735535 0.9648004174232483 
vt 1.0019516944885254 0 
vt 0.000010943999768642243 0 
vt 0.48631808161735535 0.9648004174232483 
vt 1.0019516944885254 0 
vt 0.000010943999768642243 0 
vt 0.48631808161735535 0.9648004174232483 
vt 1.0019516944885254 0 
vt 0.000010943999768642243 0 
vt 0.48631808161735535 0.9648004174232483 
vt 1.0019516944885254 0 
vt 0.000010943999768642243 0 
vt 0.48631808161735535 0.9648004174232483 
vt 1.0019516944885254 0 
vt 0.000010943999768642243 0 
vt 0.48631808161735535 0.9648004174232483 
vt 1.0019516944885254 0 
vt 0.000010943999768642243 0 
vt 0.48631808161735535 0.9648004174232483 
vt 1.0019516944885254 0 
vt 0.000010943999768642243 0 
vt 0.48631808161735535 0.9648004174232483 
vt 0.000010943999768642243 0 
vt 0.48631808161735535 0.9648004174232483 
vt 1.0019516944885254 0 
vt 1.0019516944885254 0 
vt 0.000010943999768642243 0 
vt 0.48631808161735535 0.9648004174232483 
vt -0.06448893249034882 0 
vt 0.44922611117362976 0.9648004174232483 
vt 0.9667782187461853 0 
vt 0.9667782187461853 0 
vt -0.06448893249034882 0 
vt 0.44922611117362976 0.9648004174232483 
vt 1.0019516944885254 0 
vt 0.000010943999768642243 0 
vt 0.48631808161735535 0.9648004174232483 
vt 1.0019516944885254 0 
vt 0.000010943999768642243 0 
vt 0.48631808161735535 0.9648004174232483 
vt 1.0019516944885254 0 
vt 0.000010943999768642243 0 
vt 0.48631808161735535 0.9648004174232483 
vt 1.0019516944885254 0 
vt 0.000010943999768642243 0 
vt 0.48631808161735535 0.9648004174232483 
vt 1.0019516944885254 0 
vt 0.000010943999768642243 0 
vt 0.48631808161735535 0.9648004174232483 
vt 1.0019516944885254 0 
vt 0.000010943999768642243 0 
vt 0.48631808161735535 0.9648004174232483 
vt 1.0019516944885254 0 
vt 0.000010943999768642243 0 
vt 0.48631808161735535 0.9648004174232483 
vt 1.0019516944885254 0 
vt 0.000010943999768642243 0 
vt 0.48631808161735535 0.9648004174232483 
vt 0.000010943999768642243 0 
vt 0.48631808161735535 0.9648004174232483 
vt 1.0019516944885254 0 
vt 1.0019516944885254 0 
vt 0.000010943999768642243 0 
vt 0.48631808161735535 0.9648004174232483 
vt -0.06448893249034882 0 
vt 0.44922611117362976 0.9648004174232483 
vt 0.9667782187461853 0 
vt 0.9667782187461853 0 
vt -0.06448893249034882 0 
vt 0.44922611117362976 0.9648004174232483 
vt 1.0019516944885254 0 
vt 0.000010943999768642243 0 
vt 0.48631808161735535 0.9648004174232483 
vt 1.0019516944885254 0 
vt 0.000010943999768642243 0 
vt 0.48631808161735535 0.9648004174232483 
vt 1.0019516944885254 0 
vt 0.000010943999768642243 0 
vt 0.48631808161735535 0.9648004174232483 
vt 1.0019516944885254 0 
vt 0.000010943999768642243 0 
vt 0.48631808161735535 0.9648004174232483 
vt 1.0019516944885254 0 
vt 0.000010943999768642243 0 
vt 0.48631808161735535 0.9648004174232483 
vt 1.0019516944885254 0 
vt 0.000010943999768642243 0 
vt 0.48631808161735535 0.9648004174232483 
vt 1.0019516944885254 0 
vt 0.000010943999768642243 0 
vt 0.48631808161735535 0.9648004174232483 
vt 1.0019516944885254 0 
vt 0.000010943999768642243 0 
vt 0.48631808161735535 0.9648004174232483 
vt 0.000010943999768642243 0 
vt 0.48631808161735535 0.9648004174232483 
vt 1.0019516944885254 0 
s on 
f 1/1/1 2/2/2 3/3/3 
f 2/2/2 4/4/4 3/3/3 
f 3/3/3 4/4/4 4/4/4 
f 4/4/4 5/5/5 4/4/4 
f 4/4/4 5/5/5 5/5/5 
f 5/5/5 6/6/6 5/5/5 
f 5/5/5 6/6/6 7/7/7 
f 6/6/6 8/8/8 7/7/7 
f 7/7/7 8/8/8 8/8/8 
f 8/8/8 9/9/9 8/8/8 
f 8/8/8 9/9/9 9/9/9 
f 9/9/9 10/10/10 9/9/9 
f 9/9/9 10/10/10 11/11/11 
f 10/10/10 12/12/12 11/11/11 
f 11/11/11 12/12/12 12/12/12 
f 12/12/12 13/13/13 12/12/12 
f 12/12/12 13/13/13 13/13/13 
f 13/13/13 14/14/14 13/13/13 
f 13/13/13 14/14/14 15/15/15 
f 14/14/14 16/16/16 15/15/15 
f 15/15/15 16/16/16 16/16/16 
f 16/16/16 17/17/17 16/16/16 
f 16/16/16 17/17/17 17/17/17 
f 17/17/17 18/18/18 17/17/17 
f 17/17/17 18/18/18 19/19/19 
f 18/18/18 20/20/20 19/19/19 
f 19/19/19 20/20/20 20/20/20 
f 20/20/20 21/21/21 20/20/20 
f 20/20/20 21/21/21 21/21/21 
f 21/21/21 22/22/22 21/21/21 
f 21/21/21 22/22/22 23/23/23 
f 22/22/22 24/24/24 23/23/23 
f 23/23/23 24/24/24 24/24/24 
f 24/24/24 25/25/25 24/24/24 
f 24/24/24 25/25/25 25/25/25 
f 25/25/25 26/26/26 25/25/25 
f 25/25/25 26/26/26 27/27/27 
f 26/26/26 28/28/28 27/27/27 
f 27/27/27 28/28/28 28/28/28 
f 28/28/28 29/29/29 28/28/28 
f 28/28/28 29/29/29 29/29/29 
f 29/29/29 30/30/30 29/29/29 
f 29/29/29 30/30/30 31/31/31 
f 30/30/30 32/32/32 31/31/31 
f 31/31/31 32/32/32 32/32/32 
f 32/32/32 33/33/33 32/32/32 
f 32/32/32 33/33/33 33/33/33 
f 33/33/33 34/34/34 33/33/33 
f 33/33/33 34/34/34 35/35/35 
f 34/34/34 36/36/36 35/35/35 
f 35/35/35 36/36/36 36/36/36 
f 36/36/36 37/37/37 36/36/36 
f 36/36/36 37/37/37 37/37/37 
f 37/37/37 38/38/38 37/37/37 
f 37/37/37 38/38/38 39/39/39 
f 38/38/38 40/40/40 39/39/39 
f 39/39/39 40/40/40 40/40/40 
f 40/40/40 41/41/41 40/40/40 
f 40/40/40 41/41/41 41/41/41 
f 41/41/41 42/42/42 41/41/41 
f 41/41/41 42/42/42 43/43/43 
f 42/42/42 44/44/44 43/43/43 
f 43/43/43 44/44/44 44/44/44 
f 44/44/44 45/45/45 44/44/44 
f 44/44/44 45/45/45 45/45/45 
f 45/45/45 46/46/46 45/45/45 
f 45/45/45 46/46/46 47/47/47 
f 46/46/46 48/48/48 47/47/47 
f 47/47/47 48/48/48 48/48/48 
f 48/48/48 49/49/49 48/48/48 
f 48/48/48 49/49/49 49/49/49 
f 49/49/49 50/50/50 49/49/49 
f 49/49/49 50/50/50 51/51/51 
f 50/50/50 52/52/52 51/51/51 
f 51/51/51 52/52/52 52/52/52 
f 52/52/52 53/53/53 52/52/52 
f 52/52/52 53/53/53 53/53/53 
f 53/53/53 54/54/54 53/53/53 
f 53/53/53 54/54/54 55/55/55 
f 54/54/54 56/56/56 55/55/55 
f 55/55/55 56/56/56 56/56/56 
f 56/56/56 57/57/57 56/56/56 
f 56/56/56 57/57/57 57/57/57 
f 57/57/57 58/58/58 57/57/57 
f 57/57/57 58/58/58 59/59/59 
f 58/58/58 60/60/60 59/59/59 
f 59/59/59 60/60/60 60/60/60 
f 60/60/60 61/61/61 60/60/60 
f 60/60/60 61/61/61 61/61/61 
f 61/61/61 62/62/62 61/61/61 
f 61/61/61 62/62/62 63/63/63 
f 62/62/62 64/64/64 63/63/63 
f 63/63/63 64/64/64 64/64/64 
f 64/64/64 65/65/65 64/64/64 
f 64/64/64 65/65/65 65/65/65 
f 65/65/65 66/66/66 65/65/65 
f 65/65/65 66/66/66 67/67/67 
f 66/66/66 68/68/68 67/67/67 
f 69/69/69 70/70/70 71/71/71 
f 72/72/72 73/73/73 74/74/74 
f 75/75/75 76/76/76 77/77/77 
f 78/78/78 79/79/79 80/80/80 
f 81/81/81 82/82/82 83/83/83 
f 84/84/84 85/85/85 86/86/86 
f 87/87/87 88/88/88 89/89/89 
f 90/90/90 91/91/91 92/92/92 
f 93/93/93 94/94/94 95/95/95 
f 96/96/96 97/97/97 98/98/98 
f 99/99/99 100/100/100 101/101/101 
f 102/102/102 103/103/103 104/104/104 
f 105/105/105 106/106/106 107/107/107 
f 108/108/108 109/109/109 110/110/110 
f 111/111/111 112/112/112 113/113/113 
f 114/114/114 115/115/115 116/116/116 
f 117/117/117 118/118/118 119/119/119 
f 120/120/120 121/121/121 122/122/122 
f 123/123/123 124/124/124 125/125/125 
f 126/126/126 127/127/127 128/128/128 
f 129/129/129 130/130/130 131/131/131 
f 132/132/132 133/133/133 134/134/134 
f 135/135/135 136/136/136 137/137/137 
f 138/138/138 139/139/139 140/140/140 
f 141/141/141 142/142/142 143/143/143 
f 144/144/144 145/145/145 146/146/146 
f 147/147/147 148/148/148 149/149/149 
f 150/150/150 151/151/151 152/152/152 
f 153/153/153 154/154/154 155/155/155 
f 156/156/156 157/157/157 158/158/158 
f 159/159/159 160/160/160 161/161/161 
f 162/162/162 163/163/163 164/164/164 
f 165/165/165 166/166/166 167/167/167 
f 168/168/168 169/169/169 170/170/170 
f 171/171/171 172/172/172 173/173/173 
f 174/174/174 175/175/175 176/176/176 
f 177/177/177 178/178/178 179/179/179 

