mtllib model_4.mtl
o model_4
v 53.27070617675781 491.43023681640625 184.24415588378906 
v 53.27070617675781 696.226806640625 85.9961166381836 
v 53.27070617675781 532.39306640625 184.24415588378906 
v 53.27070617675781 643.50537109375 126.64112091064453 
v -40.96113204956055 450.5549011230469 202.63722229003906 
v -40.96113204956055 450.5549011230469 204.71978759765625 
v -4.080197334289551 450.5549011230469 184.24415588378906 
v -0.0036991999950259924 450.5549011230469 184.24415588378906 
v 122.86859893798828 696.226806640625 85.91736602783203 
v 81.91117095947266 696.226806640625 85.91736602783203 
v 122.86859893798828 696.226806640625 -0.08028750121593475 
v 81.91117095947266 696.226806640625 -0.08028750121593475 
v -28.626665115356445 276.4673156738281 194.5607147216797 
v -81.91856384277344 276.4673156738281 194.5607147216797 
v -28.626665115356445 276.4673156738281 204.71978759765625 
v -81.91856384277344 276.4673156738281 204.71978759765625 
v -43.76044464111328 723.0337524414062 286.6398010253906 
v -43.76044464111328 682.158447265625 286.6398010253906 
v -47.836944580078125 720.9514770507812 276.4807434082031 
v -47.836944580078125 684.24072265625 276.4807434082031 
v 122.88610076904297 532.39306640625 85.91736602783203 
v 81.99864959716797 532.39306640625 85.91736602783203 
v 122.88610076904297 532.39306640625 -0.08028750121593475 
v 81.99864959716797 532.39306640625 -0.08028750121593475 
v 122.88610076904297 532.39306640625 -0.08028750121593475 
v 122.88610076904297 573.2683715820312 -0.08028750121593475 
v 122.88610076904297 532.39306640625 85.91736602783203 
v 122.88610076904297 573.2683715820312 85.91736602783203 
v -47.836944580078125 720.9514770507812 276.4807434082031 
v -47.836944580078125 684.24072265625 276.4807434082031 
v -80.55390167236328 720.9514770507812 276.4807434082031 
v -80.55390167236328 684.24072265625 276.4807434082031 
v -80.55390167236328 720.9514770507812 276.4807434082031 
v -80.55390167236328 684.24072265625 276.4807434082031 
v -84.64789581298828 723.0337524414062 286.6398010253906 
v -84.64789581298828 682.158447265625 286.6398010253906 
v -84.64789581298828 723.0337524414062 286.6398010253906 
v -43.76044464111328 723.0337524414062 286.6398010253906 
v -80.55390167236328 720.9514770507812 276.4807434082031 
v -47.836944580078125 720.9514770507812 276.4807434082031 
v -80.55390167236328 684.24072265625 276.4807434082031 
v -47.836944580078125 684.24072265625 276.4807434082031 
v -84.64789581298828 682.158447265625 286.6398010253906 
v -43.76044464111328 682.158447265625 286.6398010253906 
v -423.8370361328125 449.4350280761719 106.48049926757812 
v -423.8370361328125 516.9423217773438 106.48049926757812 
v -420.0054626464844 453.26708984375 96.24268341064453 
v -420.0054626464844 513.1102294921875 96.24268341064453 
v -450.3955078125 532.3055419921875 204.71978759765625 
v -450.3955078125 532.3055419921875 194.48196411132812 
v -450.3955078125 409.5046081542969 204.71978759765625 
v -450.3955078125 409.5046081542969 194.48196411132812 
v 122.88610076904297 614.3186645507812 85.91736602783203 
v 81.99864959716797 614.3186645507812 85.91736602783203 
v 122.88610076904297 614.3186645507812 -0.08028750121593475 
v 81.99864959716797 614.3186645507812 -0.08028750121593475 
v 122.88610076904297 614.3186645507812 -0.08028750121593475 
v 122.88610076904297 655.1940307617188 -0.08028750121593475 
v 122.88610076904297 614.3186645507812 85.91736602783203 
v 122.88610076904297 655.1940307617188 85.91736602783203 
v 98.88199615478516 614.231201171875 85.91736602783203 
v 98.88199615478516 573.3558959960938 85.91736602783203 
v 98.88199615478516 614.231201171875 81.91849517822266 
v 98.88199615478516 573.3558959960938 81.91849517822266 
v -450.3955078125 409.5046081542969 194.48196411132812 
v -368.5506286621094 409.5046081542969 194.48196411132812 
v -450.3955078125 409.5046081542969 204.71978759765625 
v -368.5506286621094 409.5046081542969 204.71978759765625 
v -286.6357421875 327.66644287109375 204.71978759765625 
v -286.6357421875 245.35586547851562 204.71978759765625 
v -286.6357421875 327.66644287109375 161.92221069335938 
v -286.6357421875 204.79550170898438 81.83973693847656 
v -286.6357421875 204.79550170898438 73.67573547363281 
v -399.2030944824219 465.7431640625 133.11631774902344 
v -399.2030944824219 465.7431640625 143.2841339111328 
v -399.2030944824219 475.99700927734375 133.11631774902344 
v -399.2030944824219 475.99700927734375 143.2841339111328 
v -399.2730712890625 424.955322265625 194.48196411132812 
v -399.2730712890625 432.636962890625 194.48196411132812 
v -399.2730712890625 424.955322265625 143.2841339111328 
v -399.2730712890625 432.636962890625 143.2841339111328 
v -399.2730712890625 424.955322265625 143.2841339111328 
v -389.0380859375 424.955322265625 143.2841339111328 
v -399.2730712890625 424.955322265625 194.48196411132812 
v -389.0380859375 424.955322265625 194.48196411132812 
v -71.68357849121094 368.6292724609375 204.71978759765625 
v -122.8759994506836 317.43011474609375 204.71978759765625 
v -71.68357849121094 368.6292724609375 73.67573547363281 
v -122.8759994506836 317.43011474609375 73.67573547363281 
v -409.4380798339844 465.7431640625 143.2841339111328 
v -399.2030944824219 465.7431640625 143.2841339111328 
v -409.4380798339844 465.7431640625 133.11631774902344 
v -399.2030944824219 465.7431640625 133.11631774902344 
v -28.626665115356445 215.11932373046875 194.5607147216797 
v -28.626665115356445 276.4673156738281 194.5607147216797 
v -28.626665115356445 215.11932373046875 204.71978759765625 
v -28.626665115356445 276.4673156738281 204.71978759765625 
v -419.6730651855469 509.3481750488281 143.2841339111328 
v -419.6730651855469 517.02978515625 143.2841339111328 
v -419.6730651855469 509.3481750488281 194.48196411132812 
v -419.6730651855469 517.02978515625 194.48196411132812 
v -409.4380798339844 465.7431640625 143.2841339111328 
v -409.4380798339844 465.7431640625 133.11631774902344 
v -409.4380798339844 475.99700927734375 143.2841339111328 
v -409.4380798339844 475.99700927734375 133.11631774902344 
v -399.2030944824219 475.99700927734375 143.2841339111328 
v -409.4380798339844 475.99700927734375 143.2841339111328 
v -399.2030944824219 475.99700927734375 133.11631774902344 
v -409.4380798339844 475.99700927734375 133.11631774902344 
v -429.925537109375 509.3481750488281 194.48196411132812 
v -429.925537109375 517.02978515625 194.48196411132812 
v -429.925537109375 509.3481750488281 143.2841339111328 
v -429.925537109375 517.02978515625 143.2841339111328 
v -440.1605224609375 517.02978515625 143.2841339111328 
v -440.1605224609375 517.02978515625 133.11631774902344 
v -440.1605224609375 424.955322265625 143.2841339111328 
v -440.1605224609375 424.955322265625 133.11631774902344 
v -399.2730712890625 517.02978515625 194.48196411132812 
v -389.0380859375 517.02978515625 194.48196411132812 
v -399.2730712890625 517.02978515625 143.2841339111328 
v -389.0380859375 517.02978515625 143.2841339111328 
v -81.91856384277344 276.4673156738281 194.5607147216797 
v -81.91856384277344 215.11932373046875 194.5607147216797 
v -81.91856384277344 276.4673156738281 204.71978759765625 
v -81.91856384277344 215.11932373046875 204.71978759765625 
v -429.925537109375 509.3481750488281 143.2841339111328 
v -419.6730651855469 509.3481750488281 143.2841339111328 
v -429.925537109375 509.3481750488281 194.48196411132812 
v -419.6730651855469 509.3481750488281 194.48196411132812 
v -399.2730712890625 509.3481750488281 143.2841339111328 
v -389.0380859375 509.3481750488281 143.2841339111328 
v -399.2730712890625 509.3481750488281 194.48196411132812 
v -389.0380859375 509.3481750488281 194.48196411132812 
v -81.91856384277344 215.11932373046875 194.5607147216797 
v -81.91856384277344 276.4673156738281 194.5607147216797 
v -28.626665115356445 215.11932373046875 194.5607147216797 
v -28.626665115356445 276.4673156738281 194.5607147216797 
v 122.88610076904297 655.281494140625 81.91849517822266 
v 122.88610076904297 696.1568603515625 81.91849517822266 
v 122.88610076904297 655.281494140625 85.91736602783203 
v 122.88610076904297 696.1568603515625 85.91736602783203 
v -399.2730712890625 517.02978515625 143.2841339111328 
v -399.2730712890625 509.3481750488281 143.2841339111328 
v -399.2730712890625 517.02978515625 194.48196411132812 
v -399.2730712890625 509.3481750488281 194.48196411132812 
v 40.9537353515625 286.72113037109375 73.67573547363281 
v 53.27070617675781 450.5549011230469 184.24415588378906 
v -0.0036991999950259924 286.72113037109375 73.67573547363281 
v -0.0036991999950259924 450.5549011230469 184.24415588378906 
v -40.96113204956055 491.43023681640625 204.71978759765625 
v -40.96113204956055 491.43023681640625 202.63722229003906 
v -0.0036991999950259924 491.43023681640625 184.24415588378906 
v -4.080197334289551 491.43023681640625 184.24415588378906 
v -450.3955078125 532.3055419921875 204.71978759765625 
v -368.568115234375 532.3055419921875 204.71978759765625 
v -450.3955078125 532.3055419921875 194.48196411132812 
v -368.568115234375 532.3055419921875 194.48196411132812 
v 122.86859893798828 778.1524658203125 85.91736602783203 
v 122.86859893798828 778.1524658203125 -0.08028750121593475 
v -8.156695365905762 778.1524658203125 85.91736602783203 
v -163.83343505859375 778.1524658203125 -0.08028750121593475 
v -8.156695365905762 778.1524658203125 96.16393280029297 
v -368.5506286621094 449.4350280761719 106.48049926757812 
v -423.8370361328125 449.4350280761719 106.48049926757812 
v -368.5506286621094 453.26708984375 96.24268341064453 
v -420.0054626464844 453.26708984375 96.24268341064453 
v -368.568115234375 516.9423217773438 106.48049926757812 
v -368.568115234375 513.1102294921875 96.24268341064453 
v -423.8370361328125 516.9423217773438 106.48049926757812 
v -420.0054626464844 513.1102294921875 96.24268341064453 
v -368.5506286621094 424.955322265625 143.2841339111328 
v -440.1605224609375 424.955322265625 143.2841339111328 
v -368.5506286621094 424.955322265625 133.11631774902344 
v -440.1605224609375 424.955322265625 133.11631774902344 
v -440.1605224609375 517.02978515625 143.2841339111328 
v -368.568115234375 517.02978515625 143.2841339111328 
v -440.1605224609375 517.02978515625 133.11631774902344 
v -368.568115234375 517.02978515625 133.11631774902344 
v -368.5506286621094 532.39306640625 204.71978759765625 
v -368.5506286621094 643.2778930664062 204.71978759765625 
v -368.5506286621094 532.39306640625 194.48196411132812 
v -368.5506286621094 517.1873168945312 143.2841339111328 
v -368.5506286621094 425.1128234863281 143.2841339111328 
v -368.5506286621094 409.59210205078125 194.48196411132812 
v -368.5506286621094 204.79550170898438 81.83973693847656 
v -368.5506286621094 425.1128234863281 133.03756713867188 
v -368.5506286621094 399.35577392578125 30.641910552978516 
v -368.5506286621094 573.3558959960938 30.641910552978516 
v -368.5506286621094 517.1873168945312 133.03756713867188 
v -368.5506286621094 778.1524658203125 -0.08028750121593475 
v 122.88610076904297 655.1940307617188 -0.08028750121593475 
v 81.99864959716797 655.1940307617188 -0.08028750121593475 
v 122.88610076904297 655.1940307617188 85.91736602783203 
v 81.99864959716797 655.1940307617188 85.91736602783203 
v -286.6357421875 204.79550170898438 81.83973693847656 
v -286.6357421875 204.79550170898438 143.2841339111328 
v -327.59320068359375 327.66644287109375 204.71978759765625 
v -300.1599426269531 245.35586547851562 204.71978759765625 
v -28.626665115356445 215.11932373046875 204.71978759765625 
v -81.91856384277344 215.11932373046875 204.71978759765625 
v -28.626665115356445 215.11932373046875 194.5607147216797 
v -81.91856384277344 215.11932373046875 194.5607147216797 
v -419.6730651855469 432.636962890625 194.48196411132812 
v -419.6730651855469 424.955322265625 194.48196411132812 
v -419.6730651855469 432.636962890625 143.2841339111328 
v -419.6730651855469 424.955322265625 143.2841339111328 
v -389.0380859375 432.636962890625 143.2841339111328 
v -399.2730712890625 432.636962890625 143.2841339111328 
v -389.0380859375 432.636962890625 194.48196411132812 
v -399.2730712890625 432.636962890625 194.48196411132812 
v -429.925537109375 517.02978515625 194.48196411132812 
v -419.6730651855469 517.02978515625 194.48196411132812 
v -429.925537109375 517.02978515625 143.2841339111328 
v -419.6730651855469 517.02978515625 143.2841339111328 
v -419.6730651855469 424.955322265625 194.48196411132812 
v -429.925537109375 424.955322265625 194.48196411132812 
v -419.6730651855469 424.955322265625 143.2841339111328 
v -429.925537109375 424.955322265625 143.2841339111328 
v -389.0380859375 432.636962890625 194.48196411132812 
v -389.0380859375 424.955322265625 194.48196411132812 
v -389.0380859375 432.636962890625 143.2841339111328 
v -389.0380859375 424.955322265625 143.2841339111328 
v 122.86859893798828 696.226806640625 85.91736602783203 
v 122.86859893798828 696.226806640625 -0.08028750121593475 
v 122.86859893798828 778.1524658203125 85.91736602783203 
v 122.86859893798828 778.1524658203125 -0.08028750121593475 
v 102.08370971679688 491.43023681640625 81.91849517822266 
v 102.08370971679688 532.3055419921875 81.91849517822266 
v 102.08370971679688 491.43023681640625 85.91736602783203 
v 102.08370971679688 532.3055419921875 85.91736602783203 
v -429.925537109375 424.955322265625 194.48196411132812 
v -429.925537109375 432.636962890625 194.48196411132812 
v -429.925537109375 424.955322265625 143.2841339111328 
v -429.925537109375 432.636962890625 143.2841339111328 
v -163.83343505859375 327.66644287109375 204.71978759765625 
v -163.83343505859375 327.66644287109375 161.92221069335938 
v -163.83343505859375 245.35586547851562 204.71978759765625 
v -163.83343505859375 204.79550170898438 73.67573547363281 
v -163.83343505859375 204.79550170898438 143.2841339111328 
v -429.925537109375 432.636962890625 194.48196411132812 
v -419.6730651855469 432.636962890625 194.48196411132812 
v -429.925537109375 432.636962890625 143.2841339111328 
v -419.6730651855469 432.636962890625 143.2841339111328 
v -389.0380859375 509.3481750488281 143.2841339111328 
v -389.0380859375 517.02978515625 143.2841339111328 
v -389.0380859375 509.3481750488281 194.48196411132812 
v -389.0380859375 517.02978515625 194.48196411132812 
v 122.88610076904297 573.2683715820312 -0.08028750121593475 
v 81.99864959716797 573.2683715820312 -0.08028750121593475 
v 122.88610076904297 573.2683715820312 85.91736602783203 
v 81.99864959716797 573.2683715820312 85.91736602783203 
v -440.1605224609375 424.955322265625 133.11631774902344 
v -409.4380798339844 465.7431640625 133.11631774902344 
v -368.5506286621094 424.955322265625 133.11631774902344 
v -399.2030944824219 465.7431640625 133.11631774902344 
v -368.568115234375 517.02978515625 133.11631774902344 
v -399.2030944824219 475.99700927734375 133.11631774902344 
v -409.4380798339844 475.99700927734375 133.11631774902344 
v -440.1605224609375 517.02978515625 133.11631774902344 
v 53.27070617675781 696.226806640625 85.91736602783203 
v 53.27070617675781 696.226806640625 85.9961166381836 
v 53.27070617675781 491.43023681640625 184.24415588378906 
v -368.5506286621094 204.79550170898438 81.83973693847656 
v -286.6357421875 204.79550170898438 81.83973693847656 
v -327.59320068359375 327.66644287109375 204.71978759765625 
v -286.6357421875 245.35586547851562 204.71978759765625 
v -300.1599426269531 245.35586547851562 204.71978759765625 
v -286.6357421875 204.79550170898438 143.2841339111328 
v -286.6357421875 204.79550170898438 143.2841339111328 
v -368.5506286621094 204.79550170898438 81.83973693847656 
v -327.59320068359375 327.66644287109375 204.71978759765625 
v -368.5506286621094 409.59210205078125 194.48196411132812 
v -327.59320068359375 327.66644287109375 204.71978759765625 
v -368.5506286621094 409.59210205078125 204.71978759765625 
v -368.5506286621094 409.59210205078125 194.48196411132812 
v -368.5506286621094 573.3558959960938 -0.08028750121593475 
v -163.83343505859375 778.1524658203125 -0.08028750121593475 
v -226.6429901123047 677.1890258789062 204.71978759765625 
v -81.91856384277344 532.39306640625 204.71978759765625 
v -163.83343505859375 778.1524658203125 -0.08028750121593475 
v -81.91856384277344 532.39306640625 204.71978759765625 
v -8.156695365905762 778.1524658203125 96.16393280029297 
v -368.5506286621094 643.2778930664062 204.71978759765625 
v -226.6429901123047 677.1890258789062 204.71978759765625 
v -163.83343505859375 778.1524658203125 -0.08028750121593475 
v -163.83343505859375 778.1524658203125 -0.08028750121593475 
v -368.5506286621094 778.1524658203125 -0.08028750121593475 
v -368.5506286621094 643.2778930664062 204.71978759765625 
v -40.96113204956055 368.6292724609375 204.71978759765625 
v -71.68357849121094 368.6292724609375 204.71978759765625 
v -71.68357849121094 368.6292724609375 73.67573547363281 
v -71.68357849121094 368.6292724609375 73.67573547363281 
v -0.0036991999950259924 286.72113037109375 73.67573547363281 
v -40.96113204956055 368.6292724609375 204.71978759765625 
v -0.0036991999950259924 286.72113037109375 73.67573547363281 
v -0.0036991999950259924 450.5549011230469 184.24415588378906 
v -40.96113204956055 368.6292724609375 204.71978759765625 
v -163.83343505859375 204.79550170898438 143.2841339111328 
v -149.1195526123047 245.35586547851562 204.71978759765625 
v -163.83343505859375 245.35586547851562 204.71978759765625 
v -163.83343505859375 204.79550170898438 73.67573547363281 
v -149.1195526123047 245.35586547851562 204.71978759765625 
v -163.83343505859375 204.79550170898438 143.2841339111328 
v -163.83343505859375 204.79550170898438 73.67573547363281 
v -122.8759994506836 317.43011474609375 73.67573547363281 
v -149.1195526123047 245.35586547851562 204.71978759765625 
v -122.8759994506836 317.43011474609375 73.67573547363281 
v -122.8759994506836 317.43011474609375 204.71978759765625 
v -149.1195526123047 245.35586547851562 204.71978759765625 
v -8.156695365905762 778.1524658203125 96.16393280029297 
v -81.91856384277344 532.39306640625 204.71978759765625 
v -8.156695365905762 696.226806640625 85.91736602783203 
v 53.27070617675781 643.50537109375 126.64112091064453 
v -40.96113204956055 532.39306640625 204.71978759765625 
v 53.27070617675781 532.39306640625 184.24415588378906 
v 53.27070617675781 643.50537109375 126.64112091064453 
v -81.91856384277344 532.39306640625 204.71978759765625 
v -40.96113204956055 532.39306640625 204.71978759765625 
v -81.91856384277344 532.39306640625 204.71978759765625 
v 53.27070617675781 643.50537109375 126.64112091064453 
v 53.27070617675781 696.226806640625 85.9961166381836 
v -81.91856384277344 532.39306640625 204.71978759765625 
v 53.27070617675781 696.226806640625 85.9961166381836 
v -8.156695365905762 696.226806640625 85.91736602783203 
v -8.156695365905762 778.1524658203125 85.91736602783203 
v -8.156695365905762 778.1524658203125 96.16393280029297 
v -8.156695365905762 696.226806640625 85.91736602783203 
v -286.6357421875 204.79550170898438 143.36288452148438 
v -286.6357421875 204.79550170898438 204.71978759765625 
v -300.07244873046875 245.26837158203125 204.71978759765625 
v -286.6357421875 245.26837158203125 204.71978759765625 
v -286.6357421875 204.79550170898438 204.71978759765625 
v -286.6357421875 204.79550170898438 143.36288452148438 
v -163.83343505859375 204.79550170898438 143.36288452148438 
v -163.83343505859375 204.79550170898438 204.71978759765625 
v -163.83343505859375 245.26837158203125 204.71978759765625 
v -163.83343505859375 204.79550170898438 143.36288452148438 
v -149.1195526123047 245.26837158203125 204.71978759765625 
v -163.83343505859375 204.79550170898438 204.71978759765625 
vn 0.999997615814209 0 0.002184694167226553 
vn 0.999997615814209 0 0.002184694167226553 
vn 0.999997615814209 0 0.002184694167226553 
vn 0.999997615814209 0 0.002184694167226553 
vn -1.0341130485562108e-13 0.999997615814209 0.002184694167226553 
vn -1.0341130485562108e-13 0.999997615814209 0.002184694167226553 
vn -1.0341130485562108e-13 0.999997615814209 0.002184694167226553 
vn -1.0341130485562108e-13 0.999997615814209 0.002184694167226553 
vn 3.097898456858039e-13 -0.999997615814209 0.002184694167226553 
vn 3.097898456858039e-13 -0.999997615814209 0.002184694167226553 
vn 3.097898456858039e-13 -0.999997615814209 0.002184694167226553 
vn 3.097898456858039e-13 -0.999997615814209 0.002184694167226553 
vn -1.0341130485562108e-13 0.999997615814209 0.002184694167226553 
vn -1.0341130485562108e-13 0.999997615814209 0.002184694167226553 
vn -1.0341130485562108e-13 0.999997615814209 0.002184694167226553 
vn -1.0341130485562108e-13 0.999997615814209 0.002184694167226553 
vn 0.9278009533882141 0 -0.37307560443878174 
vn 0.9278009533882141 0 -0.37307560443878174 
vn 0.9278009533882141 0 -0.37307560443878174 
vn 0.9278009533882141 0 -0.37307560443878174 
vn 3.097898456858039e-13 -0.999997615814209 0.002184694167226553 
vn 3.097898456858039e-13 -0.999997615814209 0.002184694167226553 
vn 3.097898456858039e-13 -0.999997615814209 0.002184694167226553 
vn 3.097898456858039e-13 -0.999997615814209 0.002184694167226553 
vn 0.999997615814209 0 0.002184694167226553 
vn 0.999997615814209 0 0.002184694167226553 
vn 0.999997615814209 0 0.002184694167226553 
vn 0.999997615814209 0 0.002184694167226553 
vn -2.0682311115474694e-13 0 -1 
vn -2.0682311115474694e-13 0 -1 
vn -2.0682311115474694e-13 0 -1 
vn -2.0682311115474694e-13 0 -1 
vn -0.9278009533882141 -1.914786417530484e-13 -0.37307560443878174 
vn -0.9278009533882141 -1.914786417530484e-13 -0.37307560443878174 
vn -0.9278009533882141 -1.914786417530484e-13 -0.37307560443878174 
vn -0.9278009533882141 -1.914786417530484e-13 -0.37307560443878174 
vn -0.0018877115799114108 0.9794287085533142 -0.2017817199230194 
vn -0.0018877115799114108 0.9794287085533142 -0.2017817199230194 
vn -0.0018877115799114108 0.9794287085533142 -0.2017817199230194 
vn -0.0018877115799114108 0.9794287085533142 -0.2017817199230194 
vn -0.0018877115799114108 -0.9794287085533142 -0.2017817199230194 
vn -0.0018877115799114108 -0.9794287085533142 -0.2017817199230194 
vn -0.0018877115799114108 -0.9794287085533142 -0.2017817199230194 
vn -0.0018877115799114108 -0.9794287085533142 -0.2017817199230194 
vn -0.935729444026947 -1.935304672594229e-13 -0.3527185618877411 
vn -0.935729444026947 -1.935304672594229e-13 -0.3527185618877411 
vn -0.935729444026947 -1.935304672594229e-13 -0.3527185618877411 
vn -0.935729444026947 -1.935304672594229e-13 -0.3527185618877411 
vn -0.999997615814209 -2.0682260971124217e-13 0.002184694167226553 
vn -0.999997615814209 -2.0682260971124217e-13 0.002184694167226553 
vn -0.999997615814209 -2.0682260971124217e-13 0.002184694167226553 
vn -0.999997615814209 -2.0682260971124217e-13 0.002184694167226553 
vn 3.097898456858039e-13 -0.999997615814209 0.002184694167226553 
vn 3.097898456858039e-13 -0.999997615814209 0.002184694167226553 
vn 3.097898456858039e-13 -0.999997615814209 0.002184694167226553 
vn 3.097898456858039e-13 -0.999997615814209 0.002184694167226553 
vn 0.999997615814209 0 0.002184694167226553 
vn 0.999997615814209 0 0.002184694167226553 
vn 0.999997615814209 0 0.002184694167226553 
vn 0.999997615814209 0 0.002184694167226553 
vn 0.999997615814209 0 0.002184694167226553 
vn 0.999997615814209 0 0.002184694167226553 
vn 0.999997615814209 0 0.002184694167226553 
vn 0.999997615814209 0 0.002184694167226553 
vn 3.097898456858039e-13 -0.999997615814209 0.002184694167226553 
vn 3.097898456858039e-13 -0.999997615814209 0.002184694167226553 
vn 3.097898456858039e-13 -0.999997615814209 0.002184694167226553 
vn 3.097898456858039e-13 -0.999997615814209 0.002184694167226553 
vn 0.999997615814209 0 0.002184694167226553 
vn 0.999997615814209 0 0.002184694167226553 
vn 0.999997615814209 0 0.002184694167226553 
vn 0.999997615814209 0 0.002184694167226553 
vn 0.999997615814209 0 0.002184694167226553 
vn -0.999997615814209 -2.0682260971124217e-13 0.002184694167226553 
vn -0.999997615814209 -2.0682260971124217e-13 0.002184694167226553 
vn -0.999997615814209 -2.0682260971124217e-13 0.002184694167226553 
vn -0.999997615814209 -2.0682260971124217e-13 0.002184694167226553 
vn -0.999997615814209 -2.0682260971124217e-13 0.002184694167226553 
vn -0.999997615814209 -2.0682260971124217e-13 0.002184694167226553 
vn -0.999997615814209 -2.0682260971124217e-13 0.002184694167226553 
vn -0.999997615814209 -2.0682260971124217e-13 0.002184694167226553 
vn 3.097898456858039e-13 -0.999997615814209 0.002184694167226553 
vn 3.097898456858039e-13 -0.999997615814209 0.002184694167226553 
vn 3.097898456858039e-13 -0.999997615814209 0.002184694167226553 
vn 3.097898456858039e-13 -0.999997615814209 0.002184694167226553 
vn 0.7071051001548767 -0.7071051001548767 0.002184694167226553 
vn 0.7071051001548767 -0.7071051001548767 0.002184694167226553 
vn 0.7071051001548767 -0.7071051001548767 0.002184694167226553 
vn 0.7071051001548767 -0.7071051001548767 0.002184694167226553 
vn -1.0341130485562108e-13 0.999997615814209 0.002184694167226553 
vn -1.0341130485562108e-13 0.999997615814209 0.002184694167226553 
vn -1.0341130485562108e-13 0.999997615814209 0.002184694167226553 
vn -1.0341130485562108e-13 0.999997615814209 0.002184694167226553 
vn 0.999997615814209 0 0.002184694167226553 
vn 0.999997615814209 0 0.002184694167226553 
vn 0.999997615814209 0 0.002184694167226553 
vn 0.999997615814209 0 0.002184694167226553 
vn 0.999997615814209 0 0.002184694167226553 
vn 0.999997615814209 0 0.002184694167226553 
vn 0.999997615814209 0 0.002184694167226553 
vn 0.999997615814209 0 0.002184694167226553 
vn 0.999997615814209 0 0.002184694167226553 
vn 0.999997615814209 0 0.002184694167226553 
vn 0.999997615814209 0 0.002184694167226553 
vn 0.999997615814209 0 0.002184694167226553 
vn 3.097898456858039e-13 -0.999997615814209 0.002184694167226553 
vn 3.097898456858039e-13 -0.999997615814209 0.002184694167226553 
vn 3.097898456858039e-13 -0.999997615814209 0.002184694167226553 
vn 3.097898456858039e-13 -0.999997615814209 0.002184694167226553 
vn -0.999997615814209 -2.0682260971124217e-13 0.002184694167226553 
vn -0.999997615814209 -2.0682260971124217e-13 0.002184694167226553 
vn -0.999997615814209 -2.0682260971124217e-13 0.002184694167226553 
vn -0.999997615814209 -2.0682260971124217e-13 0.002184694167226553 
vn -0.999997615814209 -2.0682260971124217e-13 0.002184694167226553 
vn -0.999997615814209 -2.0682260971124217e-13 0.002184694167226553 
vn -0.999997615814209 -2.0682260971124217e-13 0.002184694167226553 
vn -0.999997615814209 -2.0682260971124217e-13 0.002184694167226553 
vn -1.0341130485562108e-13 0.999997615814209 0.002184694167226553 
vn -1.0341130485562108e-13 0.999997615814209 0.002184694167226553 
vn -1.0341130485562108e-13 0.999997615814209 0.002184694167226553 
vn -1.0341130485562108e-13 0.999997615814209 0.002184694167226553 
vn -0.999997615814209 -2.0682260971124217e-13 0.002184694167226553 
vn -0.999997615814209 -2.0682260971124217e-13 0.002184694167226553 
vn -0.999997615814209 -2.0682260971124217e-13 0.002184694167226553 
vn -0.999997615814209 -2.0682260971124217e-13 0.002184694167226553 
vn 3.097898456858039e-13 -0.999997615814209 0.002184694167226553 
vn 3.097898456858039e-13 -0.999997615814209 0.002184694167226553 
vn 3.097898456858039e-13 -0.999997615814209 0.002184694167226553 
vn 3.097898456858039e-13 -0.999997615814209 0.002184694167226553 
vn 3.097898456858039e-13 -0.999997615814209 0.002184694167226553 
vn 3.097898456858039e-13 -0.999997615814209 0.002184694167226553 
vn 3.097898456858039e-13 -0.999997615814209 0.002184694167226553 
vn 3.097898456858039e-13 -0.999997615814209 0.002184694167226553 
vn -2.0682311115474694e-13 0 -1 
vn -2.0682311115474694e-13 0 -1 
vn -2.0682311115474694e-13 0 -1 
vn -2.0682311115474694e-13 0 -1 
vn 0.999997615814209 0 0.002184694167226553 
vn 0.999997615814209 0 0.002184694167226553 
vn 0.999997615814209 0 0.002184694167226553 
vn 0.999997615814209 0 0.002184694167226553 
vn -0.999997615814209 -2.0682260971124217e-13 0.002184694167226553 
vn -0.999997615814209 -2.0682260971124217e-13 0.002184694167226553 
vn -0.999997615814209 -2.0682260971124217e-13 0.002184694167226553 
vn -0.999997615814209 -2.0682260971124217e-13 0.002184694167226553 
vn -0.0018831926863640547 -0.5598737597465515 0.8285757899284363 
vn -0.0018831926863640547 -0.5598737597465515 0.8285757899284363 
vn -0.0018831926863640547 -0.5598737597465515 0.8285757899284363 
vn -0.0018831926863640547 -0.5598737597465515 0.8285757899284363 
vn 3.097898456858039e-13 -0.999997615814209 0.002184694167226553 
vn 3.097898456858039e-13 -0.999997615814209 0.002184694167226553 
vn 3.097898456858039e-13 -0.999997615814209 0.002184694167226553 
vn 3.097898456858039e-13 -0.999997615814209 0.002184694167226553 
vn -1.0341130485562108e-13 0.999997615814209 0.002184694167226553 
vn -1.0341130485562108e-13 0.999997615814209 0.002184694167226553 
vn -1.0341130485562108e-13 0.999997615814209 0.002184694167226553 
vn -1.0341130485562108e-13 0.999997615814209 0.002184694167226553 
vn -1.0341130485562108e-13 0.999997615814209 0.002184694167226553 
vn -1.0341130485562108e-13 0.999997615814209 0.002184694167226553 
vn -1.0341130485562108e-13 0.999997615814209 0.002184694167226553 
vn -1.0341130485562108e-13 0.999997615814209 0.002184694167226553 
vn -1.0341130485562108e-13 0.999997615814209 0.002184694167226553 
vn 0.003778499783948064 -0.9357218146324158 -0.3527185618877411 
vn 0.003778499783948064 -0.9357218146324158 -0.3527185618877411 
vn 0.003778499783948064 -0.9357218146324158 -0.3527185618877411 
vn 0.003778499783948064 -0.9357218146324158 -0.3527185618877411 
vn 0.003778499783948064 0.9357218146324158 -0.3527185618877411 
vn 0.003778499783948064 0.9357218146324158 -0.3527185618877411 
vn 0.003778499783948064 0.9357218146324158 -0.3527185618877411 
vn 0.003778499783948064 0.9357218146324158 -0.3527185618877411 
vn 3.097898456858039e-13 -0.999997615814209 0.002184694167226553 
vn 3.097898456858039e-13 -0.999997615814209 0.002184694167226553 
vn 3.097898456858039e-13 -0.999997615814209 0.002184694167226553 
vn 3.097898456858039e-13 -0.999997615814209 0.002184694167226553 
vn -1.0341130485562108e-13 0.999997615814209 0.002184694167226553 
vn -1.0341130485562108e-13 0.999997615814209 0.002184694167226553 
vn -1.0341130485562108e-13 0.999997615814209 0.002184694167226553 
vn -1.0341130485562108e-13 0.999997615814209 0.002184694167226553 
vn -0.999997615814209 -2.0682260971124217e-13 0.002184694167226553 
vn -0.999997615814209 -2.0682260971124217e-13 0.002184694167226553 
vn -0.999997615814209 -2.0682260971124217e-13 0.002184694167226553 
vn -0.999997615814209 -2.0682260971124217e-13 0.002184694167226553 
vn -0.999997615814209 -2.0682260971124217e-13 0.002184694167226553 
vn -0.999997615814209 -2.0682260971124217e-13 0.002184694167226553 
vn -0.999997615814209 -2.0682260971124217e-13 0.002184694167226553 
vn -0.999997615814209 -2.0682260971124217e-13 0.002184694167226553 
vn -0.999997615814209 -2.0682260971124217e-13 0.002184694167226553 
vn -0.999997615814209 -2.0682260971124217e-13 0.002184694167226553 
vn -0.999997615814209 -2.0682260971124217e-13 0.002184694167226553 
vn -0.999997615814209 -2.0682260971124217e-13 0.002184694167226553 
vn -1.0341130485562108e-13 0.999997615814209 0.002184694167226553 
vn -1.0341130485562108e-13 0.999997615814209 0.002184694167226553 
vn -1.0341130485562108e-13 0.999997615814209 0.002184694167226553 
vn -1.0341130485562108e-13 0.999997615814209 0.002184694167226553 
vn -0.947733998298645 -0.31905397772789 0.002184694167226553 
vn -0.947733998298645 -0.31905397772789 0.002184694167226553 
vn -0.947733998298645 -0.31905397772789 0.002184694167226553 
vn -0.947733998298645 -0.31905397772789 0.002184694167226553 
vn 3.097898456858039e-13 -0.999997615814209 0.002184694167226553 
vn 3.097898456858039e-13 -0.999997615814209 0.002184694167226553 
vn 3.097898456858039e-13 -0.999997615814209 0.002184694167226553 
vn 3.097898456858039e-13 -0.999997615814209 0.002184694167226553 
vn 0.999997615814209 0 0.002184694167226553 
vn 0.999997615814209 0 0.002184694167226553 
vn 0.999997615814209 0 0.002184694167226553 
vn 0.999997615814209 0 0.002184694167226553 
vn -1.0341130485562108e-13 0.999997615814209 0.002184694167226553 
vn -1.0341130485562108e-13 0.999997615814209 0.002184694167226553 
vn -1.0341130485562108e-13 0.999997615814209 0.002184694167226553 
vn -1.0341130485562108e-13 0.999997615814209 0.002184694167226553 
vn -1.0341130485562108e-13 0.999997615814209 0.002184694167226553 
vn -1.0341130485562108e-13 0.999997615814209 0.002184694167226553 
vn -1.0341130485562108e-13 0.999997615814209 0.002184694167226553 
vn -1.0341130485562108e-13 0.999997615814209 0.002184694167226553 
vn 3.097898456858039e-13 -0.999997615814209 0.002184694167226553 
vn 3.097898456858039e-13 -0.999997615814209 0.002184694167226553 
vn 3.097898456858039e-13 -0.999997615814209 0.002184694167226553 
vn 3.097898456858039e-13 -0.999997615814209 0.002184694167226553 
vn 0.999997615814209 0 0.002184694167226553 
vn 0.999997615814209 0 0.002184694167226553 
vn 0.999997615814209 0 0.002184694167226553 
vn 0.999997615814209 0 0.002184694167226553 
vn 0.999997615814209 0 0.002184694167226553 
vn 0.999997615814209 0 0.002184694167226553 
vn 0.999997615814209 0 0.002184694167226553 
vn 0.999997615814209 0 0.002184694167226553 
vn 0.999997615814209 0 0.002184694167226553 
vn 0.999997615814209 0 0.002184694167226553 
vn 0.999997615814209 0 0.002184694167226553 
vn 0.999997615814209 0 0.002184694167226553 
vn -0.999997615814209 -2.0682260971124217e-13 0.002184694167226553 
vn -0.999997615814209 -2.0682260971124217e-13 0.002184694167226553 
vn -0.999997615814209 -2.0682260971124217e-13 0.002184694167226553 
vn -0.999997615814209 -2.0682260971124217e-13 0.002184694167226553 
vn -0.999997615814209 -2.0682260971124217e-13 0.002184694167226553 
vn -0.999997615814209 -2.0682260971124217e-13 0.002184694167226553 
vn -0.999997615814209 -2.0682260971124217e-13 0.002184694167226553 
vn -0.999997615814209 -2.0682260971124217e-13 0.002184694167226553 
vn -0.999997615814209 -2.0682260971124217e-13 0.002184694167226553 
vn -1.0341130485562108e-13 0.999997615814209 0.002184694167226553 
vn -1.0341130485562108e-13 0.999997615814209 0.002184694167226553 
vn -1.0341130485562108e-13 0.999997615814209 0.002184694167226553 
vn -1.0341130485562108e-13 0.999997615814209 0.002184694167226553 
vn 0.999997615814209 0 0.002184694167226553 
vn 0.999997615814209 0 0.002184694167226553 
vn 0.999997615814209 0 0.002184694167226553 
vn 0.999997615814209 0 0.002184694167226553 
vn -1.0341130485562108e-13 0.999997615814209 0.002184694167226553 
vn -1.0341130485562108e-13 0.999997615814209 0.002184694167226553 
vn -1.0341130485562108e-13 0.999997615814209 0.002184694167226553 
vn -1.0341130485562108e-13 0.999997615814209 0.002184694167226553 
vn -2.0682311115474694e-13 0 -1 
vn -2.0682311115474694e-13 0 -1 
vn -2.0682311115474694e-13 0 -1 
vn -2.0682311115474694e-13 0 -1 
vn -2.0682311115474694e-13 0 -1 
vn -2.0682311115474694e-13 0 -1 
vn -2.0682311115474694e-13 0 -1 
vn -2.0682311115474694e-13 0 -1 
vn 0.999997615814209 0 0.002184694167226553 
vn 0.999997615814209 0 0.002184694167226553 
vn 0.999997615814209 0 0.002184694167226553 
vn 0.00376924779266119 -0.707868754863739 0.7063339352607727 
vn 0.00376924779266119 -0.707868754863739 0.7063339352607727 
vn 0.00376924779266119 -0.707868754863739 0.7063339352607727 
vn -0.0018864050507545471 -0.8346399068832397 0.5507928133010864 
vn -0.0018864050507545471 -0.8346399068832397 0.5507928133010864 
vn -0.0018864050507545471 -0.8346399068832397 0.5507928133010864 
vn 0.999997615814209 0 0.002184694167226553 
vn -0.7633545994758606 -0.31261926889419556 0.5652954578399658 
vn -0.7633545994758606 -0.31261926889419556 0.5652954578399658 
vn -0.7633545994758606 -0.31261926889419556 0.5652954578399658 
vn -0.8957543969154358 -0.4445439279079437 0.002184694167226553 
vn -0.8957543969154358 -0.4445439279079437 0.002184694167226553 
vn -0.8957543969154358 -0.4445439279079437 0.002184694167226553 
vn -0.999997615814209 -2.0682260971124217e-13 0.002184694167226553 
vn 0.6139400601387024 0.6179436445236206 0.4911448359489441 
vn 0.6139400601387024 0.6179436445236206 0.4911448359489441 
vn 0.6139400601387024 0.6179436445236206 0.4911448359489441 
vn -0.465425044298172 0.4680911600589752 0.7511792182922363 
vn -0.465425044298172 0.4680911600589752 0.7511792182922363 
vn -0.465425044298172 0.4680911600589752 0.7511792182922363 
vn -0.2186843454837799 0.89997398853302 0.37712597846984863 
vn -0.2186843454837799 0.89997398853302 0.37712597846984863 
vn -0.2186843454837799 0.89997398853302 0.37712597846984863 
vn -0.0018864050507545471 0.8346399068832397 0.5507928133010864 
vn -0.0018864050507545471 0.8346399068832397 0.5507928133010864 
vn -0.0018864050507545471 0.8346399068832397 0.5507928133010864 
vn 3.097898456858039e-13 -0.999997615814209 0.002184694167226553 
vn 3.097898456858039e-13 -0.999997615814209 0.002184694167226553 
vn 3.097898456858039e-13 -0.999997615814209 0.002184694167226553 
vn -0.7404623627662659 -0.6497864127159119 0.17173540592193604 
vn -0.7404623627662659 -0.6497864127159119 0.17173540592193604 
vn -0.7404623627662659 -0.6497864127159119 0.17173540592193604 
vn 0.8386377692222595 -0.30301013588905334 0.45262736082077026 
vn 0.8386377692222595 -0.30301013588905334 0.45262736082077026 
vn 0.8386377692222595 -0.30301013588905334 0.45262736082077026 
vn -0.0018864050507545471 -0.8346399068832397 0.5507928133010864 
vn -0.0018864050507545471 -0.8346399068832397 0.5507928133010864 
vn -0.0018864050507545471 -0.8346399068832397 0.5507928133010864 
vn 0.940263032913208 -0.34044185280799866 0.002184694167226553 
vn 0.940263032913208 -0.34044185280799866 0.002184694167226553 
vn 0.940263032913208 -0.34044185280799866 0.002184694167226553 
vn 0.940263032913208 -0.34044185280799866 0.002184694167226553 
vn 0.940263032913208 -0.34044185280799866 0.002184694167226553 
vn 0.940263032913208 -0.34044185280799866 0.002184694167226553 
vn 0.940263032913208 -0.34044185280799866 0.002184694167226553 
vn 0.940263032913208 -0.34044185280799866 0.002184694167226553 
vn 0.940263032913208 -0.34044185280799866 0.002184694167226553 
vn 0.8815931677818298 -0.060302622616291046 0.46814218163490295 
vn 0.8815931677818298 -0.060302622616291046 0.46814218163490295 
vn 0.8815931677818298 -0.060302622616291046 0.46814218163490295 
vn 0.19069908559322357 0.4505443871021271 0.872148871421814 
vn 0.19069908559322357 0.4505443871021271 0.872148871421814 
vn 0.19069908559322357 0.4505443871021271 0.872148871421814 
vn -0.001883221324533224 0.5742691159248352 0.8186644315719604 
vn -0.001883221324533224 0.5742691159248352 0.8186644315719604 
vn -0.001883221324533224 0.5742691159248352 0.8186644315719604 
vn -0.047057680785655975 0.6111325025558472 0.790128231048584 
vn -0.047057680785655975 0.6111325025558472 0.790128231048584 
vn -0.047057680785655975 0.6111325025558472 0.790128231048584 
vn -0.0018826874438673258 0.5884889960289001 0.8085030317306519 
vn -0.0018826874438673258 0.5884889960289001 0.8085030317306519 
vn -0.0018826874438673258 0.5884889960289001 0.8085030317306519 
vn 0.999997615814209 0 0.002184694167226553 
vn 0.999997615814209 0 0.002184694167226553 
vn 0.999997615814209 0 0.002184694167226553 
vn -0.9501164555549622 -0.3118877410888672 0.002184694167226553 
vn -0.9501164555549622 -0.3118877410888672 0.002184694167226553 
vn -0.9501164555549622 -0.3118877410888672 0.002184694167226553 
vn 0.999997615814209 0 0.002184694167226553 
vn 0.999997615814209 0 0.002184694167226553 
vn 0.999997615814209 0 0.002184694167226553 
vn -0.999997615814209 -2.0682260971124217e-13 0.002184694167226553 
vn -0.999997615814209 -2.0682260971124217e-13 0.002184694167226553 
vn -0.999997615814209 -2.0682260971124217e-13 0.002184694167226553 
vn 0.940263032913208 -0.34044185280799866 0.002184694167226553 
vn 0.940263032913208 -0.34044185280799866 0.002184694167226553 
vn 0.940263032913208 -0.34044185280799866 0.002184694167226553 
vt -1.0273112058639526 -0.00000522680011272314 
vt 8.951169967651367 4.7559003829956055 
vt 0.9667841196060181 -0.00000522680011272314 
vt 6.380882263183594 2.775388479232788 
vt 10.001983642578125 1.400373101234436 
vt 10.244096755981445 0.9667811393737793 
vt -0.000013175200365367346 0.9667811393737793 
vt -0.9023352861404419 0.48237520456314087 
vt 0.9667841196060181 -3.2246224880218506 
vt -1.0273112058639526 -3.2246224880218506 
vt 0.9667841196060181 0.9667811393737793 
vt -1.0273112058639526 0.9667811393737793 
vt -0.000013175200365367346 0.9667811393737793 
vt 1.9647701978683472 0.9667811393737793 
vt -0.000013175200365367346 0.46678754687309265 
vt 1.9647701978683472 0.46881306171417236 
vt 2.339808464050293 0.2948831021785736 
vt -0.15430109202861786 0.2948831021785736 
vt 2.2147774696350098 0.9667811393737793 
vt -0.000013175200365367346 0.9667811393737793 
vt 0.9667841196060181 -0.00000522680011272314 
vt -1.0273112058639526 -0.00000522680011272314 
vt 0.9667841196060181 4.15819787979126 
vt -1.0273112058639526 4.15819787979126 
vt 2.96286678314209 4.15819787979126 
vt 4.9590044021606445 4.15819787979126 
vt 2.96286678314209 -0.00000522680011272314 
vt 4.9590044021606445 -0.00000522680011272314 
vt -1.0273112058639526 -1.2792930603027344 
vt -1.0273112058639526 0.9667811393737793 
vt 0.9667841196060181 -1.2792930603027344 
vt 0.9667841196060181 0.9667811393737793 
vt -1.402294397354126 0.6405854225158691 
vt 0.8418081998825073 0.6405854225158691 
vt -1.5253934860229492 -0.00000522680011272314 
vt 0.9667841196060181 -0.00000522680011272314 
vt 1.2167912721633911 0.3301094174385071 
vt -1.2773183584213257 0.3301094174385071 
vt 0.9667841196060181 0.9667811393737793 
vt -1.0273112058639526 0.9667811393737793 
vt -1.0273112058639526 0.9667811393737793 
vt 0.9667841196060181 0.9667811393737793 
vt -1.2773183584213257 0.3301094174385071 
vt 1.2167912721633911 0.3301094174385071 
vt 4.9590044021606445 -0.00000522680011272314 
vt -0.42771363258361816 -0.00000522680011272314 
vt 4.583966255187988 1.0331827402114868 
vt -0.054717764258384705 1.0331827402114868 
vt -0.000013175200365367346 -0.00000522680011272314 
vt -0.000013175200365367346 0.46678754687309265 
vt 5.956990718841553 -0.00000522680011272314 
vt 5.956990718841553 0.46678754687309265 
vt 0.9667841196060181 -0.00000522680011272314 
vt -1.0273112058639526 -0.00000522680011272314 
vt 0.9667841196060181 4.15819787979126 
vt -1.0273112058639526 4.15819787979126 
vt 2.96286678314209 4.15819787979126 
vt 4.9590044021606445 4.15819787979126 
vt 2.96286678314209 -0.00000522680011272314 
vt 4.9590044021606445 -0.00000522680011272314 
vt 1.9647701978683472 -0.2305174618959427 
vt -0.000013175200365367346 -0.2305174618959427 
vt 1.9647701978683472 -0.00000522680011272314 
vt -0.000013175200365367346 -0.00000522680011272314 
vt -3.0233938694000244 0.46678754687309265 
vt 0.9667841196060181 0.46881306171417236 
vt -3.0233938694000244 -0.00000522680011272314 
vt 0.9667841196060181 -0.00000522680011272314 
vt 5.956990718841553 -0.00000522680011272314 
vt 1.945284128189087 -0.00000522680011272314 
vt 5.956990718841553 2.050783157348633 
vt -0.000013175200365367346 5.955092430114746 
vt -0.000013175200365367346 6.353501796722412 
vt -0.000013175200365367346 0.9667811393737793 
vt -0.000013175200365367346 0.46678754687309265 
vt 0.47267642617225647 0.9667811393737793 
vt 0.47267642617225647 0.46678754687309265 
vt 3.462881088256836 0.46678754687309265 
vt 2.96286678314209 0.46881306171417236 
vt 3.462881088256836 2.9608991146087646 
vt 2.96286678314209 2.9608991146087646 
vt 0.46676987409591675 2.9608991146087646 
vt 0.9667841196060181 2.9608991146087646 
vt 0.46676987409591675 0.46881306171417236 
vt 0.9667841196060181 0.46881306171417236 
vt 3.4979891777038574 -0.00000522680011272314 
vt -0.000013175200365367346 -0.00000522680011272314 
vt 3.4979891777038574 6.353501796722412 
vt -0.000013175200365367346 6.353501796722412 
vt 0.47267642617225647 0.46678754687309265 
vt -0.000013175200365367346 0.46881306171417236 
vt 0.47267642617225647 0.9667811393737793 
vt -0.000013175200365367346 0.9667811393737793 
vt -0.000013175200365367346 0.9667811393737793 
vt 1.9647701978683472 0.9667811393737793 
vt -0.000013175200365367346 0.46678754687309265 
vt 1.9647701978683472 0.46678754687309265 
vt -2.0254077911376953 2.9608991146087646 
vt -2.5254220962524414 2.9608991146087646 
vt -2.0254077911376953 0.46881306171417236 
vt -2.5254220962524414 0.46881306171417236 
vt -0.000013175200365367346 0.46881306171417236 
vt -0.000013175200365367346 0.9667811393737793 
vt 0.47267642617225647 0.46678754687309265 
vt 0.47267642617225647 0.9667811393737793 
vt -0.000013175200365367346 0.46881306171417236 
vt 0.47267642617225647 0.46678754687309265 
vt -0.000013175200365367346 0.9667811393737793 
vt 0.47267642617225647 0.9667811393737793 
vt -2.0254077911376953 0.46881306171417236 
vt -2.5254220962524414 0.46881306171417236 
vt -2.0254077911376953 2.9608991146087646 
vt -2.52343487739563 2.9608991146087646 
vt -0.000013175200365367346 -0.00000522680011272314 
vt -0.000013175200365367346 0.46881306171417236 
vt 5.956990718841553 -0.00000522680011272314 
vt 5.956990718841553 0.46678754687309265 
vt -0.5272969603538513 0.46881306171417236 
vt -0.000013175200365367346 0.46881306171417236 
vt -0.5292841792106628 2.9608991146087646 
vt -0.000013175200365367346 2.9608991146087646 
vt -1.0273112058639526 0.9667811393737793 
vt 0.9667841196060181 0.9667811393737793 
vt -1.0273112058639526 0.46881306171417236 
vt 0.9667841196060181 0.46678754687309265 
vt -2.0254077911376953 2.9608991146087646 
vt -1.5273255109786987 2.9608991146087646 
vt -2.0254077911376953 0.46881306171417236 
vt -1.5253934860229492 0.46881306171417236 
vt -0.5292841792106628 2.9608991146087646 
vt -0.000013175200365367346 2.9608991146087646 
vt -0.5272969603538513 0.46881306171417236 
vt -0.000013175200365367346 0.46881306171417236 
vt 0.9667841196060181 0.9667811393737793 
vt 0.9667841196060181 -3.0254178047180176 
vt -3.0233938694000244 0.9667811393737793 
vt -3.0233938694000244 -3.0254178047180176 
vt -0.000013175200365367346 -0.00000522680011272314 
vt 1.9647701978683472 -0.00000522680011272314 
vt -0.000013175200365367346 -0.2305174618959427 
vt 1.9647701978683472 -0.2305174618959427 
vt -2.52343487739563 2.9608991146087646 
vt -2.0254077911376953 2.9608991146087646 
vt -2.52343487739563 0.46881306171417236 
vt -2.0254077911376953 0.46881306171417236 
vt 0.5819751620292664 6.142584323883057 
vt 0.9667841196060181 -0.00000522680011272314 
vt -0.695330023765564 6.142584323883057 
vt -0.695330023765564 -0.00000522680011272314 
vt 10.244096755981445 0.9667811393737793 
vt 10.001983642578125 1.400373101234436 
vt -0.9023352861404419 0.48237520456314087 
vt -0.000013175200365367346 0.9667811393737793 
vt -3.0233938694000244 -0.00000522680011272314 
vt 0.9667841196060181 -0.00000522680011272314 
vt -3.0233938694000244 0.46881306171417236 
vt 0.9667841196060181 0.46881306171417236 
vt -0.000013175200365367346 -0.00000522680011272314 
vt -0.000013175200365367346 4.15819787979126 
vt 6.355489730834961 -0.00000522680011272314 
vt 13.941376686096191 4.15819787979126 
vt 6.355489730834961 -0.5293247103691101 
vt -4.021490573883057 1.8593720197677612 
vt 0.9667841196060181 1.8593720197677612 
vt -4.021490573883057 2.6620917320251465 
vt 0.5918010473251343 2.6620917320251465 
vt -4.021490573883057 -0.00000522680011272314 
vt -4.021490573883057 1.0331827402114868 
vt 0.9667841196060181 -0.00000522680011272314 
vt 0.5918010473251343 1.0331827402114868 
vt 0.9667841196060181 2.9608991146087646 
vt -2.5254220962524414 2.9608991146087646 
vt 0.9667841196060181 3.460892677307129 
vt -2.5254220962524414 3.460892677307129 
vt -2.5254220962524414 2.9608991146087646 
vt 0.9667841196060181 2.9608991146087646 
vt -2.5254220962524414 3.460892677307129 
vt 0.9667841196060181 3.460892677307129 
vt -3.0233938694000244 -4.023423194885254 
vt -8.42772102355957 -4.023423194885254 
vt -3.0233938694000244 -3.525411367416382 
vt -2.2813215255737305 -1.0293183326721191 
vt 2.2089812755584717 -1.0293183326721191 
vt 2.96286678314209 -3.525411367416382 
vt 12.943389892578125 1.9628933668136597 
vt 2.2089812755584717 -0.5313062071800232 
vt 3.4608938694000244 4.458986282348633 
vt -5.019531726837158 4.458986282348633 
vt -2.2813215255737305 -0.5313062071800232 
vt -15 5.955092430114746 
vt -1.0273112058639526 4.15819787979126 
vt 0.9667841196060181 4.15819787979126 
vt -1.0273112058639526 -0.00000522680011272314 
vt 0.9667841196060181 -0.00000522680011272314 
vt 1.0546647310256958 5.955092430114746 
vt 1.0546647310256958 2.9608991146087646 
vt -5.255904197692871 -0.00000522680011272314 
vt -1.0273112058639526 -0.00000522680011272314 
vt 1.9647701978683472 0.46881306171417236 
vt -0.000013175200365367346 0.46881306171417236 
vt 1.9647701978683472 0.9667811393737793 
vt -0.000013175200365367346 0.9667811393737793 
vt 2.96286678314209 0.46881306171417236 
vt 3.462881088256836 0.46678754687309265 
vt 2.96286678314209 2.9608991146087646 
vt 3.462881088256836 2.9608991146087646 
vt -0.000013175200365367346 2.9608991146087646 
vt -0.5292841792106628 2.9608991146087646 
vt -0.000013175200365367346 0.46881306171417236 
vt -0.5292841792106628 0.46881306171417236 
vt -2.0254077911376953 0.46881306171417236 
vt -1.5253934860229492 0.46881306171417236 
vt -2.0254077911376953 2.9608991146087646 
vt -1.5273255109786987 2.9608991146087646 
vt -0.5292841792106628 0.46881306171417236 
vt -1.0273112058639526 0.46881306171417236 
vt -0.5292841792106628 2.9608991146087646 
vt -1.0273112058639526 2.9608991146087646 
vt 2.96286678314209 0.46881306171417236 
vt 3.462881088256836 0.46678754687309265 
vt 2.96286678314209 2.9608991146087646 
vt 3.462881088256836 2.9608991146087646 
vt -0.000013175200365367346 -3.2246224880218506 
vt -0.000013175200365367346 0.9667811393737793 
vt 3.9609081745147705 -3.2246224880218506 
vt 3.9609081745147705 0.9667811393737793 
vt -0.000013175200365367346 -0.00000522680011272314 
vt 1.9647701978683472 -0.00000522680011272314 
vt -0.000013175200365367346 -0.2305174618959427 
vt 1.9647701978683472 -0.2305174618959427 
vt 3.4608938694000244 0.46678754687309265 
vt 2.96286678314209 0.46881306171417236 
vt 3.462881088256836 2.9608991146087646 
vt 2.96286678314209 2.9608991146087646 
vt -5.019531726837158 -0.00000522680011272314 
vt -5.019531726837158 2.050783157348633 
vt -1.0078251361846924 -0.00000522680011272314 
vt 0.9667841196060181 6.353501796722412 
vt 0.9667841196060181 2.9608991146087646 
vt -2.0254077911376953 0.46881306171417236 
vt -1.5273255109786987 0.46881306171417236 
vt -2.0254077911376953 2.9608991146087646 
vt -1.5273255109786987 2.9608991146087646 
vt -2.0254077911376953 2.9608991146087646 
vt -2.52343487739563 2.9608991146087646 
vt -2.0254077911376953 0.46881306171417236 
vt -2.52343487739563 0.46881306171417236 
vt -1.0273112058639526 4.15819787979126 
vt 0.9667841196060181 4.15819787979126 
vt -1.0273112058639526 -0.00000522680011272314 
vt 0.9667841196060181 -0.00000522680011272314 
vt -3.0233938694000244 3.460892677307129 
vt -0.2813194990158081 1.9628933668136597 
vt -3.0233938694000244 -0.00000522680011272314 
vt -0.2813194990158081 1.458980917930603 
vt 2.96286678314209 -0.00000522680011272314 
vt 0.2206820249557495 1.458980917930603 
vt 0.2206820249557495 1.9628933668136597 
vt 2.96286678314209 3.460892677307129 
vt -0.000013175200365367346 0.9667811393737793 
vt 3.9609081745147705 0.9667811393737793 
vt -10.009793281555176 -3.824218511581421 
vt -0.8438217639923096 5.955092430114746 
vt 1.9647701978683472 5.955092430114746 
vt 0.5585697889328003 -0.007799050305038691 
vt 0.9667841196060181 -0.00000522680011272314 
vt 0.49608179926872253 -0.00000522680011272314 
vt 0.9667841196060181 1.9628933668136597 
vt -0.000013175200365367346 2.9608991146087646 
vt 8.896465301513672 5.955092430114746 
vt 4.431610584259033 -0.00000522680011272314 
vt -0.000013175200365367346 0.46881306171417236 
vt 4.431610584259033 -0.00000522680011272314 
vt -0.000013175200365367346 -0.00000522680011272314 
vt -0.000013175200365367346 0.46881306171417236 
vt -5.019531726837158 5.955092430114746 
vt 10.554659843444824 11.103463172912598 
vt 9.949155807495117 -0.00000522680011272314 
vt -0.000013175200365367346 -0.00000522680011272314 
vt 5.956990718841553 14.195277214050293 
vt 1.9647701978683472 -0.00000522680011272314 
vt -1.326226830482483 6.617170810699463 
vt 6.511709690093994 -0.00000522680011272314 
vt -0.000013175200365367346 -0.00000522680011272314 
vt -3.9863271713256836 10.394489288330078 
vt -8.97658920288086 10.394489288330078 
vt 1.1836152076721191 10.564499855041504 
vt 1.52150297164917 -0.00000522680011272314 
vt 0.9667841196060181 -0.00000522680011272314 
vt -0.5272969603538513 -0.00000522680011272314 
vt -0.5272969603538513 6.353501796722412 
vt -0.34380748867988586 1.0155695676803589 
vt 4.9590044021606445 1.0155695676803589 
vt 0.6405990719795227 -5.371094226837158 
vt -1.0292984247207642 6.275387763977051 
vt 3.7168076038360596 -0.00000522680011272314 
vt -0.000013175200365367346 -0.00000522680011272314 
vt 0.4530799090862274 1.9628933668136597 
vt 0.9667841196060181 -0.00000522680011272314 
vt 0.4530799090862274 -0.00000522680011272314 
vt -0.000013175200365367346 6.353501796722412 
vt 2.0723025798797607 -0.00000522680011272314 
vt -0.000013175200365367346 2.9608991146087646 
vt -0.000013175200365367346 6.353501796722412 
vt 5.810486316680908 6.353501796722412 
vt 2.0723025798797607 -0.00000522680011272314 
vt 5.810486316680908 6.353501796722412 
vt 5.810486316680908 -0.00000522680011272314 
vt 2.0723025798797607 -0.00000522680011272314 
vt 3.9609081745147705 0.46881306171417236 
vt -8.013710975646973 -4.820286750793457 
vt -0.000013175200365367346 0.9667811393737793 
vt -0.000013175200365367346 -2.2793242931365967 
vt 4.5585737228393555 -8.890600204467773 
vt -0.000013175200365367346 -8.281316757202148 
vt -0.000013175200365367346 -2.2793242931365967 
vt 6.554656028747559 -8.890600204467773 
vt 4.5585737228393555 -8.890600204467773 
vt 6.554656028747559 -8.890600204467773 
vt -0.000013175200365367346 -2.2793242931365967 
vt -0.000013175200365367346 0.9667811393737793 
vt 6.554656028747559 -8.890600204467773 
vt -0.000013175200365367346 0.9667811393737793 
vt 2.96286678314209 0.9667811393737793 
vt 3.9609081745147705 0.9667811393737793 
vt 3.9609081745147705 0.46881306171417236 
vt -0.000013175200365367346 0.9667811393737793 
vt 1.0546647310256958 2.9608991146087646 
vt 1.0546647310256958 -0.00000522680011272314 
vt -1.0273112058639526 -0.00000522680011272314 
vt 1.945284128189087 -0.00000522680011272314 
vt -0.000013175200365367346 -0.00000522680011272314 
vt -0.000013175200365367346 2.9608991146087646 
vt 0.9667841196060181 2.9608991146087646 
vt 0.9667841196060181 -0.00000522680011272314 
vt -1.0078251361846924 -0.00000522680011272314 
vt -0.000013175200365367346 2.9608991146087646 
vt 2.0723025798797607 -0.00000522680011272314 
vt -0.000013175200365367346 -0.00000522680011272314 
s on 
f 1/1/1 2/2/2 3/3/3 
f 2/2/2 4/4/4 3/3/3 
f 3/3/3 4/4/4 4/4/4 
f 4/4/4 5/5/5 4/4/4 
f 4/4/4 5/5/5 5/5/5 
f 5/5/5 6/6/6 5/5/5 
f 5/5/5 6/6/6 7/7/7 
f 6/6/6 8/8/8 7/7/7 
f 7/7/7 8/8/8 8/8/8 
f 8/8/8 9/9/9 8/8/8 
f 8/8/8 9/9/9 9/9/9 
f 9/9/9 10/10/10 9/9/9 
f 9/9/9 10/10/10 11/11/11 
f 10/10/10 12/12/12 11/11/11 
f 11/11/11 12/12/12 12/12/12 
f 12/12/12 13/13/13 12/12/12 
f 12/12/12 13/13/13 13/13/13 
f 13/13/13 14/14/14 13/13/13 
f 13/13/13 14/14/14 15/15/15 
f 14/14/14 16/16/16 15/15/15 
f 15/15/15 16/16/16 16/16/16 
f 16/16/16 17/17/17 16/16/16 
f 16/16/16 17/17/17 17/17/17 
f 17/17/17 18/18/18 17/17/17 
f 17/17/17 18/18/18 19/19/19 
f 18/18/18 20/20/20 19/19/19 
f 19/19/19 20/20/20 20/20/20 
f 20/20/20 21/21/21 20/20/20 
f 20/20/20 21/21/21 21/21/21 
f 21/21/21 22/22/22 21/21/21 
f 21/21/21 22/22/22 23/23/23 
f 22/22/22 24/24/24 23/23/23 
f 23/23/23 24/24/24 24/24/24 
f 24/24/24 25/25/25 24/24/24 
f 24/24/24 25/25/25 25/25/25 
f 25/25/25 26/26/26 25/25/25 
f 25/25/25 26/26/26 27/27/27 
f 26/26/26 28/28/28 27/27/27 
f 27/27/27 28/28/28 28/28/28 
f 28/28/28 29/29/29 28/28/28 
f 28/28/28 29/29/29 29/29/29 
f 29/29/29 30/30/30 29/29/29 
f 29/29/29 30/30/30 31/31/31 
f 30/30/30 32/32/32 31/31/31 
f 31/31/31 32/32/32 32/32/32 
f 32/32/32 33/33/33 32/32/32 
f 32/32/32 33/33/33 33/33/33 
f 33/33/33 34/34/34 33/33/33 
f 33/33/33 34/34/34 35/35/35 
f 34/34/34 36/36/36 35/35/35 
f 35/35/35 36/36/36 36/36/36 
f 36/36/36 37/37/37 36/36/36 
f 36/36/36 37/37/37 37/37/37 
f 37/37/37 38/38/38 37/37/37 
f 37/37/37 38/38/38 39/39/39 
f 38/38/38 40/40/40 39/39/39 
f 39/39/39 40/40/40 40/40/40 
f 40/40/40 41/41/41 40/40/40 
f 40/40/40 41/41/41 41/41/41 
f 41/41/41 42/42/42 41/41/41 
f 41/41/41 42/42/42 43/43/43 
f 42/42/42 44/44/44 43/43/43 
f 43/43/43 44/44/44 44/44/44 
f 44/44/44 45/45/45 44/44/44 
f 44/44/44 45/45/45 45/45/45 
f 45/45/45 46/46/46 45/45/45 
f 45/45/45 46/46/46 47/47/47 
f 46/46/46 48/48/48 47/47/47 
f 47/47/47 48/48/48 48/48/48 
f 48/48/48 49/49/49 48/48/48 
f 48/48/48 49/49/49 49/49/49 
f 49/49/49 50/50/50 49/49/49 
f 49/49/49 50/50/50 51/51/51 
f 50/50/50 52/52/52 51/51/51 
f 51/51/51 52/52/52 52/52/52 
f 52/52/52 53/53/53 52/52/52 
f 52/52/52 53/53/53 53/53/53 
f 53/53/53 54/54/54 53/53/53 
f 53/53/53 54/54/54 55/55/55 
f 54/54/54 56/56/56 55/55/55 
f 55/55/55 56/56/56 56/56/56 
f 56/56/56 57/57/57 56/56/56 
f 56/56/56 57/57/57 57/57/57 
f 57/57/57 58/58/58 57/57/57 
f 57/57/57 58/58/58 59/59/59 
f 58/58/58 60/60/60 59/59/59 
f 59/59/59 60/60/60 60/60/60 
f 60/60/60 61/61/61 60/60/60 
f 60/60/60 61/61/61 61/61/61 
f 61/61/61 62/62/62 61/61/61 
f 61/61/61 62/62/62 63/63/63 
f 62/62/62 64/64/64 63/63/63 
f 63/63/63 64/64/64 64/64/64 
f 64/64/64 65/65/65 64/64/64 
f 64/64/64 65/65/65 65/65/65 
f 65/65/65 66/66/66 65/65/65 
f 65/65/65 66/66/66 67/67/67 
f 66/66/66 68/68/68 67/67/67 
f 67/67/67 68/68/68 68/68/68 
f 68/68/68 69/69/69 68/68/68 
f 68/68/68 69/69/69 69/69/69 
f 69/69/69 70/70/70 69/69/69 
f 69/69/69 70/70/70 71/71/71 
f 70/70/70 72/72/72 71/71/71 
f 71/71/71 72/72/72 73/73/73 
f 72/72/72 73/73/73 73/73/73 
f 73/73/73 73/73/73 74/74/74 
f 73/73/73 74/74/74 74/74/74 
f 74/74/74 74/74/74 74/74/74 
f 74/74/74 75/75/75 74/74/74 
f 74/74/74 75/75/75 76/76/76 
f 75/75/75 77/77/77 76/76/76 
f 76/76/76 77/77/77 77/77/77 
f 77/77/77 78/78/78 77/77/77 
f 77/77/77 78/78/78 78/78/78 
f 78/78/78 79/79/79 78/78/78 
f 78/78/78 79/79/79 80/80/80 
f 79/79/79 81/81/81 80/80/80 
f 80/80/80 81/81/81 81/81/81 
f 81/81/81 82/82/82 81/81/81 
f 81/81/81 82/82/82 82/82/82 
f 82/82/82 83/83/83 82/82/82 
f 82/82/82 83/83/83 84/84/84 
f 83/83/83 85/85/85 84/84/84 
f 84/84/84 85/85/85 85/85/85 
f 85/85/85 86/86/86 85/85/85 
f 85/85/85 86/86/86 86/86/86 
f 86/86/86 87/87/87 86/86/86 
f 86/86/86 87/87/87 88/88/88 
f 87/87/87 89/89/89 88/88/88 
f 88/88/88 89/89/89 89/89/89 
f 89/89/89 90/90/90 89/89/89 
f 89/89/89 90/90/90 90/90/90 
f 90/90/90 91/91/91 90/90/90 
f 90/90/90 91/91/91 92/92/92 
f 91/91/91 93/93/93 92/92/92 
f 92/92/92 93/93/93 93/93/93 
f 93/93/93 94/94/94 93/93/93 
f 93/93/93 94/94/94 94/94/94 
f 94/94/94 95/95/95 94/94/94 
f 94/94/94 95/95/95 96/96/96 
f 95/95/95 97/97/97 96/96/96 
f 96/96/96 97/97/97 97/97/97 
f 97/97/97 98/98/98 97/97/97 
f 97/97/97 98/98/98 98/98/98 
f 98/98/98 99/99/99 98/98/98 
f 98/98/98 99/99/99 100/100/100 
f 99/99/99 101/101/101 100/100/100 
f 100/100/100 101/101/101 101/101/101 
f 101/101/101 102/102/102 101/101/101 
f 101/101/101 102/102/102 102/102/102 
f 102/102/102 103/103/103 102/102/102 
f 102/102/102 103/103/103 104/104/104 
f 103/103/103 105/105/105 104/104/104 
f 104/104/104 105/105/105 105/105/105 
f 105/105/105 106/106/106 105/105/105 
f 105/105/105 106/106/106 106/106/106 
f 106/106/106 107/107/107 106/106/106 
f 106/106/106 107/107/107 108/108/108 
f 107/107/107 109/109/109 108/108/108 
f 108/108/108 109/109/109 109/109/109 
f 109/109/109 110/110/110 109/109/109 
f 109/109/109 110/110/110 110/110/110 
f 110/110/110 111/111/111 110/110/110 
f 110/110/110 111/111/111 112/112/112 
f 111/111/111 113/113/113 112/112/112 
f 112/112/112 113/113/113 113/113/113 
f 113/113/113 114/114/114 113/113/113 
f 113/113/113 114/114/114 114/114/114 
f 114/114/114 115/115/115 114/114/114 
f 114/114/114 115/115/115 116/116/116 
f 115/115/115 117/117/117 116/116/116 
f 116/116/116 117/117/117 117/117/117 
f 117/117/117 118/118/118 117/117/117 
f 117/117/117 118/118/118 118/118/118 
f 118/118/118 119/119/119 118/118/118 
f 118/118/118 119/119/119 120/120/120 
f 119/119/119 121/121/121 120/120/120 
f 120/120/120 121/121/121 121/121/121 
f 121/121/121 122/122/122 121/121/121 
f 121/121/121 122/122/122 122/122/122 
f 122/122/122 123/123/123 122/122/122 
f 122/122/122 123/123/123 124/124/124 
f 123/123/123 125/125/125 124/124/124 
f 124/124/124 125/125/125 125/125/125 
f 125/125/125 126/126/126 125/125/125 
f 125/125/125 126/126/126 126/126/126 
f 126/126/126 127/127/127 126/126/126 
f 126/126/126 127/127/127 128/128/128 
f 127/127/127 129/129/129 128/128/128 
f 128/128/128 129/129/129 129/129/129 
f 129/129/129 130/130/130 129/129/129 
f 129/129/129 130/130/130 130/130/130 
f 130/130/130 131/131/131 130/130/130 
f 130/130/130 131/131/131 132/132/132 
f 131/131/131 133/133/133 132/132/132 
f 132/132/132 133/133/133 133/133/133 
f 133/133/133 134/134/134 133/133/133 
f 133/133/133 134/134/134 134/134/134 
f 134/134/134 135/135/135 134/134/134 
f 134/134/134 135/135/135 136/136/136 
f 135/135/135 137/137/137 136/136/136 
f 136/136/136 137/137/137 137/137/137 
f 137/137/137 138/138/138 137/137/137 
f 137/137/137 138/138/138 138/138/138 
f 138/138/138 139/139/139 138/138/138 
f 138/138/138 139/139/139 140/140/140 
f 139/139/139 141/141/141 140/140/140 
f 140/140/140 141/141/141 141/141/141 
f 141/141/141 142/142/142 141/141/141 
f 141/141/141 142/142/142 142/142/142 
f 142/142/142 143/143/143 142/142/142 
f 142/142/142 143/143/143 144/144/144 
f 143/143/143 145/145/145 144/144/144 
f 144/144/144 145/145/145 145/145/145 
f 145/145/145 146/146/146 145/145/145 
f 145/145/145 146/146/146 146/146/146 
f 146/146/146 147/147/147 146/146/146 
f 146/146/146 147/147/147 148/148/148 
f 147/147/147 149/149/149 148/148/148 
f 148/148/148 149/149/149 149/149/149 
f 149/149/149 150/150/150 149/149/149 
f 149/149/149 150/150/150 150/150/150 
f 150/150/150 151/151/151 150/150/150 
f 150/150/150 151/151/151 152/152/152 
f 151/151/151 153/153/153 152/152/152 
f 152/152/152 153/153/153 153/153/153 
f 153/153/153 154/154/154 153/153/153 
f 153/153/153 154/154/154 154/154/154 
f 154/154/154 155/155/155 154/154/154 
f 154/154/154 155/155/155 156/156/156 
f 155/155/155 157/157/157 156/156/156 
f 156/156/156 157/157/157 157/157/157 
f 157/157/157 158/158/158 157/157/157 
f 157/157/157 158/158/158 158/158/158 
f 158/158/158 159/159/159 158/158/158 
f 158/158/158 159/159/159 160/160/160 
f 159/159/159 161/161/161 160/160/160 
f 160/160/160 161/161/161 162/162/162 
f 161/161/161 162/162/162 162/162/162 
f 162/162/162 162/162/162 163/163/163 
f 162/162/162 163/163/163 163/163/163 
f 163/163/163 163/163/163 163/163/163 
f 163/163/163 164/164/164 163/163/163 
f 163/163/163 164/164/164 165/165/165 
f 164/164/164 166/166/166 165/165/165 
f 165/165/165 166/166/166 166/166/166 
f 166/166/166 167/167/167 166/166/166 
f 166/166/166 167/167/167 167/167/167 
f 167/167/167 168/168/168 167/167/167 
f 167/167/167 168/168/168 169/169/169 
f 168/168/168 170/170/170 169/169/169 
f 169/169/169 170/170/170 170/170/170 
f 170/170/170 171/171/171 170/170/170 
f 170/170/170 171/171/171 171/171/171 
f 171/171/171 172/172/172 171/171/171 
f 171/171/171 172/172/172 173/173/173 
f 172/172/172 174/174/174 173/173/173 
f 173/173/173 174/174/174 174/174/174 
f 174/174/174 175/175/175 174/174/174 
f 174/174/174 175/175/175 175/175/175 
f 175/175/175 176/176/176 175/175/175 
f 175/175/175 176/176/176 177/177/177 
f 176/176/176 178/178/178 177/177/177 
f 177/177/177 178/178/178 178/178/178 
f 178/178/178 179/179/179 178/178/178 
f 178/178/178 179/179/179 179/179/179 
f 179/179/179 180/180/180 179/179/179 
f 179/179/179 180/180/180 181/181/181 
f 180/180/180 182/182/182 181/181/181 
f 181/181/181 182/182/182 183/183/183 
f 182/182/182 183/183/183 183/183/183 
f 183/183/183 183/183/183 181/181/181 
f 183/183/183 181/181/181 181/181/181 
f 181/181/181 181/181/181 181/181/181 
f 181/181/181 183/183/183 181/181/181 
f 181/181/181 183/183/183 184/184/184 
f 183/183/183 185/185/185 184/184/184 
f 184/184/184 185/185/185 185/185/185 
f 185/185/185 183/183/183 185/185/185 
f 185/185/185 183/183/183 183/183/183 
f 183/183/183 186/186/186 183/183/183 
f 183/183/183 186/186/186 185/185/185 
f 186/186/186 187/187/187 185/185/185 
f 185/185/185 187/187/187 187/187/187 
f 187/187/187 186/186/186 187/187/187 
f 187/187/187 186/186/186 188/188/188 
f 186/186/186 189/189/189 188/188/188 
f 188/188/188 189/189/189 190/190/190 
f 189/189/189 182/182/182 190/190/190 
f 190/190/190 182/182/182 180/180/180 
f 182/182/182 180/180/180 180/180/180 
f 180/180/180 180/180/180 191/191/191 
f 180/180/180 191/191/191 191/191/191 
f 191/191/191 191/191/191 191/191/191 
f 191/191/191 192/192/192 191/191/191 
f 191/191/191 192/192/192 193/193/193 
f 192/192/192 194/194/194 193/193/193 
f 193/193/193 194/194/194 194/194/194 
f 194/194/194 195/195/195 194/194/194 
f 194/194/194 195/195/195 195/195/195 
f 195/195/195 196/196/196 195/195/195 
f 195/195/195 196/196/196 197/197/197 
f 196/196/196 198/198/198 197/197/197 
f 197/197/197 198/198/198 198/198/198 
f 198/198/198 199/199/199 198/198/198 
f 198/198/198 199/199/199 199/199/199 
f 199/199/199 200/200/200 199/199/199 
f 199/199/199 200/200/200 201/201/201 
f 200/200/200 202/202/202 201/201/201 
f 201/201/201 202/202/202 202/202/202 
f 202/202/202 203/203/203 202/202/202 
f 202/202/202 203/203/203 203/203/203 
f 203/203/203 204/204/204 203/203/203 
f 203/203/203 204/204/204 205/205/205 
f 204/204/204 206/206/206 205/205/205 
f 205/205/205 206/206/206 206/206/206 
f 206/206/206 207/207/207 206/206/206 
f 206/206/206 207/207/207 207/207/207 
f 207/207/207 208/208/208 207/207/207 
f 207/207/207 208/208/208 209/209/209 
f 208/208/208 210/210/210 209/209/209 
f 209/209/209 210/210/210 210/210/210 
f 210/210/210 211/211/211 210/210/210 
f 210/210/210 211/211/211 211/211/211 
f 211/211/211 212/212/212 211/211/211 
f 211/211/211 212/212/212 213/213/213 
f 212/212/212 214/214/214 213/213/213 
f 213/213/213 214/214/214 214/214/214 
f 214/214/214 215/215/215 214/214/214 
f 214/214/214 215/215/215 215/215/215 
f 215/215/215 216/216/216 215/215/215 
f 215/215/215 216/216/216 217/217/217 
f 216/216/216 218/218/218 217/217/217 
f 217/217/217 218/218/218 218/218/218 
f 218/218/218 219/219/219 218/218/218 
f 218/218/218 219/219/219 219/219/219 
f 219/219/219 220/220/220 219/219/219 
f 219/219/219 220/220/220 221/221/221 
f 220/220/220 222/222/222 221/221/221 
f 221/221/221 222/222/222 222/222/222 
f 222/222/222 223/223/223 222/222/222 
f 222/222/222 223/223/223 223/223/223 
f 223/223/223 224/224/224 223/223/223 
f 223/223/223 224/224/224 225/225/225 
f 224/224/224 226/226/226 225/225/225 
f 225/225/225 226/226/226 226/226/226 
f 226/226/226 227/227/227 226/226/226 
f 226/226/226 227/227/227 227/227/227 
f 227/227/227 228/228/228 227/227/227 
f 227/227/227 228/228/228 229/229/229 
f 228/228/228 230/230/230 229/229/229 
f 229/229/229 230/230/230 230/230/230 
f 230/230/230 231/231/231 230/230/230 
f 230/230/230 231/231/231 231/231/231 
f 231/231/231 232/232/232 231/231/231 
f 231/231/231 232/232/232 233/233/233 
f 232/232/232 234/234/234 233/233/233 
f 233/233/233 234/234/234 234/234/234 
f 234/234/234 235/235/235 234/234/234 
f 234/234/234 235/235/235 235/235/235 
f 235/235/235 236/236/236 235/235/235 
f 235/235/235 236/236/236 237/237/237 
f 236/236/236 238/238/238 237/237/237 
f 237/237/237 238/238/238 239/239/239 
f 238/238/238 239/239/239 239/239/239 
f 239/239/239 239/239/239 240/240/240 
f 239/239/239 240/240/240 240/240/240 
f 240/240/240 240/240/240 240/240/240 
f 240/240/240 241/241/241 240/240/240 
f 240/240/240 241/241/241 242/242/242 
f 241/241/241 243/243/243 242/242/242 
f 242/242/242 243/243/243 243/243/243 
f 243/243/243 244/244/244 243/243/243 
f 243/243/243 244/244/244 244/244/244 
f 244/244/244 245/245/245 244/244/244 
f 244/244/244 245/245/245 246/246/246 
f 245/245/245 247/247/247 246/246/246 
f 246/246/246 247/247/247 247/247/247 
f 247/247/247 248/248/248 247/247/247 
f 247/247/247 248/248/248 248/248/248 
f 248/248/248 249/249/249 248/248/248 
f 248/248/248 249/249/249 250/250/250 
f 249/249/249 251/251/251 250/250/250 
f 250/250/250 251/251/251 251/251/251 
f 251/251/251 252/252/252 251/251/251 
f 251/251/251 252/252/252 252/252/252 
f 252/252/252 253/253/253 252/252/252 
f 252/252/252 253/253/253 254/254/254 
f 253/253/253 255/255/255 254/254/254 
f 254/254/254 255/255/255 256/256/256 
f 255/255/255 257/257/257 256/256/256 
f 256/256/256 257/257/257 258/258/258 
f 257/257/257 258/258/258 258/258/258 
f 258/258/258 258/258/258 253/253/253 
f 258/258/258 253/253/253 253/253/253 
f 253/253/253 253/253/253 253/253/253 
f 253/253/253 252/252/252 253/253/253 
f 253/253/253 252/252/252 258/258/258 
f 252/252/252 259/259/259 258/258/258 
f 258/258/258 259/259/259 256/256/256 
f 260/260/260 261/261/261 262/262/262 
f 263/263/263 264/264/264 265/265/265 
f 266/266/266 267/267/267 268/268/268 
f 72/72/72 70/70/70 269/269/269 
f 270/270/270 271/271/271 272/272/272 
f 273/273/273 274/274/274 275/275/275 
f 188/188/188 190/190/190 276/276/276 
f 277/277/277 278/278/278 279/279/279 
f 280/280/280 281/281/281 282/282/282 
f 283/283/283 284/284/284 285/285/285 
f 286/286/286 287/287/287 288/288/288 
f 289/289/289 290/290/290 291/291/291 
f 292/292/292 293/293/293 294/294/294 
f 295/295/295 296/296/296 297/297/297 
f 298/298/298 299/299/299 300/300/300 
f 301/301/301 302/302/302 303/303/303 
f 304/304/304 305/305/305 306/306/306 
f 307/307/307 308/308/308 309/309/309 
f 310/310/310 311/311/311 312/312/312 
f 313/313/313 314/314/314 315/315/315 
f 316/316/316 317/317/317 318/318/318 
f 319/319/319 320/320/320 321/321/321 
f 322/322/322 323/323/323 324/324/324 
f 325/325/325 326/326/326 327/327/327 
f 328/328/328 329/329/329 330/330/330 
f 331/331/331 332/332/332 333/333/333 
f 334/334/334 335/335/335 336/336/336 
f 337/337/337 338/338/338 339/339/339 

