mtllib model_13.mtl
o model_13
v 53.28697967529297 143.35983276367188 40.87968063354492 
v 53.28697967529297 122.86968231201172 40.87968063354492 
v 122.88487243652344 143.35983276367188 40.87968063354492 
v 122.88487243652344 122.88717651367188 40.87968063354492 
v -94.95408630371094 641.1954345703125 286.6397705078125 
v -94.95408630371094 671.9044189453125 286.6397705078125 
v -115.4415512084961 661.6680908203125 286.6397705078125 
v -125.6765365600586 671.9044189453125 286.6397705078125 
v 122.9548568725586 491.4300537109375 20.404050827026367 
v 122.9548568725586 204.79531860351562 20.404050827026367 
v 163.84231567382812 491.4300537109375 20.404050827026367 
v 204.79974365234375 450.4847412109375 20.404050827026367 
v 153.67730712890625 143.35983276367188 20.404050827026367 
v 204.79974365234375 122.88717651367188 20.404050827026367 
v -146.16400146484375 630.9591064453125 286.6397705078125 
v -135.92901611328125 620.7052612304688 286.6397705078125 
v -105.2065658569336 651.4317626953125 286.6397705078125 
v 29.947715759277344 486.338134765625 286.6397705078125 
v 45.238956451416016 501.053955078125 286.6397705078125 
v 9.425260543823242 481.3337097167969 286.6397705078125 
v 51.135009765625 521.369140625 286.6397705078125 
v 46.1312370300293 541.9118041992188 286.6397705078125 
v 31.417354583740234 557.1875610351562 286.6397705078125 
v 11.08735179901123 563.0843505859375 286.6397705078125 
v -9.505086898803711 558.044921875 286.6397705078125 
v -24.708850860595703 543.3641357421875 286.6397705078125 
v -30.604902267456055 523.0489501953125 286.6397705078125 
v -25.566139221191406 502.4363098144531 286.6397705078125 
v -0.7747330069541931 598.9727783203125 286.6397705078125 
v 14.516509056091309 613.6885986328125 286.6397705078125 
v -21.297189712524414 593.98583984375 286.6397705078125 
v 20.412559509277344 634.0037841796875 286.6397705078125 
v 15.40878963470459 654.54638671875 286.6397705078125 
v 0.6949058175086975 669.8221435546875 286.6397705078125 
v -19.61760139465332 675.718994140625 286.6397705078125 
v -40.227535247802734 670.6795654296875 286.6397705078125 
v -55.43130111694336 655.9987182617188 286.6397705078125 
v -61.32735061645508 635.68359375 286.6397705078125 
v -56.28858947753906 615.0884399414062 286.6397705078125 
v 30.052690505981445 558.9198608398438 266.16412353515625 
v 50.382694244384766 553.0230102539062 266.16412353515625 
v 15.3912935256958 574.1256103515625 266.16412353515625 
v 10.352532386779785 594.7207641601562 266.16412353515625 
v 16.24858283996582 615.0534057617188 266.16412353515625 
v 31.452346801757812 629.7167358398438 266.16412353515625 
v 52.06228256225586 634.7561645507812 266.16412353515625 
v 72.37478637695312 628.859375 266.16412353515625 
v 87.08866882324219 613.5836181640625 266.16412353515625 
v 92.09244537353516 593.0584106445312 266.16412353515625 
v 86.1963882446289 572.7257690429688 266.16412353515625 
v 70.9051513671875 558.0274658203125 266.16412353515625 
v 204.79974365234375 40.961544036865234 20.404050827026367 
v 204.79974365234375 122.79969024658203 20.404050827026367 
v 163.84231567382812 -0.001274980022571981 20.404050827026367 
v 0.08255629986524582 -0.001274980022571981 20.404050827026367 
v -40.8748779296875 40.961544036865234 20.404050827026367 
v -40.8748779296875 122.79969024658203 20.404050827026367 
v 153.67730712890625 122.88717651367188 20.404050827026367 
v -41.627193450927734 599.8651733398438 286.6397705078125 
v -10.904743194580078 487.23052978515625 286.6397705078125 
vn 0 0 1 
vn 0 0 1 
vn 0 0 1 
vn 0 0 1 
vn 0 0 1 
vn 0 0 1 
vn 0 0 1 
vn 0 0 1 
vn 0 0 1 
vn 0 0 1 
vn 0 0 1 
vn 0 0 1 
vn 0 0 1 
vn 0 0 1 
vn 0 0 1 
vn 0 0 1 
vn 0 0 1 
vn 0 0 1 
vn 0 0 1 
vn 0 0 1 
vn 0 0 1 
vn 0 0 1 
vn 0 0 1 
vn 0 0 1 
vn 0 0 1 
vn 0 0 1 
vn 0 0 1 
vn 0 0 1 
vn 0 0 1 
vn 0 0 1 
vn 0 0 1 
vn 0 0 1 
vn 0 0 1 
vn 0 0 1 
vn 0 0 1 
vn 0 0 1 
vn 0 0 1 
vn 0 0 1 
vn 0 0 1 
vn 0 0 1 
vn 0 0 1 
vn 0 0 1 
vn 0 0 1 
vn 0 0 1 
vn 0 0 1 
vn 0 0 1 
vn 0 0 1 
vn 0 0 1 
vn 0 0 1 
vn 0 0 1 
vn 0 0 1 
vn 0 0 1 
vn 0 0 1 
vn 0 0 1 
vn 0 0 1 
vn 0 0 1 
vn 0 0 1 
vn 0 0 1 
vn 0 0 1 
vn 0 0 1 
vt -2.423799991607666 -0.000027822499760077335 
vt -2.423799991607666 0.9667923450469971 
vt 0.9668304920196533 -0.000027822499760077335 
vt 0.9668304920196533 0.9667923450469971 
vt 1.9648188352584839 0.9667923450469971 
vt 1.9648188352584839 -0.5312939882278442 
vt 0.9668304920196533 -0.000027822499760077335 
vt 0.4687802791595459 -0.5312939882278442 
vt 9.949197769165039 4.2089996337890625 
vt 2.9629015922546387 4.2089996337890625 
vt 9.949197769165039 5.2069926261901855 
vt 8.95120906829834 6.205101013183594 
vt 1.4667686223983765 4.956974983215332 
vt 0.9668304920196533 6.205101013183594 
vt -0.0000061407999965013005 0.9667923450469971 
vt 0.4687802791595459 1.4648075103759766 
vt 1.4667686223983765 0.46681445837020874 
vt -0.3612718880176544 -0.000027822499760077335 
vt -0.18361258506774902 0.6348015069961548 
vt -0.18361258506774902 -0.6973183155059814 
vt 0.30084410309791565 1.119077444076538 
vt 0.9668304920196533 1.2968782186508179 
vt 1.6328167915344238 1.119077444076538 
vt 2.1190671920776367 0.6348015069961548 
vt 2.296915292739868 -0.000027822499760077335 
vt 2.1190671920776367 -0.6973183155059814 
vt 1.6328167915344238 -1.183614730834961 
vt 0.9668304920196533 -1.361299991607666 
vt -0.3612718880176544 -0.000027822499760077335 
vt -0.18361258506774902 0.6348015069961548 
vt -0.18361258506774902 -0.6973183155059814 
vt 0.30084410309791565 1.119077444076538 
vt 0.9668304920196533 1.2968782186508179 
vt 1.6328167915344238 1.119077444076538 
vt 2.1190671920776367 0.6348015069961548 
vt 2.296915292739868 -0.000027822499760077335 
vt 2.1190671920776367 -0.6973183155059814 
vt 1.6328167915344238 -1.183614730834961 
vt 0.9668304920196533 -1.361299991607666 
vt 0.30084410309791565 -1.183614730834961 
vt -0.18361258506774902 -0.6973183155059814 
vt 0.9668304920196533 -1.361299991607666 
vt 1.6328167915344238 -1.183614730834961 
vt 2.1190671920776367 -0.6973183155059814 
vt 2.296915292739868 -0.000027822499760077335 
vt 2.1190671920776367 0.6348015069961548 
vt 1.6328167915344238 1.119077444076538 
vt 0.9668304920196533 1.2968782186508179 
vt 0.30084410309791565 1.119077444076538 
vt -0.18361258506774902 0.6348015069961548 
vt -0.3612718880176544 -0.000027822499760077335 
vt -1.027258276939392 6.205101013183594 
vt 0.9668304920196533 4.956974983215332 
vt -2.025435447692871 5.2069926261901855 
vt -2.025435447692871 1.214789628982544 
vt -1.027258276939392 0.21881712973117828 
vt 0.9668304920196533 0.21881712973117828 
vt 0.9668304920196533 5.2069926261901855 
vt 0.30084410309791565 -1.183614730834961 
vt 0.30084410309791565 -1.183614730834961 
s on 
f 1/1/1 2/2/2 3/3/3 
f 2/2/2 4/4/4 3/3/3 
f 3/3/3 4/4/4 4/4/4 
f 4/4/4 5/5/5 4/4/4 
f 4/4/4 5/5/5 5/5/5 
f 5/5/5 6/6/6 5/5/5 
f 5/5/5 6/6/6 7/7/7 
f 6/6/6 8/8/8 7/7/7 
f 7/7/7 8/8/8 8/8/8 
f 8/8/8 9/9/9 8/8/8 
f 8/8/8 9/9/9 9/9/9 
f 9/9/9 10/10/10 9/9/9 
f 9/9/9 10/10/10 11/11/11 
f 10/10/10 12/12/12 11/11/11 
f 11/11/11 12/12/12 12/12/12 
f 12/12/12 10/10/10 12/12/12 
f 12/12/12 10/10/10 10/10/10 
f 10/10/10 13/13/13 10/10/10 
f 10/10/10 13/13/13 12/12/12 
f 13/13/13 14/14/14 12/12/12 
f 12/12/12 14/14/14 14/14/14 
f 14/14/14 15/15/15 14/14/14 
f 14/14/14 15/15/15 15/15/15 
f 15/15/15 16/16/16 15/15/15 
f 15/15/15 16/16/16 7/7/7 
f 16/16/16 17/17/17 7/7/7 
f 7/7/7 17/17/17 17/17/17 
f 17/17/17 18/18/18 17/17/17 
f 17/17/17 18/18/18 18/18/18 
f 18/18/18 19/19/19 18/18/18 
f 18/18/18 19/19/19 20/20/20 
f 19/19/19 21/21/21 20/20/20 
f 20/20/20 21/21/21 22/22/22 
f 21/21/21 22/22/22 22/22/22 
f 22/22/22 22/22/22 22/22/22 
f 22/22/22 23/23/23 22/22/22 
f 22/22/22 23/23/23 20/20/20 
f 23/23/23 24/24/24 20/20/20 
f 20/20/20 24/24/24 25/25/25 
f 24/24/24 25/25/25 25/25/25 
f 25/25/25 25/25/25 25/25/25 
f 25/25/25 26/26/26 25/25/25 
f 25/25/25 26/26/26 20/20/20 
f 26/26/26 27/27/27 20/20/20 
f 20/20/20 27/27/27 28/28/28 
f 27/27/27 28/28/28 28/28/28 
f 28/28/28 28/28/28 29/29/29 
f 28/28/28 29/29/29 29/29/29 
f 29/29/29 29/29/29 29/29/29 
f 29/29/29 30/30/30 29/29/29 
f 29/29/29 30/30/30 31/31/31 
f 30/30/30 32/32/32 31/31/31 
f 31/31/31 32/32/32 33/33/33 
f 32/32/32 33/33/33 33/33/33 
f 33/33/33 33/33/33 33/33/33 
f 33/33/33 34/34/34 33/33/33 
f 33/33/33 34/34/34 31/31/31 
f 34/34/34 35/35/35 31/31/31 
f 31/31/31 35/35/35 36/36/36 
f 35/35/35 36/36/36 36/36/36 
f 36/36/36 36/36/36 36/36/36 
f 36/36/36 37/37/37 36/36/36 
f 36/36/36 37/37/37 31/31/31 
f 37/37/37 38/38/38 31/31/31 
f 31/31/31 38/38/38 39/39/39 
f 38/38/38 39/39/39 39/39/39 
f 39/39/39 39/39/39 40/40/40 
f 39/39/39 40/40/40 40/40/40 
f 40/40/40 40/40/40 40/40/40 
f 40/40/40 41/41/41 40/40/40 
f 40/40/40 41/41/41 42/42/42 
f 41/41/41 43/43/43 42/42/42 
f 42/42/42 43/43/43 43/43/43 
f 43/43/43 41/41/41 43/43/43 
f 43/43/43 41/41/41 44/44/44 
f 41/41/41 45/45/45 44/44/44 
f 44/44/44 45/45/45 45/45/45 
f 45/45/45 41/41/41 45/45/45 
f 45/45/45 41/41/41 46/46/46 
f 41/41/41 47/47/47 46/46/46 
f 46/46/46 47/47/47 47/47/47 
f 47/47/47 41/41/41 47/47/47 
f 47/47/47 41/41/41 48/48/48 
f 41/41/41 49/49/49 48/48/48 
f 48/48/48 49/49/49 49/49/49 
f 49/49/49 41/41/41 49/49/49 
f 49/49/49 41/41/41 50/50/50 
f 41/41/41 51/51/51 50/50/50 
f 50/50/50 51/51/51 51/51/51 
f 51/51/51 52/52/52 51/51/51 
f 51/51/51 52/52/52 52/52/52 
f 52/52/52 53/53/53 52/52/52 
f 52/52/52 53/53/53 54/54/54 
f 53/53/53 55/55/55 54/54/54 
f 54/54/54 55/55/55 55/55/55 
f 55/55/55 53/53/53 55/55/55 
f 55/55/55 53/53/53 56/56/56 
f 53/53/53 57/57/57 56/56/56 
f 14/14/14 13/13/13 58/58/58 
f 31/31/31 39/39/39 59/59/59 
f 20/20/20 28/28/28 60/60/60 

