mtllib model_15.mtl
o model_15
v -163.83412170410156 433.35528564453125 429.9953918457031 
v -187.59327697753906 409.5929870605469 429.9953918457031 
v -163.83412170410156 433.35528564453125 409.5197448730469 
v -187.59327697753906 409.5929870605469 409.5197448730469 
v -190.07766723632812 415.50732421875 429.9953918457031 
v -169.76515197753906 435.8399963378906 429.9953918457031 
v -190.07766723632812 415.50732421875 425.9177551269531 
v -169.76515197753906 435.8399963378906 425.9177551269531 
v -187.59327697753906 491.43115234375 429.9953918457031 
v -190.07766723632812 485.5168151855469 429.9953918457031 
v -163.83412170410156 467.6688537597656 429.9953918457031 
v -169.76515197753906 465.2016296386719 429.9953918457031 
v -245.6790008544922 467.6688537597656 429.9953918457031 
v -239.7654571533203 465.2016296386719 429.9953918457031 
v -221.9198455810547 491.43115234375 429.9953918457031 
v -219.43545532226562 485.5168151855469 429.9953918457031 
v -239.7654571533203 465.2016296386719 429.9953918457031 
v -245.6790008544922 467.6688537597656 429.9953918457031 
v -239.7654571533203 435.8399963378906 429.9953918457031 
v -245.6790008544922 433.35528564453125 429.9953918457031 
v -187.59327697753906 409.5929870605469 429.9953918457031 
v -190.07766723632812 415.50732421875 429.9953918457031 
v -221.9198455810547 409.5929870605469 429.9953918457031 
v -219.43545532226562 415.50732421875 429.9953918457031 
v -190.07766723632812 485.5168151855469 429.9953918457031 
v -187.59327697753906 491.43115234375 429.9953918457031 
v -219.43545532226562 485.5168151855469 429.9953918457031 
v -221.9198455810547 491.43115234375 429.9953918457031 
v -163.83412170410156 433.35528564453125 429.9953918457031 
v -163.83412170410156 467.6688537597656 429.9953918457031 
v -169.76515197753906 435.8399963378906 429.9953918457031 
v -169.76515197753906 465.2016296386719 429.9953918457031 
v -239.7654571533203 435.8399963378906 429.9953918457031 
v -245.6790008544922 433.35528564453125 429.9953918457031 
v -219.43545532226562 415.50732421875 429.9953918457031 
v -221.9198455810547 409.5929870605469 429.9953918457031 
v -190.07766723632812 415.50732421875 425.9177551269531 
v -219.43545532226562 415.50732421875 425.9177551269531 
v -190.07766723632812 415.50732421875 429.9953918457031 
v -219.43545532226562 415.50732421875 429.9953918457031 
v -219.43545532226562 415.50732421875 425.9177551269531 
v -239.7654571533203 435.8399963378906 425.9177551269531 
v -219.43545532226562 415.50732421875 429.9953918457031 
v -239.7654571533203 435.8399963378906 429.9953918457031 
v -239.7654571533203 465.2016296386719 425.9177551269531 
v -219.43545532226562 485.5168151855469 425.9177551269531 
v -239.7654571533203 465.2016296386719 429.9953918457031 
v -219.43545532226562 485.5168151855469 429.9953918457031 
v -219.43545532226562 485.5168151855469 425.9177551269531 
v -190.07766723632812 485.5168151855469 425.9177551269531 
v -219.43545532226562 485.5168151855469 429.9953918457031 
v -190.07766723632812 485.5168151855469 429.9953918457031 
v -169.76515197753906 465.2016296386719 429.9953918457031 
v -190.07766723632812 485.5168151855469 429.9953918457031 
v -169.76515197753906 465.2016296386719 425.9177551269531 
v -190.07766723632812 485.5168151855469 425.9177551269531 
v -239.7654571533203 465.2016296386719 429.9953918457031 
v -239.7654571533203 435.8399963378906 429.9953918457031 
v -239.7654571533203 465.2016296386719 425.9177551269531 
v -239.7654571533203 435.8399963378906 425.9177551269531 
v -169.76515197753906 465.2016296386719 425.9177551269531 
v -169.76515197753906 435.8399963378906 425.9177551269531 
v -169.76515197753906 465.2016296386719 429.9953918457031 
v -169.76515197753906 435.8399963378906 429.9953918457031 
v -190.07766723632812 415.50732421875 429.9953918457031 
v -187.59327697753906 409.5929870605469 429.9953918457031 
v -169.76515197753906 435.8399963378906 429.9953918457031 
v -163.83412170410156 433.35528564453125 429.9953918457031 
v -245.6790008544922 467.6688537597656 409.5197448730469 
v -245.6790008544922 433.35528564453125 409.5197448730469 
v -245.6790008544922 467.6688537597656 429.9953918457031 
v -245.6790008544922 433.35528564453125 429.9953918457031 
v -245.6790008544922 467.6688537597656 429.9953918457031 
v -221.9198455810547 491.43115234375 429.9953918457031 
v -245.6790008544922 467.6688537597656 409.5197448730469 
v -221.9198455810547 491.43115234375 409.5197448730469 
v -221.9198455810547 409.5929870605469 409.5197448730469 
v -187.59327697753906 409.5929870605469 409.5197448730469 
v -221.9198455810547 409.5929870605469 429.9953918457031 
v -187.59327697753906 409.5929870605469 429.9953918457031 
v -245.6790008544922 433.35528564453125 409.5197448730469 
v -221.9198455810547 409.5929870605469 409.5197448730469 
v -245.6790008544922 433.35528564453125 429.9953918457031 
v -221.9198455810547 409.5929870605469 429.9953918457031 
v -163.83412170410156 467.6688537597656 429.9953918457031 
v -163.83412170410156 433.35528564453125 429.9953918457031 
v -163.83412170410156 467.6688537597656 409.5197448730469 
v -163.83412170410156 433.35528564453125 409.5197448730469 
v -163.83412170410156 467.6688537597656 409.5197448730469 
v -187.59327697753906 491.43115234375 409.5197448730469 
v -163.83412170410156 467.6688537597656 429.9953918457031 
v -187.59327697753906 491.43115234375 429.9953918457031 
v -221.9198455810547 491.43115234375 429.9953918457031 
v -187.59327697753906 491.43115234375 429.9953918457031 
v -221.9198455810547 491.43115234375 409.5197448730469 
v -187.59327697753906 491.43115234375 409.5197448730469 
v -184.00665283203125 463.1893615722656 446.4021301269531 
v -204.7915496826172 450.5558166503906 487.3621520996094 
v -184.00665283203125 438.39471435546875 446.4021301269531 
v -225.83888244628906 463.1893615722656 446.4021301269531 
v -225.83888244628906 438.39471435546875 446.4021301269531 
v -204.7915496826172 450.5558166503906 487.3621520996094 
v -204.7915496826172 450.5558166503906 487.3621520996094 
v -217.35345458984375 471.6759033203125 446.4021301269531 
v -225.83888244628906 463.1893615722656 446.4021301269531 
v -204.7915496826172 450.5558166503906 487.3621520996094 
v -192.5620574951172 471.6759033203125 446.4021301269531 
v -217.35345458984375 471.6759033203125 446.4021301269531 
v -204.7915496826172 450.5558166503906 487.3621520996094 
v -225.83888244628906 438.39471435546875 446.4021301269531 
v -217.35345458984375 429.9081726074219 446.4021301269531 
v -191.12741088867188 429.9081726074219 446.4021301269531 
v -204.7915496826172 450.5558166503906 487.3621520996094 
v -217.35345458984375 429.9081726074219 446.4021301269531 
v -191.12741088867188 429.9081726074219 446.4021301269531 
v -184.00665283203125 438.39471435546875 446.4021301269531 
v -204.7915496826172 450.5558166503906 487.3621520996094 
v -184.00665283203125 463.1893615722656 446.4021301269531 
v -192.5620574951172 471.6759033203125 446.4021301269531 
v -204.7915496826172 450.5558166503906 487.3621520996094 
vn 0.7071051001548767 -0.7071051001548767 0.002184694167226553 
vn 0.7071051001548767 -0.7071051001548767 0.002184694167226553 
vn 0.7071051001548767 -0.7071051001548767 0.002184694167226553 
vn 0.7071051001548767 -0.7071051001548767 0.002184694167226553 
vn -0.7071051001548767 0.7071051001548767 0.002184694167226553 
vn -0.7071051001548767 0.7071051001548767 0.002184694167226553 
vn -0.7071051001548767 0.7071051001548767 0.002184694167226553 
vn -0.7071051001548767 0.7071051001548767 0.002184694167226553 
vn 0 0 1 
vn 0 0 1 
vn 0 0 1 
vn 0 0 1 
vn 0 0 1 
vn 0 0 1 
vn 0 0 1 
vn 0 0 1 
vn 0 0 1 
vn 0 0 1 
vn 0 0 1 
vn 0 0 1 
vn 0 0 1 
vn 0 0 1 
vn 0 0 1 
vn 0 0 1 
vn 0 0 1 
vn 0 0 1 
vn 0 0 1 
vn 0 0 1 
vn 0 0 1 
vn 0 0 1 
vn 0 0 1 
vn 0 0 1 
vn 0 0 1 
vn 0 0 1 
vn 0 0 1 
vn 0 0 1 
vn -1.0341130485562108e-13 0.999997615814209 0.002184694167226553 
vn -1.0341130485562108e-13 0.999997615814209 0.002184694167226553 
vn -1.0341130485562108e-13 0.999997615814209 0.002184694167226553 
vn -1.0341130485562108e-13 0.999997615814209 0.002184694167226553 
vn 0.7071051001548767 0.7071051001548767 0.002184694167226553 
vn 0.7071051001548767 0.7071051001548767 0.002184694167226553 
vn 0.7071051001548767 0.7071051001548767 0.002184694167226553 
vn 0.7071051001548767 0.7071051001548767 0.002184694167226553 
vn 0.7071051001548767 -0.7071051001548767 0.002184694167226553 
vn 0.7071051001548767 -0.7071051001548767 0.002184694167226553 
vn 0.7071051001548767 -0.7071051001548767 0.002184694167226553 
vn 0.7071051001548767 -0.7071051001548767 0.002184694167226553 
vn 3.097898456858039e-13 -0.999997615814209 0.002184694167226553 
vn 3.097898456858039e-13 -0.999997615814209 0.002184694167226553 
vn 3.097898456858039e-13 -0.999997615814209 0.002184694167226553 
vn 3.097898456858039e-13 -0.999997615814209 0.002184694167226553 
vn -0.7071051001548767 -0.7071051001548767 0.002184694167226553 
vn -0.7071051001548767 -0.7071051001548767 0.002184694167226553 
vn -0.7071051001548767 -0.7071051001548767 0.002184694167226553 
vn -0.7071051001548767 -0.7071051001548767 0.002184694167226553 
vn 0.999997615814209 0 0.002184694167226553 
vn 0.999997615814209 0 0.002184694167226553 
vn 0.999997615814209 0 0.002184694167226553 
vn 0.999997615814209 0 0.002184694167226553 
vn -0.999997615814209 -2.0682260971124217e-13 0.002184694167226553 
vn -0.999997615814209 -2.0682260971124217e-13 0.002184694167226553 
vn -0.999997615814209 -2.0682260971124217e-13 0.002184694167226553 
vn -0.999997615814209 -2.0682260971124217e-13 0.002184694167226553 
vn 0 0 1 
vn 0 0 1 
vn 0 0 1 
vn 0 0 1 
vn -0.999997615814209 -2.0682260971124217e-13 0.002184694167226553 
vn -0.999997615814209 -2.0682260971124217e-13 0.002184694167226553 
vn -0.999997615814209 -2.0682260971124217e-13 0.002184694167226553 
vn -0.999997615814209 -2.0682260971124217e-13 0.002184694167226553 
vn -0.7071051001548767 0.7071051001548767 0.002184694167226553 
vn -0.7071051001548767 0.7071051001548767 0.002184694167226553 
vn -0.7071051001548767 0.7071051001548767 0.002184694167226553 
vn -0.7071051001548767 0.7071051001548767 0.002184694167226553 
vn 3.097898456858039e-13 -0.999997615814209 0.002184694167226553 
vn 3.097898456858039e-13 -0.999997615814209 0.002184694167226553 
vn 3.097898456858039e-13 -0.999997615814209 0.002184694167226553 
vn 3.097898456858039e-13 -0.999997615814209 0.002184694167226553 
vn -0.7071051001548767 -0.7071051001548767 0.002184694167226553 
vn -0.7071051001548767 -0.7071051001548767 0.002184694167226553 
vn -0.7071051001548767 -0.7071051001548767 0.002184694167226553 
vn -0.7071051001548767 -0.7071051001548767 0.002184694167226553 
vn 0.999997615814209 0 0.002184694167226553 
vn 0.999997615814209 0 0.002184694167226553 
vn 0.999997615814209 0 0.002184694167226553 
vn 0.999997615814209 0 0.002184694167226553 
vn 0.7071051001548767 0.7071051001548767 0.002184694167226553 
vn 0.7071051001548767 0.7071051001548767 0.002184694167226553 
vn 0.7071051001548767 0.7071051001548767 0.002184694167226553 
vn 0.7071051001548767 0.7071051001548767 0.002184694167226553 
vn -1.0341130485562108e-13 0.999997615814209 0.002184694167226553 
vn -1.0341130485562108e-13 0.999997615814209 0.002184694167226553 
vn -1.0341130485562108e-13 0.999997615814209 0.002184694167226553 
vn -1.0341130485562108e-13 0.999997615814209 0.002184694167226553 
vn 0.8916997909545898 0 0.45262736082077026 
vn 0.8916997909545898 0 0.45262736082077026 
vn 0.8916997909545898 0 0.45262736082077026 
vn -0.8897055387496948 0.003772077150642872 0.456519216299057 
vn -0.8897055387496948 0.003772077150642872 0.456519216299057 
vn -0.8897055387496948 0.003772077150642872 0.456519216299057 
vn -0.6113399863243103 0.6113399863243103 0.5025205612182617 
vn -0.6113399863243103 0.6113399863243103 0.5025205612182617 
vn -0.6113399863243103 0.6113399863243103 0.5025205612182617 
vn 0.0018860427662730217 0.8897115588188171 0.456519216299057 
vn 0.0018860427662730217 0.8897115588188171 0.456519216299057 
vn 0.0018860427662730217 0.8897115588188171 0.456519216299057 
vn -0.6142186522483826 -0.6115518808364868 0.4987381398677826 
vn -0.6142186522483826 -0.6115518808364868 0.4987381398677826 
vn -0.6142186522483826 -0.6115518808364868 0.4987381398677826 
vn 2.768502115925442e-13 -0.8936689496040344 0.4487268626689911 
vn 2.768502115925442e-13 -0.8936689496040344 0.4487268626689911 
vn 2.768502115925442e-13 -0.8936689496040344 0.4487268626689911 
vn 0.662295401096344 -0.5557318329811096 0.5025205612182617 
vn 0.662295401096344 -0.5557318329811096 0.5025205612182617 
vn 0.662295401096344 -0.5557318329811096 0.5025205612182617 
vn 0.6088734865188599 0.6168738603591919 0.4987381398677826 
vn 0.6088734865188599 0.6168738603591919 0.4987381398677826 
vn 0.6088734865188599 0.6168738603591919 0.4987381398677826 
vt 0.9667868614196777 0.000021867499526706524 
vt -1.3046938180923462 0.000021867499526706524 
vt 0.9667868614196777 1.353514552116394 
vt -1.3046938180923462 1.353514552116394 
vt 0.9667868614196777 0.6894856095314026 
vt -1.0781046152114868 0.6894856095314026 
vt 0.9667868614196777 0.966796338558197 
vt -1.0781046152114868 0.966796338558197 
vt 2.7265963554382324 0.9745902419090271 
vt 2.6133017539978027 0.6992070078849792 
vt 0.4531121253967285 0.9745902419090271 
vt 0.5664066672325134 0.6992070078849792 
vt 2.7304983139038086 0.9706932902336121 
vt 2.6152000427246094 0.6953100562095642 
vt 0.45508062839508057 0.9706932902336121 
vt 0.5703085660934448 0.6953100562095642 
vt -0.40431302785873413 0.70121830701828 
vt -0.5215094685554504 0.9766015410423279 
vt 1.6895098686218262 0.70121830701828 
vt 1.8066009283065796 0.9766015410423279 
vt 2.7714853286743164 0.9766015410423279 
vt 2.656292676925659 0.70121830701828 
vt 0.443410187959671 0.9766015410423279 
vt 0.5586029887199402 0.70121830701828 
vt 0.5723122358322144 0.6914131045341492 
vt 0.45508062839508057 0.966796338558197 
vt 2.6679980754852295 0.6914131045341492 
vt 2.783190965652466 0.966796338558197 
vt 0.4628843367099762 0.9688076972961426 
vt 2.790994644165039 0.9688076972961426 
vt 0.5800808072090149 0.6933825612068176 
vt 2.675801992416382 0.6933825612068176 
vt -0.7207152843475342 0.70121830701828 
vt -0.835908055305481 0.9766015410423279 
vt 1.3242113590240479 0.70121830701828 
vt 1.4375059604644775 0.9766015410423279 
vt -1.1270009279251099 0.966796338558197 
vt 0.9667868614196777 0.966796338558197 
vt -1.1270009279251099 0.6894856095314026 
vt 0.9667868614196777 0.6894856095314026 
vt -0.5038983821868896 0.966796338558197 
vt 0.9667868614196777 0.966796338558197 
vt -0.5038983821868896 0.7675918340682983 
vt 0.9667868614196777 0.7675918340682983 
vt -1.0781046152114868 0.966796338558197 
vt 0.9667868614196777 0.966796338558197 
vt -1.0781046152114868 0.6894856095314026 
vt 0.9667868614196777 0.6894856095314026 
vt -1.1270009279251099 0.966796338558197 
vt 0.9667868614196777 0.966796338558197 
vt -1.1270009279251099 0.6894856095314026 
vt 0.9667868614196777 0.6894856095314026 
vt 0.9667868614196777 0.6894856095314026 
vt -1.0781046152114868 0.6894856095314026 
vt 0.9667868614196777 0.966796338558197 
vt -1.0781046152114868 0.966796338558197 
vt 0.9667868614196777 0.6894856095314026 
vt -1.1270009279251099 0.6894856095314026 
vt 0.9667868614196777 0.966796338558197 
vt -1.1270009279251099 0.966796338558197 
vt -1.1270009279251099 0.966796338558197 
vt 0.9667868614196777 0.966796338558197 
vt -1.1270009279251099 0.6894856095314026 
vt 0.9667868614196777 0.6894856095314026 
vt -1.7012072801589966 0.6933825612068176 
vt -1.8164000511169434 0.9706932902336121 
vt 0.3437896966934204 0.7031038999557495 
vt 0.45508062839508057 0.9784871339797974 
vt 0.000004128699856664753 1.353514552116394 
vt 2.2968995571136475 1.353514552116394 
vt 0.000004128699856664753 0.000021867499526706524 
vt 2.2968995571136475 0.000021867499526706524 
vt 2.2422032356262207 0.000021867499526706524 
vt 0.000004128699856664753 0.000021867499526706524 
vt 2.2422032356262207 1.353514552116394 
vt 0.000004128699856664753 1.353514552116394 
vt 0.000004128699856664753 1.353514552116394 
vt 2.2968995571136475 1.353514552116394 
vt 0.000004128699856664753 0.000021867499526706524 
vt 2.2968995571136475 0.000021867499526706524 
vt -1.3046938180923462 1.353514552116394 
vt 0.9667868614196777 1.353514552116394 
vt -1.3046938180923462 0.000021867499526706524 
vt 0.9667868614196777 0.000021867499526706524 
vt 2.2968995571136475 0.000021867499526706524 
vt 0.000004128699856664753 0.000021867499526706524 
vt 2.2968995571136475 1.353514552116394 
vt 0.000004128699856664753 1.353514552116394 
vt 0.000004128699856664753 1.353514552116394 
vt 2.2422032356262207 1.353514552116394 
vt 0.000004128699856664753 0.000021867499526706524 
vt 2.2422032356262207 0.000021867499526706524 
vt 2.2968995571136475 0.000021867499526706524 
vt 0.000004128699856664753 0.000021867499526706524 
vt 2.2968995571136475 1.353514552116394 
vt 0.000004128699856664753 1.353514552116394 
vt 2.392583131790161 0.966796338558197 
vt 1.1522834300994873 -3.5098154544830322 
vt 0.000004128699856664753 0.966796338558197 
vt 0.000004128699856664753 0.966796338558197 
vt 2.392583131790161 0.966796338558197 
vt 1.2089834213256836 -3.5254030227661133 
vt 0.544893741607666 -3.513712167739868 
vt 0.000004128699856664753 0.966796338558197 
vt 1.1054962873458862 0.966796338558197 
vt 1.1640944480895996 -3.5292999744415283 
vt 0.000004128699856664753 0.966796338558197 
vt 2.392583131790161 0.966796338558197 
vt 0.42970094084739685 -2.496109962463379 
vt -0.16798679530620575 1.962902545928955 
vt 0.9667868614196777 1.962902545928955 
vt 1.9647843837738037 0.966796338558197 
vt 0.6348122954368591 -3.5039072036743164 
vt -0.5918132662773132 0.966796338558197 
vt -0.07810339331626892 1.962902545928955 
vt 0.9667868614196777 1.962902545928955 
vt 0.5878844857215881 -2.5059151649475098 
vt 0.000004128699856664753 0.966796338558197 
vt 1.1054962873458862 0.966796338558197 
vt 0.5059102773666382 -3.5019795894622803 
s on 
f 1/1/1 2/2/2 3/3/3 
f 2/2/2 4/4/4 3/3/3 
f 3/3/3 4/4/4 4/4/4 
f 4/4/4 5/5/5 4/4/4 
f 4/4/4 5/5/5 5/5/5 
f 5/5/5 6/6/6 5/5/5 
f 5/5/5 6/6/6 7/7/7 
f 6/6/6 8/8/8 7/7/7 
f 7/7/7 8/8/8 8/8/8 
f 8/8/8 9/9/9 8/8/8 
f 8/8/8 9/9/9 9/9/9 
f 9/9/9 10/10/10 9/9/9 
f 9/9/9 10/10/10 11/11/11 
f 10/10/10 12/12/12 11/11/11 
f 11/11/11 12/12/12 12/12/12 
f 12/12/12 13/13/13 12/12/12 
f 12/12/12 13/13/13 13/13/13 
f 13/13/13 14/14/14 13/13/13 
f 13/13/13 14/14/14 15/15/15 
f 14/14/14 16/16/16 15/15/15 
f 15/15/15 16/16/16 16/16/16 
f 16/16/16 17/17/17 16/16/16 
f 16/16/16 17/17/17 17/17/17 
f 17/17/17 18/18/18 17/17/17 
f 17/17/17 18/18/18 19/19/19 
f 18/18/18 20/20/20 19/19/19 
f 19/19/19 20/20/20 20/20/20 
f 20/20/20 21/21/21 20/20/20 
f 20/20/20 21/21/21 21/21/21 
f 21/21/21 22/22/22 21/21/21 
f 21/21/21 22/22/22 23/23/23 
f 22/22/22 24/24/24 23/23/23 
f 23/23/23 24/24/24 24/24/24 
f 24/24/24 25/25/25 24/24/24 
f 24/24/24 25/25/25 25/25/25 
f 25/25/25 26/26/26 25/25/25 
f 25/25/25 26/26/26 27/27/27 
f 26/26/26 28/28/28 27/27/27 
f 27/27/27 28/28/28 28/28/28 
f 28/28/28 29/29/29 28/28/28 
f 28/28/28 29/29/29 29/29/29 
f 29/29/29 30/30/30 29/29/29 
f 29/29/29 30/30/30 31/31/31 
f 30/30/30 32/32/32 31/31/31 
f 31/31/31 32/32/32 32/32/32 
f 32/32/32 33/33/33 32/32/32 
f 32/32/32 33/33/33 33/33/33 
f 33/33/33 34/34/34 33/33/33 
f 33/33/33 34/34/34 35/35/35 
f 34/34/34 36/36/36 35/35/35 
f 35/35/35 36/36/36 36/36/36 
f 36/36/36 37/37/37 36/36/36 
f 36/36/36 37/37/37 37/37/37 
f 37/37/37 38/38/38 37/37/37 
f 37/37/37 38/38/38 39/39/39 
f 38/38/38 40/40/40 39/39/39 
f 39/39/39 40/40/40 40/40/40 
f 40/40/40 41/41/41 40/40/40 
f 40/40/40 41/41/41 41/41/41 
f 41/41/41 42/42/42 41/41/41 
f 41/41/41 42/42/42 43/43/43 
f 42/42/42 44/44/44 43/43/43 
f 43/43/43 44/44/44 44/44/44 
f 44/44/44 45/45/45 44/44/44 
f 44/44/44 45/45/45 45/45/45 
f 45/45/45 46/46/46 45/45/45 
f 45/45/45 46/46/46 47/47/47 
f 46/46/46 48/48/48 47/47/47 
f 47/47/47 48/48/48 48/48/48 
f 48/48/48 49/49/49 48/48/48 
f 48/48/48 49/49/49 49/49/49 
f 49/49/49 50/50/50 49/49/49 
f 49/49/49 50/50/50 51/51/51 
f 50/50/50 52/52/52 51/51/51 
f 51/51/51 52/52/52 52/52/52 
f 52/52/52 53/53/53 52/52/52 
f 52/52/52 53/53/53 53/53/53 
f 53/53/53 54/54/54 53/53/53 
f 53/53/53 54/54/54 55/55/55 
f 54/54/54 56/56/56 55/55/55 
f 55/55/55 56/56/56 56/56/56 
f 56/56/56 57/57/57 56/56/56 
f 56/56/56 57/57/57 57/57/57 
f 57/57/57 58/58/58 57/57/57 
f 57/57/57 58/58/58 59/59/59 
f 58/58/58 60/60/60 59/59/59 
f 59/59/59 60/60/60 60/60/60 
f 60/60/60 61/61/61 60/60/60 
f 60/60/60 61/61/61 61/61/61 
f 61/61/61 62/62/62 61/61/61 
f 61/61/61 62/62/62 63/63/63 
f 62/62/62 64/64/64 63/63/63 
f 63/63/63 64/64/64 64/64/64 
f 64/64/64 65/65/65 64/64/64 
f 64/64/64 65/65/65 65/65/65 
f 65/65/65 66/66/66 65/65/65 
f 65/65/65 66/66/66 67/67/67 
f 66/66/66 68/68/68 67/67/67 
f 67/67/67 68/68/68 68/68/68 
f 68/68/68 69/69/69 68/68/68 
f 68/68/68 69/69/69 69/69/69 
f 69/69/69 70/70/70 69/69/69 
f 69/69/69 70/70/70 71/71/71 
f 70/70/70 72/72/72 71/71/71 
f 71/71/71 72/72/72 72/72/72 
f 72/72/72 73/73/73 72/72/72 
f 72/72/72 73/73/73 73/73/73 
f 73/73/73 74/74/74 73/73/73 
f 73/73/73 74/74/74 75/75/75 
f 74/74/74 76/76/76 75/75/75 
f 75/75/75 76/76/76 76/76/76 
f 76/76/76 77/77/77 76/76/76 
f 76/76/76 77/77/77 77/77/77 
f 77/77/77 78/78/78 77/77/77 
f 77/77/77 78/78/78 79/79/79 
f 78/78/78 80/80/80 79/79/79 
f 79/79/79 80/80/80 80/80/80 
f 80/80/80 81/81/81 80/80/80 
f 80/80/80 81/81/81 81/81/81 
f 81/81/81 82/82/82 81/81/81 
f 81/81/81 82/82/82 83/83/83 
f 82/82/82 84/84/84 83/83/83 
f 83/83/83 84/84/84 84/84/84 
f 84/84/84 85/85/85 84/84/84 
f 84/84/84 85/85/85 85/85/85 
f 85/85/85 86/86/86 85/85/85 
f 85/85/85 86/86/86 87/87/87 
f 86/86/86 88/88/88 87/87/87 
f 87/87/87 88/88/88 88/88/88 
f 88/88/88 89/89/89 88/88/88 
f 88/88/88 89/89/89 89/89/89 
f 89/89/89 90/90/90 89/89/89 
f 89/89/89 90/90/90 91/91/91 
f 90/90/90 92/92/92 91/91/91 
f 91/91/91 92/92/92 92/92/92 
f 92/92/92 93/93/93 92/92/92 
f 92/92/92 93/93/93 93/93/93 
f 93/93/93 94/94/94 93/93/93 
f 93/93/93 94/94/94 95/95/95 
f 94/94/94 96/96/96 95/95/95 
f 97/97/97 98/98/98 99/99/99 
f 100/100/100 101/101/101 102/102/102 
f 103/103/103 104/104/104 105/105/105 
f 106/106/106 107/107/107 108/108/108 
f 109/109/109 110/110/110 111/111/111 
f 112/112/112 113/113/113 114/114/114 
f 115/115/115 116/116/116 117/117/117 
f 118/118/118 119/119/119 120/120/120 

