mtllib model_9.mtl
o model_9
v 81.91116333007812 143.3601531982422 81.83973693847656 
v 81.91116333007812 143.3601531982422 40.87972640991211 
v 81.91116333007812 159.7557830810547 81.83973693847656 
v 81.91116333007812 327.68408203125 85.91736602783203 
v 81.91116333007812 450.5550537109375 184.24415588378906 
v 81.91116333007812 696.2269897460938 85.91736602783203 
v 81.91116333007812 491.43035888671875 184.24415588378906 
v 53.358177185058594 521.8244018554688 184.2353973388672 
v 81.92865753173828 521.8244018554688 184.2353973388672 
v 53.358177185058594 521.8244018554688 169.68370056152344 
v 81.92865753173828 521.8244018554688 169.68370056152344 
v 72.63844299316406 379.0232238769531 102.31536865234375 
v 108.39965057373047 379.04071044921875 102.31536865234375 
v 72.63844299316406 387.1947937011719 106.40174865722656 
v 103.67581176757812 387.1947937011719 106.40174865722656 
v 103.67581176757812 411.67449951171875 106.40174865722656 
v 108.39965057373047 419.9160461425781 102.31536865234375 
v 72.63844299316406 411.67449951171875 106.40174865722656 
v 72.63844299316406 419.9160461425781 102.31536865234375 
v 87.68473815917969 354.2285461425781 106.40174865722656 
v 92.40857696533203 358.30560302734375 102.31536865234375 
v 56.647369384765625 354.2285461425781 106.40174865722656 
v 56.647369384765625 358.30560302734375 102.31536865234375 
v 87.68473815917969 342.06744384765625 106.40174865722656 
v 97.51732635498047 340.4751281738281 102.31536865234375 
v 87.68473815917969 354.2285461425781 106.40174865722656 
v 97.51732635498047 355.7508850097656 102.31536865234375 
v 36.877227783203125 126.96453094482422 73.67573547363281 
v -286.6357727050781 126.96453094482422 73.67573547363281 
v 36.877227783203125 126.96453094482422 81.83973693847656 
v -286.6357727050781 126.96453094482422 81.83973693847656 
v -405.361572265625 399.35589599609375 30.641910552978516 
v -466.718994140625 399.35589599609375 30.641910552978516 
v -405.361572265625 399.35589599609375 -0.0015350700123235583 
v -466.718994140625 399.35589599609375 -0.0015350700123235583 
v -405.4315490722656 122.87000274658203 81.83973693847656 
v -405.4315490722656 122.87000274658203 -0.08028750121593475 
v 53.2881965637207 122.87000274658203 81.83973693847656 
v 53.2881965637207 122.87000274658203 -0.08028750121593475 
v 81.92865753173828 582.6299438476562 140.4840545654297 
v 53.358177185058594 582.6299438476562 140.4840545654297 
v 81.92865753173828 582.6299438476562 155.03575134277344 
v 53.358177185058594 582.6299438476562 155.03575134277344 
v 53.358177185058594 521.8244018554688 169.68370056152344 
v 81.92865753173828 521.8244018554688 169.68370056152344 
v 53.358177185058594 552.2359008789062 169.68370056152344 
v 81.92865753173828 552.2359008789062 169.68370056152344 
v 117.19998931884766 460.7038879394531 102.31536865234375 
v 122.32622528076172 460.7038879394531 85.91736602783203 
v 81.43877410888672 460.7038879394531 102.31536865234375 
v 81.43877410888672 460.7038879394531 85.91736602783203 
v 122.32622528076172 458.149169921875 102.31536865234375 
v 112.47615051269531 456.6268615722656 106.40174865722656 
v 122.32622528076172 442.8734130859375 102.31536865234375 
v 112.47615051269531 444.4657287597656 106.40174865722656 
v 81.43877410888672 456.6268615722656 106.40174865722656 
v 81.43877410888672 444.4657287597656 106.40174865722656 
v 112.47615051269531 456.6268615722656 106.40174865722656 
v 112.47615051269531 444.4657287597656 106.40174865722656 
v 108.39965057373047 419.9160461425781 102.31536865234375 
v 113.52589416503906 419.9160461425781 85.91736602783203 
v 72.63844299316406 419.9160461425781 102.31536865234375 
v 72.63844299316406 419.9160461425781 85.91736602783203 
v 81.91116333007812 450.5550537109375 184.24415588378906 
v 53.27069854736328 450.5550537109375 184.24415588378906 
v 81.91116333007812 159.7557830810547 81.83973693847656 
v 53.2881965637207 159.7557830810547 81.83973693847656 
v 81.92865753173828 643.4354858398438 111.36315155029297 
v 53.358177185058594 643.4354858398438 111.36315155029297 
v 81.92865753173828 643.4354858398438 126.7198715209961 
v 53.358177185058594 643.4354858398438 126.7198715209961 
v 81.92865753173828 552.2359008789062 155.03575134277344 
v 53.358177185058594 552.2359008789062 155.03575134277344 
v 81.92865753173828 552.2359008789062 169.68370056152344 
v 53.358177185058594 552.2359008789062 169.68370056152344 
v 81.91116333007812 143.3601531982422 81.83973693847656 
v 81.91116333007812 159.7557830810547 81.83973693847656 
v 53.2881965637207 143.3601531982422 81.83973693847656 
v 53.2881965637207 159.7557830810547 81.83973693847656 
v -286.6357727050781 204.79563903808594 81.83973693847656 
v -286.6357727050781 126.96453094482422 81.83973693847656 
v -286.6357727050781 204.79563903808594 73.67573547363281 
v -286.6357727050781 126.96453094482422 73.67573547363281 
v 53.358177185058594 552.2359008789062 155.03575134277344 
v 81.92865753173828 552.2359008789062 155.03575134277344 
v 53.358177185058594 582.6299438476562 155.03575134277344 
v 81.92865753173828 582.6299438476562 155.03575134277344 
v 53.358177185058594 612.9539794921875 140.4840545654297 
v 81.92865753173828 612.9539794921875 140.4840545654297 
v 53.358177185058594 612.9539794921875 126.00234985351562 
v 81.92865753173828 612.9539794921875 126.00234985351562 
v 113.52589416503906 414.78912353515625 102.31536865234375 
v 103.67581176757812 411.67449951171875 106.40174865722656 
v 113.52589416503906 384.150146484375 102.31536865234375 
v 103.67581176757812 387.1947937011719 106.40174865722656 
v 81.92865753173828 612.9539794921875 140.4840545654297 
v 53.358177185058594 612.9539794921875 140.4840545654297 
v 81.92865753173828 582.6299438476562 140.4840545654297 
v 53.358177185058594 582.6299438476562 140.4840545654297 
v -405.4315490722656 122.87000274658203 -0.08028750121593475 
v -405.4315490722656 122.87000274658203 81.83973693847656 
v -405.4315490722656 204.79563903808594 -0.08028750121593475 
v -405.4315490722656 204.79563903808594 81.83973693847656 
v 92.40857696533203 358.30560302734375 102.31536865234375 
v 97.51732635498047 358.30560302734375 85.91736602783203 
v 56.647369384765625 358.30560302734375 102.31536865234375 
v 56.647369384765625 358.30560302734375 85.91736602783203 
v 81.92865753173828 521.8244018554688 184.2353973388672 
v 53.358177185058594 521.8244018554688 184.2353973388672 
v 81.92865753173828 491.43035888671875 184.2353973388672 
v 53.358177185058594 491.43035888671875 184.2353973388672 
v 97.51732635498047 337.92041015625 85.91736602783203 
v 92.40857696533203 337.92041015625 102.31536865234375 
v 56.647369384765625 337.92041015625 85.91736602783203 
v 56.647369384765625 337.92041015625 102.31536865234375 
v 53.2881965637207 159.7557830810547 81.83973693847656 
v 36.877227783203125 159.7557830810547 73.67573547363281 
v 53.2881965637207 143.3601531982422 81.83973693847656 
v 36.877227783203125 143.3601531982422 73.67573547363281 
v 36.877227783203125 126.96453094482422 73.67573547363281 
v 81.92865753173828 491.43035888671875 184.24415588378906 
v 81.92865753173828 698.1517333984375 85.0423355102539 
v 53.358177185058594 491.43035888671875 184.24415588378906 
v 53.358177185058594 698.1517333984375 85.0423355102539 
v -368.568115234375 573.3560180664062 30.641910552978516 
v -466.718994140625 573.3560180664062 30.641910552978516 
v -368.5506286621094 399.35589599609375 30.641910552978516 
v -466.718994140625 399.35589599609375 30.641910552978516 
v 81.43877410888672 440.3187255859375 102.31536865234375 
v 81.43877410888672 440.3187255859375 85.91736602783203 
v 117.19998931884766 440.3187255859375 102.31536865234375 
v 122.32622528076172 440.3187255859375 85.91736602783203 
v -405.361572265625 399.35589599609375 -0.0015350700123235583 
v -405.361572265625 204.79563903808594 -0.0015350700123235583 
v -405.361572265625 399.35589599609375 30.641910552978516 
v -405.361572265625 204.79563903808594 81.83973693847656 
v -466.718994140625 399.35589599609375 30.641910552978516 
v -466.718994140625 573.3560180664062 30.641910552978516 
v -466.718994140625 399.35589599609375 -0.0015350700123235583 
v -466.718994140625 573.3560180664062 -0.0015350700123235583 
v 53.358177185058594 643.4354858398438 111.36315155029297 
v 81.92865753173828 643.4354858398438 111.36315155029297 
v 53.358177185058594 658.623779296875 111.67816162109375 
v 81.92865753173828 658.623779296875 111.67816162109375 
v 103.67581176757812 387.1947937011719 106.40174865722656 
v 103.67581176757812 411.67449951171875 106.40174865722656 
v 72.63844299316406 387.1947937011719 106.40174865722656 
v 72.63844299316406 411.67449951171875 106.40174865722656 
v 81.91116333007812 450.5550537109375 184.24415588378906 
v 81.91116333007812 491.43035888671875 184.24415588378906 
v 53.27069854736328 450.5550537109375 184.24415588378906 
v 53.27069854736328 491.43035888671875 184.24415588378906 
v 81.91116333007812 696.2269897460938 -0.08028750121593475 
v 81.91116333007812 696.2269897460938 85.91736602783203 
v 81.91116333007812 491.43035888671875 -0.08028750121593475 
v 81.91116333007812 491.43035888671875 85.91736602783203 
v 53.358177185058594 643.4354858398438 126.7198715209961 
v 53.358177185058594 612.9539794921875 126.00234985351562 
v 81.92865753173828 643.4354858398438 126.7198715209961 
v 81.92865753173828 612.9539794921875 126.00234985351562 
v 36.877227783203125 126.96453094482422 81.83973693847656 
v -286.6357727050781 126.96453094482422 81.83973693847656 
v 53.2881965637207 122.87000274658203 81.83973693847656 
v -286.6357727050781 122.87000274658203 81.83973693847656 
v 81.43877410888672 440.3187255859375 102.31536865234375 
v 117.19998931884766 440.3187255859375 102.31536865234375 
v 81.43877410888672 444.4657287597656 106.40174865722656 
v 112.47615051269531 444.4657287597656 106.40174865722656 
v 81.91116333007812 143.3601531982422 81.83973693847656 
v 53.2881965637207 143.3601531982422 81.83973693847656 
v 81.91116333007812 143.3601531982422 40.87972640991211 
v 53.2881965637207 143.3601531982422 40.87972640991211 
v 87.68473815917969 342.06744384765625 106.40174865722656 
v 56.647369384765625 342.06744384765625 106.40174865722656 
v 92.40857696533203 337.92041015625 102.31536865234375 
v 56.647369384765625 337.92041015625 102.31536865234375 
v 53.2881965637207 143.3601531982422 40.87972640991211 
v 53.2881965637207 143.3601531982422 81.83973693847656 
v 53.2881965637207 122.87000274658203 40.87972640991211 
v 53.2881965637207 122.87000274658203 81.83973693847656 
v 112.47615051269531 456.6268615722656 106.40174865722656 
v 117.19998931884766 460.7038879394531 102.31536865234375 
v 81.43877410888672 456.6268615722656 106.40174865722656 
v 81.43877410888672 460.7038879394531 102.31536865234375 
v -466.718994140625 573.3560180664062 30.641910552978516 
v -368.568115234375 573.3560180664062 30.641910552978516 
v -466.718994140625 573.3560180664062 -0.0015350700123235583 
v -368.568115234375 573.3560180664062 -0.0015350700123235583 
v 113.52589416503906 379.04071044921875 85.91736602783203 
v 108.39965057373047 379.04071044921875 102.31536865234375 
v 72.63844299316406 379.0232238769531 85.91736602783203 
v 72.63844299316406 379.0232238769531 102.31536865234375 
v -368.5506286621094 399.35589599609375 30.641910552978516 
v -405.361572265625 399.35589599609375 30.641910552978516 
v -368.5506286621094 204.79563903808594 81.83973693847656 
v -405.361572265625 204.79563903808594 81.83973693847656 
v 87.68473815917969 342.06744384765625 106.40174865722656 
v 87.68473815917969 354.2285461425781 106.40174865722656 
v 56.647369384765625 342.06744384765625 106.40174865722656 
v 56.647369384765625 354.2285461425781 106.40174865722656 
v -286.6357727050781 204.79563903808594 81.83973693847656 
v -344.004150390625 131.04156494140625 81.83973693847656 
v -344.004150390625 147.43719482421875 81.83973693847656 
v -360.39764404296875 147.43719482421875 81.83973693847656 
v -368.5506286621094 204.79563903808594 81.83973693847656 
v -405.4315490722656 204.79563903808594 81.83973693847656 
v -405.4315490722656 122.87000274658203 81.83973693847656 
v -360.39764404296875 131.04156494140625 81.83973693847656 
v 53.2881965637207 159.7557830810547 73.67573547363281 
v 53.27069854736328 450.5550537109375 184.24415588378906 
v 40.95372772216797 286.7212829589844 73.67573547363281 
v 53.2881965637207 159.7557830810547 73.67573547363281 
v 53.2881965637207 159.7557830810547 81.83973693847656 
v 53.27069854736328 450.5550537109375 184.24415588378906 
v 53.2881965637207 143.3601531982422 81.83973693847656 
v 36.877227783203125 126.96453094482422 73.67573547363281 
v 36.877227783203125 126.96453094482422 81.83973693847656 
v 36.877227783203125 126.96453094482422 81.83973693847656 
v 53.2881965637207 122.87000274658203 81.83973693847656 
v 53.2881965637207 159.7557830810547 73.67573547363281 
v 36.877227783203125 159.7557830810547 73.67573547363281 
v 53.2881965637207 159.7557830810547 81.83973693847656 
v 81.92865753173828 552.2359008789062 155.03575134277344 
v 81.92865753173828 552.2359008789062 169.68370056152344 
v 81.92865753173828 521.8244018554688 169.68370056152344 
v 81.92865753173828 521.8244018554688 184.2353973388672 
v 81.92865753173828 491.43035888671875 184.2353973388672 
v 53.358177185058594 696.156982421875 86.0836181640625 
v 53.358177185058594 658.623779296875 111.67816162109375 
v 81.92865753173828 658.623779296875 111.67816162109375 
v 81.92865753173828 582.6299438476562 140.4840545654297 
v 81.92865753173828 582.6299438476562 155.03575134277344 
v 81.92865753173828 612.9539794921875 126.00234985351562 
v 81.92865753173828 612.9539794921875 140.4840545654297 
v 81.92865753173828 643.4354858398438 126.7198715209961 
v 81.92865753173828 643.4354858398438 111.36315155029297 
v 81.92865753173828 696.156982421875 85.9961166381836 
v 53.358177185058594 696.156982421875 86.0836181640625 
v 81.92865753173828 658.623779296875 111.67816162109375 
v 81.92865753173828 658.623779296875 111.67816162109375 
v 81.92865753173828 696.156982421875 85.9961166381836 
v 122.32622528076172 442.8734130859375 102.31536865234375 
v 112.47615051269531 444.4657287597656 106.40174865722656 
v 117.19998931884766 440.3187255859375 102.31536865234375 
v 122.32622528076172 460.7038879394531 85.91736602783203 
v 117.19998931884766 460.7038879394531 102.31536865234375 
v 122.32622528076172 458.149169921875 102.31536865234375 
v 122.32622528076172 442.8734130859375 102.31536865234375 
v 117.19998931884766 440.3187255859375 102.31536865234375 
v 122.32622528076172 440.3187255859375 85.91736602783203 
v 117.19998931884766 460.7038879394531 102.31536865234375 
v 112.47615051269531 456.6268615722656 106.40174865722656 
v 122.32622528076172 458.149169921875 102.31536865234375 
v 97.51732635498047 340.4751281738281 102.31536865234375 
v 87.68473815917969 342.06744384765625 106.40174865722656 
v 92.40857696533203 337.92041015625 102.31536865234375 
v 97.51732635498047 358.30560302734375 85.91736602783203 
v 92.40857696533203 358.30560302734375 102.31536865234375 
v 97.51732635498047 355.7508850097656 102.31536865234375 
v 97.51732635498047 340.4751281738281 102.31536865234375 
v 92.40857696533203 337.92041015625 102.31536865234375 
v 97.51732635498047 337.92041015625 85.91736602783203 
v 92.40857696533203 358.30560302734375 102.31536865234375 
v 87.68473815917969 354.2285461425781 106.40174865722656 
v 97.51732635498047 355.7508850097656 102.31536865234375 
v 113.52589416503906 419.9160461425781 85.91736602783203 
v 108.39965057373047 419.9160461425781 102.31536865234375 
v 113.52589416503906 414.78912353515625 102.31536865234375 
v 108.39965057373047 419.9160461425781 102.31536865234375 
v 103.67581176757812 411.67449951171875 106.40174865722656 
v 113.52589416503906 414.78912353515625 102.31536865234375 
v 113.52589416503906 384.150146484375 102.31536865234375 
v 108.39965057373047 379.04071044921875 102.31536865234375 
v 113.52589416503906 379.04071044921875 85.91736602783203 
v 113.52589416503906 384.150146484375 102.31536865234375 
v 103.67581176757812 387.1947937011719 106.40174865722656 
v 108.39965057373047 379.04071044921875 102.31536865234375 
vn 0.999997615814209 0 0.002184694167226553 
vn 0.999997615814209 0 0.002184694167226553 
vn 0.999997615814209 0 0.002184694167226553 
vn 0.999997615814209 0 0.002184694167226553 
vn 0.999997615814209 0 0.002184694167226553 
vn 0.999997615814209 0 0.002184694167226553 
vn 0.999997615814209 0 0.002184694167226553 
vn -1.0341130485562108e-13 0.999997615814209 0.002184694167226553 
vn -1.0341130485562108e-13 0.999997615814209 0.002184694167226553 
vn -1.0341130485562108e-13 0.999997615814209 0.002184694167226553 
vn -1.0341130485562108e-13 0.999997615814209 0.002184694167226553 
vn 0.001881469041109085 -0.44676944613456726 0.8946471214294434 
vn 0.001881469041109085 -0.44676944613456726 0.8946471214294434 
vn 0.001881469041109085 -0.44676944613456726 0.8946471214294434 
vn 0.001881469041109085 -0.44676944613456726 0.8946471214294434 
vn 0.0037601871881633997 0.44284412264823914 0.8965907096862793 
vn 0.0037601871881633997 0.44284412264823914 0.8965907096862793 
vn 0.0037601871881633997 0.44284412264823914 0.8965907096862793 
vn 0.0037601871881633997 0.44284412264823914 0.8965907096862793 
vn 0.00376924779266119 0.707868754863739 0.7063339352607727 
vn 0.00376924779266119 0.707868754863739 0.7063339352607727 
vn 0.00376924779266119 0.707868754863739 0.7063339352607727 
vn 0.00376924779266119 0.707868754863739 0.7063339352607727 
vn 0.3831879794597626 0 0.9236704111099243 
vn 0.3831879794597626 0 0.9236704111099243 
vn 0.3831879794597626 0 0.9236704111099243 
vn 0.3831879794597626 0 0.9236704111099243 
vn -1.0341130485562108e-13 0.999997615814209 0.002184694167226553 
vn -1.0341130485562108e-13 0.999997615814209 0.002184694167226553 
vn -1.0341130485562108e-13 0.999997615814209 0.002184694167226553 
vn -1.0341130485562108e-13 0.999997615814209 0.002184694167226553 
vn 3.097898456858039e-13 -0.999997615814209 0.002184694167226553 
vn 3.097898456858039e-13 -0.999997615814209 0.002184694167226553 
vn 3.097898456858039e-13 -0.999997615814209 0.002184694167226553 
vn 3.097898456858039e-13 -0.999997615814209 0.002184694167226553 
vn 3.097898456858039e-13 -0.999997615814209 0.002184694167226553 
vn 3.097898456858039e-13 -0.999997615814209 0.002184694167226553 
vn 3.097898456858039e-13 -0.999997615814209 0.002184694167226553 
vn 3.097898456858039e-13 -0.999997615814209 0.002184694167226553 
vn -1.0341130485562108e-13 0.999997615814209 0.002184694167226553 
vn -1.0341130485562108e-13 0.999997615814209 0.002184694167226553 
vn -1.0341130485562108e-13 0.999997615814209 0.002184694167226553 
vn -1.0341130485562108e-13 0.999997615814209 0.002184694167226553 
vn 0 0 1 
vn 0 0 1 
vn 0 0 1 
vn 0 0 1 
vn -1.0341130485562108e-13 0.999997615814209 0.002184694167226553 
vn -1.0341130485562108e-13 0.999997615814209 0.002184694167226553 
vn -1.0341130485562108e-13 0.999997615814209 0.002184694167226553 
vn -1.0341130485562108e-13 0.999997615814209 0.002184694167226553 
vn 0.3831879794597626 0 0.9236704111099243 
vn 0.3831879794597626 0 0.9236704111099243 
vn 0.3831879794597626 0 0.9236704111099243 
vn 0.3831879794597626 0 0.9236704111099243 
vn 0 0 1 
vn 0 0 1 
vn 0 0 1 
vn 0 0 1 
vn -1.0341130485562108e-13 0.999997615814209 0.002184694167226553 
vn -1.0341130485562108e-13 0.999997615814209 0.002184694167226553 
vn -1.0341130485562108e-13 0.999997615814209 0.002184694167226553 
vn -1.0341130485562108e-13 0.999997615814209 0.002184694167226553 
vn -0.0018818661337718368 -0.33424773812294006 0.9424833655357361 
vn -0.0018818661337718368 -0.33424773812294006 0.9424833655357361 
vn -0.0018818661337718368 -0.33424773812294006 0.9424833655357361 
vn -0.0018818661337718368 -0.33424773812294006 0.9424833655357361 
vn -1.0341130485562108e-13 0.999997615814209 0.002184694167226553 
vn -1.0341130485562108e-13 0.999997615814209 0.002184694167226553 
vn -1.0341130485562108e-13 0.999997615814209 0.002184694167226553 
vn -1.0341130485562108e-13 0.999997615814209 0.002184694167226553 
vn -1.0341130485562108e-13 0.999997615814209 0.002184694167226553 
vn -1.0341130485562108e-13 0.999997615814209 0.002184694167226553 
vn -1.0341130485562108e-13 0.999997615814209 0.002184694167226553 
vn -1.0341130485562108e-13 0.999997615814209 0.002184694167226553 
vn 0 0 1 
vn 0 0 1 
vn 0 0 1 
vn 0 0 1 
vn 0.999997615814209 0 0.002184694167226553 
vn 0.999997615814209 0 0.002184694167226553 
vn 0.999997615814209 0 0.002184694167226553 
vn 0.999997615814209 0 0.002184694167226553 
vn 0 0 1 
vn 0 0 1 
vn 0 0 1 
vn 0 0 1 
vn -1.0341130485562108e-13 0.999997615814209 0.002184694167226553 
vn -1.0341130485562108e-13 0.999997615814209 0.002184694167226553 
vn -1.0341130485562108e-13 0.999997615814209 0.002184694167226553 
vn -1.0341130485562108e-13 0.999997615814209 0.002184694167226553 
vn 0.3831879794597626 0 0.9236704111099243 
vn 0.3831879794597626 0 0.9236704111099243 
vn 0.3831879794597626 0 0.9236704111099243 
vn 0.3831879794597626 0 0.9236704111099243 
vn 0 0 1 
vn 0 0 1 
vn 0 0 1 
vn 0 0 1 
vn -0.999997615814209 -2.0682260971124217e-13 0.002184694167226553 
vn -0.999997615814209 -2.0682260971124217e-13 0.002184694167226553 
vn -0.999997615814209 -2.0682260971124217e-13 0.002184694167226553 
vn -0.999997615814209 -2.0682260971124217e-13 0.002184694167226553 
vn -1.0341130485562108e-13 0.999997615814209 0.002184694167226553 
vn -1.0341130485562108e-13 0.999997615814209 0.002184694167226553 
vn -1.0341130485562108e-13 0.999997615814209 0.002184694167226553 
vn -1.0341130485562108e-13 0.999997615814209 0.002184694167226553 
vn 0 0 1 
vn 0 0 1 
vn 0 0 1 
vn 0 0 1 
vn 3.097898456858039e-13 -0.999997615814209 0.002184694167226553 
vn 3.097898456858039e-13 -0.999997615814209 0.002184694167226553 
vn 3.097898456858039e-13 -0.999997615814209 0.002184694167226553 
vn 3.097898456858039e-13 -0.999997615814209 0.002184694167226553 
vn -0.44675755500793457 0.0037629047874361277 0.8946471214294434 
vn -0.44675755500793457 0.0037629047874361277 0.8946471214294434 
vn -0.44675755500793457 0.0037629047874361277 0.8946471214294434 
vn -0.44675755500793457 0.0037629047874361277 0.8946471214294434 
vn -0.44675755500793457 0.0037629047874361277 0.8946471214294434 
vn -4.467330368476685e-14 0.4310697019100189 0.9023185968399048 
vn -4.467330368476685e-14 0.4310697019100189 0.9023185968399048 
vn -4.467330368476685e-14 0.4310697019100189 0.9023185968399048 
vn -4.467330368476685e-14 0.4310697019100189 0.9023185968399048 
vn 0 0 1 
vn 0 0 1 
vn 0 0 1 
vn 0 0 1 
vn 3.097898456858039e-13 -0.999997615814209 0.002184694167226553 
vn 3.097898456858039e-13 -0.999997615814209 0.002184694167226553 
vn 3.097898456858039e-13 -0.999997615814209 0.002184694167226553 
vn 3.097898456858039e-13 -0.999997615814209 0.002184694167226553 
vn -0.999997615814209 -2.0682260971124217e-13 0.002184694167226553 
vn -0.999997615814209 -2.0682260971124217e-13 0.002184694167226553 
vn -0.999997615814209 -2.0682260971124217e-13 0.002184694167226553 
vn -0.999997615814209 -2.0682260971124217e-13 0.002184694167226553 
vn -0.999997615814209 -2.0682260971124217e-13 0.002184694167226553 
vn -0.999997615814209 -2.0682260971124217e-13 0.002184694167226553 
vn -0.999997615814209 -2.0682260971124217e-13 0.002184694167226553 
vn -0.999997615814209 -2.0682260971124217e-13 0.002184694167226553 
vn 6.767443423954644e-15 -0.021845221519470215 0.9997613430023193 
vn 6.767443423954644e-15 -0.021845221519470215 0.9997613430023193 
vn 6.767443423954644e-15 -0.021845221519470215 0.9997613430023193 
vn 6.767443423954644e-15 -0.021845221519470215 0.9997613430023193 
vn 0 0 1 
vn 0 0 1 
vn 0 0 1 
vn 0 0 1 
vn 0 0 1 
vn 0 0 1 
vn 0 0 1 
vn 0 0 1 
vn 0.999997615814209 0 0.002184694167226553 
vn 0.999997615814209 0 0.002184694167226553 
vn 0.999997615814209 0 0.002184694167226553 
vn 0.999997615814209 0 0.002184694167226553 
vn 6.767443423954644e-15 -0.021845221519470215 0.9997613430023193 
vn 6.767443423954644e-15 -0.021845221519470215 0.9997613430023193 
vn 6.767443423954644e-15 -0.021845221519470215 0.9997613430023193 
vn 6.767443423954644e-15 -0.021845221519470215 0.9997613430023193 
vn 0 0 1 
vn 0 0 1 
vn 0 0 1 
vn 0 0 1 
vn 0.0018840922275558114 -0.7016767859458923 0.7124928832054138 
vn 0.0018840922275558114 -0.7016767859458923 0.7124928832054138 
vn 0.0018840922275558114 -0.7016767859458923 0.7124928832054138 
vn 0.0018840922275558114 -0.7016767859458923 0.7124928832054138 
vn 3.097898456858039e-13 -0.999997615814209 0.002184694167226553 
vn 3.097898456858039e-13 -0.999997615814209 0.002184694167226553 
vn 3.097898456858039e-13 -0.999997615814209 0.002184694167226553 
vn 3.097898456858039e-13 -0.999997615814209 0.002184694167226553 
vn 0.0018840922275558114 -0.7016767859458923 0.7124928832054138 
vn 0.0018840922275558114 -0.7016767859458923 0.7124928832054138 
vn 0.0018840922275558114 -0.7016767859458923 0.7124928832054138 
vn 0.0018840922275558114 -0.7016767859458923 0.7124928832054138 
vn 0.999997615814209 0 0.002184694167226553 
vn 0.999997615814209 0 0.002184694167226553 
vn 0.999997615814209 0 0.002184694167226553 
vn 0.999997615814209 0 0.002184694167226553 
vn 0.00376924779266119 0.707868754863739 0.7063339352607727 
vn 0.00376924779266119 0.707868754863739 0.7063339352607727 
vn 0.00376924779266119 0.707868754863739 0.7063339352607727 
vn 0.00376924779266119 0.707868754863739 0.7063339352607727 
vn -1.0341130485562108e-13 0.999997615814209 0.002184694167226553 
vn -1.0341130485562108e-13 0.999997615814209 0.002184694167226553 
vn -1.0341130485562108e-13 0.999997615814209 0.002184694167226553 
vn -1.0341130485562108e-13 0.999997615814209 0.002184694167226553 
vn 3.097898456858039e-13 -0.999997615814209 0.002184694167226553 
vn 3.097898456858039e-13 -0.999997615814209 0.002184694167226553 
vn 3.097898456858039e-13 -0.999997615814209 0.002184694167226553 
vn 3.097898456858039e-13 -0.999997615814209 0.002184694167226553 
vn 0.0018801316618919373 0.25494125485420227 0.9669547080993652 
vn 0.0018801316618919373 0.25494125485420227 0.9669547080993652 
vn 0.0018801316618919373 0.25494125485420227 0.9669547080993652 
vn 0.0018801316618919373 0.25494125485420227 0.9669547080993652 
vn 0 0 1 
vn 0 0 1 
vn 0 0 1 
vn 0 0 1 
vn 0 0 1 
vn 0 0 1 
vn 0 0 1 
vn 0 0 1 
vn 0 0 1 
vn 0 0 1 
vn 0 0 1 
vn 0 0 1 
vn -0.965093195438385 -0.09422362595796585 0.24437066912651062 
vn -0.965093195438385 -0.09422362595796585 0.24437066912651062 
vn -0.965093195438385 -0.09422362595796585 0.24437066912651062 
vn -0.999997615814209 -2.0682260971124217e-13 0.002184694167226553 
vn -0.999997615814209 -2.0682260971124217e-13 0.002184694167226553 
vn -0.999997615814209 -2.0682260971124217e-13 0.002184694167226553 
vn -0.7071051001548767 0.7071051001548767 0.002184694167226553 
vn -0.7071051001548767 0.7071051001548767 0.002184694167226553 
vn -0.7071051001548767 0.7071051001548767 0.002184694167226553 
vn 0 0 1 
vn 0 0 1 
vn -1.0341130485562108e-13 0.999997615814209 0.002184694167226553 
vn -1.0341130485562108e-13 0.999997615814209 0.002184694167226553 
vn -1.0341130485562108e-13 0.999997615814209 0.002184694167226553 
vn 0.999997615814209 0 0.002184694167226553 
vn 0.999997615814209 0 0.002184694167226553 
vn 0.999997615814209 0 0.002184694167226553 
vn 0.999997615814209 0 0.002184694167226553 
vn 0.999997615814209 0 0.002184694167226553 
vn 0.0037664873525500298 0.5634793639183044 0.8261215686798096 
vn 0.0037664873525500298 0.5634793639183044 0.8261215686798096 
vn 0.0037664873525500298 0.5634793639183044 0.8261215686798096 
vn 0.999997615814209 0 0.002184694167226553 
vn 0.999997615814209 0 0.002184694167226553 
vn 0.999997615814209 0 0.002184694167226553 
vn 0.999997615814209 0 0.002184694167226553 
vn 0.999997615814209 0 0.002184694167226553 
vn 0.999997615814209 0 0.002184694167226553 
vn 0.0037664873525500298 0.5634793639183044 0.8261215686798096 
vn 0.0037664873525500298 0.5634793639183044 0.8261215686798096 
vn 0.0037664873525500298 0.5634793639183044 0.8261215686798096 
vn 0.999997615814209 0 0.002184694167226553 
vn 0.999997615814209 0 0.002184694167226553 
vn 0.259538859128952 -0.512277364730835 0.8186644315719604 
vn 0.259538859128952 -0.512277364730835 0.8186644315719604 
vn 0.259538859128952 -0.512277364730835 0.8186644315719604 
vn 0.4454910159111023 0.884710967540741 0.1372016966342926 
vn 0.4454910159111023 0.884710967540741 0.1372016966342926 
vn 0.4454910159111023 0.884710967540741 0.1372016966342926 
vn 0.4454910159111023 -0.884710967540741 0.1372016966342926 
vn 0.4454910159111023 -0.884710967540741 0.1372016966342926 
vn 0.4454910159111023 -0.884710967540741 0.1372016966342926 
vn 0.2579636871814728 0.5170668363571167 0.8161473870277405 
vn 0.2579636871814728 0.5170668363571167 0.8161473870277405 
vn 0.2579636871814728 0.5170668363571167 0.8161473870277405 
vn 0.259538859128952 -0.512277364730835 0.8186644315719604 
vn 0.259538859128952 -0.512277364730835 0.8186644315719604 
vn 0.259538859128952 -0.512277364730835 0.8186644315719604 
vn 0.4454910159111023 0.884710967540741 0.1372016966342926 
vn 0.4454910159111023 0.884710967540741 0.1372016966342926 
vn 0.4454910159111023 0.884710967540741 0.1372016966342926 
vn 0.4454910159111023 -0.884710967540741 0.1372016966342926 
vn 0.4454910159111023 -0.884710967540741 0.1372016966342926 
vn 0.4454910159111023 -0.884710967540741 0.1372016966342926 
vn 0.2579636871814728 0.5170668363571167 0.8161473870277405 
vn 0.2579636871814728 0.5170668363571167 0.8161473870277405 
vn 0.2579636871814728 0.5170668363571167 0.8161473870277405 
vn 0.6886277794837952 0.6926308870315552 0.21460255980491638 
vn 0.6886277794837952 0.6926308870315552 0.21460255980491638 
vn 0.6886277794837952 0.6926308870315552 0.21460255980491638 
vn 0.29063114523887634 0.2853093147277832 0.913308322429657 
vn 0.29063114523887634 0.2853093147277832 0.913308322429657 
vn 0.29063114523887634 0.2853093147277832 0.913308322429657 
vn 0.6886277794837952 -0.6926308870315552 0.21460255980491638 
vn 0.6886277794837952 -0.6926308870315552 0.21460255980491638 
vn 0.6886277794837952 -0.6926308870315552 0.21460255980491638 
vn 0.29063114523887634 -0.2853093147277832 0.913308322429657 
vn 0.29063114523887634 -0.2853093147277832 0.913308322429657 
vn 0.29063114523887634 -0.2853093147277832 0.913308322429657 
vt -14.001965522766113 3.1602063179016113 
vt -14.001965522766113 5.156313419342041 
vt -13.203099250793457 3.1602063179016113 
vt -5.019472599029541 2.960890531539917 
vt 0.9667680263519287 -1.8281265497207642 
vt 12.943426132202148 2.960890531539917 
vt 2.9629311561584473 -1.8281265497207642 
vt 1.4668129682540894 0.2559153735637665 
vt 0.06837406754493713 0.2559153735637665 
vt 1.4668129682540894 0.9668102860450745 
vt 0.06837406754493713 0.9668102860450745 
vt -3.0233895778656006 0.9668102860450745 
vt 0.46881163120269775 0.9668102860450745 
vt -3.0233895778656006 0.4023045301437378 
vt 0.007806380279362202 0.4023045301437378 
vt 0.9277283549308777 0.4023045301437378 
vt 0.4668034315109253 0.9668102860450745 
vt 3.960932493209839 0.4023045301437378 
vt 3.960932493209839 0.9668102860450745 
vt 0.9277283549308777 0.4023045301437378 
vt 0.4668034315109253 0.9668102860450745 
vt 3.960932493209839 0.4023045301437378 
vt 3.960932493209839 0.9668102860450745 
vt -0.6288772821426392 -0.07030492275953293 
vt -0.777324378490448 0.9668102860450745 
vt 0.5684189796447754 -0.07030492275953293 
vt 0.716785728931427 0.9668102860450745 
vt -0.7324207425117493 1.3632770776748657 
vt 14.939509391784668 1.3632770776748657 
vt -0.7324207425117493 0.9668102860450745 
vt 14.939509391784668 0.9668102860450745 
vt 2.9629311561584473 -0.5293257236480713 
vt 0.16798141598701477 -0.5293257236480713 
vt 2.9629311561584473 0.9668102860450745 
vt 0.16798141598701477 0.9668102860450745 
vt 0.00001451600019208854 -0.00001232940030604368 
vt 0.00001451600019208854 3.9589900970458984 
vt 22.324188232421875 -0.00001232940030604368 
vt 22.324188232421875 3.9589900970458984 
vt 0.06837406754493713 2.378880739212036 
vt 1.4668129682540894 2.378880739212036 
vt 0.06837406754493713 1.6679857969284058 
vt 1.4668129682540894 1.6679857969284058 
vt 1.3651974201202393 1.9609023332595825 
vt 0.00001451600019208854 1.9609023332595825 
vt 1.3651974201202393 3.443403482437134 
vt 0.00001451600019208854 3.443403482437134 
vt -1.679734706878662 -0.14262430369853973 
vt -2.025388240814209 0.9668102860450745 
vt 0.7440974116325378 -0.14262430369853973 
vt 0.7440974116325378 0.9668102860450745 
vt 0.716785728931427 0.9668102860450745 
vt 0.5684189796447754 -0.07030492275953293 
vt -0.777324378490448 0.9668102860450745 
vt -0.6288772821426392 -0.07030492275953293 
vt 1.165982723236084 -3.06451153755188 
vt 0.00001451600019208854 -3.06451153755188 
vt 1.165982723236084 -0.00001232940030604368 
vt 0.00001451600019208854 -0.00001232940030604368 
vt -1.679734706878662 -0.14262430369853973 
vt -2.025388240814209 0.9668102860450745 
vt 0.7440974116325378 -0.14262430369853973 
vt 0.7440974116325378 0.9668102860450745 
vt 1.7656348943710327 -15.001999855041504 
vt 0.36719608306884766 -15.001999855041504 
vt 1.7656348943710327 -0.8301190733909607 
vt 0.36719608306884766 -0.8301190733909607 
vt 0.06837406754493713 3.794912576675415 
vt 1.4668129682540894 3.792978048324585 
vt 0.06837406754493713 3.044909954071045 
vt 1.4668129682540894 3.044909954071045 
vt 0.06837406754493713 1.6719012260437012 
vt 1.4668129682540894 1.6719012260437012 
vt 0.06837406754493713 0.9628949165344238 
vt 1.4668129682540894 0.9628949165344238 
vt 17.734378814697266 -0.00001232940030604368 
vt 17.734378814697266 -0.8301190733909607 
vt 16.335859298706055 -0.00001232940030604368 
vt 16.335859298706055 -0.8301190733909607 
vt 3.7617177963256836 0.5684087872505188 
vt 0.00001451600019208854 0.5684087872505188 
vt 3.7617177963256836 0.9668102860450745 
vt 0.00001451600019208854 0.9668102860450745 
vt 1.3651974201202393 3.4413769245147705 
vt 0.00001451600019208854 3.4413769245147705 
vt 1.3651974201202393 4.925812721252441 
vt 0.00001451600019208854 4.925812721252441 
vt 1.4668129682540894 2.375011444091797 
vt 0.06837406754493713 2.375011444091797 
vt 1.4668129682540894 3.0859062671661377 
vt 0.06837406754493713 3.0859062671661377 
vt 0.716785728931427 0.9668102860450745 
vt 0.5684189796447754 -0.07030492275953293 
vt -0.777324378490448 0.9668102860450745 
vt -0.6288772821426392 -0.07030492275953293 
vt 0.00001451600019208854 6.40628719329834 
vt 1.3651974201202393 6.40628719329834 
vt 0.00001451600019208854 4.923786163330078 
vt 1.3651974201202393 4.923786163330078 
vt 0.9667680263519287 0.9668102860450745 
vt 0.9667680263519287 -2.5253865718841553 
vt -3.0233895778656006 0.9668102860450745 
vt -3.0233895778656006 -1.9551230669021606 
vt -1.679734706878662 -0.14262430369853973 
vt -2.025388240814209 0.9668102860450745 
vt 0.7440974116325378 -0.14262430369853973 
vt 0.7440974116325378 0.9668102860450745 
vt 0.00001451600019208854 1.9628831148147583 
vt 1.3651974201202393 1.9628831148147583 
vt 0.00001451600019208854 0.4824086129665375 
vt 1.3651974201202393 0.4824086129665375 
vt 0.7440974116325378 0.9668102860450745 
vt 0.39836356043815613 -0.14262430369853973 
vt -2.025388240814209 0.9668102860450745 
vt -2.025388240814209 -0.14262430369853973 
vt 0.9667680263519287 -0.00001232940030604368 
vt -0.14650467038154602 -0.00001232940030604368 
vt 0.9667680263519287 0.9668102860450745 
vt -0.14650467038154602 0.9668102860450745 
vt -0.14650467038154602 1.9628831148147583 
vt 0.00001451600019208854 0.9668102860450745 
vt 11.146477699279785 0.9668102860450745 
vt 0.00001451600019208854 -0.42969077825546265 
vt 11.146477699279785 -0.42969077825546265 
vt 0.9667680263519287 -6.0195183753967285 
vt -3.8223369121551514 -6.0195183753967285 
vt 0.9667680263519287 0.9668102860450745 
vt -3.8223369121551514 0.9668102860450745 
vt -2.025388240814209 -0.14262430369853973 
vt -2.025388240814209 0.9668102860450745 
vt 0.39836356043815613 -0.14262430369853973 
vt 0.7440974116325378 0.9668102860450745 
vt -13.003884315490723 0.9668102860450745 
vt -3.0233895778656006 0.9668102860450745 
vt -13.003884315490723 -0.5293257236480713 
vt -3.0233895778656006 -1.9551230669021606 
vt -13.003884315490723 -0.5293257236480713 
vt -19.791000366210938 -0.5293257236480713 
vt -13.003884315490723 0.9668102860450745 
vt -19.791000366210938 0.9668102860450745 
vt 1.3651974201202393 7.890584945678711 
vt 0.00001451600019208854 7.890584945678711 
vt 1.3651974201202393 8.632802963256836 
vt 0.00001451600019208854 8.632802963256836 
vt 0.00001451600019208854 -0.00001232940030604368 
vt 1.165982723236084 -0.00001232940030604368 
vt 0.00001451600019208854 -3.06451153755188 
vt 1.165982723236084 -3.06451153755188 
vt 0.00001451600019208854 -1.5136984586715698 
vt 0.00001451600019208854 0.4824086129665375 
vt 1.3651974201202393 -1.5136984586715698 
vt 1.3651974201202393 0.4824086129665375 
vt 8.951179504394531 9.14838981628418 
vt 8.951179504394531 4.956997394561768 
vt -1.0273066759109497 9.14838981628418 
vt -1.0273066759109497 4.956997394561768 
vt 1.3651974201202393 7.890584945678711 
vt 1.3651974201202393 6.404306411743164 
vt 0.00001451600019208854 7.890584945678711 
vt 0.00001451600019208854 6.404306411743164 
vt 21.431577682495117 3.759812355041504 
vt 5.757800579071045 3.759812355041504 
vt 22.324188232421875 3.9589900970458984 
vt 5.757800579071045 3.9589900970458984 
vt -3.0233895778656006 0.9668102860450745 
vt 0.46881163120269775 0.9668102860450745 
vt -3.0233895778656006 0.4023045301437378 
vt 0.007806380279362202 0.4023045301437378 
vt 1.4668129682540894 -0.00001232940030604368 
vt 0.06837406754493713 -0.00001232940030604368 
vt 1.4668129682540894 1.9628831148147583 
vt 0.06837406754493713 1.9628831148147583 
vt 0.007806380279362202 0.4023045301437378 
vt -3.0233895778656006 0.4023045301437378 
vt 0.46881163120269775 0.9668102860450745 
vt -3.0233895778656006 0.9668102860450745 
vt 0.9667680263519287 0.9668102860450745 
vt 0.9667680263519287 -1.0292967557907104 
vt 0.00001451600019208854 0.9668102860450745 
vt 0.00001451600019208854 -1.0292967557907104 
vt 0.9277283549308777 0.4023045301437378 
vt 0.4668034315109253 0.9668102860450745 
vt 3.960932493209839 0.4023045301437378 
vt 3.960932493209839 0.9668102860450745 
vt 0.9667680263519287 -0.5293257236480713 
vt -3.8223369121551514 -0.5293257236480713 
vt 0.9667680263519287 0.9668102860450745 
vt -3.8223369121551514 0.9668102860450745 
vt 0.7440974116325378 0.9668102860450745 
vt 0.39836356043815613 -0.14262430369853973 
vt -2.025388240814209 0.9668102860450745 
vt -2.025388240814209 -0.14262430369853973 
vt 0.00001451600019208854 -10.011686325073242 
vt -1.8261735439300537 -10.011686325073242 
vt 0.00001451600019208854 -0.00001232940030604368 
vt -1.8261735439300537 -0.00001232940030604368 
vt 0.00001451600019208854 -0.00001232940030604368 
vt 1.165982723236084 -0.00001232940030604368 
vt 0.00001451600019208854 -3.06451153755188 
vt 1.165982723236084 -3.06451153755188 
vt 5.757800579071045 -0.00001232940030604368 
vt 2.9629311561584473 3.5604965686798096 
vt 2.9629311561584473 2.7617127895355225 
vt 2.164064407348633 2.7617127895355225 
vt 1.7656348943710327 -0.00001232940030604368 
vt 0.00001451600019208854 -0.00001232940030604368 
vt 0.00001451600019208854 3.9589900970458984 
vt 2.164064407348633 3.5604965686798096 
vt 6.955097198486328 0.9668102860450745 
vt -7.14841890335083 -4.593812942504883 
vt 0.7383137345314026 0.9668102860450745 
vt 6.955097198486328 0.9668102860450745 
vt 6.955097198486328 0.5801088809967041 
vt -7.14841890335083 -4.593812942504883 
vt 0.00001451600019208854 0.5684087872505188 
vt 1.1679909229278564 0.9668102860450745 
vt 1.1679909229278564 0.5684087872505188 
vt 15.44340991973877 0.7675865292549133 
vt 16.335859298706055 0.9668102860450745 
vt 0.16798141598701477 0.9668102860450745 
vt 0.9667680263519287 0.9668102860450745 
vt 0.16798141598701477 0.5684087872505188 
vt 1.9336018562316895 1.5878818035125732 
vt 1.9355297088623047 0.8788754343986511 
vt 0.45121970772743225 0.8788754343986511 
vt 0.45306724309921265 0.16798052191734314 
vt -1.0273066759109497 0.16798052191734314 
vt 1.3651974201202393 2.181591510772705 
vt 1.3651974201202393 -0.00001232940030604368 
vt 0.00001451600019208854 -0.00001232940030604368 
vt 3.4140560626983643 2.298776626586914 
vt 3.4159839153289795 1.5878818035125732 
vt 4.894510269165039 3.009809732437134 
vt 4.896518707275391 2.298776626586914 
vt 6.380908966064453 2.9745712280273438 
vt 6.380908966064453 3.7226853370666504 
vt 0.00001451600019208854 2.183572292327881 
vt 1.3651974201202393 2.181591510772705 
vt 0.00001451600019208854 -0.00001232940030604368 
vt 7.122983455657959 3.7050890922546387 
vt 8.951179504394531 4.956997394561768 
vt 0.9667680263519287 0.9668102860450745 
vt 0.9667680263519287 -0.3437827229499817 
vt 0.5077709555625916 0.4414122700691223 
vt 0.5272907614707947 1.0897992849349976 
vt 0.5272907614707947 -0.07030492275953293 
vt 0.1523173451423645 0.033199310302734375 
vt 0.7461056113243103 -0.14059752225875854 
vt 0.35940423607826233 -0.11332804709672928 
vt 0.7461056113243103 0.9804911017417908 
vt 0.35546812415122986 0.9668102860450745 
vt 0.5175710320472717 0.4883047044277191 
vt 0.00001451600019208854 0.9668102860450745 
vt 0.9667680263519287 0.9668102860450745 
vt 0.9667680263519287 -0.3437827229499817 
vt 0.5077709555625916 0.4414122700691223 
vt 0.5272907614707947 1.0897992849349976 
vt 0.5272907614707947 -0.07030492275953293 
vt 0.1523173451423645 0.033199310302734375 
vt 0.7461056113243103 -0.14059752225875854 
vt 0.35940423607826233 -0.11332804709672928 
vt 0.7461056113243103 0.9804911017417908 
vt 0.35546812415122986 0.9668102860450745 
vt 0.5175710320472717 0.4883047044277191 
vt 0.00001451600019208854 0.9668102860450745 
vt 0.5272907614707947 1.0897992849349976 
vt 0.5272907614707947 -0.07030492275953293 
vt 0.1523173451423645 0.033199310302734375 
vt 0.35546812415122986 0.9668102860450745 
vt 0.5175710320472717 0.4883047044277191 
vt 0.00001451600019208854 0.9668102860450745 
vt 0.7461056113243103 -0.14059752225875854 
vt 0.35940423607826233 -0.11332804709672928 
vt 0.7461056113243103 0.9804911017417908 
vt 0.9667680263519287 0.9668102860450745 
vt 0.9667680263519287 -0.3437827229499817 
vt 0.5077709555625916 0.4414122700691223 
s on 
f 1/1/1 2/2/2 3/3/3 
f 2/2/2 4/4/4 3/3/3 
f 3/3/3 4/4/4 5/5/5 
f 4/4/4 6/6/6 5/5/5 
f 5/5/5 6/6/6 7/7/7 
f 6/6/6 7/7/7 7/7/7 
f 7/7/7 7/7/7 8/8/8 
f 7/7/7 8/8/8 8/8/8 
f 8/8/8 8/8/8 8/8/8 
f 8/8/8 9/9/9 8/8/8 
f 8/8/8 9/9/9 10/10/10 
f 9/9/9 11/11/11 10/10/10 
f 10/10/10 11/11/11 11/11/11 
f 11/11/11 12/12/12 11/11/11 
f 11/11/11 12/12/12 12/12/12 
f 12/12/12 13/13/13 12/12/12 
f 12/12/12 13/13/13 14/14/14 
f 13/13/13 15/15/15 14/14/14 
f 14/14/14 15/15/15 15/15/15 
f 15/15/15 16/16/16 15/15/15 
f 15/15/15 16/16/16 16/16/16 
f 16/16/16 17/17/17 16/16/16 
f 16/16/16 17/17/17 18/18/18 
f 17/17/17 19/19/19 18/18/18 
f 18/18/18 19/19/19 19/19/19 
f 19/19/19 20/20/20 19/19/19 
f 19/19/19 20/20/20 20/20/20 
f 20/20/20 21/21/21 20/20/20 
f 20/20/20 21/21/21 22/22/22 
f 21/21/21 23/23/23 22/22/22 
f 22/22/22 23/23/23 23/23/23 
f 23/23/23 24/24/24 23/23/23 
f 23/23/23 24/24/24 24/24/24 
f 24/24/24 25/25/25 24/24/24 
f 24/24/24 25/25/25 26/26/26 
f 25/25/25 27/27/27 26/26/26 
f 26/26/26 27/27/27 27/27/27 
f 27/27/27 28/28/28 27/27/27 
f 27/27/27 28/28/28 28/28/28 
f 28/28/28 29/29/29 28/28/28 
f 28/28/28 29/29/29 30/30/30 
f 29/29/29 31/31/31 30/30/30 
f 30/30/30 31/31/31 31/31/31 
f 31/31/31 32/32/32 31/31/31 
f 31/31/31 32/32/32 32/32/32 
f 32/32/32 33/33/33 32/32/32 
f 32/32/32 33/33/33 34/34/34 
f 33/33/33 35/35/35 34/34/34 
f 34/34/34 35/35/35 35/35/35 
f 35/35/35 36/36/36 35/35/35 
f 35/35/35 36/36/36 36/36/36 
f 36/36/36 37/37/37 36/36/36 
f 36/36/36 37/37/37 38/38/38 
f 37/37/37 39/39/39 38/38/38 
f 38/38/38 39/39/39 39/39/39 
f 39/39/39 40/40/40 39/39/39 
f 39/39/39 40/40/40 40/40/40 
f 40/40/40 41/41/41 40/40/40 
f 40/40/40 41/41/41 42/42/42 
f 41/41/41 43/43/43 42/42/42 
f 42/42/42 43/43/43 43/43/43 
f 43/43/43 44/44/44 43/43/43 
f 43/43/43 44/44/44 44/44/44 
f 44/44/44 45/45/45 44/44/44 
f 44/44/44 45/45/45 46/46/46 
f 45/45/45 47/47/47 46/46/46 
f 46/46/46 47/47/47 47/47/47 
f 47/47/47 48/48/48 47/47/47 
f 47/47/47 48/48/48 48/48/48 
f 48/48/48 49/49/49 48/48/48 
f 48/48/48 49/49/49 50/50/50 
f 49/49/49 51/51/51 50/50/50 
f 50/50/50 51/51/51 51/51/51 
f 51/51/51 52/52/52 51/51/51 
f 51/51/51 52/52/52 52/52/52 
f 52/52/52 53/53/53 52/52/52 
f 52/52/52 53/53/53 54/54/54 
f 53/53/53 55/55/55 54/54/54 
f 54/54/54 55/55/55 55/55/55 
f 55/55/55 56/56/56 55/55/55 
f 55/55/55 56/56/56 56/56/56 
f 56/56/56 57/57/57 56/56/56 
f 56/56/56 57/57/57 58/58/58 
f 57/57/57 59/59/59 58/58/58 
f 58/58/58 59/59/59 59/59/59 
f 59/59/59 60/60/60 59/59/59 
f 59/59/59 60/60/60 60/60/60 
f 60/60/60 61/61/61 60/60/60 
f 60/60/60 61/61/61 62/62/62 
f 61/61/61 63/63/63 62/62/62 
f 62/62/62 63/63/63 63/63/63 
f 63/63/63 64/64/64 63/63/63 
f 63/63/63 64/64/64 64/64/64 
f 64/64/64 65/65/65 64/64/64 
f 64/64/64 65/65/65 66/66/66 
f 65/65/65 67/67/67 66/66/66 
f 66/66/66 67/67/67 67/67/67 
f 67/67/67 68/68/68 67/67/67 
f 67/67/67 68/68/68 68/68/68 
f 68/68/68 69/69/69 68/68/68 
f 68/68/68 69/69/69 70/70/70 
f 69/69/69 71/71/71 70/70/70 
f 70/70/70 71/71/71 71/71/71 
f 71/71/71 72/72/72 71/71/71 
f 71/71/71 72/72/72 72/72/72 
f 72/72/72 73/73/73 72/72/72 
f 72/72/72 73/73/73 74/74/74 
f 73/73/73 75/75/75 74/74/74 
f 74/74/74 75/75/75 75/75/75 
f 75/75/75 76/76/76 75/75/75 
f 75/75/75 76/76/76 76/76/76 
f 76/76/76 77/77/77 76/76/76 
f 76/76/76 77/77/77 78/78/78 
f 77/77/77 79/79/79 78/78/78 
f 78/78/78 79/79/79 79/79/79 
f 79/79/79 80/80/80 79/79/79 
f 79/79/79 80/80/80 80/80/80 
f 80/80/80 81/81/81 80/80/80 
f 80/80/80 81/81/81 82/82/82 
f 81/81/81 83/83/83 82/82/82 
f 82/82/82 83/83/83 83/83/83 
f 83/83/83 84/84/84 83/83/83 
f 83/83/83 84/84/84 84/84/84 
f 84/84/84 85/85/85 84/84/84 
f 84/84/84 85/85/85 86/86/86 
f 85/85/85 87/87/87 86/86/86 
f 86/86/86 87/87/87 87/87/87 
f 87/87/87 88/88/88 87/87/87 
f 87/87/87 88/88/88 88/88/88 
f 88/88/88 89/89/89 88/88/88 
f 88/88/88 89/89/89 90/90/90 
f 89/89/89 91/91/91 90/90/90 
f 90/90/90 91/91/91 91/91/91 
f 91/91/91 92/92/92 91/91/91 
f 91/91/91 92/92/92 92/92/92 
f 92/92/92 93/93/93 92/92/92 
f 92/92/92 93/93/93 94/94/94 
f 93/93/93 95/95/95 94/94/94 
f 94/94/94 95/95/95 95/95/95 
f 95/95/95 96/96/96 95/95/95 
f 95/95/95 96/96/96 96/96/96 
f 96/96/96 97/97/97 96/96/96 
f 96/96/96 97/97/97 98/98/98 
f 97/97/97 99/99/99 98/98/98 
f 98/98/98 99/99/99 99/99/99 
f 99/99/99 100/100/100 99/99/99 
f 99/99/99 100/100/100 100/100/100 
f 100/100/100 101/101/101 100/100/100 
f 100/100/100 101/101/101 102/102/102 
f 101/101/101 103/103/103 102/102/102 
f 102/102/102 103/103/103 103/103/103 
f 103/103/103 104/104/104 103/103/103 
f 103/103/103 104/104/104 104/104/104 
f 104/104/104 105/105/105 104/104/104 
f 104/104/104 105/105/105 106/106/106 
f 105/105/105 107/107/107 106/106/106 
f 106/106/106 107/107/107 107/107/107 
f 107/107/107 108/108/108 107/107/107 
f 107/107/107 108/108/108 108/108/108 
f 108/108/108 109/109/109 108/108/108 
f 108/108/108 109/109/109 110/110/110 
f 109/109/109 111/111/111 110/110/110 
f 110/110/110 111/111/111 111/111/111 
f 111/111/111 112/112/112 111/111/111 
f 111/111/111 112/112/112 112/112/112 
f 112/112/112 113/113/113 112/112/112 
f 112/112/112 113/113/113 114/114/114 
f 113/113/113 115/115/115 114/114/114 
f 114/114/114 115/115/115 115/115/115 
f 115/115/115 116/116/116 115/115/115 
f 115/115/115 116/116/116 116/116/116 
f 116/116/116 117/117/117 116/116/116 
f 116/116/116 117/117/117 118/118/118 
f 117/117/117 119/119/119 118/118/118 
f 118/118/118 119/119/119 120/120/120 
f 119/119/119 120/120/120 120/120/120 
f 120/120/120 120/120/120 121/121/121 
f 120/120/120 121/121/121 121/121/121 
f 121/121/121 121/121/121 121/121/121 
f 121/121/121 122/122/122 121/121/121 
f 121/121/121 122/122/122 123/123/123 
f 122/122/122 124/124/124 123/123/123 
f 123/123/123 124/124/124 124/124/124 
f 124/124/124 125/125/125 124/124/124 
f 124/124/124 125/125/125 125/125/125 
f 125/125/125 126/126/126 125/125/125 
f 125/125/125 126/126/126 127/127/127 
f 126/126/126 128/128/128 127/127/127 
f 127/127/127 128/128/128 128/128/128 
f 128/128/128 129/129/129 128/128/128 
f 128/128/128 129/129/129 129/129/129 
f 129/129/129 130/130/130 129/129/129 
f 129/129/129 130/130/130 131/131/131 
f 130/130/130 132/132/132 131/131/131 
f 131/131/131 132/132/132 132/132/132 
f 132/132/132 133/133/133 132/132/132 
f 132/132/132 133/133/133 133/133/133 
f 133/133/133 134/134/134 133/133/133 
f 133/133/133 134/134/134 135/135/135 
f 134/134/134 136/136/136 135/135/135 
f 135/135/135 136/136/136 136/136/136 
f 136/136/136 137/137/137 136/136/136 
f 136/136/136 137/137/137 137/137/137 
f 137/137/137 138/138/138 137/137/137 
f 137/137/137 138/138/138 139/139/139 
f 138/138/138 140/140/140 139/139/139 
f 139/139/139 140/140/140 140/140/140 
f 140/140/140 141/141/141 140/140/140 
f 140/140/140 141/141/141 141/141/141 
f 141/141/141 142/142/142 141/141/141 
f 141/141/141 142/142/142 143/143/143 
f 142/142/142 144/144/144 143/143/143 
f 143/143/143 144/144/144 144/144/144 
f 144/144/144 145/145/145 144/144/144 
f 144/144/144 145/145/145 145/145/145 
f 145/145/145 146/146/146 145/145/145 
f 145/145/145 146/146/146 147/147/147 
f 146/146/146 148/148/148 147/147/147 
f 147/147/147 148/148/148 148/148/148 
f 148/148/148 149/149/149 148/148/148 
f 148/148/148 149/149/149 149/149/149 
f 149/149/149 150/150/150 149/149/149 
f 149/149/149 150/150/150 151/151/151 
f 150/150/150 152/152/152 151/151/151 
f 151/151/151 152/152/152 152/152/152 
f 152/152/152 153/153/153 152/152/152 
f 152/152/152 153/153/153 153/153/153 
f 153/153/153 154/154/154 153/153/153 
f 153/153/153 154/154/154 155/155/155 
f 154/154/154 156/156/156 155/155/155 
f 155/155/155 156/156/156 156/156/156 
f 156/156/156 157/157/157 156/156/156 
f 156/156/156 157/157/157 157/157/157 
f 157/157/157 158/158/158 157/157/157 
f 157/157/157 158/158/158 159/159/159 
f 158/158/158 160/160/160 159/159/159 
f 159/159/159 160/160/160 160/160/160 
f 160/160/160 161/161/161 160/160/160 
f 160/160/160 161/161/161 161/161/161 
f 161/161/161 162/162/162 161/161/161 
f 161/161/161 162/162/162 163/163/163 
f 162/162/162 164/164/164 163/163/163 
f 163/163/163 164/164/164 164/164/164 
f 164/164/164 165/165/165 164/164/164 
f 164/164/164 165/165/165 165/165/165 
f 165/165/165 166/166/166 165/165/165 
f 165/165/165 166/166/166 167/167/167 
f 166/166/166 168/168/168 167/167/167 
f 167/167/167 168/168/168 168/168/168 
f 168/168/168 169/169/169 168/168/168 
f 168/168/168 169/169/169 169/169/169 
f 169/169/169 170/170/170 169/169/169 
f 169/169/169 170/170/170 171/171/171 
f 170/170/170 172/172/172 171/171/171 
f 171/171/171 172/172/172 172/172/172 
f 172/172/172 173/173/173 172/172/172 
f 172/172/172 173/173/173 173/173/173 
f 173/173/173 174/174/174 173/173/173 
f 173/173/173 174/174/174 175/175/175 
f 174/174/174 176/176/176 175/175/175 
f 175/175/175 176/176/176 176/176/176 
f 176/176/176 177/177/177 176/176/176 
f 176/176/176 177/177/177 177/177/177 
f 177/177/177 178/178/178 177/177/177 
f 177/177/177 178/178/178 179/179/179 
f 178/178/178 180/180/180 179/179/179 
f 179/179/179 180/180/180 180/180/180 
f 180/180/180 181/181/181 180/180/180 
f 180/180/180 181/181/181 181/181/181 
f 181/181/181 182/182/182 181/181/181 
f 181/181/181 182/182/182 183/183/183 
f 182/182/182 184/184/184 183/183/183 
f 183/183/183 184/184/184 184/184/184 
f 184/184/184 185/185/185 184/184/184 
f 184/184/184 185/185/185 185/185/185 
f 185/185/185 186/186/186 185/185/185 
f 185/185/185 186/186/186 187/187/187 
f 186/186/186 188/188/188 187/187/187 
f 187/187/187 188/188/188 188/188/188 
f 188/188/188 189/189/189 188/188/188 
f 188/188/188 189/189/189 189/189/189 
f 189/189/189 190/190/190 189/189/189 
f 189/189/189 190/190/190 191/191/191 
f 190/190/190 192/192/192 191/191/191 
f 191/191/191 192/192/192 192/192/192 
f 192/192/192 193/193/193 192/192/192 
f 192/192/192 193/193/193 193/193/193 
f 193/193/193 194/194/194 193/193/193 
f 193/193/193 194/194/194 195/195/195 
f 194/194/194 196/196/196 195/195/195 
f 195/195/195 196/196/196 196/196/196 
f 196/196/196 197/197/197 196/196/196 
f 196/196/196 197/197/197 197/197/197 
f 197/197/197 198/198/198 197/197/197 
f 197/197/197 198/198/198 199/199/199 
f 198/198/198 200/200/200 199/199/199 
f 199/199/199 200/200/200 200/200/200 
f 200/200/200 164/164/164 200/200/200 
f 200/200/200 164/164/164 164/164/164 
f 164/164/164 201/201/201 164/164/164 
f 164/164/164 201/201/201 202/202/202 
f 201/201/201 203/203/203 202/202/202 
f 202/202/202 203/203/203 203/203/203 
f 203/203/203 201/201/201 203/203/203 
f 203/203/203 201/201/201 204/204/204 
f 201/201/201 205/205/205 204/204/204 
f 204/204/204 205/205/205 206/206/206 
f 205/205/205 206/206/206 206/206/206 
f 206/206/206 206/206/206 206/206/206 
f 206/206/206 207/207/207 206/206/206 
f 206/206/206 207/207/207 204/204/204 
f 207/207/207 208/208/208 204/204/204 
f 204/204/204 208/208/208 208/208/208 
f 208/208/208 207/207/207 208/208/208 
f 208/208/208 207/207/207 202/202/202 
f 207/207/207 164/164/164 202/202/202 
f 209/209/209 210/210/210 211/211/211 
f 212/212/212 213/213/213 214/214/214 
f 215/215/215 216/216/216 217/217/217 
f 218/218/218 219/219/219 78/78/78 
f 220/220/220 221/221/221 222/222/222 
f 223/223/223 224/224/224 225/225/225 
f 225/225/225 226/226/226 227/227/227 
f 228/228/228 229/229/229 230/230/230 
f 231/231/231 232/232/232 223/223/223 
f 233/233/233 234/234/234 231/231/231 
f 235/235/235 233/233/233 236/236/236 
f 237/237/237 238/238/238 239/239/239 
f 240/240/240 236/236/236 241/241/241 
f 242/242/242 243/243/243 244/244/244 
f 245/245/245 246/246/246 247/247/247 
f 248/248/248 249/249/249 250/250/250 
f 251/251/251 252/252/252 253/253/253 
f 254/254/254 255/255/255 256/256/256 
f 257/257/257 258/258/258 259/259/259 
f 260/260/260 261/261/261 262/262/262 
f 263/263/263 264/264/264 265/265/265 
f 266/266/266 267/267/267 268/268/268 
f 269/269/269 270/270/270 271/271/271 
f 272/272/272 273/273/273 274/274/274 
f 275/275/275 276/276/276 277/277/277 

