mtllib model_12.mtl
o model_12
v -92.1585464477539 389.1763610839844 307.11346435546875 
v -92.1585464477539 364.54400634765625 307.11346435546875 
v -92.1585464477539 389.1763610839844 286.6289367675781 
v -92.1585464477539 364.54400634765625 286.6289367675781 
v -112.49279022216797 364.54400634765625 286.6289367675781 
v -92.1585464477539 364.54400634765625 286.6289367675781 
v -112.49279022216797 364.54400634765625 307.11346435546875 
v -92.1585464477539 364.54400634765625 307.11346435546875 
v -92.1585464477539 389.1763610839844 307.11346435546875 
v -112.49279022216797 389.1763610839844 307.11346435546875 
v -92.1585464477539 364.54400634765625 307.11346435546875 
v -112.49279022216797 364.54400634765625 307.11346435546875 
v -112.49279022216797 389.1763610839844 286.6289367675781 
v -112.49279022216797 364.54400634765625 286.6289367675781 
v -112.49279022216797 389.1763610839844 307.11346435546875 
v -112.49279022216797 364.54400634765625 307.11346435546875 
v -140.88400268554688 509.4958801269531 286.6289367675781 
v -133.5943603515625 501.9167175292969 286.6289367675781 
v -134.3616943359375 508.5484924316406 286.6289367675781 
v -140.88400268554688 509.4958801269531 223.1929931640625 
v -134.3616943359375 508.5484924316406 223.1929931640625 
v -133.5943603515625 501.9167175292969 223.1929931640625 
vn 0.999997615814209 0 0.002184694167226553 
vn 0.999997615814209 0 0.002184694167226553 
vn 0.999997615814209 0 0.002184694167226553 
vn 0.999997615814209 0 0.002184694167226553 
vn 3.097898456858039e-13 -0.999997615814209 0.002184694167226553 
vn 3.097898456858039e-13 -0.999997615814209 0.002184694167226553 
vn 3.097898456858039e-13 -0.999997615814209 0.002184694167226553 
vn 3.097898456858039e-13 -0.999997615814209 0.002184694167226553 
vn 0 0 1 
vn 0 0 1 
vn 0 0 1 
vn 0 0 1 
vn -0.999997615814209 -2.0682260971124217e-13 0.002184694167226553 
vn -0.999997615814209 -2.0682260971124217e-13 0.002184694167226553 
vn -0.999997615814209 -2.0682260971124217e-13 0.002184694167226553 
vn -0.999997615814209 -2.0682260971124217e-13 0.002184694167226553 
vn 0 0 1 
vn 0 0 1 
vn 0 0 1 
vn -2.0682311115474694e-13 0 -1 
vn -2.0682311115474694e-13 0 -1 
vn -2.0682311115474694e-13 0 -1 
vt 0.9668068289756775 -0.02930000051856041 
vt 0.00008982000144897029 -0.02930000051856041 
vt 0.9668068289756775 0.9667993187904358 
vt 0.00008982000144897029 0.9667993187904358 
vt 0.00008982000144897029 0.9667993187904358 
vt 0.9668068289756775 0.9667993187904358 
vt 0.00008982000144897029 0.000007769000148982741 
vt 0.9668068289756775 0.000007769000148982741 
vt 0.00008982000144897029 0.9667993187904358 
vt 0.9668068289756775 0.9667993187904358 
vt 0.00008982000144897029 0.000007769000148982741 
vt 0.9668068289756775 0.000007769000148982741 
vt 0.00008982000144897029 0.9667993187904358 
vt 0.9668068289756775 0.9667993187904358 
vt 0.00008982000144897029 0.000007769000148982741 
vt 0.9668068289756775 0.000007769000148982741 
vt 0.00008982000144897029 0.9667993187904358 
vt 1.5156015157699585 0.9667993187904358 
vt 0.7421256303787231 0.34379640221595764 
vt -0.5781000256538391 0.000007769000148982741 
vt 0.19333097338676453 0.5917571783065796 
vt 0.9668068289756775 0.000007769000148982741 
s on 
f 1/1/1 2/2/2 3/3/3 
f 2/2/2 4/4/4 3/3/3 
f 3/3/3 4/4/4 4/4/4 
f 4/4/4 5/5/5 4/4/4 
f 4/4/4 5/5/5 5/5/5 
f 5/5/5 6/6/6 5/5/5 
f 5/5/5 6/6/6 7/7/7 
f 6/6/6 8/8/8 7/7/7 
f 7/7/7 8/8/8 8/8/8 
f 8/8/8 9/9/9 8/8/8 
f 8/8/8 9/9/9 9/9/9 
f 9/9/9 10/10/10 9/9/9 
f 9/9/9 10/10/10 11/11/11 
f 10/10/10 12/12/12 11/11/11 
f 11/11/11 12/12/12 12/12/12 
f 12/12/12 13/13/13 12/12/12 
f 12/12/12 13/13/13 13/13/13 
f 13/13/13 14/14/14 13/13/13 
f 13/13/13 14/14/14 15/15/15 
f 14/14/14 16/16/16 15/15/15 
f 17/17/17 18/18/18 19/19/19 
f 20/20/20 21/21/21 22/22/22 

