mtllib model_14.mtl
o model_14
v -214.95899963378906 460.7137451171875 446.4000244140625 
v -194.55911254882812 460.7137451171875 446.4000244140625 
v -214.95899963378906 460.7137451171875 425.9200134277344 
v -194.55911254882812 460.7137451171875 425.9200134277344 
v -214.95899963378906 440.3139953613281 446.4000244140625 
v -214.95899963378906 460.7137451171875 446.4000244140625 
v -214.95899963378906 440.3139953613281 425.9200134277344 
v -214.95899963378906 460.7137451171875 425.9200134277344 
v -194.55911254882812 440.3139953613281 446.4000244140625 
v -214.95899963378906 440.3139953613281 446.4000244140625 
v -194.55911254882812 440.3139953613281 425.9200134277344 
v -214.95899963378906 440.3139953613281 425.9200134277344 
v -194.55911254882812 440.3139953613281 425.9200134277344 
v -194.55911254882812 460.7137451171875 425.9200134277344 
v -194.55911254882812 440.3139953613281 446.4000244140625 
v -194.55911254882812 460.7137451171875 446.4000244140625 
vn -1.0341130485562108e-13 0.999997615814209 0.002184694167226553 
vn -1.0341130485562108e-13 0.999997615814209 0.002184694167226553 
vn -1.0341130485562108e-13 0.999997615814209 0.002184694167226553 
vn -1.0341130485562108e-13 0.999997615814209 0.002184694167226553 
vn -0.999997615814209 -2.0682260971124217e-13 0.002184694167226553 
vn -0.999997615814209 -2.0682260971124217e-13 0.002184694167226553 
vn -0.999997615814209 -2.0682260971124217e-13 0.002184694167226553 
vn -0.999997615814209 -2.0682260971124217e-13 0.002184694167226553 
vn 3.097898456858039e-13 -0.999997615814209 0.002184694167226553 
vn 3.097898456858039e-13 -0.999997615814209 0.002184694167226553 
vn 3.097898456858039e-13 -0.999997615814209 0.002184694167226553 
vn 3.097898456858039e-13 -0.999997615814209 0.002184694167226553 
vn 0.999997615814209 0 0.002184694167226553 
vn 0.999997615814209 0 0.002184694167226553 
vn 0.999997615814209 0 0.002184694167226553 
vn 0.999997615814209 0 0.002184694167226553 
vt 1.2069907188415527 -0.0292549766600132 
vt 0.20899520814418793 -0.0292549766600132 
vt 1.2069907188415527 0.9668635725975037 
vt 0.20899520814418793 0.9668635725975037 
vt 1.197319507598877 -0.03319999948143959 
vt 0.19920000433921814 -0.03319999948143959 
vt 1.197319507598877 0.9647678136825562 
vt 0.19920000433921814 0.9647678136825562 
vt 1.2148021459579468 -0.01951569877564907 
vt 0.2168065756559372 -0.01951569877564907 
vt 1.2148021459579468 0.9766028523445129 
vt 0.2168065756559372 0.9766028523445129 
vt 0.2168065756559372 0.9726578593254089 
vt 1.2148021459579468 0.9726578593254089 
vt 0.2168065756559372 -0.023460721597075462 
vt 1.2148021459579468 -0.023460721597075462 
s on 
f 1/1/1 2/2/2 3/3/3 
f 2/2/2 4/4/4 3/3/3 
f 3/3/3 4/4/4 4/4/4 
f 4/4/4 5/5/5 4/4/4 
f 4/4/4 5/5/5 5/5/5 
f 5/5/5 6/6/6 5/5/5 
f 5/5/5 6/6/6 7/7/7 
f 6/6/6 8/8/8 7/7/7 
f 7/7/7 8/8/8 8/8/8 
f 8/8/8 9/9/9 8/8/8 
f 8/8/8 9/9/9 9/9/9 
f 9/9/9 10/10/10 9/9/9 
f 9/9/9 10/10/10 11/11/11 
f 10/10/10 12/12/12 11/11/11 
f 11/11/11 12/12/12 12/12/12 
f 12/12/12 13/13/13 12/12/12 
f 12/12/12 13/13/13 13/13/13 
f 13/13/13 14/14/14 13/13/13 
f 13/13/13 14/14/14 15/15/15 
f 14/14/14 16/16/16 15/15/15 

