mtllib model_17.mtl
o model_17
v -158.718994140625 312.0685729980469 204.72000122070312 
v -158.718994140625 295.9150085449219 204.72000122070312 
v -142.57374572753906 312.0685729980469 204.72000122070312 
v -142.57374572753906 295.9150085449219 204.72000122070312 
v -66.94599914550781 466.8735046386719 204.72000122070312 
v -66.94599914550781 450.7199401855469 204.72000122070312 
v -50.800750732421875 466.8735046386719 204.72000122070312 
v -50.800750732421875 450.7199401855469 204.72000122070312 
vn 0 0 1 
vn 0 0 1 
vn 0 0 1 
vn 0 0 1 
vn 0 0 1 
vn 0 0 1 
vn 0 0 1 
vn 0 0 1 
vt 0 0 
vt 0 0.9668002128601074 
vt 0.9668002128601074 0 
vt 0.9668002128601074 0.9668002128601074 
vt 0.9668002128601074 0 
vt 0 0 
vt 0.9668002128601074 0.9668002128601074 
vt 0 0.9668002128601074 
s on 
f 1/1/1 2/2/2 3/3/3 
f 2/2/2 4/4/4 3/3/3 
f 3/3/3 4/4/4 4/4/4 
f 4/4/4 5/5/5 4/4/4 
f 4/4/4 5/5/5 5/5/5 
f 5/5/5 6/6/6 5/5/5 
f 5/5/5 6/6/6 7/7/7 
f 6/6/6 8/8/8 7/7/7 

